<?xml version="1.0" encoding="utf-8"?>
<!-- Generator: Adobe Illustrator 21.0.2, SVG Export Plug-In . SVG Version: 6.00 Build 0)  -->
<svg version="1.1" id="Layer_1" xmlns="http://www.w3.org/2000/svg" xmlns:xlink="http://www.w3.org/1999/xlink" x="0px" y="0px"
	 viewBox="0 0 730.8 478.2" style="enable-background:new 0 0 730.8 478.2;" xml:space="preserve">
<style type="text/css">
	.st0{display:none;}
	.st1{display:inline;fill:#EFEFEF;}
	.st2{display:inline;fill:#EF2648;}
	.st3{display:inline;fill:#154D84;}
	.st4{display:inline;fill:#555654;}
	.st5{display:inline;fill:#EF2648;stroke:#EF2648;stroke-width:3.7889;stroke-miterlimit:10;}
	.st6{display:inline;fill:none;stroke:#525D67;stroke-width:18;stroke-miterlimit:10;}
	.st7{display:inline;fill:#525D67;}
	.st8{display:inline;fill:none;stroke:#525D67;stroke-width:11.2615;stroke-miterlimit:10;}
	.st9{display:inline;fill:#EC2C55;}
	.st10{display:inline;fill:none;stroke:#EC2C55;stroke-width:18;stroke-miterlimit:10;}
	.st11{display:inline;fill:none;stroke:#525D67;stroke-width:12.0531;stroke-miterlimit:10;}
	.st12{display:inline;fill:#525D67;stroke:#525D67;stroke-width:3.3481;stroke-miterlimit:10;}
	.st13{display:inline;fill:#F81626;stroke:#F81626;stroke-width:8.1641;stroke-miterlimit:10;}
	.st14{display:inline;fill:none;stroke:#525D67;stroke-width:16.9612;stroke-miterlimit:10;}
	.st15{display:inline;}
	.st16{fill:#525D67;}
	.st17{fill:#545554;}
	.st18{display:inline;fill:none;stroke:#525D67;stroke-width:10.2123;stroke-miterlimit:10;}
	.st19{display:inline;fill:#CE3C51;stroke:#9B1B37;stroke-width:9.1207;stroke-miterlimit:10;}
	.st20{display:inline;fill:#F9D43A;}
	.st21{display:inline;opacity:0.3;fill:#514042;enable-background:new    ;}
	.st22{display:inline;fill:#69A86D;}
	.st23{display:inline;opacity:0.6;fill:#576B67;enable-background:new    ;}
	.st24{display:inline;fill:#618C67;}
	.st25{display:inline;opacity:0.4;fill:#576B67;enable-background:new    ;}
	.st26{display:inline;opacity:0.3;fill:#F7C6CB;enable-background:new    ;}
	.st27{display:inline;fill:#F9EDBB;}
	.st28{display:inline;fill:#E04457;stroke:#C12B44;stroke-width:9.1442;stroke-miterlimit:10;}
	.st29{display:inline;fill:#797C79;}
	.st30{display:inline;fill:#8A8E8A;}
	.st31{fill:#4F5151;}
	.st32{display:inline;fill:#E5E5E5;}
	.st33{display:inline;fill:#ED3AE8;}
	.st34{display:inline;fill:#F25CCF;}
	.st35{fill:#D305C4;}
	.st36{display:inline;fill:#FFDEFE;}
	.st37{fill:#F9F9F9;}
	.st38{fill:#EAEAEA;}
	.st39{fill:#DDDDDD;}
	.st40{fill:#F2F2F2;}
	.st41{fill:#FFFFFF;}
	.st42{fill:none;stroke:#E5E5E5;stroke-width:18;stroke-miterlimit:10;}
	.st43{fill:none;stroke:#E5E5E5;stroke-width:21;stroke-miterlimit:10;}
	.st44{fill:#F7DD6D;}
	.st45{fill:#F3F3F3;}
</style>
<g id="Layer_1_1_" class="st0">
	<path class="st1" d="M1107.8,1570.3v145.4c0,3.9-3.2,7-7,7H859.4c-3.9,0-7-3.2-7-7v-145.4c0-3.9,3.2-7,7-7h241.4
		C1104.6,1563.3,1107.8,1566.4,1107.8,1570.3z"/>
	<path class="st2" d="M1108,1634.7c0-2.3-1.9-4.2-4.2-4.2H992.9v-63.2c0-2.1-1.7-3.8-3.8-3.8H984c-0.2,0-0.4,0-0.6,0.1
		c-0.2,0-0.4-0.1-0.6-0.1h-5.1c-0.2,0-0.4,0-0.6,0.1c-0.2,0-0.4-0.1-0.6-0.1h-5.1c-2.1,0-3.8,1.7-3.8,3.8v63.3H856.8
		c-2.3,0-4.2,1.9-4.2,4.2v4.2c0,0.4,0.1,0.7,0.2,1.1c-0.1,0.3-0.2,0.7-0.2,1.1v4.2c0,0.4,0.1,0.7,0.2,1.1c-0.1,0.3-0.2,0.7-0.2,1.1
		v4.2c0,2.3,1.9,4.2,4.2,4.2h110.9v63.3c0,2.1,1.7,3.8,3.8,3.8h5.1c0.2,0,0.4,0,0.6-0.1c0.2,0,0.4,0.1,0.6,0.1h5.1
		c0.2,0,0.4,0,0.6-0.1c0.2,0,0.4,0.1,0.6,0.1h5.1c2.1,0,3.8-1.7,3.8-3.8v-63.3h110.9c2.3,0,4.2-1.9,4.2-4.2v-4.5
		c0-0.4-0.1-0.7-0.2-1.1c0.1-0.3,0.2-0.7,0.2-1.1v-4.2c0-0.4-0.1-0.7-0.2-1.1c0.1-0.3,0.2-0.7,0.2-1.1L1108,1634.7L1108,1634.7z"/>
	<path class="st3" d="M1107.8,1668.3v33.3l-48.3-27.5c-2.8-1.6-1.7-5.8,1.5-5.8H1107.8z"/>
	<path class="st3" d="M1094,1722.7h-88.4v-46.2l0,0c0-1.8,2-2.9,3.6-2L1094,1722.7z"/>
	<path class="st3" d="M1107.8,1617.7v-33.3l-48.3,27.5c-2.8,1.6-1.7,5.8,1.5,5.8H1107.8z"/>
	<path class="st3" d="M1094,1563.3h-88.4v46.2l0,0c0,1.8,2,2.9,3.6,2L1094,1563.3z"/>
	<path class="st3" d="M852.4,1617.7v-33.3l48.3,27.5c2.8,1.6,1.7,5.8-1.5,5.8H852.4z"/>
	<path class="st3" d="M866.1,1563.3h88.4v46.2l0,0c0,1.8-2,2.9-3.6,2L866.1,1563.3z"/>
	<path class="st3" d="M852.4,1668.3v33.3l48.3-27.5c2.8-1.6,1.7-5.8-1.5-5.8H852.4z"/>
	<path class="st3" d="M866.1,1722.7h88.4v-46.2l0,0c0-1.8-2-2.9-3.6-2L866.1,1722.7z"/>
</g>
<g id="Layer_2" class="st0">
	<path class="st4" d="M847,1545.2v-0.4v-4.3C847.3,1541.9,847.3,1543.6,847,1545.2z"/>
	<path class="st1" d="M1107.8,1571.2v144.5c0,3.8-3.1,7-7,7H861c-3.8,0-7-3.1-7-7v-144.5c0-3.8,3.1-7,7-7h239.8
		C1104.7,1564.2,1107.8,1567.3,1107.8,1571.2z"/>
	<path class="st2" d="M1108,1635.2c0-2.3-1.9-4.2-4.2-4.2H993.6v-62.8c0-2.1-1.7-3.7-3.7-3.7h-5c-0.2,0-0.4,0-0.6,0.1
		c-0.2,0-0.4-0.1-0.6-0.1h-5c-0.2,0-0.4,0-0.6,0.1c-0.2,0-0.4-0.1-0.6-0.1h-5c-2.1,0-3.7,1.7-3.7,3.7v62.8H858.4
		c-2.3,0-4.2,1.9-4.2,4.2v4.1c0,0.4,0.1,0.7,0.1,1c-0.1,0.3-0.1,0.7-0.1,1.1v4.1c0,0.4,0.1,0.7,0.1,1c-0.1,0.3-0.1,0.7-0.1,1.1v4.1
		c0,2.3,1.9,4.2,4.2,4.2h110.2v62.8c0,2.1,1.7,3.7,3.7,3.7h5c0.2,0,0.4,0,0.6-0.1c0.2,0,0.4,0.1,0.6,0.1h5c0.2,0,0.4,0,0.6-0.1
		c0.2,0,0.4,0.1,0.6,0.1h5c2.1,0,3.7-1.7,3.7-3.7v-62.8h110.2c2.3,0,4.2-1.9,4.2-4.2v-4.1c0-0.4-0.1-0.7-0.1-1.1
		c0.1-0.3,0.1-0.7,0.1-1v-4.1c0-0.4-0.1-0.7-0.1-1.1c0.1-0.3,0.1-0.7,0.1-1v-4.1H1108z"/>
	<path class="st5" d="M1072.3,1592.6c0-0.4-0.3-0.7-0.7-0.7h-18.3v-10.4c0-0.3-0.3-0.6-0.6-0.6h-0.8h-0.1h-0.1h-0.8h-0.1h-0.1h-0.8
		c-0.3,0-0.6,0.3-0.6,0.6v10.4h-18.4c-0.4,0-0.7,0.3-0.7,0.7v0.7c0,0.1,0,0.1,0,0.2c0,0.1,0,0.1,0,0.2v0.7c0,0.1,0,0.1,0,0.2
		c0,0.1,0,0.1,0,0.2v0.7c0,0.4,0.3,0.7,0.7,0.7h18.3v10.4c0,0.3,0.3,0.6,0.6,0.6h0.8h0.1h0.1h0.8h0.1h0.1h0.8c0.3,0,0.6-0.3,0.6-0.6
		v-10.4h18.3c0.4,0,0.7-0.3,0.7-0.7v-0.7c0-0.1,0-0.1,0-0.2c0-0.1,0-0.1,0-0.2v-0.7c0-0.1,0-0.1,0-0.2c0-0.1,0-0.1,0-0.2v-0.7
		H1072.3z"/>
	<path class="st5" d="M1072.3,1686.1c0-0.4-0.3-0.7-0.7-0.7h-18.3v-10.4c0-0.3-0.3-0.6-0.6-0.6h-0.8h-0.1h-0.1h-0.8h-0.1h-0.1h-0.8
		c-0.3,0-0.6,0.3-0.6,0.6v10.4h-18.4c-0.4,0-0.7,0.3-0.7,0.7v0.7c0,0.1,0,0.1,0,0.2c0,0.1,0,0.1,0,0.2v0.7c0,0.1,0,0.1,0,0.2
		c0,0.1,0,0.1,0,0.2v0.7c0,0.4,0.3,0.7,0.7,0.7h18.3v10.4c0,0.3,0.3,0.6,0.6,0.6h0.8h0.1h0.1h0.8h0.1h0.1h0.8c0.3,0,0.6-0.3,0.6-0.6
		v-10.4h18.3c0.4,0,0.7-0.3,0.7-0.7v-0.7c0-0.1,0-0.1,0-0.2c0-0.1,0-0.1,0-0.2v-0.7c0-0.1,0-0.1,0-0.2c0-0.1,0-0.1,0-0.2v-0.7
		H1072.3z"/>
	<path class="st5" d="M929.2,1592.6c0-0.4-0.3-0.7-0.7-0.7h-18.3v-10.4c0-0.3-0.3-0.6-0.6-0.6h-0.8h-0.1h-0.1h-0.8h-0.1h-0.1h-0.8
		c-0.3,0-0.6,0.3-0.6,0.6v10.4h-18.3c-0.4,0-0.7,0.3-0.7,0.7v0.7c0,0.1,0,0.1,0,0.2c0,0.1,0,0.1,0,0.2v0.7c0,0.1,0,0.1,0,0.2
		c0,0.1,0,0.1,0,0.2v0.7c0,0.4,0.3,0.7,0.7,0.7h18.3v10.4c0,0.3,0.3,0.6,0.6,0.6h0.8h0.1h0.1h0.8h0.1h0.1h0.8c0.3,0,0.6-0.3,0.6-0.6
		v-10.4h18.3c0.4,0,0.7-0.3,0.7-0.7v-0.7c0-0.1,0-0.1,0-0.2c0-0.1,0-0.1,0-0.2v-0.7c0-0.1,0-0.1,0-0.2c0-0.1,0-0.1,0-0.2V1592.6z"/>
	<path class="st5" d="M929.2,1686.1c0-0.4-0.3-0.7-0.7-0.7h-18.3v-10.4c0-0.3-0.3-0.6-0.6-0.6h-0.8h-0.1h-0.1h-0.8h-0.1h-0.1h-0.8
		c-0.3,0-0.6,0.3-0.6,0.6v10.4h-18.3c-0.4,0-0.7,0.3-0.7,0.7v0.7c0,0.1,0,0.1,0,0.2c0,0.1,0,0.1,0,0.2v0.7c0,0.1,0,0.1,0,0.2
		c0,0.1,0,0.1,0,0.2v0.7c0,0.4,0.3,0.7,0.7,0.7h18.3v10.4c0,0.3,0.3,0.6,0.6,0.6h0.8h0.1h0.1h0.8h0.1h0.1h0.8c0.3,0,0.6-0.3,0.6-0.6
		v-10.4h18.3c0.4,0,0.7-0.3,0.7-0.7v-0.7c0-0.1,0-0.1,0-0.2c0-0.1,0-0.1,0-0.2v-0.7c0-0.1,0-0.1,0-0.2c0-0.1,0-0.1,0-0.2V1686.1z"/>
</g>
<g id="Layer_3" class="st0">
	<path class="st3" d="M872.4,1510.7c-29.1,42.8-18,101.4,24.8,130.5c38.8,26.4,90.5,19.8,121.5-13.6l66.9,45.5
		c3.2,2.2,7.1,2.9,10.6,2.2c3.6-0.7,6.9-2.7,9.1-5.9c4.4-6.5,2.7-15.3-3.7-19.7l-66.8-45.4c19.8-41.2,7.1-92-31.8-118.4
		C960.1,1456.7,901.6,1467.8,872.4,1510.7z M1015,1590.8c-1.8,4.2-4,8.4-6.7,12.3c-2.8,4.1-5.9,7.8-9.3,11.1
		c-23.5,22.7-60.4,26.6-88.4,7.5c-32.1-21.8-40.4-65.6-18.6-97.7c21.8-32.1,65.7-40.4,97.7-18.6
		C1017.8,1524.4,1027.7,1560.6,1015,1590.8z"/>
</g>
<g id="Layer_4" class="st0">
	<circle class="st3" cx="888.7" cy="1580.9" r="32.7"/>
	<circle class="st3" cx="982" cy="1580.9" r="32.7"/>
	<circle class="st3" cx="1075.3" cy="1580.9" r="32.7"/>
</g>
<g id="Layer_5" class="st0">
	<circle class="st6" cx="982.5" cy="1578.1" r="107.5"/>
	<path class="st7" d="M953.9,1549.3v57.4c0,6.4,6.9,10.4,12.4,7.2l49.7-28.7c5.5-3.2,5.5-11.2,0-14.4l-49.6-28.7
		C960.8,1538.9,953.9,1542.9,953.9,1549.3z"/>
</g>
<g id="Layer_6" class="st0">
	<circle class="st8" cx="982.7" cy="1577.9" r="109.7"/>
	<path class="st7" d="M942.5,1534.8v86.3c0,9.6,10.4,15.6,18.7,10.8l74.7-43.1c8.3-4.8,8.3-16.8,0-21.6l-74.7-43.2
		C952.9,1519.2,942.5,1525.2,942.5,1534.8z"/>
</g>
<g id="Layer_7" class="st0">
	<path class="st7" d="M930.3,1576.1c0,14.9,12,26.9,26.9,26.9c6.5,0,12.4-2.3,17.1-6.1c4-3.3,9.8-3.3,13.8,0
		c4.6,3.8,10.6,6.1,17.1,6.1c14.9,0,26.9-12,26.9-26.9c-0.1-28.1-45.2-58.8-50.9-58.8C975.4,1517.3,930.3,1547.8,930.3,1576.1z"/>
	<path class="st7" d="M1003.6,1638.6h-44.9c-3.1,0-4.6-3.7-2.5-5.9c10.8-11.1,19.4-22.5,25-22.5c5.6,0,14.2,11.4,24.9,22.5
		C1008.2,1634.8,1006.6,1638.6,1003.6,1638.6z"/>
	<circle class="st6" cx="982.1" cy="1578.1" r="104.4"/>
</g>
<g id="Layer_8" class="st0">
	<path class="st9" d="M997,1582.8h25.1v-26.2H997v-35.9h33.1l-5.2-28.3h-30.8l-28.2,56.6v95.1h57.7l5.2-28.3H997V1582.8z
		 M965.9,1492.3v33.8l26.3-33.8C992.2,1492.3,965.9,1492.3,965.9,1492.3z"/>
	<circle class="st10" cx="992.8" cy="1568.3" r="115"/>
</g>
<g id="Layer_9" class="st0">
	<circle class="st11" cx="996.5" cy="1563.8" r="113.5"/>
	<path class="st12" d="M1049.1,1616.3L1049.1,1616.3c-2.2,2.2-5.8,2.2-8,0l-44.2-44.2l-44.2,44.2c-2.2,2.2-5.8,2.2-8,0l0,0
		c-2.2-2.2-2.2-5.8,0-8l44.2-44.2l-44.3-44.3c-2.2-2.2-2.2-5.8,0-8l0,0c2.2-2.2,5.8-2.2,8,0l44.2,44.2l44.2-44.2
		c2.2-2.2,5.8-2.2,8,0l0,0c2.2,2.2,2.2,5.8,0,8l-44.2,44.2l44.2,44.2C1051.3,1610.6,1051.3,1614.2,1049.1,1616.3z"/>
</g>
<g id="Layer_10" class="st0">
	<path class="st13" d="M997.4,1525.3l-37.6,30.2l13.1,46.5h47.4 M997.4,1525.3l-37.6,30.2l13.1,46.5h47.4l14.7-46.5L997.4,1525.3z
		 M997.1,1448.6c-63.6-0.1-115.1,51.5-115.1,115.1c0.1,63.2,51.7,114.8,114.9,114.9c63.6,0.1,115.1-51.5,115.1-115.1
		C1111.9,1500.3,1060.3,1448.6,997.1,1448.6z M1043.1,1622.4l-16,42.5c-9.6,2.8-19.6,4.3-30.1,4.3s-20.5-1.5-30.1-4.3l-15.2-40.9
		l-41.2,0.4c-11.3-16-18.3-35.4-19.2-56.3l36.7-28.1l-15.1-40.7c12.1-15.8,28.3-27.9,47.1-35l37.4,26.7l36.6-26.7
		c18.9,7.1,35,19.2,47.1,35l-16.7,42.3l38.4,26.6c-0.9,20.9-7.9,40.3-19.2,56.3L1043.1,1622.4z M997.4,1525.3l-37.6,30.2l13.1,46.5
		h47.4 M959.9,1555.6l13.1,46.5h47.4 M959.9,1555.6l13.1,46.5h47.4"/>
</g>
<g id="Layer_11" class="st0">
	<circle class="st6" cx="998.5" cy="1564.1" r="110.5"/>
	<circle class="st7" cx="999.2" cy="1511.3" r="22.2"/>
	<circle class="st7" cx="999.2" cy="1617.4" r="22.2"/>
	<circle class="st7" cx="1052.3" cy="1564.3" r="22.2"/>
	<circle class="st7" cx="999.9" cy="1564.8" r="9.7"/>
	<circle class="st7" cx="946.2" cy="1564.3" r="22.2"/>
</g>
<g id="Layer_12" class="st0">
	<circle class="st7" cx="1000.2" cy="1574.8" r="32"/>
	<path class="st14" d="M932,1545.8c11.8-27.2,39.3-45.8,70.7-44.7c29.3,0.9,54,18.6,65.4,43.6"/>
	<path class="st14" d="M889.7,1528.1c19.2-43.6,63.5-73.4,114.1-71.8c47,1.5,86.9,29.8,105.5,69.7"/>
	<path class="st14" d="M1098.7,1675.3H901.8c-6.2,0-11.3-5.1-11.3-11.3v-71.6c0-6.2,5.1-11.3,11.3-11.3h196.9
		c6.2,0,11.3,5.1,11.3,11.3v71.6C1110,1670.2,1104.9,1675.3,1098.7,1675.3z"/>
</g>
<g id="Layer_13" class="st0">
	<g class="st15">
		<path class="st16" d="M1082.4,1455.8l-0.3-0.3l-0.3-0.3c-5.6-5.3-24.9-6.9-30.4-6.5c-7.9,0.6-12.6,6.6-16.1,11
			c-0.7,0.9-1.8,2.3-2.5,3h-63.2c-0.7-0.7-1.7-2-2.5-3c-3.4-4.4-8.2-10.4-16.1-11c-5.4-0.4-26.2,1.3-31.8,6.5l-0.3,0.3l-0.3,0.3
			c-58.2,61.8-38.4,132.9,1.4,144.1h0.2l20.3,6.1c1.2,0.2,2.4,0.3,3.5,0.3c7.5,0,13.8-3.8,17.9-10.9c3.4-5.8,4.8-12.8,5.8-17.8
			c0-0.2,0.1-0.5,0.1-0.7h66.6c0.1,0.3,0.1,0.5,0.1,0.7c1,5.1,2.4,12,5.8,17.8c4.1,7.1,10.4,10.9,17.9,10.9c1.1,0,2.3-0.1,3.5-0.3
			l21.8-6.1h0.2c8.8-1.7,15.1-6.8,20.4-13.1C1125.8,1561.7,1124.4,1505.6,1082.4,1455.8z M1092,1578.8c-8.7,9.2-32.3,12.8-32.3,12.8
			c-5.3,0.8-7.9-3.4-10.7-16.9c-0.4-2.1-0.8-4-1.3-5.5c-2-6.3-6.4-7-8.3-7H963c-1.8,0-6.3,0.7-8.3,7c-0.5,1.5-0.9,3.4-1.3,5.5
			c-2.7,13.5-5.3,17.7-10.7,16.9l-20-6.1c-5-1-19.1-14.4-24.2-29.8c0,0-13.2-42.5,31-90.1c2.5-2.3,19.7-2.3,20.4-2.3
			c1.4,0.1,4.1,3.4,5.7,5.4c3,3.8,6.8,8.5,12.7,8.5h65.7c6,0,9.7-4.7,12.7-8.5c1.6-2,4.2-5.3,5.7-5.4c0.8-0.1,16.5,0,19,2.3
			c39.7,47,31.6,87.2,31.6,87.2C1100.9,1563.8,1096.7,1573.9,1092,1578.8z"/>
	</g>
	<path class="st7" d="M970.3,1522.6c0,2.3-1,4.4-2.5,6c-1.5,1.5-3.6,2.5-6,2.5h-6.7v5.2c0,4.6-3.8,8.4-8.4,8.4
		c-4.6,0-8.4-3.8-8.4-8.4v-5.2h-5.8c-4.6,0-8.4-3.8-8.4-8.4s3.8-8.4,8.4-8.4h5.8v-7.3c0-4.6,3.8-8.4,8.4-8.4c2.3,0,4.4,0.9,6,2.5
		c1.5,1.5,2.5,3.6,2.5,6v7.3h6.7C966.5,1514.2,970.3,1517.9,970.3,1522.6z"/>
	
		<ellipse transform="matrix(0.7071 -0.7071 0.7071 0.7071 -753.6813 1185.9595)" class="st7" cx="1054.7" cy="1502.8" rx="8.4" ry="8.4"/>
	
		<ellipse transform="matrix(0.7071 -0.7071 0.7071 0.7071 -761.7098 1205.5656)" class="st7" cx="1074.4" cy="1522.2" rx="8.4" ry="8.4"/>
	
		<ellipse transform="matrix(0.7071 -0.7071 0.7071 0.7071 -773.9434 1177.0981)" class="st7" cx="1033.9" cy="1522.8" rx="8.4" ry="8.4"/>
	
		<ellipse transform="matrix(0.7071 -0.7071 0.7071 0.7071 -782.5564 1197.8209)" class="st7" cx="1054.6" cy="1543.5" rx="8.4" ry="8.4"/>
</g>
<g id="Layer_14" class="st0">
	<g class="st15">
		<path class="st16" d="M932.6,1448.3v38.2h-50.4v87.6c0,17.6,14.2,32,31.8,32.2c0.6,0,1.1,0,1.7-0.1l-0.1,0.1H1060
			c17.8,0,32.2-14.4,32.2-32.2v-125.8H932.6z M914.5,1592.9h-0.8c0.1,0,0.2,0,0.3,0c-10.2-0.3-18.5-8.7-18.5-18.9v-74.4h37.1v74.4
			c0,10.3-8.2,18.7-18.5,18.9C914.3,1592.9,914.4,1592.9,914.5,1592.9z M1079,1574.1c0,10.4-8.5,18.9-18.9,18.9H945.9v-131.4H1079
			V1574.1z"/>
	</g>
	<g class="st15">
		<path class="st17" d="M916.2,1606.3c-0.1,0-0.3,0-0.4,0h0.8C916.5,1606.3,916.4,1606.3,916.2,1606.3z"/>
	</g>
	<path class="st18" d="M1001.1,1518.1h-26.7c-2.8,0-5-2.3-5-5v-26.2c0-2.8,2.3-5,5-5h26.7c2.8,0,5,2.3,5,5v26.3
		C1006.1,1515.8,1003.9,1518.1,1001.1,1518.1z"/>
	<path class="st7" d="M1057.5,1495.4h-23.9c-1.9,0-3.4-1.5-3.4-3.4v-5.3c0-1.9,1.5-3.4,3.4-3.4h23.9c1.9,0,3.4,1.5,3.4,3.4v5.3
		C1060.9,1493.8,1059.4,1495.4,1057.5,1495.4z"/>
	<path class="st7" d="M1057.5,1520.3h-23.9c-1.9,0-3.4-1.5-3.4-3.4v-5.3c0-1.9,1.5-3.4,3.4-3.4h23.9c1.9,0,3.4,1.5,3.4,3.4v5.3
		C1060.9,1518.8,1059.4,1520.3,1057.5,1520.3z"/>
	<path class="st7" d="M1054.8,1553.3h-84.3c-3.4,0-6.1-2.7-6.1-6.1l0,0c0-3.4,2.7-6.1,6.1-6.1h84.3c3.4,0,6.1,2.7,6.1,6.1l0,0
		C1060.9,1550.4,1058.2,1553.3,1054.8,1553.3z"/>
	<path class="st7" d="M1054.8,1579.3h-84.3c-3.4,0-6.1-2.7-6.1-6.1l0,0c0-3.4,2.7-6.1,6.1-6.1h84.3c3.4,0,6.1,2.7,6.1,6.1l0,0
		C1060.9,1576.4,1058.2,1579.3,1054.8,1579.3z"/>
</g>
<g id="Layer_15" class="st0">
	<path class="st19" d="M1052.1,1540.3c0,33.2-30,60-66.9,60c-36.9,0-66.9-26.9-66.9-60c0-21.7,12.9-40.7,32.1-51.3
		c10.2-5.6,22.1-8.8,34.8-8.8c13.3,0,25.7,3.5,36.1,9.5C1039.8,1500.3,1052.1,1518.9,1052.1,1540.3z"/>
	<path class="st20" d="M994.7,1539.1c0-7.3,5.9,0.2,13.2,0.2c7.3,0,13.2-7.5,13.2-0.2c0,7.3-5.9,13.2-13.2,13.2
		C1000.6,1552.3,994.7,1546.3,994.7,1539.1z"/>
	<path class="st20" d="M949.1,1539.1c0-7.3,5.7,0.2,13,0.2c7.3,0,13.5-7.5,13.5-0.2c0,7.3-5.9,13.2-13.2,13.2
		C955.1,1552.3,949.1,1546.3,949.1,1539.1z"/>
	<path class="st21" d="M977.8,1475.4c13.3-0.4,29.1,2.2,40.4,7.4c-0.5,1-5.4,8.6-6.1,9.5c-0.6,0.7-1.3,1.6-2.1,2.5
		c0.9,1,1.6,1.9,2.2,2.7c6.4,8.3,9.9,25.1,1.6,31.6c-8.3,6.4-25.1,0-31.6-8.3c-1-1.3-2.2-2.9-3.6-4.9c0.1-0.2,0.2-0.4,0.4-0.6
		c0.8,0,1.5-0.1,2.3-0.3c-0.8,0.2-1.5,0.2-2.3,0.3c-0.2,0-0.4,0-0.6,0c-0.1,0-0.1,0-0.2,0c-0.9,0-1.7-0.1-2.6-0.3
		c0.9,0.2,1.7,0.3,2.6,0.3c0.1,0.2,0.2,0.4,0.4,0.5c-1.3,2-2.6,3.6-3.6,4.9c-6.2,8.4-28,19.7-36.3,13.3c-8.3-6.4,0.2-28.2,6.6-36.5
		c0.6-0.7,1.3-1.6,2.1-2.5c-0.9-1-1.6-1.9-2.2-2.7l-3-3.9C942.2,1488.6,961.7,1475.9,977.8,1475.4z"/>
	<path class="st22" d="M1013.4,1522.4c-6.5,5.1-19.7,0-24.8-6.5c-0.8-1-1.7-2.3-2.8-3.9c0.1-0.1,0.2-0.3,0.3-0.4
		c0.6,0,1.2-0.1,1.8-0.2c-0.6,0.1-1.2,0.2-1.8,0.2c-0.1,0-0.3,0-0.4,0c-0.1,0-0.1,0-0.2,0c-0.7,0-1.4-0.1-2.1-0.2
		c0.7,0.2,1.4,0.2,2.1,0.2c0.1,0.1,0.2,0.3,0.3,0.4c-1,1.5-2,2.9-2.8,3.9c-5,6.5-22.2,15.4-28.6,10.4c-6.5-5,0.1-22.2,5.2-28.6
		c0.4-0.6,1-1.2,1.6-1.9c-0.7-0.8-1.3-1.5-1.7-2.1c-5.1-6.5-5.5-17.4,1-22.5c6.5-5,17.4-2.3,22.5,4.2c0.8,1,1.7,2.3,2.8,3.9
		c-0.1,0.1-0.2,0.3-0.3,0.4c-0.6,0-1.2,0.1-1.8,0.2c0.6-0.1,1.2-0.2,1.8-0.2c0.1,0,0.3,0,0.4,0c0.1,0,0.1,0,0.2,0
		c0.7,0,1.3,0.1,2,0.2c-0.7-0.2-1.3-0.2-2-0.2c-0.1-0.1-0.2-0.3-0.3-0.4c1-1.5,2-2.9,2.8-3.9c5.1-6.5,14.4-7.6,20.9-2.6
		c6.5,5.1,7.6,14.4,2.6,20.9c-0.4,0.6-1,1.2-1.6,1.9c0.7,0.8,1.3,1.5,1.8,2.1C1017.1,1504.2,1019.9,1517.4,1013.4,1522.4z"/>
	<path class="st23" d="M1002.1,1512.9c-3.9,3.1-12,0-15.1-3.9c-0.5-0.6-1.1-1.4-1.7-2.3c0.1-0.1,0.1-0.2,0.2-0.3
		c0.4,0,0.7-0.1,1.1-0.1c-0.4,0.1-0.7,0.1-1.1,0.1c-0.1,0-0.2,0-0.3,0h-0.1c-0.4,0-0.8-0.1-1.3-0.1c0.4,0.1,0.8,0.1,1.3,0.1
		c0.1,0.1,0.1,0.2,0.2,0.3c-0.6,0.9-1.2,1.7-1.7,2.3c-3.1,4-13.5,9.4-17.5,6.3c-3.9-3.1,0.1-13.5,3.2-17.5c0.3-0.4,0.6-0.7,1-1.2
		c-0.4-0.5-0.8-0.9-1.1-1.3c-3.1-4-3.3-10.6,0.6-13.7c4-3.1,10.6-1.4,13.7,2.6c0.5,0.6,1.1,1.4,1.7,2.3c-0.1,0.1-0.1,0.2-0.2,0.3
		c-0.4,0-0.7,0.1-1.1,0.1c0.4-0.1,0.7-0.1,1.1-0.1c0.1,0,0.2,0,0.3,0h0.1c0.4,0,0.8,0.1,1.2,0.1c-0.4-0.1-0.8-0.1-1.2-0.1
		c-0.1-0.1-0.1-0.2-0.2-0.3c0.6-0.9,1.2-1.7,1.7-2.3c3.1-3.9,8.8-4.7,12.7-1.6c4,3.1,4.7,8.8,1.6,12.7c-0.3,0.4-0.6,0.7-1,1.2
		c0.4,0.5,0.8,0.9,1.1,1.3C1004.4,1501.8,1006,1509.8,1002.1,1512.9z"/>
	<path class="st24" d="M1010.9,1471.8c-0.7,0.5-1.5,1-2.1,1.5c-16.6,12.5-16,27.7-26.4,23.3c-0.2-0.1-0.3-0.1-0.5-0.2
		c-12.5-5.8-3.5-29.9,0.1-37.9c3.7-8,13.1-11.4,21.1-7.7C1011.1,1454.3,1018.1,1466.8,1010.9,1471.8z"/>
	<path class="st25" d="M1008.7,1473.3c-16.5,12.4-15.9,27.6-26.3,23.2c1.4-6.3,3.8-12.3,5.3-15.5
		C991.4,1473.2,1000.8,1469.7,1008.7,1473.3z"/>
	
		<ellipse transform="matrix(0.9721 -0.2345 0.2345 0.9721 -328.7647 286.2808)" class="st26" cx="1039.4" cy="1525.6" rx="12.3" ry="16.7"/>
	<path class="st27" d="M1017.1,1578.9c-11.1,1.7-21,0.3-27.6-3.6c-2.5-1.5-3.8-3.7-4.2-6c-0.4,2.3-1.7,4.6-4.2,6
		c-6.6,3.9-16.5,5.3-27.6,3.6c-19.6-3.1-16.2-19.7-16.2-19.7s-1.6,18.2,18.6,6.2c8.2-4.9,15.3-6.3,20.8-6.3c4.9,0,8,3.5,8.6,7.4
		c0.6-3.9,3.8-7.4,8.6-7.4c5.5,0,12.6,1.4,20.8,6.3c20.1,12,18.6-6.2,18.6-6.2S1036.8,1575.8,1017.1,1578.9z"/>
</g>
<g id="Layer_16" class="st0">
	<path class="st28" d="M1052.2,1540.2c0,33.2-30,60.2-67.1,60.2c-37.1,0-67.1-26.9-67.1-60.2c0-21.8,12.9-40.8,32.2-51.4
		c10.2-5.6,22.1-8.8,34.9-8.8c13.3,0,25.8,3.5,36.2,9.5C1039.9,1500.2,1052.2,1518.8,1052.2,1540.2z"/>
	<path class="st20" d="M975.5,1553.4c0,7.3-5.9-0.2-13.3-0.2c-7.4,0-13.2,7.5-13.2,0.2c0-7.3,5.9-13.3,13.3-13.3
		C969.7,1540.2,975.5,1546.2,975.5,1553.4z"/>
	<path class="st20" d="M1021.3,1553.4c0,7.3-5.7-0.2-13.1-0.2c-7.4,0-13.5,7.6-13.5,0.2c0-7.3,5.9-13.3,13.3-13.3
		S1021.3,1546.2,1021.3,1553.4z"/>
	<path class="st21" d="M977.7,1475.3c13.3-0.4,29.2,2.2,40.5,7.4c-0.5,1-5.4,8.7-6.1,9.5c-0.6,0.7-1.3,1.6-2.1,2.5
		c0.9,1,1.6,1.9,2.2,2.7c6.4,8.3,9.9,25.2,1.6,31.6c-8.3,6.5-25.2,0-31.6-8.3c-1-1.3-2.2-3-3.6-4.9c0.1-0.2,0.2-0.4,0.4-0.6
		c0.8,0,1.6-0.1,2.3-0.3c-0.8,0.2-1.5,0.2-2.3,0.3c-0.2,0-0.4,0-0.6,0c-0.1,0-0.1,0-0.2,0c-0.9,0-1.7-0.1-2.6-0.3
		c0.9,0.2,1.7,0.3,2.6,0.3c0.1,0.2,0.2,0.4,0.4,0.5c-1.3,2-2.6,3.6-3.6,4.9c-6.4,8.3-28.3,19.7-36.6,13.2
		c-8.3-6.4,0.2-28.3,6.6-36.6c0.6-0.7,1.3-1.6,2.1-2.5c-0.9-1-1.6-1.9-2.2-2.7l-3-3.9C942,1488.3,961.6,1475.8,977.7,1475.3z"/>
	<path class="st22" d="M1013.4,1522.3c-6.5,5.1-19.8,0-24.8-6.5c-0.8-1-1.8-2.3-2.8-3.9c0.1-0.1,0.2-0.3,0.3-0.4
		c0.6,0,1.2-0.1,1.8-0.2c-0.6,0.1-1.2,0.2-1.8,0.2c-0.1,0-0.3,0-0.4,0c-0.1,0-0.1,0-0.2,0c-0.7,0-1.4-0.1-2.1-0.2
		c0.7,0.2,1.4,0.2,2.1,0.2c0.1,0.1,0.2,0.3,0.3,0.4c-1.1,1.5-2,2.9-2.8,3.9c-5.1,6.5-22.3,15.5-28.8,10.4s0.1-22.2,5.2-28.7
		c0.4-0.6,1-1.2,1.6-1.9c-0.7-0.8-1.3-1.5-1.8-2.1c-5.1-6.5-5.5-17.5,1-22.6c6.5-5.1,17.4-2.3,22.5,4.2c0.8,1,1.7,2.3,2.8,3.9
		c-0.1,0.1-0.2,0.3-0.3,0.4c-0.6,0-1.2,0.1-1.8,0.2c0.6-0.1,1.2-0.2,1.8-0.2c0.1,0,0.3,0,0.4,0c0.1,0,0.1,0,0.2,0
		c0.7,0,1.4,0.1,2.1,0.2c-0.7-0.2-1.4-0.2-2.1-0.2c-0.1-0.1-0.2-0.3-0.3-0.4c1.1-1.5,2-2.9,2.8-3.9c5.1-6.5,14.4-7.7,20.9-2.6
		c6.5,5.1,7.7,14.4,2.6,20.9c-0.4,0.6-1,1.2-1.6,1.9c0.7,0.8,1.3,1.5,1.8,2.1C1017.1,1504.1,1019.9,1517.3,1013.4,1522.3z"/>
	<path class="st23" d="M1002,1512.8c-4,3.1-12.1,0-15.1-4c-0.5-0.6-1.1-1.4-1.7-2.4c0.1-0.1,0.1-0.2,0.2-0.3c0.4,0,0.7-0.1,1.1-0.1
		c-0.4,0.2-0.8,0.2-1.1,0.2c-0.1,0-0.2,0-0.3,0H985c-0.4,0-0.8-0.1-1.3-0.1c0.4,0.1,0.8,0.1,1.3,0.1c0.1,0.1,0.1,0.2,0.2,0.3
		c-0.6,0.9-1.2,1.7-1.7,2.4c-3.1,4-13.5,9.4-17.5,6.3s0.1-13.5,3.2-17.5c0.3-0.4,0.6-0.7,1-1.2c-0.4-0.5-0.8-0.9-1.1-1.3
		c-3.1-4-3.3-10.7,0.6-13.7c4-3.1,10.6-1.4,13.7,2.6c0.5,0.6,1.1,1.4,1.7,2.4c-0.1,0.1-0.1,0.2-0.2,0.3c-0.4,0-0.7,0.1-1.1,0.1
		c0.4-0.1,0.7-0.1,1.1-0.1c0.1,0,0.2,0,0.3,0h0.1c0.4,0,0.8,0.1,1.3,0.1c-0.4-0.1-0.8-0.1-1.3-0.1c-0.1-0.1-0.1-0.2-0.2-0.3
		c0.6-0.9,1.2-1.7,1.7-2.4c3.1-4,8.8-4.7,12.8-1.6c4,3.1,4.7,8.8,1.6,12.8c-0.3,0.4-0.6,0.7-1,1.2c0.4,0.5,0.8,0.9,1.1,1.3
		C1004.3,1501.7,1006,1509.8,1002,1512.8z"/>
	<path class="st24" d="M1010.7,1471.8c-0.7,0.5-1.5,1-2.1,1.5c-16.5,12.4-15.9,27.6-26.3,23.2c-0.2-0.1-0.3-0.2-0.5-0.2
		c-12.4-5.7-3.5-29.9,0.1-37.8c3.7-7.9,13.1-11.4,21-7.7C1010.9,1454.3,1017.9,1466.8,1010.7,1471.8z"/>
	<path class="st25" d="M1008.5,1473.3c-16.4,12.4-15.8,27.6-26.2,23.2c1.4-6.3,3.8-12.2,5.3-15.5
		C991.2,1473.1,1000.6,1469.6,1008.5,1473.3z"/>
	
		<ellipse transform="matrix(0.9721 -0.2345 0.2345 0.9721 -328.7592 286.3073)" class="st26" cx="1039.5" cy="1525.5" rx="12.3" ry="16.8"/>
</g>
<g id="Layer_17" class="st0">
	<path class="st29" d="M1041,1592.2l-11.3-7.5c-2.3-1.6-5.5-1.3-7.5,0.7l-19.4,11.2c-0.7,0.4-1.4,0.9-2.1,1.4
		c-2.1,1.5-4.8,1.4-6.9,0c-0.7-0.5-1.4-1-2.1-1.4l-18.9-11.2c-2-2-5.1-2.3-7.5-0.7l-11.8,7.7c-4,2.6-9.3-0.3-9.3-5v-84.5
		c0-26,21.3-47.3,47.3-47.3h11.5c26,0,47.3,21.3,47.3,47.3v84.4C1050.3,1591.9,1045,1594.8,1041,1592.2z"/>
	<path class="st30" d="M1041.2,1592.4l-11.3-7.5c-2.3-1.6-5.5-1.3-7.5,0.7l-19.4,11.2c-0.7,0.4-1.4,0.9-2.1,1.4
		c-2.1,1.5-4.8,1.4-6.9,0c-0.7-0.5-1.4-1-2.1-1.4l-18.9-11.2c-2-2-5.1-2.3-7.5-0.7l-11.8,7.7c-4,2.6-9.3-0.3-9.3-5v-8.8
		c0-26,52.2-47.3,78.2-47.3h11.4c26,0,16.5,21.3,16.5,47.3v8.7C1050.6,1592.3,1045.2,1595.2,1041.2,1592.4z"/>
	<g class="st15">
		<path class="st31" d="M997.3,1605.3c-2.5,0-5-0.8-7.1-2.3l-0.3-0.2c-0.5-0.4-1-0.7-1.3-0.9l-19.6-11.5l-0.4-0.4l-11.7,7.6
			c-3.8,2.5-8.5,2.7-12.5,0.5c-3.9-2.1-6.4-6.3-6.4-10.7v-84.5c0-29.6,24-53.6,53.6-53.6h11.4c29.5,0,53.6,24,53.6,53.6v84.4
			c0,4.5-2.5,8.6-6.5,10.8c-4,2.1-8.8,1.9-12.5-0.6l0,0l-11.2-7.4l-0.4,0.4l-20,11.6c-0.4,0.2-0.9,0.6-1.4,0.9l-0.2,0.1
			C1002.2,1604.6,999.8,1605.3,997.3,1605.3z M976.5,1580.3l18.4,10.8c0.9,0.5,1.6,1,2.3,1.5l0.1,0.1h0.1c0.7-0.5,1.4-1,2.3-1.5
			l18.8-11c4.1-3.4,10.1-3.8,14.6-0.8l11,7.3v-84c0-22.7-18.4-41.1-41.1-41.1h-11.4c-22.7,0-41.1,18.4-41.1,41.1v84.1l11.5-7.5
			C966.4,1576.4,972.4,1576.8,976.5,1580.3z"/>
	</g>
	<circle class="st32" cx="966.7" cy="1514.8" r="12.7"/>
	<circle class="st32" cx="1006.9" cy="1514.8" r="12.7"/>
</g>
<g id="Layer_18" class="st0">
	<path class="st33" d="M1041.2,1592.2l-11.3-7.5c-2.3-1.6-5.5-1.3-7.5,0.7l-19.4,11.2c-0.7,0.4-1.4,0.9-2.1,1.4
		c-2.1,1.5-4.8,1.4-6.9,0c-0.7-0.5-1.4-1-2.1-1.4l-18.9-11.2c-2-2-5.1-2.3-7.5-0.7l-11.8,7.7c-4,2.6-9.3-0.3-9.3-5v-84.5
		c0-26,21.3-47.3,47.3-47.3h11.4c26,0,47.3,21.3,47.3,47.3v84.4C1050.5,1591.9,1045.2,1594.8,1041.2,1592.2z"/>
	<path class="st34" d="M1041.5,1592.4l-11.3-7.5c-2.3-1.6-5.5-1.3-7.5,0.7l-19.4,11.2c-0.7,0.4-1.4,0.9-2.1,1.4
		c-2.1,1.5-4.8,1.4-6.9,0c-0.7-0.5-1.4-1-2.1-1.4l-18.9-11.2c-2-2-5.1-2.3-7.5-0.7l-11.8,7.6c-4,2.6-9.3-0.3-9.3-5v-8.8
		c0-26,52.2-47.3,78.2-47.3h11.4c26,0,16.5,21.3,16.5,47.3v8.7C1050.8,1592.3,1045.5,1595.2,1041.5,1592.4z"/>
	<g class="st15">
		<path class="st35" d="M997.5,1605.3c-2.5,0-5-0.8-7.1-2.3l-0.3-0.2c-0.5-0.4-1-0.7-1.3-0.9l-19.6-11.5l-0.4-0.4l-11.7,7.6
			c-3.8,2.5-8.5,2.7-12.5,0.5c-3.9-2.1-6.4-6.3-6.4-10.7v-84.5c0-29.6,24.1-53.6,53.6-53.6h11.4c29.5,0,53.6,24,53.6,53.6v84.4
			c0,4.5-2.5,8.6-6.5,10.8c-4,2.1-8.8,1.9-12.5-0.6l0,0l-11.2-7.4l-0.4,0.4l-20,11.6c-0.4,0.2-0.9,0.6-1.4,0.9l-0.2,0.1
			C1002.5,1604.6,1000,1605.3,997.5,1605.3z M976.8,1580.3l18.4,10.8c0.9,0.5,1.6,1,2.3,1.5l0.1,0.1h0.1c0.7-0.5,1.4-1,2.3-1.5
			l18.8-11c4.1-3.4,10.1-3.8,14.6-0.8l11,7.3v-84c0-22.7-18.4-41.1-41.1-41.1h-11.5c-22.7,0-41.1,18.4-41.1,41.1v84.1l11.5-7.5
			C966.7,1576.4,972.7,1576.8,976.8,1580.3z"/>
	</g>
	<circle class="st36" cx="967" cy="1514.8" r="12.7"/>
	<circle class="st36" cx="1007.1" cy="1514.8" r="12.7"/>
</g>
<rect x="378.8" y="309.9" class="st37" width="9" height="9"/>
<rect x="387.8" y="309.9" class="st37" width="9" height="9"/>
<rect x="378.8" y="318.9" class="st37" width="9" height="9"/>
<rect x="387.8" y="318.9" class="st37" width="9" height="9"/>
<rect x="396.8" y="309.9" class="st37" width="9" height="9"/>
<rect x="396.8" y="318.9" class="st37" width="9" height="9"/>
<rect x="378.8" y="327.9" class="st37" width="9" height="9"/>
<rect x="387.8" y="327.9" class="st37" width="9" height="9"/>
<rect x="396.8" y="327.9" class="st37" width="9" height="9"/>
<rect x="378.8" y="336.9" class="st37" width="9" height="9"/>
<rect x="387.8" y="336.9" class="st37" width="9" height="9"/>
<rect x="396.8" y="336.9" class="st37" width="9" height="9"/>
<polygon class="st38" points="403.8,151.8 403.8,333.4 356.1,332.9 331.1,332.7 331.1,218.6 323.5,218.1 323.5,142.5 "/>
<polygon class="st39" points="343.6,332.6 343.6,456.5 219.8,449.3 219.8,333.8 331.1,332.7 "/>
<polygon class="st39" points="331.1,217.5 331.1,332.7 233.1,333.7 233.1,224.7 244.8,223.8 244.8,151.6 323.5,142.5 323.5,218.1 
	"/>
<path class="st38" d="M371.2,451.2l22.8-15.1c4.7-3.1,11-2.6,15,1.4l38.9,22.6c1.4,0.8,2.8,1.8,4.1,2.8c4.1,2.9,9.7,2.9,13.9,0
	c1.4-1,2.7-2,4.2-2.8l38.1-22.3c4-4,10.3-4.6,15-1.5l23.8,15.6c8,5.2,18.6-0.5,18.6-10l0.3-169.7c0.1-52.3-42.6-95.1-94.9-95.2
	l-22.9,0c-52.3-0.1-95.1,42.6-95.2,94.9l-0.3,169.5C352.5,450.8,363.2,456.6,371.2,451.2z"/>
<path class="st40" d="M370.7,451.7l22.8-15.1c4.7-3.1,11-2.6,15,1.4l38.9,22.6c1.4,0.8,2.8,1.8,4.1,2.8c4.1,2.9,9.7,2.9,13.9,0
	c1.4-1,2.7-2,4.2-2.8l38.1-22.3c4-4,10.3-4.6,15-1.5l23.8,15.6c8,5.2,18.6-0.5,18.6-10l0-17.7c0.1-52.3-104.6-95.2-156.9-95.3
	l-22.9,0c-52.3-0.1-33.1,42.7-33.2,95l0,17.5C352,451.3,362.7,457.1,370.7,451.7z"/>
<path class="st39" d="M340.1,441.2c0,2.8,0.5,5.6,1.4,8.2c0.3,0.8,0.6,1.5,0.9,2.3c0.2,0.4,0.4,0.8,0.6,1.2c0.1,0.2,0.2,0.3,0.3,0.5
	c0.2,0.4,0.4,0.8,0.7,1.1c0.9,1.4,1.9,2.7,3.1,3.8c0.4,0.4,0.8,0.8,1.2,1.1c1.4,1.3,3,2.4,4.8,3.3c0.5,0.3,0.9,0.5,1.4,0.7
	c4.1,1.9,8.5,2.5,12.8,2.1c0.1,0,0.1,0,0.2,0c1.4-0.2,2.7-0.4,4-0.8c0.2,0,0.3-0.1,0.5-0.2c0.2-0.1,0.4-0.1,0.6-0.2
	c0.6-0.2,1.1-0.4,1.7-0.6c1.1-0.5,2.2-1,3.2-1.7c0.3-0.2,0.5-0.3,0.8-0.5l22.5-14.9l0.8,0.8l40.2,23.4h0c0.4,0.2,0.9,0.5,1.3,0.9
	c0.2,0.2,0.5,0.3,0.7,0.5c0.3,0.2,0.5,0.4,0.8,0.5l0.4,0.3c1.3,0.9,2.7,1.7,4.1,2.4c1.7,0.8,3.5,1.3,5.3,1.7
	c0.3,0.1,0.6,0.1,0.9,0.2c0.6,0.1,1.2,0.2,1.8,0.2c0.6,0,1.2,0.1,1.9,0.1c0.9,0,1.9,0,2.8-0.2c4-0.5,7.9-1.9,11.4-4.3l0.6-0.4
	c0.3-0.2,0.5-0.3,0.7-0.5c0.5-0.3,0.9-0.6,1.4-0.9c0.2-0.1,0.4-0.3,0.6-0.4l39.4-23.1l0.8-0.8l23.4,15.4c5.6,3.7,12.3,4.8,18.7,3.5
	c0.5-0.1,1-0.2,1.5-0.4c0.5-0.1,1-0.3,1.5-0.5c1.2-0.4,2.4-0.9,3.5-1.5c5.5-2.9,9.5-7.8,11.5-13.4c0.2-0.5,0.3-1,0.5-1.6
	c0.1-0.5,0.3-1.1,0.4-1.6c0.3-1.6,0.5-3.3,0.5-5l0.2-146.1v-0.9l0-18.4l30.2,0.1c6.6,0,12-5.4,12-12l0-3c0-6.6-5.4-12-12-12
	l-30.2-0.1h-2.4c-0.6-3-1.4-6-2.3-8.9c-0.2-0.7-0.5-1.5-0.7-2.2c-0.2-0.7-0.5-1.4-0.7-2.2c-0.2-0.6-0.4-1.2-0.7-1.8
	c-0.4-1-0.8-2.1-1.2-3.1c-0.2-0.5-0.4-1-0.6-1.4c-1.2-2.8-2.5-5.5-3.9-8.2c-0.3-0.6-0.7-1.3-1-1.9c0-0.1-0.1-0.1-0.1-0.2
	c-0.3-0.5-0.6-1-0.9-1.5c-0.2-0.3-0.3-0.5-0.5-0.8c-0.3-0.5-0.6-1-0.9-1.5c-0.4-0.6-0.8-1.3-1.2-1.9c-0.8-1.3-1.6-2.5-2.5-3.7
	c-0.3-0.5-0.7-1-1-1.4c-0.1-0.2-0.3-0.4-0.4-0.6c-0.3-0.4-0.6-0.8-0.9-1.2c-0.2-0.2-0.3-0.4-0.5-0.6c-0.4-0.5-0.8-1-1.1-1.4
	c-0.1-0.1-0.1-0.1-0.2-0.2c-0.4-0.5-0.9-1.1-1.3-1.6c0,0,0,0,0,0c-0.5-0.6-0.9-1.1-1.4-1.7c-2-2.3-4-4.5-6.2-6.5
	c-0.5-0.5-0.9-0.9-1.4-1.3c-0.1-0.1-0.2-0.2-0.4-0.3c-0.4-0.4-0.8-0.8-1.3-1.1c-0.8-0.8-1.7-1.5-2.5-2.2c-0.4-0.3-0.8-0.6-1.1-0.9
	c-0.7-0.6-1.4-1.2-2.2-1.7c-0.9-0.7-1.7-1.3-2.6-2c-0.5-0.4-1-0.8-1.6-1.1c-0.3-0.2-0.5-0.4-0.8-0.6c-0.6-0.4-1.2-0.8-1.9-1.3
	c-0.6-0.4-1.3-0.8-1.9-1.2c-0.6-0.4-1.3-0.8-1.9-1.2c-1.3-0.8-2.6-1.5-3.9-2.3c-0.7-0.4-1.3-0.7-2-1.1c-0.5-0.3-1-0.5-1.5-0.8
	c-0.2-0.1-0.5-0.2-0.7-0.4c-0.5-0.3-1-0.5-1.5-0.7c-0.2-0.1-0.3-0.2-0.5-0.2c-0.6-0.3-1.3-0.6-1.9-0.9c-0.7-0.3-1.4-0.6-2.1-0.9
	c0,0,0,0,0,0c-0.7-0.3-1.4-0.6-2.1-0.8c-1.4-0.5-2.9-1.1-4.3-1.6c-0.5-0.2-1-0.3-1.4-0.5c-1-0.3-2-0.6-3-0.9
	c-0.6-0.2-1.2-0.3-1.8-0.5c-0.2-0.1-0.4-0.1-0.6-0.2c-0.6-0.2-1.3-0.3-1.9-0.5c0,0-0.1,0-0.1,0c-0.7-0.2-1.5-0.3-2.2-0.5
	c-2.3-0.5-4.6-1-6.9-1.3c-0.6-0.1-1.1-0.2-1.7-0.3c-0.3,0-0.5-0.1-0.7-0.1c-0.6-0.1-1.3-0.2-1.9-0.2c-0.1,0-0.2,0-0.3,0
	c-0.8-0.1-1.5-0.2-2.3-0.2c-0.8-0.1-1.6-0.1-2.4-0.2c0,0,0,0,0,0c-0.8,0-1.5-0.1-2.3-0.1c-0.1,0-0.2,0-0.2,0
	c-1.5-0.1-3.1-0.1-4.6-0.1l-22.9,0c-26.9,0-51.6,9.8-70.5,26.2c-1.3,1.1-2.6,2.3-3.8,3.5c-0.7,0.6-1.3,1.3-2,1.9
	c-14.2,14.2-24.5,32.4-29,52.8c-1.6,7.4-2.5,15.1-2.5,23l0,26.3l0,16.5v0l-0.2,121.2L340.1,441.2z M365.1,440.4l0-27.3l0.1-32.3
	l0.1-48.4l0-14.8l0-19.7l0-7.7l0-12.3c101.4,13.7,163.5,6,188,1.3l0,16.8l-0.1,97.8l-0.1,47.2l-23-15.1c-5.9-3.9-13.2-4.9-19.7-3.2
	c-0.7,0.2-1.4,0.4-2,0.6c-1,0.4-2,0.8-3,1.3c-1.6,0.8-3.1,1.8-4.5,3l-37,21.7c-1.7,1-3.2,2.1-4.5,3l-0.3,0.2l-0.1-0.1
	c-0.2-0.1-0.3-0.2-0.5-0.4c-0.4-0.3-0.7-0.5-1.1-0.8c-0.3-0.2-0.6-0.4-0.9-0.6c-0.3-0.2-0.6-0.4-0.9-0.5c-0.4-0.3-0.9-0.5-1.3-0.8
	l-37.8-22c-0.8-0.7-1.7-1.3-2.6-1.9c-8-5-18.6-5.1-26.7,0.3L365.1,440.4z"/>
<circle class="st41" cx="505.7" cy="321" r="25.4"/>
<circle class="st41" cx="418.9" cy="321" r="36.5"/>
<path class="st42" d="M380,91.1c0,0-8.6-16.7,8.1-25.3s25.3,8.1,25.3,8.1s8.6,16.7,0.2,21s0.2,21,0.2,21"/>
<ellipse transform="matrix(0.8897 -0.4566 0.4566 0.8897 -13.9389 207.5132)" class="st39" cx="422.4" cy="132.6" rx="9.5" ry="9.5"/>
<path class="st42" d="M516.4,69.8c0,0,10-15.9,25.9-5.9s5.9,25.9,5.9,25.9s-10,15.9-18,10.9c-7.9-5-18,10.9-18,10.9"/>
<ellipse transform="matrix(0.5332 -0.846 0.846 0.5332 126.6305 484.42)" class="st39" cx="502.3" cy="127.5" rx="9.5" ry="9.5"/>
<path class="st43" d="M437.8,35.9c0,0,0.4-25.8,26.1-25.4c25.8,0.4,25.4,26.1,25.4,26.1s-0.4,25.9-13.3,25.6
	c-16-0.4-13.3,25.6-13.3,25.6"/>
<ellipse transform="matrix(1.475932e-02 -0.9999 0.9999 1.475932e-02 348.2351 566.4577)" class="st39" cx="461.6" cy="106.5" rx="9.7" ry="9.7"/>
<polygon class="st38" points="258.1,345.5 258.1,469.3 119.6,478.2 119.6,345.2 "/>
<polygon class="st39" points="119.6,345.2 119.6,478.2 0,468.6 0,345.6 "/>
<path class="st39" d="M104.2,345.2L0,345.5v-97.2l104.2-7.2C104.2,241.1,104.2,345.2,104.2,345.2z"/>
<polygon class="st38" points="206.2,246.8 206.2,345.6 104.2,345.2 104.2,241.1 "/>
<polygon class="st39" points="650.8,394.5 650.8,456.5 589.8,453.5 589.8,393.2 "/>
<polygon class="st38" points="650.8,394.5 730.8,392.1 730.8,450.7 650.8,456.5 "/>
<polygon class="st44" points="730.8,392.1 650.8,394.5 589.8,393.2 668.6,391 "/>
<polygon class="st39" points="730.8,392.1 650.8,394.5 589.8,393.2 668.6,391 "/>
<polygon class="st45" points="73.8,345.3 73.8,425 15.8,422.2 15.8,345.5 "/>
<polygon class="st45" points="323.5,218.1 323.5,269.5 278.8,271.5 278.8,221.3 "/>
</svg>
