<?xml version="1.0" encoding="utf-8"?>
<!-- Generator: Adobe Illustrator 21.0.2, SVG Export Plug-In . SVG Version: 6.00 Build 0)  -->
<svg version="1.1" xmlns="http://www.w3.org/2000/svg" xmlns:xlink="http://www.w3.org/1999/xlink" x="0px" y="0px"
	 viewBox="0 0 252 65" style="enable-background:new 0 0 252 65;" xml:space="preserve">
<style type="text/css">
	.st0{display:none;}
	.st1{display:inline;fill:#EFEFEF;}
	.st2{display:inline;fill:#EF2648;}
	.st3{display:inline;fill:#154D84;}
	.st4{display:inline;fill:#555654;}
	.st5{display:inline;fill:#EF2648;stroke:#EF2648;stroke-width:3.7889;stroke-miterlimit:10;}
	.st6{fill:#154D84;}
</style>
<g id="Layer_1" class="st0">
	<path class="st1" d="M251.8,22v145.4c0,3.9-3.2,7-7,7H3.4c-3.9,0-7-3.2-7-7V22c0-3.9,3.2-7,7-7h241.4C248.6,15,251.8,18.2,251.8,22
		z"/>
	<path class="st2" d="M252,86.4c0-2.3-1.9-4.2-4.2-4.2H136.9V19c0-2.1-1.7-3.8-3.8-3.8H128c-0.2,0-0.4,0-0.6,0.1
		c-0.2,0-0.4-0.1-0.6-0.1h-5.1c-0.2,0-0.4,0-0.6,0.1c-0.2,0-0.4-0.1-0.6-0.1h-5.1c-2.1,0-3.8,1.7-3.8,3.8v63.3H0.8
		c-2.3,0-4.2,1.9-4.2,4.2v4.2c0,0.4,0.1,0.7,0.2,1.1c-0.1,0.3-0.2,0.7-0.2,1.1v4.2c0,0.4,0.1,0.7,0.2,1.1c-0.1,0.3-0.2,0.7-0.2,1.1
		v4.2c0,2.3,1.9,4.2,4.2,4.2h110.9v63.3c0,2.1,1.7,3.8,3.8,3.8h5.1c0.2,0,0.4,0,0.6-0.1c0.2,0,0.4,0.1,0.6,0.1h5.1
		c0.2,0,0.4,0,0.6-0.1c0.2,0,0.4,0.1,0.6,0.1h5.1c2.1,0,3.8-1.7,3.8-3.8v-63.3h110.9c2.3,0,4.2-1.9,4.2-4.2V99
		c0-0.4-0.1-0.7-0.2-1.1c0.1-0.3,0.2-0.7,0.2-1.1v-4.2c0-0.4-0.1-0.7-0.2-1.1c0.1-0.3,0.2-0.7,0.2-1.1V86.4z"/>
	<path class="st3" d="M251.8,120.1v33.3l-48.3-27.5c-2.8-1.6-1.7-5.8,1.5-5.8H251.8z"/>
	<path class="st3" d="M238,174.4h-88.4v-46.2c0,0,0,0,0,0c0-1.8,2-2.9,3.6-2L238,174.4z"/>
	<path class="st3" d="M251.8,69.4V36.1l-48.3,27.5c-2.8,1.6-1.7,5.8,1.5,5.8H251.8z"/>
	<path class="st3" d="M238,15h-88.4v46.2c0,0,0,0,0,0c0,1.8,2,2.9,3.6,2L238,15z"/>
	<path class="st3" d="M-3.6,69.4V36.1l48.3,27.5c2.8,1.6,1.7,5.8-1.5,5.8H-3.6z"/>
	<path class="st3" d="M10.1,15h88.4v46.2c0,0,0,0,0,0c0,1.8-2,2.9-3.6,2L10.1,15z"/>
	<path class="st3" d="M-3.6,120.1v33.3l48.3-27.5c2.8-1.6,1.7-5.8-1.5-5.8H-3.6z"/>
	<path class="st3" d="M10.1,174.4h88.4v-46.2c0,0,0,0,0,0c0-1.8-2-2.9-3.6-2L10.1,174.4z"/>
</g>
<g id="Layer_2" class="st0">
	<path class="st4" d="M-9-3.1v-0.4l0-4.3C-8.7-6.3-8.7-4.7-9-3.1z"/>
	<path class="st1" d="M251.8,22.9v144.5c0,3.8-3.1,7-7,7H5c-3.8,0-7-3.1-7-7V22.9c0-3.8,3.1-7,7-7h239.8
		C248.7,15.9,251.8,19.1,251.8,22.9z"/>
	<path class="st2" d="M252,86.9c0-2.3-1.9-4.2-4.2-4.2H137.6V19.9c0-2.1-1.7-3.7-3.7-3.7h-5c-0.2,0-0.4,0-0.6,0.1
		c-0.2,0-0.4-0.1-0.6-0.1h-5c-0.2,0-0.4,0-0.6,0.1c-0.2,0-0.4-0.1-0.6-0.1h-5c-2.1,0-3.7,1.7-3.7,3.7v62.8H2.4
		c-2.3,0-4.2,1.9-4.2,4.2V91c0,0.4,0.1,0.7,0.1,1c-0.1,0.3-0.1,0.7-0.1,1.1v4.1c0,0.4,0.1,0.7,0.1,1c-0.1,0.3-0.1,0.7-0.1,1.1v4.1
		c0,2.3,1.9,4.2,4.2,4.2h110.2v62.8c0,2.1,1.7,3.7,3.7,3.7h5c0.2,0,0.4,0,0.6-0.1c0.2,0,0.4,0.1,0.6,0.1h5c0.2,0,0.4,0,0.6-0.1
		c0.2,0,0.4,0.1,0.6,0.1h5c2.1,0,3.7-1.7,3.7-3.7v-62.8h110.2c2.3,0,4.2-1.9,4.2-4.2v-4.1c0-0.4-0.1-0.7-0.1-1.1
		c0.1-0.3,0.1-0.7,0.1-1v-4.1c0-0.4-0.1-0.7-0.1-1.1c0.1-0.3,0.1-0.7,0.1-1V86.9z"/>
	<path class="st5" d="M216.3,44.3c0-0.4-0.3-0.7-0.7-0.7h-18.3V33.2c0-0.3-0.3-0.6-0.6-0.6h-0.8c0,0-0.1,0-0.1,0c0,0-0.1,0-0.1,0
		h-0.8c0,0-0.1,0-0.1,0c0,0-0.1,0-0.1,0h-0.8c-0.3,0-0.6,0.3-0.6,0.6v10.4h-18.3c-0.4,0-0.7,0.3-0.7,0.7V45c0,0.1,0,0.1,0,0.2
		c0,0.1,0,0.1,0,0.2v0.7c0,0.1,0,0.1,0,0.2c0,0.1,0,0.1,0,0.2v0.7c0,0.4,0.3,0.7,0.7,0.7h18.3v10.4c0,0.3,0.3,0.6,0.6,0.6h0.8
		c0,0,0.1,0,0.1,0c0,0,0.1,0,0.1,0h0.8c0,0,0.1,0,0.1,0c0,0,0.1,0,0.1,0h0.8c0.3,0,0.6-0.3,0.6-0.6V47.8h18.3c0.4,0,0.7-0.3,0.7-0.7
		v-0.7c0-0.1,0-0.1,0-0.2c0-0.1,0-0.1,0-0.2v-0.7c0-0.1,0-0.1,0-0.2c0-0.1,0-0.1,0-0.2V44.3z"/>
	<path class="st5" d="M216.3,137.8c0-0.4-0.3-0.7-0.7-0.7h-18.3v-10.4c0-0.3-0.3-0.6-0.6-0.6h-0.8c0,0-0.1,0-0.1,0c0,0-0.1,0-0.1,0
		h-0.8c0,0-0.1,0-0.1,0c0,0-0.1,0-0.1,0h-0.8c-0.3,0-0.6,0.3-0.6,0.6v10.4h-18.3c-0.4,0-0.7,0.3-0.7,0.7v0.7c0,0.1,0,0.1,0,0.2
		c0,0.1,0,0.1,0,0.2v0.7c0,0.1,0,0.1,0,0.2c0,0.1,0,0.1,0,0.2v0.7c0,0.4,0.3,0.7,0.7,0.7h18.3v10.4c0,0.3,0.3,0.6,0.6,0.6h0.8
		c0,0,0.1,0,0.1,0c0,0,0.1,0,0.1,0h0.8c0,0,0.1,0,0.1,0c0,0,0.1,0,0.1,0h0.8c0.3,0,0.6-0.3,0.6-0.6v-10.4h18.3
		c0.4,0,0.7-0.3,0.7-0.7v-0.7c0-0.1,0-0.1,0-0.2c0-0.1,0-0.1,0-0.2v-0.7c0-0.1,0-0.1,0-0.2c0-0.1,0-0.1,0-0.2V137.8z"/>
	<path class="st5" d="M73.2,44.3c0-0.4-0.3-0.7-0.7-0.7H54.2V33.2c0-0.3-0.3-0.6-0.6-0.6h-0.8c0,0-0.1,0-0.1,0c0,0-0.1,0-0.1,0h-0.8
		c0,0-0.1,0-0.1,0c0,0-0.1,0-0.1,0h-0.8c-0.3,0-0.6,0.3-0.6,0.6v10.4H31.8c-0.4,0-0.7,0.3-0.7,0.7V45c0,0.1,0,0.1,0,0.2
		c0,0.1,0,0.1,0,0.2v0.7c0,0.1,0,0.1,0,0.2c0,0.1,0,0.1,0,0.2v0.7c0,0.4,0.3,0.7,0.7,0.7h18.3v10.4c0,0.3,0.3,0.6,0.6,0.6h0.8
		c0,0,0.1,0,0.1,0c0,0,0.1,0,0.1,0h0.8c0,0,0.1,0,0.1,0c0,0,0.1,0,0.1,0h0.8c0.3,0,0.6-0.3,0.6-0.6V47.8h18.3c0.4,0,0.7-0.3,0.7-0.7
		v-0.7c0-0.1,0-0.1,0-0.2c0-0.1,0-0.1,0-0.2v-0.7c0-0.1,0-0.1,0-0.2c0-0.1,0-0.1,0-0.2V44.3z"/>
	<path class="st5" d="M73.2,137.8c0-0.4-0.3-0.7-0.7-0.7H54.2v-10.4c0-0.3-0.3-0.6-0.6-0.6h-0.8c0,0-0.1,0-0.1,0c0,0-0.1,0-0.1,0
		h-0.8c0,0-0.1,0-0.1,0c0,0-0.1,0-0.1,0h-0.8c-0.3,0-0.6,0.3-0.6,0.6v10.4H31.8c-0.4,0-0.7,0.3-0.7,0.7v0.7c0,0.1,0,0.1,0,0.2
		c0,0.1,0,0.1,0,0.2v0.7c0,0.1,0,0.1,0,0.2c0,0.1,0,0.1,0,0.2v0.7c0,0.4,0.3,0.7,0.7,0.7h18.3v10.4c0,0.3,0.3,0.6,0.6,0.6h0.8
		c0,0,0.1,0,0.1,0c0,0,0.1,0,0.1,0h0.8c0,0,0.1,0,0.1,0c0,0,0.1,0,0.1,0h0.8c0.3,0,0.6-0.3,0.6-0.6v-10.4h18.3
		c0.4,0,0.7-0.3,0.7-0.7v-0.7c0-0.1,0-0.1,0-0.2c0-0.1,0-0.1,0-0.2v-0.7c0-0.1,0-0.1,0-0.2c0-0.1,0-0.1,0-0.2V137.8z"/>
</g>
<g id="Layer_3" class="st0">
	<path class="st3" d="M16.4-37.6C-12.7,5.3-1.6,63.8,41.3,93c38.8,26.4,90.5,19.8,121.5-13.6l66.9,45.5c3.2,2.2,7.1,2.9,10.6,2.2
		c3.6-0.7,6.9-2.7,9.1-5.9c4.4-6.5,2.7-15.3-3.7-19.7L178.8,56C198.6,14.8,185.9-36,147-62.4C104.1-91.6,45.6-80.4,16.4-37.6z
		 M159,42.5c-1.8,4.2-4,8.4-6.7,12.3c-2.8,4.1-5.9,7.8-9.3,11.1c-23.5,22.7-60.4,26.6-88.4,7.5C22.5,51.6,14.1,7.8,35.9-24.3
		c21.8-32.1,65.7-40.4,97.7-18.6C161.8-23.8,171.7,12.3,159,42.5z"/>
</g>
<g id="Layer_4">
	<circle class="st6" cx="32.7" cy="32.7" r="32.7"/>
	<circle class="st6" cx="126" cy="32.7" r="32.7"/>
	<circle class="st6" cx="219.3" cy="32.7" r="32.7"/>
</g>
</svg>
