<?xml version="1.0" encoding="utf-8"?>
<!-- Generator: Adobe Illustrator 21.0.2, SVG Export Plug-In . SVG Version: 6.00 Build 0)  -->
<svg version="1.1" xmlns="http://www.w3.org/2000/svg" xmlns:xlink="http://www.w3.org/1999/xlink" x="0px" y="0px"
	 viewBox="0 0 239 239" style="enable-background:new 0 0 239 239;" xml:space="preserve">
<style type="text/css">
	.st0{display:none;}
	.st1{display:inline;fill:#9fa3c1;}
	.st2{display:inline;fill:#9fa3c1;}
	.st3{display:inline;fill:#9fa3c1;}
	.st4{display:inline;fill:#9fa3c1;}
	.st5{display:inline;fill:#9fa3c1;stroke:#9fa3c1;stroke-width:3.7889;stroke-miterlimit:10;}
	.st6{display:inline;fill:none;stroke:#9fa3c1;stroke-width:18;stroke-miterlimit:10;}
	.st7{display:inline;fill:#9fa3c1;}
	.st8{display:inline;fill:none;stroke:#525D67;stroke-width:11.2615;stroke-miterlimit:10;}
	.st9{display:inline;fill:#9fa3c1;}
	.st10{display:inline;fill:none;stroke:#9fa3c1;stroke-width:18;stroke-miterlimit:10;}
	.st11{display:inline;fill:none;stroke:#9fa3c1;stroke-width:12.0531;stroke-miterlimit:10;}
	.st12{display:inline;fill:#9fa3c1;stroke:#9fa3c1;stroke-width:3.3481;stroke-miterlimit:10;}
	.st13{display:inline;fill:#9fa3c1;stroke:#9fa3c1;stroke-width:8.1641;stroke-miterlimit:10;}
	.st14{fill:none;stroke:#9fa3c1;stroke-width:18;stroke-miterlimit:10;}
	.st15{fill:#9fa3c1;}
</style>
<g id="Layer_1" class="st0">
	<path class="st1" d="M228.8,126v145.4c0,3.9-3.2,7-7,7H-19.6c-3.9,0-7-3.2-7-7V126c0-3.9,3.2-7,7-7h241.4
		C225.6,119,228.8,122.2,228.8,126z"/>
	<path class="st2" d="M229,190.4c0-2.3-1.9-4.2-4.2-4.2H113.9V123c0-2.1-1.7-3.8-3.8-3.8H105c-0.2,0-0.4,0-0.6,0.1
		c-0.2,0-0.4-0.1-0.6-0.1h-5.1c-0.2,0-0.4,0-0.6,0.1c-0.2,0-0.4-0.1-0.6-0.1h-5.1c-2.1,0-3.8,1.7-3.8,3.8v63.3H-22.2
		c-2.3,0-4.2,1.9-4.2,4.2v4.2c0,0.4,0.1,0.7,0.2,1.1c-0.1,0.3-0.2,0.7-0.2,1.1v4.2c0,0.4,0.1,0.7,0.2,1.1c-0.1,0.3-0.2,0.7-0.2,1.1
		v4.2c0,2.3,1.9,4.2,4.2,4.2H88.7v63.3c0,2.1,1.7,3.8,3.8,3.8h5.1c0.2,0,0.4,0,0.6-0.1c0.2,0,0.4,0.1,0.6,0.1h5.1
		c0.2,0,0.4,0,0.6-0.1c0.2,0,0.4,0.1,0.6,0.1h5.1c2.1,0,3.8-1.7,3.8-3.8v-63.3h110.9c2.3,0,4.2-1.9,4.2-4.2V203
		c0-0.4-0.1-0.7-0.2-1.1c0.1-0.3,0.2-0.7,0.2-1.1v-4.2c0-0.4-0.1-0.7-0.2-1.1c0.1-0.3,0.2-0.7,0.2-1.1V190.4z"/>
	<path class="st3" d="M228.8,224.1v33.3l-48.3-27.5c-2.8-1.6-1.7-5.8,1.5-5.8H228.8z"/>
	<path class="st3" d="M215,278.4h-88.4v-46.2c0,0,0,0,0,0c0-1.8,2-2.9,3.6-2L215,278.4z"/>
	<path class="st3" d="M228.8,173.4v-33.3l-48.3,27.5c-2.8,1.6-1.7,5.8,1.5,5.8H228.8z"/>
	<path class="st3" d="M215,119h-88.4v46.2c0,0,0,0,0,0c0,1.8,2,2.9,3.6,2L215,119z"/>
	<path class="st3" d="M-26.6,173.4v-33.3l48.3,27.5c2.8,1.6,1.7,5.8-1.5,5.8H-26.6z"/>
	<path class="st3" d="M-12.9,119h88.4v46.2c0,0,0,0,0,0c0,1.8-2,2.9-3.6,2L-12.9,119z"/>
	<path class="st3" d="M-26.6,224.1v33.3l48.3-27.5c2.8-1.6,1.7-5.8-1.5-5.8H-26.6z"/>
	<path class="st3" d="M-12.9,278.4h88.4v-46.2c0,0,0,0,0,0c0-1.8-2-2.9-3.6-2L-12.9,278.4z"/>
</g>
<g id="Layer_2" class="st0">
	<path class="st4" d="M-32,100.9v-0.4l0-4.3C-31.7,97.7-31.7,99.3-32,100.9z"/>
	<path class="st1" d="M228.8,126.9v144.5c0,3.8-3.1,7-7,7H-18c-3.8,0-7-3.1-7-7V126.9c0-3.8,3.1-7,7-7h239.8
		C225.7,119.9,228.8,123.1,228.8,126.9z"/>
	<path class="st2" d="M229,190.9c0-2.3-1.9-4.2-4.2-4.2H114.6v-62.8c0-2.1-1.7-3.7-3.7-3.7h-5c-0.2,0-0.4,0-0.6,0.1
		c-0.2,0-0.4-0.1-0.6-0.1h-5c-0.2,0-0.4,0-0.6,0.1c-0.2,0-0.4-0.1-0.6-0.1h-5c-2.1,0-3.7,1.7-3.7,3.7v62.8H-20.6
		c-2.3,0-4.2,1.9-4.2,4.2v4.1c0,0.4,0.1,0.7,0.1,1c-0.1,0.3-0.1,0.7-0.1,1.1v4.1c0,0.4,0.1,0.7,0.1,1c-0.1,0.3-0.1,0.7-0.1,1.1v4.1
		c0,2.3,1.9,4.2,4.2,4.2H89.6v62.8c0,2.1,1.7,3.7,3.7,3.7h5c0.2,0,0.4,0,0.6-0.1c0.2,0,0.4,0.1,0.6,0.1h5c0.2,0,0.4,0,0.6-0.1
		c0.2,0,0.4,0.1,0.6,0.1h5c2.1,0,3.7-1.7,3.7-3.7v-62.8h110.2c2.3,0,4.2-1.9,4.2-4.2v-4.1c0-0.4-0.1-0.7-0.1-1.1
		c0.1-0.3,0.1-0.7,0.1-1v-4.1c0-0.4-0.1-0.7-0.1-1.1c0.1-0.3,0.1-0.7,0.1-1V190.9z"/>
	<path class="st5" d="M193.3,148.3c0-0.4-0.3-0.7-0.7-0.7h-18.3v-10.4c0-0.3-0.3-0.6-0.6-0.6h-0.8c0,0-0.1,0-0.1,0c0,0-0.1,0-0.1,0
		h-0.8c0,0-0.1,0-0.1,0c0,0-0.1,0-0.1,0h-0.8c-0.3,0-0.6,0.3-0.6,0.6v10.4h-18.3c-0.4,0-0.7,0.3-0.7,0.7v0.7c0,0.1,0,0.1,0,0.2
		c0,0.1,0,0.1,0,0.2v0.7c0,0.1,0,0.1,0,0.2c0,0.1,0,0.1,0,0.2v0.7c0,0.4,0.3,0.7,0.7,0.7h18.3v10.4c0,0.3,0.3,0.6,0.6,0.6h0.8
		c0,0,0.1,0,0.1,0c0,0,0.1,0,0.1,0h0.8c0,0,0.1,0,0.1,0c0,0,0.1,0,0.1,0h0.8c0.3,0,0.6-0.3,0.6-0.6v-10.4h18.3
		c0.4,0,0.7-0.3,0.7-0.7v-0.7c0-0.1,0-0.1,0-0.2c0-0.1,0-0.1,0-0.2v-0.7c0-0.1,0-0.1,0-0.2c0-0.1,0-0.1,0-0.2V148.3z"/>
	<path class="st5" d="M193.3,241.8c0-0.4-0.3-0.7-0.7-0.7h-18.3v-10.4c0-0.3-0.3-0.6-0.6-0.6h-0.8c0,0-0.1,0-0.1,0c0,0-0.1,0-0.1,0
		h-0.8c0,0-0.1,0-0.1,0c0,0-0.1,0-0.1,0h-0.8c-0.3,0-0.6,0.3-0.6,0.6v10.4h-18.3c-0.4,0-0.7,0.3-0.7,0.7v0.7c0,0.1,0,0.1,0,0.2
		c0,0.1,0,0.1,0,0.2v0.7c0,0.1,0,0.1,0,0.2c0,0.1,0,0.1,0,0.2v0.7c0,0.4,0.3,0.7,0.7,0.7h18.3v10.4c0,0.3,0.3,0.6,0.6,0.6h0.8
		c0,0,0.1,0,0.1,0c0,0,0.1,0,0.1,0h0.8c0,0,0.1,0,0.1,0c0,0,0.1,0,0.1,0h0.8c0.3,0,0.6-0.3,0.6-0.6v-10.4h18.3
		c0.4,0,0.7-0.3,0.7-0.7v-0.7c0-0.1,0-0.1,0-0.2c0-0.1,0-0.1,0-0.2v-0.7c0-0.1,0-0.1,0-0.2c0-0.1,0-0.1,0-0.2V241.8z"/>
	<path class="st5" d="M50.2,148.3c0-0.4-0.3-0.7-0.7-0.7H31.2v-10.4c0-0.3-0.3-0.6-0.6-0.6h-0.8c0,0-0.1,0-0.1,0c0,0-0.1,0-0.1,0
		h-0.8c0,0-0.1,0-0.1,0c0,0-0.1,0-0.1,0h-0.8c-0.3,0-0.6,0.3-0.6,0.6v10.4H8.8c-0.4,0-0.7,0.3-0.7,0.7v0.7c0,0.1,0,0.1,0,0.2
		c0,0.1,0,0.1,0,0.2v0.7c0,0.1,0,0.1,0,0.2c0,0.1,0,0.1,0,0.2v0.7c0,0.4,0.3,0.7,0.7,0.7h18.3v10.4c0,0.3,0.3,0.6,0.6,0.6h0.8
		c0,0,0.1,0,0.1,0c0,0,0.1,0,0.1,0h0.8c0,0,0.1,0,0.1,0c0,0,0.1,0,0.1,0h0.8c0.3,0,0.6-0.3,0.6-0.6v-10.4h18.3
		c0.4,0,0.7-0.3,0.7-0.7v-0.7c0-0.1,0-0.1,0-0.2c0-0.1,0-0.1,0-0.2v-0.7c0-0.1,0-0.1,0-0.2c0-0.1,0-0.1,0-0.2V148.3z"/>
	<path class="st5" d="M50.2,241.8c0-0.4-0.3-0.7-0.7-0.7H31.2v-10.4c0-0.3-0.3-0.6-0.6-0.6h-0.8c0,0-0.1,0-0.1,0c0,0-0.1,0-0.1,0
		h-0.8c0,0-0.1,0-0.1,0c0,0-0.1,0-0.1,0h-0.8c-0.3,0-0.6,0.3-0.6,0.6v10.4H8.8c-0.4,0-0.7,0.3-0.7,0.7v0.7c0,0.1,0,0.1,0,0.2
		c0,0.1,0,0.1,0,0.2v0.7c0,0.1,0,0.1,0,0.2c0,0.1,0,0.1,0,0.2v0.7c0,0.4,0.3,0.7,0.7,0.7h18.3v10.4c0,0.3,0.3,0.6,0.6,0.6h0.8
		c0,0,0.1,0,0.1,0c0,0,0.1,0,0.1,0h0.8c0,0,0.1,0,0.1,0c0,0,0.1,0,0.1,0h0.8c0.3,0,0.6-0.3,0.6-0.6v-10.4h18.3
		c0.4,0,0.7-0.3,0.7-0.7v-0.7c0-0.1,0-0.1,0-0.2c0-0.1,0-0.1,0-0.2v-0.7c0-0.1,0-0.1,0-0.2c0-0.1,0-0.1,0-0.2V241.8z"/>
</g>
<g id="Layer_3" class="st0">
	<path class="st3" d="M-6.6,66.4c-29.1,42.8-18,101.4,24.8,130.5c38.8,26.4,90.5,19.8,121.5-13.6l66.9,45.5
		c3.2,2.2,7.1,2.9,10.6,2.2c3.6-0.7,6.9-2.7,9.1-5.9c4.4-6.5,2.7-15.3-3.7-19.7L155.8,160c19.8-41.2,7.1-91.9-31.8-118.4
		C81.1,12.4,22.6,23.6-6.6,66.4z M136,146.5c-1.8,4.2-4,8.4-6.7,12.3c-2.8,4.1-5.9,7.8-9.3,11.1c-23.5,22.7-60.4,26.6-88.4,7.5
		c-32.1-21.8-40.4-65.6-18.6-97.7c21.8-32.1,65.7-40.4,97.7-18.6C138.8,80.2,148.7,116.3,136,146.5z"/>
</g>
<g id="Layer_4" class="st0">
	<circle class="st3" cx="9.7" cy="136.7" r="32.7"/>
	<circle class="st3" cx="103" cy="136.7" r="32.7"/>
	<circle class="st3" cx="196.3" cy="136.7" r="32.7"/>
</g>
<g id="Layer_5" class="st0">
	<circle class="st6" cx="103.5" cy="133.8" r="107.5"/>
	<path class="st7" d="M74.9,105.1v57.4c0,6.4,6.9,10.4,12.4,7.2l49.7-28.7c5.5-3.2,5.5-11.2,0-14.4L87.4,97.9
		C81.8,94.7,74.9,98.7,74.9,105.1z"/>
</g>
<g id="Layer_6" class="st0">
	<circle class="st8" cx="103.7" cy="133.7" r="109.7"/>
	<path class="st7" d="M63.5,90.5v86.3c0,9.6,10.4,15.6,18.7,10.8l74.7-43.1c8.3-4.8,8.3-16.8,0-21.6L82.2,79.7
		C73.9,74.9,63.5,80.9,63.5,90.5z"/>
</g>
<g id="Layer_7" class="st0">
	<path class="st7" d="M51.3,131.8c0,14.9,12,26.9,26.9,26.9c6.5,0,12.4-2.3,17.1-6.1c4-3.3,9.8-3.3,13.8,0
		c4.6,3.8,10.6,6.1,17.1,6.1c14.9,0,26.9-12,26.9-26.9c0-28.1-45.1-58.9-50.9-58.9C96.4,73,51.3,103.6,51.3,131.8z"/>
	<path class="st7" d="M124.6,194.3H79.7c-3.1,0-4.6-3.7-2.5-5.9c10.8-11.1,19.4-22.5,25-22.5c5.6,0,14.2,11.4,24.9,22.5
		C129.2,190.6,127.6,194.3,124.6,194.3z"/>
	<circle class="st6" cx="103.1" cy="133.8" r="104.4"/>
</g>
<g id="Layer_8" class="st0">
	<path class="st9" d="M118,138.5h25.1v-26.2H118V76.4h33.1l-5.2-28.3h-30.8l-28.1,56.6v95.1h57.7l5.2-28.3H118V138.5z M86.9,48.1
		v33.8l26.3-33.8H86.9z"/>
	<circle class="st10" cx="113.8" cy="124" r="115"/>
</g>
<g id="Layer_9" class="st0">
	<circle class="st11" cx="117.5" cy="119.5" r="113.5"/>
	<path class="st12" d="M170.1,172.1L170.1,172.1c-2.2,2.2-5.8,2.2-8,0l-44.2-44.2l-44.2,44.2c-2.2,2.2-5.8,2.2-8,0l0,0
		c-2.2-2.2-2.2-5.8,0-8l44.2-44.2L65.6,75.6c-2.2-2.2-2.2-5.8,0-8l0,0c2.2-2.2,5.8-2.2,8,0l44.2,44.2L162,67.6c2.2-2.2,5.8-2.2,8,0
		l0,0c2.2,2.2,2.2,5.8,0,8l-44.2,44.2l44.2,44.2C172.3,166.3,172.3,169.9,170.1,172.1z"/>
</g>
<g id="Layer_10" class="st0">
	<path class="st13" d="M118.4,81.1l-37.6,30.2l13.1,46.5h47.4 M118.4,81.1l-37.6,30.2l13.1,46.5h47.4l14.7-46.5L118.4,81.1z
		 M118.1,4.3C54.5,4.2,3,55.8,3,119.4c0.1,63.2,51.7,114.8,114.9,114.9c63.6,0.1,115.1-51.5,115.1-115.1
		C232.9,56,181.3,4.3,118.1,4.3z M164.1,178.2l-16,42.5c-9.6,2.8-19.6,4.3-30.1,4.3s-20.5-1.5-30.1-4.3l-15.2-40.9l-41.2,0.4
		c-11.3-16-18.3-35.4-19.2-56.3L49,95.8L33.9,55.1C46,39.3,62.2,27.2,81,20.1l37.4,26.7L155,20.1c18.9,7.1,35,19.2,47.1,35
		l-16.7,42.3l38.4,26.6c-0.9,20.9-7.9,40.3-19.2,56.3L164.1,178.2z M118.4,81.1l-37.6,30.2l13.1,46.5h47.4 M80.9,111.3l13.1,46.5
		h47.4 M80.9,111.3l13.1,46.5h47.4"/>
</g>
<g id="Layer_11">
	<circle class="st14" cx="119.5" cy="119.8" r="110.5"/>
	<circle class="st15" cx="120.2" cy="67.1" r="22.2"/>
	<circle class="st15" cx="120.2" cy="173.2" r="22.2"/>
	<circle class="st15" cx="173.3" cy="120.1" r="22.2"/>
	<circle class="st15" cx="120.9" cy="120.5" r="9.7"/>
	<circle class="st15" cx="67.2" cy="120.1" r="22.2"/>
</g>
</svg>
