<?xml version="1.0" encoding="utf-8"?>
<!-- Generator: Adobe Illustrator 21.0.2, SVG Export Plug-In . SVG Version: 6.00 Build 0)  -->
<svg version="1.1" xmlns="http://www.w3.org/2000/svg" xmlns:xlink="http://www.w3.org/1999/xlink" x="0px" y="0px"
	 viewBox="0 0 147 269" style="enable-background:new 0 0 147 269;" xml:space="preserve">
<style type="text/css">
	.st0{display:none;}
	.st1{display:inline;fill:#EFEFEF;}
	.st2{display:inline;fill:#EF2648;}
	.st3{display:inline;fill:#154D84;}
	.st4{display:inline;fill:#555654;}
	.st5{display:inline;fill:#EF2648;stroke:#EF2648;stroke-width:3.7889;stroke-miterlimit:10;}
	.st6{display:inline;fill:none;stroke:#525D67;stroke-width:18;stroke-miterlimit:10;}
	.st7{display:inline;fill:#525D67;}
	.st8{display:inline;fill:none;stroke:#525D67;stroke-width:11.2615;stroke-miterlimit:10;}
	.st9{display:inline;fill:#EC2C55;}
	.st10{display:inline;fill:none;stroke:#EC2C55;stroke-width:18;stroke-miterlimit:10;}
	.st11{display:inline;fill:none;stroke:#525D67;stroke-width:12.0531;stroke-miterlimit:10;}
	.st12{display:inline;fill:#525D67;stroke:#525D67;stroke-width:3.3481;stroke-miterlimit:10;}
	.st13{display:inline;fill:#F81626;stroke:#F81626;stroke-width:8.1641;stroke-miterlimit:10;}
	.st14{display:inline;fill:none;stroke:#525D67;stroke-width:16.9612;stroke-miterlimit:10;}
	.st15{display:inline;}
	.st16{fill:#525D67;}
	.st17{fill:#545554;}
	.st18{display:inline;fill:none;stroke:#525D67;stroke-width:10.2123;stroke-miterlimit:10;}
	.st19{display:inline;fill:#CE3C51;stroke:#9B1B37;stroke-width:9.1207;stroke-miterlimit:10;}
	.st20{display:inline;fill:#F9D43A;}
	.st21{display:inline;opacity:0.3;fill:#514042;}
	.st22{display:inline;fill:#69A86D;}
	.st23{display:inline;opacity:0.6;fill:#576B67;}
	.st24{display:inline;fill:#618C67;}
	.st25{display:inline;opacity:0.4;fill:#576B67;}
	.st26{display:inline;opacity:0.3;fill:#F7C6CB;}
	.st27{display:inline;fill:#F9EDBB;}
	.st28{display:inline;fill:#E04457;stroke:#C12B44;stroke-width:9.1442;stroke-miterlimit:10;}
	.st29{display:inline;fill:#797C79;}
	.st30{display:inline;fill:#8A8E8A;}
	.st31{fill:#4F5151;}
	.st32{display:inline;fill:#E5E5E5;}
	.st33{display:inline;fill:#ED3AE8;}
	.st34{display:inline;fill:#F25CCF;}
	.st35{fill:#D305C4;}
	.st36{display:inline;fill:#FFDEFE;}
	.st37{display:inline;fill:#08BFFF;}
	.st38{display:inline;fill:#3CCFF7;}
	.st39{fill:#0083CA;}
	.st40{display:inline;fill:#DCFAFF;}
	.st41{display:inline;fill:none;stroke:#08BFFF;stroke-width:18;stroke-miterlimit:10;}
</style>
<g id="Layer_1" class="st0">
	<path class="st1" d="M241.8,126v145.4c0,3.9-3.2,7-7,7H-6.6c-3.9,0-7-3.2-7-7V126c0-3.9,3.2-7,7-7h241.4
		C238.6,119,241.8,122.2,241.8,126z"/>
	<path class="st2" d="M242,190.4c0-2.3-1.9-4.2-4.2-4.2H126.9V123c0-2.1-1.7-3.8-3.8-3.8H118c-0.2,0-0.4,0-0.6,0.1
		c-0.2,0-0.4-0.1-0.6-0.1h-5.1c-0.2,0-0.4,0-0.6,0.1c-0.2,0-0.4-0.1-0.6-0.1h-5.1c-2.1,0-3.8,1.7-3.8,3.8v63.3H-9.2
		c-2.3,0-4.2,1.9-4.2,4.2v4.2c0,0.4,0.1,0.7,0.2,1.1c-0.1,0.3-0.2,0.7-0.2,1.1v4.2c0,0.4,0.1,0.7,0.2,1.1c-0.1,0.3-0.2,0.7-0.2,1.1
		v4.2c0,2.3,1.9,4.2,4.2,4.2h110.9v63.3c0,2.1,1.7,3.8,3.8,3.8h5.1c0.2,0,0.4,0,0.6-0.1c0.2,0,0.4,0.1,0.6,0.1h5.1
		c0.2,0,0.4,0,0.6-0.1c0.2,0,0.4,0.1,0.6,0.1h5.1c2.1,0,3.8-1.7,3.8-3.8v-63.3h110.9c2.3,0,4.2-1.9,4.2-4.2V203
		c0-0.4-0.1-0.7-0.2-1.1c0.1-0.3,0.2-0.7,0.2-1.1v-4.2c0-0.4-0.1-0.7-0.2-1.1c0.1-0.3,0.2-0.7,0.2-1.1V190.4z"/>
	<path class="st3" d="M241.8,224.1v33.3l-48.3-27.5c-2.8-1.6-1.7-5.8,1.5-5.8H241.8z"/>
	<path class="st3" d="M228,278.4h-88.4v-46.2c0,0,0,0,0,0c0-1.8,2-2.9,3.6-2L228,278.4z"/>
	<path class="st3" d="M241.8,173.4v-33.3l-48.3,27.5c-2.8,1.6-1.7,5.8,1.5,5.8H241.8z"/>
	<path class="st3" d="M228,119h-88.4v46.2c0,0,0,0,0,0c0,1.8,2,2.9,3.6,2L228,119z"/>
	<path class="st3" d="M-13.6,173.4v-33.3l48.3,27.5c2.8,1.6,1.7,5.8-1.5,5.8H-13.6z"/>
	<path class="st3" d="M0.1,119h88.4v46.2c0,0,0,0,0,0c0,1.8-2,2.9-3.6,2L0.1,119z"/>
	<path class="st3" d="M-13.6,224.1v33.3l48.3-27.5c2.8-1.6,1.7-5.8-1.5-5.8H-13.6z"/>
	<path class="st3" d="M0.1,278.4h88.4v-46.2c0,0,0,0,0,0c0-1.8-2-2.9-3.6-2L0.1,278.4z"/>
</g>
<g id="Layer_2" class="st0">
	<path class="st4" d="M-19,100.9v-0.4l0-4.3C-18.7,97.7-18.7,99.3-19,100.9z"/>
	<path class="st1" d="M241.8,126.9v144.5c0,3.8-3.1,7-7,7H-5c-3.8,0-7-3.1-7-7V126.9c0-3.8,3.1-7,7-7h239.8
		C238.7,119.9,241.8,123.1,241.8,126.9z"/>
	<path class="st2" d="M242,190.9c0-2.3-1.9-4.2-4.2-4.2H127.6v-62.8c0-2.1-1.7-3.7-3.7-3.7h-5c-0.2,0-0.4,0-0.6,0.1
		c-0.2,0-0.4-0.1-0.6-0.1h-5c-0.2,0-0.4,0-0.6,0.1c-0.2,0-0.4-0.1-0.6-0.1h-5c-2.1,0-3.7,1.7-3.7,3.7v62.8H-7.6
		c-2.3,0-4.2,1.9-4.2,4.2v4.1c0,0.4,0.1,0.7,0.1,1c-0.1,0.3-0.1,0.7-0.1,1.1v4.1c0,0.4,0.1,0.7,0.1,1c-0.1,0.3-0.1,0.7-0.1,1.1v4.1
		c0,2.3,1.9,4.2,4.2,4.2h110.2v62.8c0,2.1,1.7,3.7,3.7,3.7h5c0.2,0,0.4,0,0.6-0.1c0.2,0,0.4,0.1,0.6,0.1h5c0.2,0,0.4,0,0.6-0.1
		c0.2,0,0.4,0.1,0.6,0.1h5c2.1,0,3.7-1.7,3.7-3.7v-62.8h110.2c2.3,0,4.2-1.9,4.2-4.2v-4.1c0-0.4-0.1-0.7-0.1-1.1
		c0.1-0.3,0.1-0.7,0.1-1v-4.1c0-0.4-0.1-0.7-0.1-1.1c0.1-0.3,0.1-0.7,0.1-1V190.9z"/>
	<path class="st5" d="M206.3,148.3c0-0.4-0.3-0.7-0.7-0.7h-18.3v-10.4c0-0.3-0.3-0.6-0.6-0.6h-0.8c0,0-0.1,0-0.1,0c0,0-0.1,0-0.1,0
		h-0.8c0,0-0.1,0-0.1,0c0,0-0.1,0-0.1,0h-0.8c-0.3,0-0.6,0.3-0.6,0.6v10.4h-18.3c-0.4,0-0.7,0.3-0.7,0.7v0.7c0,0.1,0,0.1,0,0.2
		c0,0.1,0,0.1,0,0.2v0.7c0,0.1,0,0.1,0,0.2c0,0.1,0,0.1,0,0.2v0.7c0,0.4,0.3,0.7,0.7,0.7h18.3v10.4c0,0.3,0.3,0.6,0.6,0.6h0.8
		c0,0,0.1,0,0.1,0c0,0,0.1,0,0.1,0h0.8c0,0,0.1,0,0.1,0c0,0,0.1,0,0.1,0h0.8c0.3,0,0.6-0.3,0.6-0.6v-10.4h18.3
		c0.4,0,0.7-0.3,0.7-0.7v-0.7c0-0.1,0-0.1,0-0.2c0-0.1,0-0.1,0-0.2v-0.7c0-0.1,0-0.1,0-0.2c0-0.1,0-0.1,0-0.2V148.3z"/>
	<path class="st5" d="M206.3,241.8c0-0.4-0.3-0.7-0.7-0.7h-18.3v-10.4c0-0.3-0.3-0.6-0.6-0.6h-0.8c0,0-0.1,0-0.1,0c0,0-0.1,0-0.1,0
		h-0.8c0,0-0.1,0-0.1,0c0,0-0.1,0-0.1,0h-0.8c-0.3,0-0.6,0.3-0.6,0.6v10.4h-18.3c-0.4,0-0.7,0.3-0.7,0.7v0.7c0,0.1,0,0.1,0,0.2
		c0,0.1,0,0.1,0,0.2v0.7c0,0.1,0,0.1,0,0.2c0,0.1,0,0.1,0,0.2v0.7c0,0.4,0.3,0.7,0.7,0.7h18.3v10.4c0,0.3,0.3,0.6,0.6,0.6h0.8
		c0,0,0.1,0,0.1,0c0,0,0.1,0,0.1,0h0.8c0,0,0.1,0,0.1,0c0,0,0.1,0,0.1,0h0.8c0.3,0,0.6-0.3,0.6-0.6v-10.4h18.3
		c0.4,0,0.7-0.3,0.7-0.7v-0.7c0-0.1,0-0.1,0-0.2c0-0.1,0-0.1,0-0.2v-0.7c0-0.1,0-0.1,0-0.2c0-0.1,0-0.1,0-0.2V241.8z"/>
	<path class="st5" d="M63.2,148.3c0-0.4-0.3-0.7-0.7-0.7H44.2v-10.4c0-0.3-0.3-0.6-0.6-0.6h-0.8c0,0-0.1,0-0.1,0c0,0-0.1,0-0.1,0
		h-0.8c0,0-0.1,0-0.1,0c0,0-0.1,0-0.1,0h-0.8c-0.3,0-0.6,0.3-0.6,0.6v10.4H21.8c-0.4,0-0.7,0.3-0.7,0.7v0.7c0,0.1,0,0.1,0,0.2
		c0,0.1,0,0.1,0,0.2v0.7c0,0.1,0,0.1,0,0.2c0,0.1,0,0.1,0,0.2v0.7c0,0.4,0.3,0.7,0.7,0.7h18.3v10.4c0,0.3,0.3,0.6,0.6,0.6h0.8
		c0,0,0.1,0,0.1,0c0,0,0.1,0,0.1,0h0.8c0,0,0.1,0,0.1,0c0,0,0.1,0,0.1,0h0.8c0.3,0,0.6-0.3,0.6-0.6v-10.4h18.3
		c0.4,0,0.7-0.3,0.7-0.7v-0.7c0-0.1,0-0.1,0-0.2c0-0.1,0-0.1,0-0.2v-0.7c0-0.1,0-0.1,0-0.2c0-0.1,0-0.1,0-0.2V148.3z"/>
	<path class="st5" d="M63.2,241.8c0-0.4-0.3-0.7-0.7-0.7H44.2v-10.4c0-0.3-0.3-0.6-0.6-0.6h-0.8c0,0-0.1,0-0.1,0c0,0-0.1,0-0.1,0
		h-0.8c0,0-0.1,0-0.1,0c0,0-0.1,0-0.1,0h-0.8c-0.3,0-0.6,0.3-0.6,0.6v10.4H21.8c-0.4,0-0.7,0.3-0.7,0.7v0.7c0,0.1,0,0.1,0,0.2
		c0,0.1,0,0.1,0,0.2v0.7c0,0.1,0,0.1,0,0.2c0,0.1,0,0.1,0,0.2v0.7c0,0.4,0.3,0.7,0.7,0.7h18.3v10.4c0,0.3,0.3,0.6,0.6,0.6h0.8
		c0,0,0.1,0,0.1,0c0,0,0.1,0,0.1,0h0.8c0,0,0.1,0,0.1,0c0,0,0.1,0,0.1,0h0.8c0.3,0,0.6-0.3,0.6-0.6v-10.4h18.3
		c0.4,0,0.7-0.3,0.7-0.7v-0.7c0-0.1,0-0.1,0-0.2c0-0.1,0-0.1,0-0.2v-0.7c0-0.1,0-0.1,0-0.2c0-0.1,0-0.1,0-0.2V241.8z"/>
</g>
<g id="Layer_3" class="st0">
	<path class="st3" d="M6.4,66.4c-29.1,42.8-18,101.4,24.8,130.5c38.8,26.4,90.5,19.8,121.5-13.6l66.9,45.5c3.2,2.2,7.1,2.9,10.6,2.2
		c3.6-0.7,6.9-2.7,9.1-5.9c4.4-6.5,2.7-15.3-3.7-19.7L168.8,160c19.8-41.2,7.1-91.9-31.8-118.4C94.1,12.4,35.6,23.6,6.4,66.4z
		 M149,146.5c-1.8,4.2-4,8.4-6.7,12.3c-2.8,4.1-5.9,7.8-9.3,11.1c-23.5,22.7-60.4,26.6-88.4,7.5c-32.1-21.8-40.4-65.6-18.6-97.7
		c21.8-32.1,65.7-40.4,97.7-18.6C151.8,80.2,161.7,116.3,149,146.5z"/>
</g>
<g id="Layer_4" class="st0">
	<circle class="st3" cx="22.7" cy="136.7" r="32.7"/>
	<circle class="st3" cx="116" cy="136.7" r="32.7"/>
	<circle class="st3" cx="209.3" cy="136.7" r="32.7"/>
</g>
<g id="Layer_5" class="st0">
	<circle class="st6" cx="116.5" cy="133.8" r="107.5"/>
	<path class="st7" d="M87.9,105.1v57.4c0,6.4,6.9,10.4,12.4,7.2l49.7-28.7c5.5-3.2,5.5-11.2,0-14.4l-49.7-28.7
		C94.8,94.7,87.9,98.7,87.9,105.1z"/>
</g>
<g id="Layer_6" class="st0">
	<circle class="st8" cx="116.7" cy="133.7" r="109.7"/>
	<path class="st7" d="M76.5,90.5v86.3c0,9.6,10.4,15.6,18.7,10.8l74.7-43.1c8.3-4.8,8.3-16.8,0-21.6L95.2,79.7
		C86.9,74.9,76.5,80.9,76.5,90.5z"/>
</g>
<g id="Layer_7" class="st0">
	<path class="st7" d="M64.3,131.8c0,14.9,12,26.9,26.9,26.9c6.5,0,12.4-2.3,17.1-6.1c4-3.3,9.8-3.3,13.8,0
		c4.6,3.8,10.6,6.1,17.1,6.1c14.9,0,26.9-12,26.9-26.9c0-28.1-45.1-58.9-50.9-58.9C109.4,73,64.3,103.6,64.3,131.8z"/>
	<path class="st7" d="M137.6,194.3H92.7c-3.1,0-4.6-3.7-2.5-5.9c10.8-11.1,19.4-22.5,25-22.5c5.6,0,14.2,11.4,24.9,22.5
		C142.2,190.6,140.6,194.3,137.6,194.3z"/>
	<circle class="st6" cx="116.1" cy="133.8" r="104.4"/>
</g>
<g id="Layer_8" class="st0">
	<path class="st9" d="M131,138.5h25.1v-26.2H131V76.4h33.1l-5.2-28.3h-30.8l-28.1,56.6v95.1h57.7l5.2-28.3H131V138.5z M99.9,48.1
		v33.8l26.3-33.8H99.9z"/>
	<circle class="st10" cx="126.8" cy="124" r="115"/>
</g>
<g id="Layer_9" class="st0">
	<circle class="st11" cx="130.5" cy="119.5" r="113.5"/>
	<path class="st12" d="M183.1,172.1L183.1,172.1c-2.2,2.2-5.8,2.2-8,0l-44.2-44.2l-44.2,44.2c-2.2,2.2-5.8,2.2-8,0l0,0
		c-2.2-2.2-2.2-5.8,0-8l44.2-44.2L78.6,75.6c-2.2-2.2-2.2-5.8,0-8l0,0c2.2-2.2,5.8-2.2,8,0l44.2,44.2L175,67.6c2.2-2.2,5.8-2.2,8,0
		l0,0c2.2,2.2,2.2,5.8,0,8l-44.2,44.2l44.2,44.2C185.3,166.3,185.3,169.9,183.1,172.1z"/>
</g>
<g id="Layer_10" class="st0">
	<path class="st13" d="M131.4,81.1l-37.6,30.2l13.1,46.5h47.4 M131.4,81.1l-37.6,30.2l13.1,46.5h47.4l14.7-46.5L131.4,81.1z
		 M131.1,4.3C67.5,4.2,16,55.8,16,119.4c0.1,63.2,51.7,114.8,114.9,114.9c63.6,0.1,115.1-51.5,115.1-115.1
		C245.9,56,194.3,4.3,131.1,4.3z M177.1,178.2l-16,42.5c-9.6,2.8-19.6,4.3-30.1,4.3s-20.5-1.5-30.1-4.3l-15.2-40.9l-41.2,0.4
		c-11.3-16-18.3-35.4-19.2-56.3L62,95.8L46.9,55.1C59,39.3,75.2,27.2,94,20.1l37.4,26.7L168,20.1c18.9,7.1,35,19.2,47.1,35
		l-16.7,42.3l38.4,26.6c-0.9,20.9-7.9,40.3-19.2,56.3L177.1,178.2z M131.4,81.1l-37.6,30.2l13.1,46.5h47.4 M93.9,111.3l13.1,46.5
		h47.4 M93.9,111.3l13.1,46.5h47.4"/>
</g>
<g id="Layer_11" class="st0">
	<circle class="st6" cx="132.5" cy="119.8" r="110.5"/>
	<circle class="st7" cx="133.2" cy="67.1" r="22.2"/>
	<circle class="st7" cx="133.2" cy="173.2" r="22.2"/>
	<circle class="st7" cx="186.3" cy="120.1" r="22.2"/>
	<circle class="st7" cx="133.9" cy="120.5" r="9.7"/>
	<circle class="st7" cx="80.2" cy="120.1" r="22.2"/>
</g>
<g id="Layer_12" class="st0">
	<circle class="st7" cx="134.2" cy="130.6" r="32"/>
	<path class="st14" d="M66,101.5c11.8-27.2,39.3-45.8,70.7-44.7c29.3,0.9,54,18.6,65.4,43.6"/>
	<path class="st14" d="M23.7,83.8C42.9,40.2,87.2,10.4,137.8,12c47,1.5,86.9,29.8,105.5,69.7"/>
	<path class="st14" d="M232.7,231H35.8c-6.2,0-11.3-5.1-11.3-11.3v-71.6c0-6.2,5.1-11.3,11.3-11.3h196.9c6.2,0,11.3,5.1,11.3,11.3
		v71.6C244,225.9,238.9,231,232.7,231z"/>
</g>
<g id="Layer_13" class="st0">
	<g class="st15">
		<path class="st16" d="M216.4,11.6l-0.3-0.3l-0.3-0.3c-5.6-5.3-24.9-6.9-30.4-6.5c-7.9,0.6-12.6,6.6-16.1,11
			c-0.7,0.9-1.8,2.3-2.5,3h-63.2c-0.7-0.7-1.7-2-2.5-3c-3.5-4.4-8.2-10.4-16.1-11C79.6,4.1,58.8,5.8,53.2,11l-0.3,0.3l-0.3,0.3
			c-58.2,61.8-38.4,132.9,1.4,144.1l0.2,0l20.3,6.1c1.2,0.2,2.4,0.3,3.5,0.3c7.5,0,13.8-3.8,17.9-10.9c3.4-5.8,4.8-12.8,5.8-17.8
			c0-0.2,0.1-0.5,0.1-0.7h66.6c0.1,0.3,0.1,0.5,0.1,0.7c1,5.1,2.4,12,5.8,17.8c4.1,7.1,10.4,10.9,17.9,10.9c1.1,0,2.3-0.1,3.5-0.3
			l21.8-6.1l0.2,0c8.8-1.7,15.1-6.8,20.4-13.1C259.8,117.4,258.4,61.3,216.4,11.6z M226,134.6c-8.7,9.2-32.3,12.8-32.3,12.8
			c-5.3,0.8-7.9-3.4-10.7-16.9c-0.4-2.1-0.8-4-1.3-5.5c-2-6.3-6.4-7-8.3-7H97c-1.8,0-6.3,0.7-8.3,7c-0.5,1.5-0.9,3.4-1.3,5.5
			c-2.7,13.5-5.3,17.7-10.7,16.9l-20-6.1c-5-1-19.1-14.4-24.2-29.8c0,0-13.2-42.5,31-90.1c2.5-2.3,19.7-2.3,20.4-2.3
			c1.4,0.1,4.1,3.4,5.7,5.4c3,3.8,6.8,8.5,12.7,8.5h65.7c6,0,9.7-4.7,12.7-8.5c1.6-2,4.2-5.3,5.7-5.4c0.8-0.1,16.5,0,19,2.3
			c39.7,47,31.6,87.2,31.6,87.2C234.9,119.6,230.7,129.7,226,134.6z"/>
	</g>
	<path class="st7" d="M104.3,78.3c0,2.3-1,4.4-2.5,6c-1.5,1.5-3.6,2.5-6,2.5h-6.7v5.2c0,4.6-3.8,8.4-8.4,8.4c-4.6,0-8.4-3.8-8.4-8.4
		v-5.2h-5.8c-4.6,0-8.4-3.8-8.4-8.4c0-4.6,3.8-8.4,8.4-8.4h5.8v-7.3c0-4.6,3.8-8.4,8.4-8.4c2.3,0,4.4,0.9,6,2.5
		c1.5,1.5,2.5,3.6,2.5,6v7.3h6.7C100.5,69.9,104.3,73.7,104.3,78.3z"/>
	<ellipse transform="matrix(0.7071 -0.7071 0.7071 0.7071 13.9434 150.5684)" class="st7" cx="188.7" cy="58.5" rx="8.4" ry="8.4"/>
	<ellipse transform="matrix(0.7071 -0.7071 0.7071 0.7071 5.8775 170.204)" class="st7" cx="208.4" cy="78" rx="8.4" ry="8.4"/>
	<ellipse transform="matrix(0.7071 -0.7071 0.7071 0.7071 -6.3183 141.7466)" class="st7" cx="167.9" cy="78.5" rx="8.4" ry="8.4"/>
	<ellipse transform="matrix(0.7071 -0.7071 0.7071 0.7071 -14.9551 162.434)" class="st7" cx="188.6" cy="99.3" rx="8.4" ry="8.4"/>
</g>
<g id="Layer_14" class="st0">
	<g class="st15">
		<path class="st16" d="M66.6,4v38.2H16.3v87.6c0,17.6,14.2,32,31.8,32.2c0.6,0,1.1,0,1.7-0.1l-0.1,0.1H194
			c17.8,0,32.2-14.4,32.2-32.2V4H66.6z M48.5,148.7h-0.8c0.1,0,0.2,0,0.3,0c-10.2-0.3-18.5-8.7-18.5-18.9V55.4h37.1v74.4
			c0,10.3-8.2,18.7-18.5,18.9C48.3,148.7,48.4,148.7,48.5,148.7z M213,129.8c0,10.4-8.5,18.9-18.9,18.9H79.9V17.3H213V129.8z"/>
	</g>
	<g class="st15">
		<path class="st17" d="M50.2,162c-0.1,0-0.3,0-0.4,0h0.8C50.5,162,50.4,162,50.2,162z"/>
	</g>
	<path class="st18" d="M135.1,73.8h-26.7c-2.8,0-5-2.3-5-5V42.6c0-2.8,2.3-5,5-5h26.7c2.8,0,5,2.3,5,5v26.3
		C140.1,71.6,137.9,73.8,135.1,73.8z"/>
	<path class="st7" d="M191.5,51.2h-23.9c-1.9,0-3.4-1.5-3.4-3.4v-5.3c0-1.9,1.5-3.4,3.4-3.4h23.9c1.9,0,3.4,1.5,3.4,3.4v5.3
		C194.9,49.6,193.4,51.2,191.5,51.2z"/>
	<path class="st7" d="M191.5,76.1h-23.9c-1.9,0-3.4-1.5-3.4-3.4v-5.3c0-1.9,1.5-3.4,3.4-3.4h23.9c1.9,0,3.4,1.5,3.4,3.4v5.3
		C194.9,74.6,193.4,76.1,191.5,76.1z"/>
	<path class="st7" d="M188.8,109h-84.3c-3.4,0-6.1-2.7-6.1-6.1l0,0c0-3.4,2.7-6.1,6.1-6.1h84.3c3.4,0,6.1,2.7,6.1,6.1l0,0
		C194.9,106.2,192.2,109,188.8,109z"/>
	<path class="st7" d="M188.8,135h-84.3c-3.4,0-6.1-2.7-6.1-6.1l0,0c0-3.4,2.7-6.1,6.1-6.1h84.3c3.4,0,6.1,2.7,6.1,6.1l0,0
		C194.9,132.2,192.2,135,188.8,135z"/>
</g>
<g id="Layer_15" class="st0">
	<path class="st19" d="M186.1,96c0,33.2-30,60-66.9,60s-66.9-26.9-66.9-60c0-21.7,12.9-40.7,32.1-51.3c10.2-5.6,22.1-8.8,34.8-8.8
		c13.3,0,25.7,3.5,36.1,9.5C173.8,56.1,186.1,74.7,186.1,96z"/>
	<path class="st20" d="M128.7,94.8c0-7.3,5.9,0.2,13.2,0.2c7.3,0,13.2-7.5,13.2-0.2c0,7.3-5.9,13.2-13.2,13.2
		C134.7,108.1,128.7,102.1,128.7,94.8z"/>
	<path class="st20" d="M83.1,94.8c0-7.3,5.7,0.2,13,0.2s13.5-7.5,13.5-0.2c0,7.3-5.9,13.2-13.2,13.2S83.1,102.1,83.1,94.8z"/>
	<path class="st21" d="M111.8,31.2c13.3-0.4,29.1,2.2,40.4,7.4c-0.5,1-5.4,8.6-6.1,9.5c-0.6,0.7-1.3,1.6-2.1,2.5
		c0.9,1,1.6,1.9,2.2,2.7c6.4,8.3,9.9,25.1,1.6,31.6c-8.3,6.4-25.1,0-31.6-8.3c-1-1.3-2.2-2.9-3.6-4.9c0.1-0.2,0.2-0.4,0.4-0.6
		c0.8,0,1.5-0.1,2.3-0.3c-0.8,0.2-1.5,0.2-2.3,0.3c-0.2,0-0.4,0-0.6,0c-0.1,0-0.1,0-0.2,0c-0.9,0-1.7-0.1-2.6-0.3
		c0.9,0.2,1.7,0.3,2.6,0.3c0.1,0.2,0.2,0.4,0.4,0.5c-1.3,2-2.6,3.6-3.6,4.9c-6.4,8.3-28.2,19.6-36.5,13.2
		c-8.3-6.4,0.2-28.2,6.6-36.5c0.6-0.7,1.3-1.6,2.1-2.5c-0.9-1-1.6-1.9-2.2-2.7l-3-3.9C76.2,44.3,95.7,31.7,111.8,31.2z"/>
	<path class="st22" d="M147.4,78.2c-6.5,5.1-19.7,0-24.8-6.5c-0.8-1-1.7-2.3-2.8-3.9c0.1-0.1,0.2-0.3,0.3-0.4c0.6,0,1.2-0.1,1.8-0.2
		c-0.6,0.1-1.2,0.2-1.8,0.2c-0.1,0-0.3,0-0.4,0c-0.1,0-0.1,0-0.2,0c-0.7,0-1.4-0.1-2.1-0.2c0.7,0.2,1.4,0.2,2.1,0.2
		c0.1,0.1,0.2,0.3,0.3,0.4c-1,1.5-2,2.9-2.8,3.9c-5,6.5-22.2,15.4-28.6,10.4c-6.5-5,0.1-22.2,5.2-28.6c0.4-0.6,1-1.2,1.6-1.9
		c-0.7-0.8-1.3-1.5-1.7-2.1c-5.1-6.5-5.5-17.4,1-22.5c6.5-5,17.4-2.3,22.5,4.2c0.8,1,1.7,2.3,2.8,3.9c-0.1,0.1-0.2,0.3-0.3,0.4
		c-0.6,0-1.2,0.1-1.8,0.2c0.6-0.1,1.2-0.2,1.8-0.2c0.1,0,0.3,0,0.4,0c0.1,0,0.1,0,0.2,0c0.7,0,1.3,0.1,2,0.2c-0.7-0.2-1.3-0.2-2-0.2
		c-0.1-0.1-0.2-0.3-0.3-0.4c1-1.5,2-2.9,2.8-3.9c5.1-6.5,14.4-7.6,20.9-2.6c6.5,5.1,7.6,14.4,2.6,20.9c-0.4,0.6-1,1.2-1.6,1.9
		c0.7,0.8,1.3,1.5,1.8,2.1C151.1,59.9,153.9,73.2,147.4,78.2z"/>
	<path class="st23" d="M136.1,68.7c-3.9,3.1-12,0-15.1-3.9c-0.5-0.6-1.1-1.4-1.7-2.3c0.1-0.1,0.1-0.2,0.2-0.3c0.4,0,0.7-0.1,1.1-0.1
		c-0.4,0.1-0.7,0.1-1.1,0.1c-0.1,0-0.2,0-0.3,0c0,0-0.1,0-0.1,0c-0.4,0-0.8-0.1-1.3-0.1c0.4,0.1,0.8,0.1,1.3,0.1
		c0.1,0.1,0.1,0.2,0.2,0.3c-0.6,0.9-1.2,1.7-1.7,2.3c-3.1,4-13.5,9.4-17.5,6.3c-3.9-3.1,0.1-13.5,3.2-17.5c0.3-0.4,0.6-0.7,1-1.2
		c-0.4-0.5-0.8-0.9-1.1-1.3c-3.1-4-3.3-10.6,0.6-13.7c4-3.1,10.6-1.4,13.7,2.6c0.5,0.6,1.1,1.4,1.7,2.3c-0.1,0.1-0.1,0.2-0.2,0.3
		c-0.4,0-0.7,0.1-1.1,0.1c0.4-0.1,0.7-0.1,1.1-0.1c0.1,0,0.2,0,0.3,0c0,0,0.1,0,0.1,0c0.4,0,0.8,0.1,1.2,0.1
		c-0.4-0.1-0.8-0.1-1.2-0.1c-0.1-0.1-0.1-0.2-0.2-0.3c0.6-0.9,1.2-1.7,1.7-2.3c3.1-3.9,8.8-4.7,12.7-1.6c4,3.1,4.7,8.8,1.6,12.7
		c-0.3,0.4-0.6,0.7-1,1.2c0.4,0.5,0.8,0.9,1.1,1.3C138.4,57.6,140,65.6,136.1,68.7z"/>
	<path class="st24" d="M144.9,27.5c-0.7,0.5-1.5,1-2.1,1.5c-16.5,12.4-15.9,27.7-26.3,23.3c-0.2-0.1-0.3-0.1-0.5-0.2
		c-12.5-5.8-3.5-29.9,0.1-37.9c3.7-8,13.1-11.4,21.1-7.7C145.1,10.1,152.1,22.6,144.9,27.5z"/>
	<path class="st25" d="M142.7,29.1c-16.5,12.4-15.9,27.7-26.3,23.3c1.4-6.3,3.8-12.3,5.3-15.5C125.4,28.9,134.8,25.4,142.7,29.1z"/>
	
		<ellipse transform="matrix(0.9721 -0.2345 0.2345 0.9721 -14.2371 42.9317)" class="st26" cx="173.4" cy="81.3" rx="12.3" ry="16.7"/>
	<path class="st27" d="M151.1,134.7c-11.1,1.7-21,0.3-27.6-3.6c-2.5-1.5-3.8-3.7-4.2-6c-0.4,2.3-1.7,4.6-4.2,6
		c-6.6,3.9-16.5,5.3-27.6,3.6C67.9,131.6,71.3,115,71.3,115s-1.6,18.2,18.6,6.2c8.2-4.9,15.3-6.3,20.8-6.3c4.9,0,8,3.5,8.6,7.4
		c0.6-3.9,3.8-7.4,8.6-7.4c5.5,0,12.6,1.4,20.8,6.3c20.1,12,18.6-6.2,18.6-6.2S170.8,131.6,151.1,134.7z"/>
</g>
<g id="Layer_16" class="st0">
	<path class="st28" d="M186.2,95.9c0,33.2-30,60.2-67.1,60.2S52,129.2,52,95.9c0-21.8,12.9-40.8,32.2-51.4
		c10.2-5.6,22.1-8.8,34.9-8.8c13.3,0,25.8,3.5,36.2,9.5C173.9,55.9,186.2,74.6,186.2,95.9z"/>
	<path class="st20" d="M109.5,109.2c0,7.3-5.9-0.2-13.3-0.2c-7.3,0-13.3,7.6-13.3,0.2c0-7.3,5.9-13.3,13.3-13.3
		C103.6,95.9,109.5,101.9,109.5,109.2z"/>
	<path class="st20" d="M155.3,109.2c0,7.3-5.7-0.2-13.1-0.2c-7.3,0-13.5,7.6-13.5,0.2c0-7.3,5.9-13.3,13.3-13.3
		S155.3,101.9,155.3,109.2z"/>
	<path class="st21" d="M111.7,31c13.3-0.4,29.2,2.2,40.5,7.4c-0.5,1-5.4,8.7-6.1,9.5c-0.6,0.7-1.3,1.6-2.1,2.5
		c0.9,1,1.6,1.9,2.2,2.7c6.4,8.3,9.9,25.2,1.6,31.6c-8.3,6.5-25.2,0-31.6-8.3c-1-1.3-2.2-3-3.6-4.9c0.1-0.2,0.2-0.4,0.4-0.6
		c0.8,0,1.6-0.1,2.3-0.3c-0.8,0.2-1.5,0.2-2.3,0.3c-0.2,0-0.4,0-0.6,0c-0.1,0-0.1,0-0.2,0c-0.9,0-1.7-0.1-2.6-0.3
		c0.9,0.2,1.7,0.3,2.6,0.3c0.1,0.2,0.2,0.4,0.4,0.5c-1.3,2-2.6,3.6-3.6,4.9c-6.4,8.3-28.3,19.7-36.6,13.2
		c-8.3-6.4,0.2-28.3,6.6-36.6c0.6-0.7,1.3-1.6,2.1-2.5c-0.9-1-1.6-1.9-2.2-2.7l-3-3.9C76,44.1,95.6,31.5,111.7,31z"/>
	<path class="st22" d="M147.4,78.1c-6.5,5.1-19.8,0-24.8-6.5c-0.8-1-1.8-2.3-2.8-3.9c0.1-0.1,0.2-0.3,0.3-0.4c0.6,0,1.2-0.1,1.8-0.2
		c-0.6,0.1-1.2,0.2-1.8,0.2c-0.1,0-0.3,0-0.4,0c-0.1,0-0.1,0-0.2,0c-0.7,0-1.4-0.1-2.1-0.2c0.7,0.2,1.4,0.2,2.1,0.2
		c0.1,0.1,0.2,0.3,0.3,0.4c-1.1,1.5-2,2.9-2.8,3.9c-5.1,6.5-22.2,15.4-28.7,10.4c-6.5-5.1,0.1-22.2,5.2-28.7c0.4-0.6,1-1.2,1.6-1.9
		c-0.7-0.8-1.3-1.5-1.8-2.1c-5.1-6.5-5.5-17.5,1-22.6c6.5-5.1,17.4-2.3,22.5,4.2c0.8,1,1.7,2.3,2.8,3.9c-0.1,0.1-0.2,0.3-0.3,0.4
		c-0.6,0-1.2,0.1-1.8,0.2c0.6-0.1,1.2-0.2,1.8-0.2c0.1,0,0.3,0,0.4,0c0.1,0,0.1,0,0.2,0c0.7,0,1.4,0.1,2.1,0.2
		c-0.7-0.2-1.4-0.2-2.1-0.2c-0.1-0.1-0.2-0.3-0.3-0.4c1.1-1.5,2-2.9,2.8-3.9c5.1-6.5,14.4-7.7,20.9-2.6c6.5,5.1,7.7,14.4,2.6,20.9
		c-0.4,0.6-1,1.2-1.6,1.9c0.7,0.8,1.3,1.5,1.8,2.1C151.1,59.8,153.9,73.1,147.4,78.1z"/>
	<path class="st23" d="M136,68.6c-4,3.1-12.1,0-15.1-4c-0.5-0.6-1.1-1.4-1.7-2.4c0.1-0.1,0.1-0.2,0.2-0.3c0.4,0,0.7-0.1,1.1-0.1
		c-0.4,0.1-0.7,0.1-1.1,0.1c-0.1,0-0.2,0-0.3,0c0,0-0.1,0-0.1,0c-0.4,0-0.8-0.1-1.3-0.1c0.4,0.1,0.8,0.1,1.3,0.1
		c0.1,0.1,0.1,0.2,0.2,0.3c-0.6,0.9-1.2,1.7-1.7,2.4c-3.1,4-13.5,9.4-17.5,6.3c-4-3.1,0.1-13.5,3.2-17.5c0.3-0.4,0.6-0.7,1-1.2
		c-0.4-0.5-0.8-0.9-1.1-1.3c-3.1-4-3.3-10.7,0.6-13.7c4-3.1,10.6-1.4,13.7,2.6c0.5,0.6,1.1,1.4,1.7,2.4c-0.1,0.1-0.1,0.2-0.2,0.3
		c-0.4,0-0.7,0.1-1.1,0.1c0.4-0.1,0.7-0.1,1.1-0.1c0.1,0,0.2,0,0.3,0c0,0,0.1,0,0.1,0c0.4,0,0.8,0.1,1.3,0.1
		c-0.4-0.1-0.8-0.1-1.3-0.1c-0.1-0.1-0.1-0.2-0.2-0.3c0.6-0.9,1.2-1.7,1.7-2.4c3.1-4,8.8-4.7,12.8-1.6c4,3.1,4.7,8.8,1.6,12.8
		c-0.3,0.4-0.6,0.7-1,1.2c0.4,0.5,0.8,0.9,1.1,1.3C138.3,57.4,140,65.5,136,68.6z"/>
	<path class="st24" d="M144.7,27.5c-0.7,0.5-1.5,1-2.1,1.5c-16.4,12.4-15.9,27.6-26.3,23.2c-0.2-0.1-0.3-0.1-0.5-0.2
		c-12.4-5.7-3.5-29.9,0.1-37.8c3.7-7.9,13.1-11.4,21-7.7C144.9,10.1,151.9,22.6,144.7,27.5z"/>
	<path class="st25" d="M142.5,29c-16.4,12.4-15.9,27.6-26.3,23.2c1.4-6.3,3.8-12.2,5.3-15.5C125.2,28.8,134.6,25.3,142.5,29z"/>
	
		<ellipse transform="matrix(0.9721 -0.2345 0.2345 0.9721 -14.2202 42.9453)" class="st26" cx="173.5" cy="81.3" rx="12.3" ry="16.8"/>
</g>
<g id="Layer_17" class="st0">
	<path class="st29" d="M175,147.9l-11.3-7.5c-2.3-1.6-5.5-1.3-7.5,0.7l-19.4,11.2c-0.7,0.4-1.4,0.9-2.1,1.4c-2.1,1.5-4.8,1.4-6.9,0
		c-0.7-0.5-1.4-1-2.1-1.4l-18.9-11.2c-2-2-5.1-2.3-7.5-0.7l-11.8,7.7c-4,2.6-9.3-0.3-9.3-5V58.6c0-26,21.3-47.3,47.3-47.3H137
		c26,0,47.3,21.3,47.3,47.3V143C184.3,147.7,179,150.6,175,147.9z"/>
	<path class="st30" d="M175.2,148.2l-11.3-7.5c-2.3-1.6-5.5-1.3-7.5,0.7l-19.4,11.2c-0.7,0.4-1.4,0.9-2.1,1.4
		c-2.1,1.5-4.8,1.4-6.9,0c-0.7-0.5-1.4-1-2.1-1.4l-18.9-11.2c-2-2-5.1-2.3-7.5-0.7l-11.8,7.7c-4,2.6-9.3-0.3-9.3-5v-8.8
		c0-26,52.2-47.3,78.2-47.3h11.4c26,0,16.5,21.3,16.5,47.3v8.7C184.6,148,179.2,150.9,175.2,148.2z"/>
	<g class="st15">
		<path class="st31" d="M131.3,161c-2.5,0-5-0.8-7.1-2.3l-0.3-0.2c-0.5-0.4-1-0.7-1.3-0.9L103,146.1l-0.4-0.4l-11.7,7.6
			c-3.8,2.5-8.5,2.7-12.5,0.5c-3.9-2.1-6.4-6.3-6.4-10.7V58.6C72,29,96,5,125.6,5H137c29.5,0,53.6,24,53.6,53.6V143
			c0,4.5-2.5,8.6-6.5,10.8c-4,2.1-8.8,1.9-12.5-0.6v0l-11.2-7.4l-0.4,0.4l-20,11.6c-0.4,0.2-0.9,0.6-1.4,0.9l-0.2,0.1
			C136.2,160.3,133.8,161,131.3,161z M110.5,136.1l18.4,10.8c0.9,0.5,1.6,1,2.3,1.5l0.1,0.1l0.1,0c0.7-0.5,1.4-1,2.3-1.5l18.8-10.9
			c4.1-3.4,10.1-3.8,14.6-0.8l11,7.3v-84c0-22.7-18.4-41.1-41.1-41.1h-11.4c-22.7,0-41.1,18.4-41.1,41.1v84.1l11.5-7.5
			C100.4,132.2,106.4,132.6,110.5,136.1z"/>
	</g>
	<circle class="st32" cx="100.7" cy="70.5" r="12.7"/>
	<circle class="st32" cx="140.9" cy="70.5" r="12.7"/>
</g>
<g id="Layer_18" class="st0">
	<path class="st33" d="M175.2,147.9l-11.3-7.5c-2.3-1.6-5.5-1.3-7.5,0.7L137,152.3c-0.7,0.4-1.4,0.9-2.1,1.4c-2.1,1.5-4.8,1.4-6.9,0
		c-0.7-0.5-1.4-1-2.1-1.4l-18.9-11.2c-2-2-5.1-2.3-7.5-0.7l-11.8,7.7c-4,2.6-9.3-0.3-9.3-5V58.6c0-26,21.3-47.3,47.3-47.3h11.4
		c26,0,47.3,21.3,47.3,47.3V143C184.5,147.7,179.2,150.6,175.2,147.9z"/>
	<path class="st34" d="M175.5,148.2l-11.3-7.5c-2.3-1.6-5.5-1.3-7.5,0.7l-19.4,11.2c-0.7,0.4-1.4,0.9-2.1,1.4
		c-2.1,1.5-4.8,1.4-6.9,0c-0.7-0.5-1.4-1-2.1-1.4l-18.9-11.2c-2-2-5.1-2.3-7.5-0.7L88,148.3c-4,2.6-9.3-0.3-9.3-5v-8.8
		c0-26,52.2-47.3,78.2-47.3h11.4c26,0,16.5,21.3,16.5,47.3v8.7C184.8,148,179.5,150.9,175.5,148.2z"/>
	<g class="st15">
		<path class="st35" d="M131.5,161c-2.5,0-5-0.8-7.1-2.3l-0.3-0.2c-0.5-0.4-1-0.7-1.3-0.9l-19.6-11.5l-0.4-0.4l-11.7,7.6
			c-3.8,2.5-8.5,2.7-12.5,0.5c-3.9-2.1-6.4-6.3-6.4-10.7V58.6C72.2,29,96.3,5,125.8,5h11.4c29.5,0,53.6,24,53.6,53.6V143
			c0,4.5-2.5,8.6-6.5,10.8c-4,2.1-8.8,1.9-12.5-0.6v0l-11.2-7.4l-0.4,0.4l-20,11.6c-0.4,0.2-0.9,0.6-1.4,0.9l-0.2,0.1
			C136.5,160.3,134,161,131.5,161z M110.8,136.1l18.4,10.8c0.9,0.5,1.6,1,2.3,1.5l0.1,0.1l0.1,0c0.7-0.5,1.4-1,2.3-1.5l18.8-10.9
			c4.1-3.4,10.1-3.8,14.6-0.8l11,7.3v-84c0-22.7-18.4-41.1-41.1-41.1h-11.4c-22.7,0-41.1,18.4-41.1,41.1v84.1l11.5-7.5
			C100.7,132.2,106.7,132.6,110.8,136.1z"/>
	</g>
	<circle class="st36" cx="101" cy="70.5" r="12.7"/>
	<circle class="st36" cx="141.1" cy="70.5" r="12.7"/>
</g>
<g id="Layer_19" class="st0">
	<path class="st37" d="M175.4,148l-11.3-7.6c-2.3-1.6-5.5-1.3-7.5,0.7l-19.4,11.2c-0.7,0.4-1.4,0.9-2.1,1.4c-2.1,1.5-4.9,1.4-6.9,0
		c-0.7-0.5-1.4-1-2.1-1.4l-18.9-11.2c-2-2-5.1-2.3-7.5-0.7l-11.8,7.7c-4,2.6-9.3-0.3-9.3-5V58.6c0-26.1,21.3-47.4,47.4-47.4h11.4
		c26.1,0,47.4,21.3,47.4,47.4V143C184.8,147.8,179.4,150.7,175.4,148z"/>
	<path class="st38" d="M175.7,148.3l-11.3-7.6c-2.3-1.6-5.5-1.3-7.5,0.7l-19.4,11.2c-0.7,0.4-1.4,0.9-2.1,1.4
		c-2.1,1.5-4.9,1.4-6.9,0c-0.7-0.5-1.4-1-2.1-1.4l-18.9-11.2c-2-2-5.1-2.3-7.5-0.7l-11.8,7.7c-4,2.6-9.3-0.3-9.3-5v-8.8
		c0-26.1,52.2-47.4,78.3-47.4h11.4c26.1,0,16.5,21.3,16.5,47.4v8.7C185,148.1,179.7,150.9,175.7,148.3z"/>
	<g class="st15">
		<path class="st39" d="M131.7,161.1c-2.5,0-5-0.8-7.1-2.3l-0.3-0.2c-0.5-0.4-1-0.7-1.3-0.9l-19.6-11.6l-0.4-0.4l-11.7,7.6
			c-3.8,2.5-8.6,2.7-12.5,0.5c-4-2.1-6.4-6.3-6.4-10.8V58.6C72.4,29,96.4,5,126,5h11.4C167,5,191,29,191,58.6V143
			c0,4.5-2.5,8.6-6.5,10.8c-4,2.1-8.8,1.9-12.6-0.6v0l-11.2-7.4l-0.4,0.4l-20,11.6c-0.4,0.2-0.9,0.6-1.4,0.9l-0.2,0.1
			C136.7,160.4,134.2,161.1,131.7,161.1z M110.9,136.1l18.4,10.8c0.9,0.5,1.6,1,2.3,1.5l0.1,0.1l0.1,0c0.7-0.5,1.4-1,2.3-1.5
			l18.8-10.9c4.1-3.4,10.1-3.8,14.6-0.8l11,7.3v-84c0-22.7-18.5-41.1-41.1-41.1H126c-22.7,0-41.1,18.5-41.1,41.1v84.1l11.5-7.5
			C100.9,132.3,106.9,132.7,110.9,136.1z"/>
	</g>
	<circle class="st40" cx="101.2" cy="70.5" r="12.7"/>
	<circle class="st40" cx="141.3" cy="70.5" r="12.7"/>
	<path class="st40" d="M158.9,106.3c-12.7,2-24.1,0.3-31.6-4.1c-2.9-1.7-4.4-4.2-4.8-6.9c-0.4,2.7-2,5.2-4.8,6.9
		c-7.6,4.4-18.9,6.1-31.6,4.1c-22.6-3.6-18.6-22.6-18.6-22.6s-1.8,20.9,21.3,7.1c9.4-5.6,17.5-7.2,23.9-7.2c5.6,0,9.2,4,9.9,8.5
		c0.7-4.5,4.3-8.5,9.9-8.5c6.3,0,14.5,1.6,23.9,7.2c23.1,13.8,21.3-7.1,21.3-7.1S181.5,102.8,158.9,106.3z"/>
</g>
<g id="Layer_20" class="st0">
	<g class="st15">
		<path class="st16" d="M253,49.6C231.9,33.2,188.7,5.7,135.6,5c-0.7,0-1.4,0-2.1,0c-0.7,0-1.4,0-2.1,0
			C77.6,5.7,34.9,31.9,14.1,47.6C-11.6,67-37.5,96.1-37.5,117.5c0,20.9,25.9,50,51.6,69.5c20.9,15.8,63.6,42.3,117.3,43
			c0.7,0,1.4,0,2.1,0s1.4,0,2.1,0c53-0.7,96.2-28.4,117.4-45c24.8-19.4,51.5-48.8,51.5-67.5C304.5,98.3,277.8,68.9,253,49.6z
			 M210.9,146.1L210.9,146.1c-11.5,30.9-41,53.2-75.7,53.8c-0.6,0-1.1,0-1.7,0c-0.6,0-1.1,0-1.7,0c-35.1-0.7-64.8-23.4-76.1-54.8
			c-3.1-8.6-4.8-18-4.8-27.7c0-9.5,1.6-18.6,4.5-27c11-31.8,41-54.8,76.3-55.5c0.6,0,1.1,0,1.7,0s1.1,0,1.7,0
			c35,0.7,64.6,23.2,76,54.5v0c3.2,8.7,4.9,18.2,4.9,28C216,127.6,214.2,137.2,210.9,146.1z"/>
	</g>
	<path class="st7" d="M171.7,117c0,21.4-17.3,38.7-38.7,38.7c-21.4,0-38.7-17.3-38.7-38.7c0-21.4,17.3-38.7,38.7-38.7
		c3.5,0,6.9,0.5,10.1,1.3c-3.3,3.5-5.4,8.2-5.4,13.3c0,10.6,8.6,19.3,19.3,19.3c5.2,0,9.9-2,13.3-5.4
		C171.2,110.1,171.7,113.5,171.7,117z"/>
</g>
<g id="Layer_21" class="st0">
	<g class="st15">
		<path class="st16" d="M137.1,134.7c0-3-1.5-4.4-4.4-4.4H86.5c-9.2,0-16.6-7.4-16.6-16.6l0-10.3c0-10.5,8.5-19,19-19l68,0.2
			c8.6,0,15.5,2.5,20.7,7.6c5.2,5.1,7.8,11.9,7.8,20.5v72.3c0,7.2-2.2,13.3-6.4,18.3c-4.3,5-11.1,7.5-20.4,7.5h-14.6
			c-6.4,0-11.5,5.2-11.5,11.5v23.5c0,6.4-5.2,11.7-11.7,11.7h-17.3c-6.4,0-11.7-5.2-11.7-11.7v-61.8c0-3.8,1.5-7.1,4.4-9.8
			c3-2.7,6.2-4.1,9.8-4.1h26.4c2.3,0,3.6-0.3,4.1-1c0.4-0.7,0.7-1.9,0.7-3.7V134.7z M91.5,290.6c0,5.8,2.1,10.7,6.3,14.8
			c4.2,4.1,9.1,6.1,15,6.1c5.8,0,10.8-2,14.9-6.1c4.2-4.1,6.3-9,6.3-14.8c0-5.8-2.1-10.8-6.3-15c-4.2-4.2-9.1-6.3-14.9-6.3
			c-5.8,0-10.8,2.1-15,6.3C93.6,279.8,91.5,284.8,91.5,290.6z"/>
	</g>
	<path class="st6" d="M189.2,363H52.2c-57.9,0-105.3-47.4-105.3-105.3V120.6c0-57.9,47.4-105.3,105.3-105.3h137.1
		c57.9,0,105.3,47.4,105.3,105.3v137.1C294.6,315.6,247.2,363,189.2,363z"/>
</g>
<g id="Layer_22" class="st0">
	<polygon class="st37" points="212.3,146.3 212.3,190.5 190.2,190.5 190.2,212.6 168.1,212.6 168.1,234.7 145.9,234.7 145.9,256.9 
		79.6,256.9 79.6,234.7 57.5,234.7 57.5,212.6 35.3,212.6 35.3,190.5 13.2,190.5 13.2,146.3 35.3,146.3 35.3,124.1 79.6,124.1 
		79.6,146.3 101.7,146.3 101.7,168.4 123.8,168.4 123.8,146.3 145.9,146.3 145.9,124.1 190.2,124.1 190.2,146.3 	"/>
	<circle class="st41" cx="112.5" cy="181.5" r="166.2"/>
</g>
<g id="Layer_23" class="st0">
	<path class="st7" d="M155.2,133.5V74.9H96.6V114H77.1v19.5H57.5V153H18.5v97.6h39.1v19.5h117.2v-19.5h19.5V133.5H155.2z
		 M174.7,231.2h-19.5v19.5H77.1V153h19.5v-19.5h19.5V94.4h19.5V153h39.1V231.2z"/>
	<circle class="st6" cx="113" cy="181" r="166"/>
</g>
<g id="Layer_24" class="st0">
	<path class="st20" d="M296.2,223H-61.2c-24.7,0-44.8-20.2-44.8-44.8V49.8C-106,25.2-85.8,5-61.2,5h357.3C320.8,5,341,25.2,341,49.8
		v128.3C341,202.8,320.8,223,296.2,223z"/>
	<rect x="-55" y="43.4" class="st15" width="36.6" height="139.6"/>
	<polygon class="st15" points="-6.2,43.4 40.7,43.4 50.5,108 57.8,43.4 105.4,43.4 105.4,183 73.7,183 73.7,90.9 60.9,183 39.5,183 
		26.1,91.5 25.5,183 -6.2,183 	"/>
	<path class="st15" d="M119.4,44.6"/>
	<path class="st15" d="M205.3,15.4"/>
	<path class="st15" d="M168.6,43.1l-51-0.4v139.6l50.6,0.4c17.2,0.1,31.2-13.8,31.2-30.9V74.1C199.3,57.1,185.6,43.3,168.6,43.1z
		 M165.7,151.6c0,3.9-3.1,7-7,7h-4.6V67.8h4.6c3.9,0,7,3.1,7,7V151.6z"/>
	<path class="st15" d="M273.8,78.7h-7c-9.9,0-18.3,6.9-20.6,16.2V42.8h-33.5V183h33.5v-16.2c2.3,9.3,10.7,16.2,20.6,16.2h7
		c11.7,0,21.2-9.5,21.2-21.2V99.9C295,88.3,285.5,78.7,273.8,78.7z M259.6,158.6c0,3.4-2.7,6.1-6.1,6.1c-3.4,0-6.1-2.7-6.1-6.1v-53
		c0-3.4,2.7-6.1,6.1-6.1c1.7,0,3.2,0.7,4.3,1.8c1.1,1.1,1.8,2.6,1.8,4.3V158.6z"/>
</g>
<g id="Layer_25" class="st0">
	<path class="st7" d="M150.8,168.1l-0.9,0.9c-5.9,5.9-15.5,5.9-21.4,0l-30.9-30.9l-0.1-0.1c-3-2.8-5-6.8-5-11.2V62.7
		c0-8.3,6.8-15.1,15.1-15.1h1.3c8.3,0,15.1,6.8,15.1,15.1v51.6c0,4.4,1.9,8.4,5,11.2l0.1,0.1l23.6,23.6
		C156.5,155,155.9,163,150.8,168.1z"/>
	<circle class="st6" cx="117.1" cy="117.5" r="108.3"/>
</g>
<g id="Layer_26">
	<path class="st16" d="M28.7,134.7L143.9,19.5c3.8-3.8,3.8-9.9,0-13.7l-2.5-2.5c-3.8-3.8-9.9-3.8-13.7,0L6.1,125
		c-0.1,0.1-0.3,0.2-0.4,0.4l-2.5,2.5c-1.9,1.9-2.8,4.4-2.8,6.9c0,2.5,0.9,5,2.8,6.9l2.5,2.5c0.1,0.1,0.3,0.3,0.4,0.4L127.7,266
		c3.8,3.8,9.9,3.8,13.7,0l2.5-2.5c3.8-3.8,3.8-9.9,0-13.7L28.7,134.7z"/>
</g>
</svg>
