<?xml version="1.0" encoding="utf-8"?>
<!-- Generator: Adobe Illustrator 21.0.2, SVG Export Plug-In . SVG Version: 6.00 Build 0)  -->
<svg version="1.1" id="Layer_1" xmlns="http://www.w3.org/2000/svg" xmlns:xlink="http://www.w3.org/1999/xlink" x="0px" y="0px"
	 viewBox="0 0 365 365" style="enable-background:new 0 0 365 365;" xml:space="preserve">
<style type="text/css">
	.st0{fill:none;stroke:#525D67;stroke-width:18;stroke-miterlimit:10;}
	.st1{fill:#525D67;}
</style>
<circle class="st0" cx="182.5" cy="182.5" r="172.9"/>
<g>
	<path class="st1" d="M112.7,165.2h-11.1c-5.3,0-9.6,4.3-9.6,9.6v75.8c0,5.3,4.3,9.6,9.6,9.6h11.1c5.3,0,9.6-4.3,9.6-9.6v-75.8
		C122.3,169.5,118,165.2,112.7,165.2z"/>
</g>
<path class="st1" d="M281.6,169.8v0.5c0,6.9-5.7,12.6-12.6,12.6h-10.1c6.9,0,12.6,5.7,12.6,12.6v0.5c0,6.9-5.7,12.6-12.6,12.6h-10.2
	c6.9,0,12.6,5.7,12.6,12.6v0.5c0,6.9-5.7,12.6-12.6,12.6h-10.2c6.9,0,12.6,5.7,12.6,12.6v0.5c0,6.9-5.7,12.6-12.6,12.6H156
	c-12.1,0-21.9-9.8-21.9-21.9v-59.3c0-0.7,0-1.4,0.1-2.1v-0.1c0-0.1,0-0.2,0-0.3c0-0.2,0-0.4,0.1-0.5c0.6-3.7,3.3-6.7,6.8-7.7
	c0.3-0.1,0.6-0.1,0.9-0.2c0,0,0,0,0,0c12.6-3.2,23.2-11.5,29.4-22.6c0.1-0.2,0.3-0.5,0.4-0.7c4.6-8.2,7.4-19.9,7.4-32.8
	c0-2.4-0.1-4.9-0.3-7.2c-0.2-1.8-0.5-3.5-1-5.2c0-0.1,0-0.1,0-0.1c0-0.2-0.1-0.3-0.1-0.5c0,0,0,0,0,0c0-0.1-0.1-0.3-0.1-0.4
	c0-0.1,0-0.2,0-0.3c0,0,0-0.1,0-0.1c0-0.2,0-0.3,0-0.5c0-0.2,0-0.4,0-0.6c0,0,0-0.5,0-0.9c0.4-5.4,4.8-8.2,4.8-8.2
	c0,0,3.8-2.4,8.7-1.2c0.6,0.2,1.8,0.5,3.1,1.4c0.8,0.6,1.3,1.2,1.6,1.7c0,0,1.2,1.5,2.1,2.9c12.5,19.8,12.6,43.8,12.6,43.8
	c0,7.3-0.8,14.2-2.4,20.6H269C276,157.2,281.6,162.9,281.6,169.8z"/>
</svg>
