<?xml version="1.0" encoding="utf-8"?>
<!-- Generator: Adobe Illustrator 21.0.2, SVG Export Plug-In . SVG Version: 6.00 Build 0)  -->
<svg version="1.1" id="Layer_1" xmlns="http://www.w3.org/2000/svg" xmlns:xlink="http://www.w3.org/1999/xlink" x="0px" y="0px"
	 viewBox="0 0 717.4 324.8" style="enable-background:new 0 0 717.4 324.8;" xml:space="preserve">
<style type="text/css">
	.st0{display:none;}
	.st1{display:inline;fill:#EFEFEF;}
	.st2{display:inline;fill:#EF2648;}
	.st3{display:inline;fill:#154D84;}
	.st4{display:inline;fill:#555654;}
	.st5{display:inline;fill:#EF2648;stroke:#EF2648;stroke-width:3.7889;stroke-miterlimit:10;}
	.st6{display:inline;fill:none;stroke:#525D67;stroke-width:18;stroke-miterlimit:10;}
	.st7{display:inline;fill:#525D67;}
	.st8{display:inline;fill:none;stroke:#525D67;stroke-width:11.2615;stroke-miterlimit:10;}
	.st9{display:inline;fill:#EC2C55;}
	.st10{display:inline;fill:none;stroke:#EC2C55;stroke-width:18;stroke-miterlimit:10;}
	.st11{display:inline;fill:none;stroke:#525D67;stroke-width:12.0531;stroke-miterlimit:10;}
	.st12{display:inline;fill:#525D67;stroke:#525D67;stroke-width:3.3481;stroke-miterlimit:10;}
	.st13{display:inline;fill:#F81626;stroke:#F81626;stroke-width:8.1641;stroke-miterlimit:10;}
	.st14{display:inline;fill:none;stroke:#525D67;stroke-width:16.9612;stroke-miterlimit:10;}
	.st15{display:inline;}
	.st16{fill:#525D67;}
	.st17{fill:#545554;}
	.st18{display:inline;fill:none;stroke:#525D67;stroke-width:10.2123;stroke-miterlimit:10;}
	.st19{display:inline;fill:#CE3C51;stroke:#9B1B37;stroke-width:9.1207;stroke-miterlimit:10;}
	.st20{display:inline;fill:#F9D43A;}
	.st21{display:inline;opacity:0.3;fill:#514042;enable-background:new    ;}
	.st22{display:inline;fill:#69A86D;}
	.st23{display:inline;opacity:0.6;fill:#576B67;enable-background:new    ;}
	.st24{display:inline;fill:#618C67;}
	.st25{display:inline;opacity:0.4;fill:#576B67;enable-background:new    ;}
	.st26{display:inline;opacity:0.3;fill:#F7C6CB;enable-background:new    ;}
	.st27{display:inline;fill:#F9EDBB;}
	.st28{display:inline;fill:#E04457;stroke:#C12B44;stroke-width:9.1442;stroke-miterlimit:10;}
	.st29{display:inline;fill:#797C79;}
	.st30{display:inline;fill:#8A8E8A;}
	.st31{fill:#4F5151;}
	.st32{display:inline;fill:#E5E5E5;}
	.st33{display:inline;fill:#ED3AE8;}
	.st34{display:inline;fill:#F25CCF;}
	.st35{fill:#D305C4;}
	.st36{display:inline;fill:#FFDEFE;}
	.st37{fill:#F9D43A;}
	.st38{fill:#F7DD6D;}
	.st39{fill:#F7BB34;}
	.st40{fill:#F9F9F9;}
	.st41{fill:#FCBE24;}
	.st42{fill:#FFB217;}
	.st43{fill:#B983F2;}
	.st44{fill:#08BFFF;}
	.st45{fill:#0083CA;}
</style>
<g id="Layer_1_1_" class="st0">
	<path class="st1" d="M251.5,289.9v145.4c0,3.9-3.2,7-7,7H3.1c-3.9,0-7-3.2-7-7V289.9c0-3.9,3.2-7,7-7h241.4
		C248.3,282.9,251.5,286.1,251.5,289.9z"/>
	<path class="st2" d="M251.7,354.3c0-2.3-1.9-4.2-4.2-4.2H136.6v-63.2c0-2.1-1.7-3.8-3.8-3.8h-5.1c-0.2,0-0.4,0-0.6,0.1
		c-0.2,0-0.4-0.1-0.6-0.1h-5.1c-0.2,0-0.4,0-0.6,0.1c-0.2,0-0.4-0.1-0.6-0.1h-5.1c-2.1,0-3.8,1.7-3.8,3.8v63.3H0.5
		c-2.3,0-4.2,1.9-4.2,4.2v4.2c0,0.4,0.1,0.7,0.2,1.1c-0.1,0.3-0.2,0.7-0.2,1.1v4.2c0,0.4,0.1,0.7,0.2,1.1c-0.1,0.3-0.2,0.7-0.2,1.1
		v4.2c0,2.3,1.9,4.2,4.2,4.2h110.9v63.3c0,2.1,1.7,3.8,3.8,3.8h5.1c0.2,0,0.4,0,0.6-0.1c0.2,0,0.4,0.1,0.6,0.1h5.1
		c0.2,0,0.4,0,0.6-0.1c0.2,0,0.4,0.1,0.6,0.1h5.1c2.1,0,3.8-1.7,3.8-3.8v-63.3h110.9c2.3,0,4.2-1.9,4.2-4.2v-4.5
		c0-0.4-0.1-0.7-0.2-1.1c0.1-0.3,0.2-0.7,0.2-1.1v-4.2c0-0.4-0.1-0.7-0.2-1.1c0.1-0.3,0.2-0.7,0.2-1.1L251.7,354.3L251.7,354.3z"/>
	<path class="st3" d="M251.5,388v33.3l-48.3-27.5c-2.8-1.6-1.7-5.8,1.5-5.8H251.5z"/>
	<path class="st3" d="M237.7,442.3h-88.4v-46.2l0,0c0-1.8,2-2.9,3.6-2L237.7,442.3z"/>
	<path class="st3" d="M251.5,337.3V304l-48.3,27.5c-2.8,1.6-1.7,5.8,1.5,5.8H251.5z"/>
	<path class="st3" d="M237.7,282.9h-88.4v46.2l0,0c0,1.8,2,2.9,3.6,2L237.7,282.9z"/>
	<path class="st3" d="M-3.9,337.3V304l48.3,27.5c2.8,1.6,1.7,5.8-1.5,5.8H-3.9z"/>
	<path class="st3" d="M9.8,282.9h88.4v46.2l0,0c0,1.8-2,2.9-3.6,2L9.8,282.9z"/>
	<path class="st3" d="M-3.9,388v33.3l48.3-27.5c2.8-1.6,1.7-5.8-1.5-5.8H-3.9z"/>
	<path class="st3" d="M9.8,442.3h88.4v-46.2l0,0c0-1.8-2-2.9-3.6-2L9.8,442.3z"/>
</g>
<g id="Layer_2" class="st0">
	<path class="st4" d="M-9.3,264.8v-0.4v-4.3C-9,261.6-9,263.2-9.3,264.8z"/>
	<path class="st1" d="M251.5,290.8v144.5c0,3.8-3.1,7-7,7H4.7c-3.8,0-7-3.1-7-7V290.8c0-3.8,3.1-7,7-7h239.8
		C248.4,283.8,251.5,287,251.5,290.8z"/>
	<path class="st2" d="M251.7,354.8c0-2.3-1.9-4.2-4.2-4.2H137.3v-62.8c0-2.1-1.7-3.7-3.7-3.7h-5c-0.2,0-0.4,0-0.6,0.1
		c-0.2,0-0.4-0.1-0.6-0.1h-5c-0.2,0-0.4,0-0.6,0.1c-0.2,0-0.4-0.1-0.6-0.1h-5c-2.1,0-3.7,1.7-3.7,3.7v62.8H2.1
		c-2.3,0-4.2,1.9-4.2,4.2v4.1c0,0.4,0.1,0.7,0.1,1c-0.1,0.3-0.1,0.7-0.1,1.1v4.1c0,0.4,0.1,0.7,0.1,1c-0.1,0.3-0.1,0.7-0.1,1.1v4.1
		c0,2.3,1.9,4.2,4.2,4.2h110.2v62.8c0,2.1,1.7,3.7,3.7,3.7h5c0.2,0,0.4,0,0.6-0.1c0.2,0,0.4,0.1,0.6,0.1h5c0.2,0,0.4,0,0.6-0.1
		c0.2,0,0.4,0.1,0.6,0.1h5c2.1,0,3.7-1.7,3.7-3.7v-62.8h110.2c2.3,0,4.2-1.9,4.2-4.2v-4.1c0-0.4-0.1-0.7-0.1-1.1
		c0.1-0.3,0.1-0.7,0.1-1V361c0-0.4-0.1-0.7-0.1-1.1c0.1-0.3,0.1-0.7,0.1-1v-4.1H251.7z"/>
	<path class="st5" d="M216,312.2c0-0.4-0.3-0.7-0.7-0.7H197v-10.4c0-0.3-0.3-0.6-0.6-0.6h-0.8h-0.1h-0.1h-0.8h-0.1h-0.1h-0.8
		c-0.3,0-0.6,0.3-0.6,0.6v10.4h-18.4c-0.4,0-0.7,0.3-0.7,0.7v0.7c0,0.1,0,0.1,0,0.2s0,0.1,0,0.2v0.7c0,0.1,0,0.1,0,0.2
		c0,0.1,0,0.1,0,0.2v0.7c0,0.4,0.3,0.7,0.7,0.7h18.3v10.4c0,0.3,0.3,0.6,0.6,0.6h0.8h0.1h0.1h0.8h0.1h0.1h0.8c0.3,0,0.6-0.3,0.6-0.6
		v-10.4h18.3c0.4,0,0.7-0.3,0.7-0.7v-0.7c0-0.1,0-0.1,0-0.2s0-0.1,0-0.2v-0.7c0-0.1,0-0.1,0-0.2c0-0.1,0-0.1,0-0.2v-0.7H216z"/>
	<path class="st5" d="M216,405.7c0-0.4-0.3-0.7-0.7-0.7H197v-10.4c0-0.3-0.3-0.6-0.6-0.6h-0.8h-0.1h-0.1h-0.8h-0.1h-0.1h-0.8
		c-0.3,0-0.6,0.3-0.6,0.6V405h-18.4c-0.4,0-0.7,0.3-0.7,0.7v0.7c0,0.1,0,0.1,0,0.2s0,0.1,0,0.2v0.7c0,0.1,0,0.1,0,0.2
		c0,0.1,0,0.1,0,0.2v0.7c0,0.4,0.3,0.7,0.7,0.7h18.3v10.4c0,0.3,0.3,0.6,0.6,0.6h0.8h0.1h0.1h0.8h0.1h0.1h0.8c0.3,0,0.6-0.3,0.6-0.6
		v-10.4h18.3c0.4,0,0.7-0.3,0.7-0.7v-0.7c0-0.1,0-0.1,0-0.2s0-0.1,0-0.2v-0.7c0-0.1,0-0.1,0-0.2c0-0.1,0-0.1,0-0.2v-0.7H216z"/>
	<path class="st5" d="M72.9,312.2c0-0.4-0.3-0.7-0.7-0.7H53.9v-10.4c0-0.3-0.3-0.6-0.6-0.6h-0.8h-0.1h-0.1h-0.8h-0.1h-0.1h-0.8
		c-0.3,0-0.6,0.3-0.6,0.6v10.4H31.6c-0.4,0-0.7,0.3-0.7,0.7v0.7c0,0.1,0,0.1,0,0.2s0,0.1,0,0.2v0.7c0,0.1,0,0.1,0,0.2
		c0,0.1,0,0.1,0,0.2v0.7c0,0.4,0.3,0.7,0.7,0.7h18.3v10.4c0,0.3,0.3,0.6,0.6,0.6h0.8h0.1h0.1h0.8h0.1h0.1h0.8c0.3,0,0.6-0.3,0.6-0.6
		v-10.4h18.3c0.4,0,0.7-0.3,0.7-0.7v-0.7c0-0.1,0-0.1,0-0.2s0-0.1,0-0.2v-0.7c0-0.1,0-0.1,0-0.2c0-0.1,0-0.1,0-0.2V312.2z"/>
	<path class="st5" d="M72.9,405.7c0-0.4-0.3-0.7-0.7-0.7H53.9v-10.4c0-0.3-0.3-0.6-0.6-0.6h-0.8h-0.1h-0.1h-0.8h-0.1h-0.1h-0.8
		c-0.3,0-0.6,0.3-0.6,0.6V405H31.6c-0.4,0-0.7,0.3-0.7,0.7v0.7c0,0.1,0,0.1,0,0.2s0,0.1,0,0.2v0.7c0,0.1,0,0.1,0,0.2
		c0,0.1,0,0.1,0,0.2v0.7c0,0.4,0.3,0.7,0.7,0.7h18.3v10.4c0,0.3,0.3,0.6,0.6,0.6h0.8h0.1h0.1h0.8h0.1h0.1h0.8c0.3,0,0.6-0.3,0.6-0.6
		v-10.4h18.3c0.4,0,0.7-0.3,0.7-0.7v-0.7c0-0.1,0-0.1,0-0.2s0-0.1,0-0.2v-0.7c0-0.1,0-0.1,0-0.2c0-0.1,0-0.1,0-0.2V405.7z"/>
</g>
<g id="Layer_3" class="st0">
	<path class="st3" d="M16.1,230.3c-29.1,42.8-18,101.4,24.8,130.5c38.8,26.4,90.5,19.8,121.5-13.6l66.9,45.5
		c3.2,2.2,7.1,2.9,10.6,2.2c3.6-0.7,6.9-2.7,9.1-5.9c4.4-6.5,2.7-15.3-3.7-19.7l-66.8-45.4c19.8-41.2,7.1-92-31.8-118.4
		C103.8,176.3,45.3,187.5,16.1,230.3z M158.7,310.4c-1.8,4.2-4,8.4-6.7,12.3c-2.8,4.1-5.9,7.8-9.3,11.1
		c-23.5,22.7-60.4,26.6-88.4,7.5c-32.1-21.8-40.4-65.6-18.6-97.7s65.7-40.4,97.7-18.6C161.5,244.1,171.4,280.2,158.7,310.4z"/>
</g>
<g id="Layer_4" class="st0">
	<circle class="st3" cx="32.4" cy="300.6" r="32.7"/>
	<circle class="st3" cx="125.7" cy="300.6" r="32.7"/>
	<circle class="st3" cx="219" cy="300.6" r="32.7"/>
</g>
<g id="Layer_5" class="st0">
	<circle class="st6" cx="126.2" cy="297.7" r="107.5"/>
	<path class="st7" d="M97.6,269v57.4c0,6.4,6.9,10.4,12.4,7.2l49.7-28.7c5.5-3.2,5.5-11.2,0-14.4l-49.6-28.7
		C104.5,258.6,97.6,262.6,97.6,269z"/>
</g>
<g id="Layer_6" class="st0">
	<circle class="st8" cx="126.4" cy="297.6" r="109.7"/>
	<path class="st7" d="M86.2,254.4v86.3c0,9.6,10.4,15.6,18.7,10.8l74.7-43.1c8.3-4.8,8.3-16.8,0-21.6l-74.7-43.2
		C96.6,238.8,86.2,244.8,86.2,254.4z"/>
</g>
<g id="Layer_7" class="st0">
	<path class="st7" d="M74,295.7c0,14.9,12,26.9,26.9,26.9c6.5,0,12.4-2.3,17.1-6.1c4-3.3,9.8-3.3,13.8,0c4.6,3.8,10.6,6.1,17.1,6.1
		c14.9,0,26.9-12,26.9-26.9c-0.1-28.1-45.2-58.8-50.9-58.8C119.1,236.9,74,267.5,74,295.7z"/>
	<path class="st7" d="M147.3,358.2h-44.9c-3.1,0-4.6-3.7-2.5-5.9c10.8-11.1,19.4-22.5,25-22.5s14.2,11.4,24.9,22.5
		C151.9,354.5,150.3,358.2,147.3,358.2z"/>
	<circle class="st6" cx="125.8" cy="297.7" r="104.4"/>
</g>
<g id="Layer_8" class="st0">
	<path class="st9" d="M140.7,302.4h25.1v-26.2h-25.1v-35.9h33.1l-5.2-28.3h-30.8l-28.2,56.6v95.1h57.7l5.2-28.3h-31.8V302.4z
		 M109.6,212v33.8l26.3-33.8C135.9,212,109.6,212,109.6,212z"/>
	<circle class="st10" cx="136.5" cy="287.9" r="115"/>
</g>
<g id="Layer_9" class="st0">
	<circle class="st11" cx="140.2" cy="283.4" r="113.5"/>
	<path class="st12" d="M192.8,336L192.8,336c-2.2,2.2-5.8,2.2-8,0l-44.2-44.2L96.4,336c-2.2,2.2-5.8,2.2-8,0l0,0
		c-2.2-2.2-2.2-5.8,0-8l44.2-44.2l-44.3-44.3c-2.2-2.2-2.2-5.8,0-8l0,0c2.2-2.2,5.8-2.2,8,0l44.2,44.2l44.2-44.2
		c2.2-2.2,5.8-2.2,8,0l0,0c2.2,2.2,2.2,5.8,0,8l-44.2,44.2l44.2,44.2C195,330.2,195,333.8,192.8,336z"/>
</g>
<g id="Layer_10" class="st0">
	<path class="st13" d="M141.1,245l-37.6,30.2l13.1,46.5H164 M141.1,245l-37.6,30.2l13.1,46.5H164l14.7-46.5L141.1,245z M140.8,168.2
		c-63.6-0.1-115.1,51.5-115.1,115.1c0.1,63.2,51.7,114.8,114.9,114.9c63.6,0.1,115.1-51.5,115.1-115.1
		C255.6,219.9,204,168.2,140.8,168.2z M186.8,342.1l-16,42.5c-9.6,2.8-19.6,4.3-30.1,4.3s-20.5-1.5-30.1-4.3l-15.2-40.9l-41.2,0.4
		c-11.3-16-18.3-35.4-19.2-56.3l36.7-28.1L56.6,219c12.1-15.8,28.3-27.9,47.1-35l37.4,26.7l36.6-26.7c18.9,7.1,35,19.2,47.1,35
		l-16.7,42.3l38.4,26.6c-0.9,20.9-7.9,40.3-19.2,56.3L186.8,342.1z M141.1,245l-37.6,30.2l13.1,46.5H164 M103.6,275.2l13.1,46.5
		h47.4 M103.6,275.2l13.1,46.5h47.4"/>
</g>
<g id="Layer_11" class="st0">
	<circle class="st6" cx="142.2" cy="283.7" r="110.5"/>
	<circle class="st7" cx="142.9" cy="231" r="22.2"/>
	<circle class="st7" cx="142.9" cy="337.1" r="22.2"/>
	<circle class="st7" cx="196" cy="284" r="22.2"/>
	<circle class="st7" cx="143.6" cy="284.4" r="9.7"/>
	<circle class="st7" cx="89.9" cy="284" r="22.2"/>
</g>
<g id="Layer_12" class="st0">
	<circle class="st7" cx="143.9" cy="294.5" r="32"/>
	<path class="st14" d="M75.7,265.4c11.8-27.2,39.3-45.8,70.7-44.7c29.3,0.9,54,18.6,65.4,43.6"/>
	<path class="st14" d="M33.4,247.7c19.2-43.6,63.5-73.4,114.1-71.8c47,1.5,86.9,29.8,105.5,69.7"/>
	<path class="st14" d="M242.4,394.9H45.5c-6.2,0-11.3-5.1-11.3-11.3V312c0-6.2,5.1-11.3,11.3-11.3h196.9c6.2,0,11.3,5.1,11.3,11.3
		v71.6C253.7,389.8,248.6,394.9,242.4,394.9z"/>
</g>
<g id="Layer_13" class="st0">
	<g class="st15">
		<path class="st16" d="M226.1,175.5l-0.3-0.3l-0.3-0.3c-5.6-5.3-24.9-6.9-30.4-6.5c-7.9,0.6-12.6,6.6-16.1,11
			c-0.7,0.9-1.8,2.3-2.5,3h-63.2c-0.7-0.7-1.7-2-2.5-3c-3.4-4.4-8.2-10.4-16.1-11c-5.4-0.4-26.2,1.3-31.8,6.5l-0.3,0.3l-0.3,0.3
			c-58.2,61.8-38.4,132.9,1.4,144.1h0.2l20.3,6.1c1.2,0.2,2.4,0.3,3.5,0.3c7.5,0,13.8-3.8,17.9-10.9c3.4-5.8,4.8-12.8,5.8-17.8
			c0-0.2,0.1-0.5,0.1-0.7h66.6c0.1,0.3,0.1,0.5,0.1,0.7c1,5.1,2.4,12,5.8,17.8c4.1,7.1,10.4,10.9,17.9,10.9c1.1,0,2.3-0.1,3.5-0.3
			l21.8-6.1h0.2c8.8-1.7,15.1-6.8,20.4-13.1C269.5,281.3,268.1,225.2,226.1,175.5z M235.7,298.5c-8.7,9.2-32.3,12.8-32.3,12.8
			c-5.3,0.8-7.9-3.4-10.7-16.9c-0.4-2.1-0.8-4-1.3-5.5c-2-6.3-6.4-7-8.3-7h-76.4c-1.8,0-6.3,0.7-8.3,7c-0.5,1.5-0.9,3.4-1.3,5.5
			c-2.7,13.5-5.3,17.7-10.7,16.9l-20-6.1c-5-1-19.1-14.4-24.2-29.8c0,0-13.2-42.5,31-90.1c2.5-2.3,19.7-2.3,20.4-2.3
			c1.4,0.1,4.1,3.4,5.7,5.4c3,3.8,6.8,8.5,12.7,8.5h65.7c6,0,9.7-4.7,12.7-8.5c1.6-2,4.2-5.3,5.7-5.4c0.8-0.1,16.5,0,19,2.3
			c39.7,47,31.6,87.2,31.6,87.2C244.6,283.5,240.4,293.6,235.7,298.5z"/>
	</g>
	<path class="st7" d="M114,242.2c0,2.3-1,4.4-2.5,6c-1.5,1.5-3.6,2.5-6,2.5h-6.7v5.2c0,4.6-3.8,8.4-8.4,8.4s-8.4-3.8-8.4-8.4v-5.2
		h-5.8c-4.6,0-8.4-3.8-8.4-8.4c0-4.6,3.8-8.4,8.4-8.4H82v-7.3c0-4.6,3.8-8.4,8.4-8.4c2.3,0,4.4,0.9,6,2.5c1.5,1.5,2.5,3.6,2.5,6v7.3
		h6.7C110.2,233.8,114,237.6,114,242.2z"/>
	
		<ellipse transform="matrix(0.7071 -0.7071 0.7071 0.7071 -99.165 205.4568)" class="st7" cx="198.4" cy="222.4" rx="8.4" ry="8.4"/>
	
		<ellipse transform="matrix(0.7071 -0.7071 0.7071 0.7071 -107.1934 225.0629)" class="st7" cx="218.1" cy="241.9" rx="8.4" ry="8.4"/>
	
		<ellipse transform="matrix(0.7071 -0.7071 0.7071 0.7071 -119.427 196.5955)" class="st7" cx="177.6" cy="242.5" rx="8.4" ry="8.4"/>
	
		<ellipse transform="matrix(0.7071 -0.7071 0.7071 0.7071 -128.04 217.3182)" class="st7" cx="198.3" cy="263.2" rx="8.4" ry="8.4"/>
</g>
<g id="Layer_14" class="st0">
	<g class="st15">
		<path class="st16" d="M76.3,167.9v38.2H25.9v87.6c0,17.6,14.2,32,31.8,32.2c0.6,0,1.1,0,1.7-0.1l-0.1,0.1h144.4
			c17.8,0,32.2-14.4,32.2-32.2V167.9H76.3z M58.2,312.6h-0.8c0.1,0,0.2,0,0.3,0c-10.2-0.3-18.5-8.7-18.5-18.9v-74.4h37.1v74.4
			c0,10.3-8.2,18.7-18.5,18.9C58,312.6,58.1,312.6,58.2,312.6z M222.7,293.7c0,10.4-8.5,18.9-18.9,18.9H89.6V181.2h133.1V293.7z"/>
	</g>
	<g class="st15">
		<path class="st17" d="M59.9,325.9c-0.1,0-0.3,0-0.4,0h0.8C60.2,325.9,60.1,325.9,59.9,325.9z"/>
	</g>
	<path class="st18" d="M144.8,237.7h-26.7c-2.8,0-5-2.3-5-5v-26.2c0-2.8,2.3-5,5-5h26.7c2.8,0,5,2.3,5,5v26.3
		C149.8,235.5,147.6,237.7,144.8,237.7z"/>
	<path class="st7" d="M201.2,215.1h-23.9c-1.9,0-3.4-1.5-3.4-3.4v-5.3c0-1.9,1.5-3.4,3.4-3.4h23.9c1.9,0,3.4,1.5,3.4,3.4v5.3
		C204.6,213.5,203.1,215.1,201.2,215.1z"/>
	<path class="st7" d="M201.2,240h-23.9c-1.9,0-3.4-1.5-3.4-3.4v-5.3c0-1.9,1.5-3.4,3.4-3.4h23.9c1.9,0,3.4,1.5,3.4,3.4v5.3
		C204.6,238.5,203.1,240,201.2,240z"/>
	<path class="st7" d="M198.5,272.9h-84.3c-3.4,0-6.1-2.7-6.1-6.1l0,0c0-3.4,2.7-6.1,6.1-6.1h84.3c3.4,0,6.1,2.7,6.1,6.1l0,0
		C204.6,270.1,201.9,272.9,198.5,272.9z"/>
	<path class="st7" d="M198.5,298.9h-84.3c-3.4,0-6.1-2.7-6.1-6.1l0,0c0-3.4,2.7-6.1,6.1-6.1h84.3c3.4,0,6.1,2.7,6.1,6.1l0,0
		C204.6,296.1,201.9,298.9,198.5,298.9z"/>
</g>
<g id="Layer_15" class="st0">
	<path class="st19" d="M195.8,259.9c0,33.2-30,60-66.9,60S62,293,62,259.9c0-21.7,12.9-40.7,32.1-51.3c10.2-5.6,22.1-8.8,34.8-8.8
		c13.3,0,25.7,3.5,36.1,9.5C183.5,220,195.8,238.6,195.8,259.9z"/>
	<path class="st20" d="M138.4,258.7c0-7.3,5.9,0.2,13.2,0.2s13.2-7.5,13.2-0.2c0,7.3-5.9,13.2-13.2,13.2
		C144.3,271.9,138.4,266,138.4,258.7z"/>
	<path class="st20" d="M92.8,258.7c0-7.3,5.7,0.2,13,0.2s13.5-7.5,13.5-0.2c0,7.3-5.9,13.2-13.2,13.2
		C98.8,271.9,92.8,266,92.8,258.7z"/>
	<path class="st21" d="M121.5,195.1c13.3-0.4,29.1,2.2,40.4,7.4c-0.5,1-5.4,8.6-6.1,9.5c-0.6,0.7-1.3,1.6-2.1,2.5
		c0.9,1,1.6,1.9,2.2,2.7c6.4,8.3,9.9,25.1,1.6,31.6c-8.3,6.4-25.1,0-31.6-8.3c-1-1.3-2.2-2.9-3.6-4.9c0.1-0.2,0.2-0.4,0.4-0.6
		c0.8,0,1.5-0.1,2.3-0.3c-0.8,0.2-1.5,0.2-2.3,0.3c-0.2,0-0.4,0-0.6,0c-0.1,0-0.1,0-0.2,0c-0.9,0-1.7-0.1-2.6-0.3
		c0.9,0.2,1.7,0.3,2.6,0.3c0.1,0.2,0.2,0.4,0.4,0.5c-1.3,2-2.6,3.6-3.6,4.9c-6.2,8.4-28,19.7-36.3,13.3c-8.3-6.4,0.2-28.2,6.6-36.5
		c0.6-0.7,1.3-1.6,2.1-2.5c-0.9-1-1.6-1.9-2.2-2.7l-3-3.9C85.9,208.2,105.4,195.6,121.5,195.1z"/>
	<path class="st22" d="M157.1,242.1c-6.5,5.1-19.7,0-24.8-6.5c-0.8-1-1.7-2.3-2.8-3.9c0.1-0.1,0.2-0.3,0.3-0.4
		c0.6,0,1.2-0.1,1.8-0.2c-0.6,0.1-1.2,0.2-1.8,0.2c-0.1,0-0.3,0-0.4,0c-0.1,0-0.1,0-0.2,0c-0.7,0-1.4-0.1-2.1-0.2
		c0.7,0.2,1.4,0.2,2.1,0.2c0.1,0.1,0.2,0.3,0.3,0.4c-1,1.5-2,2.9-2.8,3.9c-5,6.5-22.2,15.4-28.6,10.4c-6.5-5,0.1-22.2,5.2-28.6
		c0.4-0.6,1-1.2,1.6-1.9c-0.7-0.8-1.3-1.5-1.7-2.1c-5.1-6.5-5.5-17.4,1-22.5c6.5-5,17.4-2.3,22.5,4.2c0.8,1,1.7,2.3,2.8,3.9
		c-0.1,0.1-0.2,0.3-0.3,0.4c-0.6,0-1.2,0.1-1.8,0.2c0.6-0.1,1.2-0.2,1.8-0.2c0.1,0,0.3,0,0.4,0c0.1,0,0.1,0,0.2,0
		c0.7,0,1.3,0.1,2,0.2c-0.7-0.2-1.3-0.2-2-0.2c-0.1-0.1-0.2-0.3-0.3-0.4c1-1.5,2-2.9,2.8-3.9c5.1-6.5,14.4-7.6,20.9-2.6
		c6.5,5.1,7.6,14.4,2.6,20.9c-0.4,0.6-1,1.2-1.6,1.9c0.7,0.8,1.3,1.5,1.8,2.1C160.8,223.8,163.6,237.1,157.1,242.1z"/>
	<path class="st23" d="M145.8,232.6c-3.9,3.1-12,0-15.1-3.9c-0.5-0.6-1.1-1.4-1.7-2.3c0.1-0.1,0.1-0.2,0.2-0.3
		c0.4,0,0.7-0.1,1.1-0.1c-0.4,0.1-0.7,0.1-1.1,0.1c-0.1,0-0.2,0-0.3,0h-0.1c-0.4,0-0.8-0.1-1.3-0.1c0.4,0.1,0.8,0.1,1.3,0.1
		c0.1,0.1,0.1,0.2,0.2,0.3c-0.6,0.9-1.2,1.7-1.7,2.3c-3.1,4-13.5,9.4-17.5,6.3c-3.9-3.1,0.1-13.5,3.2-17.5c0.3-0.4,0.6-0.7,1-1.2
		c-0.4-0.5-0.8-0.9-1.1-1.3c-3.1-4-3.3-10.6,0.6-13.7c4-3.1,10.6-1.4,13.7,2.6c0.5,0.6,1.1,1.4,1.7,2.3c-0.1,0.1-0.1,0.2-0.2,0.3
		c-0.4,0-0.7,0.1-1.1,0.1c0.4-0.1,0.7-0.1,1.1-0.1c0.1,0,0.2,0,0.3,0h0.1c0.4,0,0.8,0.1,1.2,0.1c-0.4-0.1-0.8-0.1-1.2-0.1
		c-0.1-0.1-0.1-0.2-0.2-0.3c0.6-0.9,1.2-1.7,1.7-2.3c3.1-3.9,8.8-4.7,12.7-1.6c4,3.1,4.7,8.8,1.6,12.7c-0.3,0.4-0.6,0.7-1,1.2
		c0.4,0.5,0.8,0.9,1.1,1.3C148.1,221.5,149.7,229.5,145.8,232.6z"/>
	<path class="st24" d="M154.6,191.4c-0.7,0.5-1.5,1-2.1,1.5c-16.6,12.5-16,27.7-26.4,23.3c-0.2-0.1-0.3-0.1-0.5-0.2
		c-12.5-5.8-3.5-29.9,0.1-37.9c3.7-8,13.1-11.4,21.1-7.7C154.8,174,161.8,186.5,154.6,191.4z"/>
	<path class="st25" d="M152.4,193c-16.5,12.4-15.9,27.6-26.3,23.2c1.4-6.3,3.8-12.3,5.3-15.5C135.1,192.8,144.5,189.3,152.4,193z"/>
	
		<ellipse transform="matrix(0.9721 -0.2345 0.2345 0.9721 -52.4025 49.7707)" class="st26" cx="183.1" cy="245.2" rx="12.3" ry="16.7"/>
	<path class="st27" d="M160.8,298.6c-11.1,1.7-21,0.3-27.6-3.6c-2.5-1.5-3.8-3.7-4.2-6c-0.4,2.3-1.7,4.6-4.2,6
		c-6.6,3.9-16.5,5.3-27.6,3.6C77.6,295.5,81,278.9,81,278.9s-1.6,18.2,18.6,6.2c8.2-4.9,15.3-6.3,20.8-6.3c4.9,0,8,3.5,8.6,7.4
		c0.6-3.9,3.8-7.4,8.6-7.4c5.5,0,12.6,1.4,20.8,6.3c20.1,12,18.6-6.2,18.6-6.2S180.5,295.5,160.8,298.6z"/>
</g>
<g id="Layer_16" class="st0">
	<path class="st28" d="M195.9,259.8c0,33.2-30,60.2-67.1,60.2s-67.1-26.9-67.1-60.2c0-21.8,12.9-40.8,32.2-51.4
		c10.2-5.6,22.1-8.8,34.9-8.8c13.3,0,25.8,3.5,36.2,9.5C183.6,219.8,195.9,238.5,195.9,259.8z"/>
	<path class="st20" d="M119.2,273.1c0,7.3-5.9-0.2-13.3-0.2c-7.4,0-13.2,7.5-13.2,0.2c0-7.3,5.9-13.3,13.3-13.3
		C113.4,259.8,119.2,265.8,119.2,273.1z"/>
	<path class="st20" d="M165,273.1c0,7.3-5.7-0.2-13.1-0.2c-7.4,0-13.5,7.6-13.5,0.2c0-7.3,5.9-13.3,13.3-13.3
		C159.1,259.8,165,265.8,165,273.1z"/>
	<path class="st21" d="M121.4,194.9c13.3-0.4,29.2,2.2,40.5,7.4c-0.5,1-5.4,8.7-6.1,9.5c-0.6,0.7-1.3,1.6-2.1,2.5
		c0.9,1,1.6,1.9,2.2,2.7c6.4,8.3,9.9,25.2,1.6,31.6c-8.3,6.5-25.2,0-31.6-8.3c-1-1.3-2.2-3-3.6-4.9c0.1-0.2,0.2-0.4,0.4-0.6
		c0.8,0,1.6-0.1,2.3-0.3c-0.8,0.2-1.5,0.2-2.3,0.3c-0.2,0-0.4,0-0.6,0c-0.1,0-0.1,0-0.2,0c-0.9,0-1.7-0.1-2.6-0.3
		c0.9,0.2,1.7,0.3,2.6,0.3c0.1,0.2,0.2,0.4,0.4,0.5c-1.3,2-2.6,3.6-3.6,4.9c-6.4,8.3-28.3,19.7-36.6,13.2
		c-8.3-6.4,0.2-28.3,6.6-36.6c0.6-0.7,1.3-1.6,2.1-2.5c-0.9-1-1.6-1.9-2.2-2.7l-3-3.9C85.7,208,105.3,195.4,121.4,194.9z"/>
	<path class="st22" d="M157.1,242c-6.5,5.1-19.8,0-24.8-6.5c-0.8-1-1.8-2.3-2.8-3.9c0.1-0.1,0.2-0.3,0.3-0.4c0.6,0,1.2-0.1,1.8-0.2
		c-0.6,0.1-1.2,0.2-1.8,0.2c-0.1,0-0.3,0-0.4,0c-0.1,0-0.1,0-0.2,0c-0.7,0-1.4-0.1-2.1-0.2c0.7,0.2,1.4,0.2,2.1,0.2
		c0.1,0.1,0.2,0.3,0.3,0.4c-1.1,1.5-2,2.9-2.8,3.9c-5.1,6.5-22.3,15.5-28.8,10.4c-6.5-5.1,0.1-22.2,5.2-28.7c0.4-0.6,1-1.2,1.6-1.9
		c-0.7-0.8-1.3-1.5-1.8-2.1c-5.1-6.5-5.5-17.5,1-22.6c6.5-5.1,17.4-2.3,22.5,4.2c0.8,1,1.7,2.3,2.8,3.9c-0.1,0.1-0.2,0.3-0.3,0.4
		c-0.6,0-1.2,0.1-1.8,0.2c0.6-0.1,1.2-0.2,1.8-0.2c0.1,0,0.3,0,0.4,0c0.1,0,0.1,0,0.2,0c0.7,0,1.4,0.1,2.1,0.2
		c-0.7-0.2-1.4-0.2-2.1-0.2c-0.1-0.1-0.2-0.3-0.3-0.4c1.1-1.5,2-2.9,2.8-3.9c5.1-6.5,14.4-7.7,20.9-2.6c6.5,5.1,7.7,14.4,2.6,20.9
		c-0.4,0.6-1,1.2-1.6,1.9c0.7,0.8,1.3,1.5,1.8,2.1C160.8,223.7,163.6,237,157.1,242z"/>
	<path class="st23" d="M145.7,232.5c-4,3.1-12.1,0-15.1-4c-0.5-0.6-1.1-1.4-1.7-2.4c0.1-0.1,0.1-0.2,0.2-0.3c0.4,0,0.7-0.1,1.1-0.1
		c-0.4,0.2-0.8,0.2-1.1,0.2c-0.1,0-0.2,0-0.3,0h-0.1c-0.4,0-0.8-0.1-1.3-0.1c0.4,0.1,0.8,0.1,1.3,0.1c0.1,0.1,0.1,0.2,0.2,0.3
		c-0.6,0.9-1.2,1.7-1.7,2.4c-3.1,4-13.5,9.4-17.5,6.3c-4-3.1,0.1-13.5,3.2-17.5c0.3-0.4,0.6-0.7,1-1.2c-0.4-0.5-0.8-0.9-1.1-1.3
		c-3.1-4-3.3-10.7,0.6-13.7c4-3.1,10.6-1.4,13.7,2.6c0.5,0.6,1.1,1.4,1.7,2.4c-0.1,0.1-0.1,0.2-0.2,0.3c-0.4,0-0.7,0.1-1.1,0.1
		c0.4-0.1,0.7-0.1,1.1-0.1c0.1,0,0.2,0,0.3,0h0.1c0.4,0,0.8,0.1,1.3,0.1c-0.4-0.1-0.8-0.1-1.3-0.1c-0.1-0.1-0.1-0.2-0.2-0.3
		c0.6-0.9,1.2-1.7,1.7-2.4c3.1-4,8.8-4.7,12.8-1.6c4,3.1,4.7,8.8,1.6,12.8c-0.3,0.4-0.6,0.7-1,1.2c0.4,0.5,0.8,0.9,1.1,1.3
		C148,221.3,149.7,229.4,145.7,232.5z"/>
	<path class="st24" d="M154.4,191.4c-0.7,0.5-1.5,1-2.1,1.5c-16.5,12.4-15.9,27.6-26.3,23.2c-0.2-0.1-0.3-0.2-0.5-0.2
		c-12.4-5.7-3.5-29.9,0.1-37.8c3.7-7.9,13.1-11.4,21-7.7C154.6,174,161.6,186.5,154.4,191.4z"/>
	<path class="st25" d="M152.2,192.9c-16.4,12.4-15.8,27.6-26.2,23.2c1.4-6.3,3.8-12.2,5.3-15.5C134.9,192.7,144.3,189.2,152.2,192.9
		z"/>
	
		<ellipse transform="matrix(0.9721 -0.2345 0.2345 0.9721 -52.397 49.7972)" class="st26" cx="183.2" cy="245.2" rx="12.3" ry="16.8"/>
</g>
<g id="Layer_17" class="st0">
	<path class="st29" d="M184.7,311.8l-11.3-7.5c-2.3-1.6-5.5-1.3-7.5,0.7l-19.4,11.2c-0.7,0.4-1.4,0.9-2.1,1.4
		c-2.1,1.5-4.8,1.4-6.9,0c-0.7-0.5-1.4-1-2.1-1.4L116.5,305c-2-2-5.1-2.3-7.5-0.7L97.2,312c-4,2.6-9.3-0.3-9.3-5v-84.5
		c0-26,21.3-47.3,47.3-47.3h11.5c26,0,47.3,21.3,47.3,47.3v84.4C194,311.6,188.7,314.5,184.7,311.8z"/>
	<path class="st30" d="M184.9,312.1l-11.3-7.5c-2.3-1.6-5.5-1.3-7.5,0.7l-19.4,11.2c-0.7,0.4-1.4,0.9-2.1,1.4
		c-2.1,1.5-4.8,1.4-6.9,0c-0.7-0.5-1.4-1-2.1-1.4l-18.9-11.2c-2-2-5.1-2.3-7.5-0.7l-11.8,7.7c-4,2.6-9.3-0.3-9.3-5v-8.8
		c0-26,52.2-47.3,78.2-47.3h11.4c26,0,16.5,21.3,16.5,47.3v8.7C194.3,311.9,188.9,314.8,184.9,312.1z"/>
	<g class="st15">
		<path class="st31" d="M141,324.9c-2.5,0-5-0.8-7.1-2.3l-0.3-0.2c-0.5-0.4-1-0.7-1.3-0.9L112.7,310l-0.4-0.4l-11.7,7.6
			c-3.8,2.5-8.5,2.7-12.5,0.5c-3.9-2.1-6.4-6.3-6.4-10.7v-84.5c0-29.6,24-53.6,53.6-53.6h11.4c29.5,0,53.6,24,53.6,53.6v84.4
			c0,4.5-2.5,8.6-6.5,10.8c-4,2.1-8.8,1.9-12.5-0.6l0,0l-11.2-7.4l-0.4,0.4l-20,11.6c-0.4,0.2-0.9,0.6-1.4,0.9l-0.2,0.1
			C145.9,324.2,143.5,324.9,141,324.9z M120.2,300l18.4,10.8c0.9,0.5,1.6,1,2.3,1.5l0.1,0.1h0.1c0.7-0.5,1.4-1,2.3-1.5l18.8-11
			c4.1-3.4,10.1-3.8,14.6-0.8l11,7.3v-84c0-22.7-18.4-41.1-41.1-41.1h-11.4c-22.7,0-41.1,18.4-41.1,41.1v84.1l11.5-7.5
			C110.1,296.1,116.1,296.5,120.2,300z"/>
	</g>
	<circle class="st32" cx="110.4" cy="234.4" r="12.7"/>
	<circle class="st32" cx="150.6" cy="234.4" r="12.7"/>
</g>
<g id="Layer_18" class="st0">
	<path class="st33" d="M184.9,311.8l-11.3-7.5c-2.3-1.6-5.5-1.3-7.5,0.7l-19.4,11.2c-0.7,0.4-1.4,0.9-2.1,1.4
		c-2.1,1.5-4.8,1.4-6.9,0c-0.7-0.5-1.4-1-2.1-1.4L116.7,305c-2-2-5.1-2.3-7.5-0.7L97.4,312c-4,2.6-9.3-0.3-9.3-5v-84.5
		c0-26,21.3-47.3,47.3-47.3h11.4c26,0,47.3,21.3,47.3,47.3v84.4C194.2,311.6,188.9,314.5,184.9,311.8z"/>
	<path class="st34" d="M185.2,312.1l-11.3-7.5c-2.3-1.6-5.5-1.3-7.5,0.7L147,316.5c-0.7,0.4-1.4,0.9-2.1,1.4c-2.1,1.5-4.8,1.4-6.9,0
		c-0.7-0.5-1.4-1-2.1-1.4L117,305.3c-2-2-5.1-2.3-7.5-0.7l-11.8,7.6c-4,2.6-9.3-0.3-9.3-5v-8.8c0-26,52.2-47.3,78.2-47.3H178
		c26,0,16.5,21.3,16.5,47.3v8.7C194.5,311.9,189.2,314.8,185.2,312.1z"/>
	<g class="st15">
		<path class="st35" d="M141.2,324.9c-2.5,0-5-0.8-7.1-2.3l-0.3-0.2c-0.5-0.4-1-0.7-1.3-0.9L112.9,310l-0.4-0.4l-11.7,7.6
			c-3.8,2.5-8.5,2.7-12.5,0.5c-3.9-2.1-6.4-6.3-6.4-10.7v-84.5c0-29.6,24.1-53.6,53.6-53.6h11.4c29.5,0,53.6,24,53.6,53.6v84.4
			c0,4.5-2.5,8.6-6.5,10.8c-4,2.1-8.8,1.9-12.5-0.6l0,0l-11.2-7.4l-0.4,0.4l-20,11.6c-0.4,0.2-0.9,0.6-1.4,0.9l-0.2,0.1
			C146.2,324.2,143.7,324.9,141.2,324.9z M120.5,300l18.4,10.8c0.9,0.5,1.6,1,2.3,1.5l0.1,0.1h0.1c0.7-0.5,1.4-1,2.3-1.5l18.8-11
			c4.1-3.4,10.1-3.8,14.6-0.8l11,7.3v-84c0-22.7-18.4-41.1-41.1-41.1h-11.5c-22.7,0-41.1,18.4-41.1,41.1v84.1l11.5-7.5
			C110.4,296.1,116.4,296.5,120.5,300z"/>
	</g>
	<circle class="st36" cx="110.7" cy="234.4" r="12.7"/>
	<circle class="st36" cx="150.8" cy="234.4" r="12.7"/>
</g>
<path class="st37" d="M196.4,307.9l-17.4-21c-3.6-4.4-9.8-5.6-14.8-3l-43.7,10.5c-1.6,0.4-3.2,0.9-4.8,1.5c-4.8,1.6-10.2,0-13.3-4
	c-1-1.3-2.1-2.7-3.2-3.9l-30-32.3c-2.7-4.9-8.5-7.3-14-5.7L28,258c-9.2,2.7-17.7-5.8-15-15L61.5,80.4
	c14.9-50.1,68.2-78.9,118.3-63.9l21.9,6.5c50.1,14.9,78.9,68.2,63.9,118.3l-48.4,162.4C214.4,312.9,202.5,315.3,196.4,307.9z"/>
<path class="st38" d="M196.7,308.5l-17.4-21c-3.6-4.4-9.8-5.6-14.8-3L120.8,295c-1.6,0.4-3.2,0.9-4.8,1.5c-4.8,1.6-10.2,0-13.3-4
	c-1-1.3-2.1-2.7-3.2-3.9l-30-32.3c-2.7-4.9-8.5-7.3-14-5.7l-27.2,8.1c-9.2,2.7-17.7-5.8-15-15l5.1-17
	c14.9-50.1,127.6-61.1,177.7-46.2L218,187c50.1,14.9,19.5,50.4,4.5,100.5l-5,16.7C214.8,313.5,202.9,315.9,196.7,308.5z"/>
<g>
	<path class="st39" d="M104.8,308c-4.8-1.4-9.1-4.3-12.3-8.4l-0.5-0.6c-0.7-1-1.4-1.9-2.1-2.5L59,263l-0.6-1l-26.9,8
		c-8.6,2.6-18,0.2-24.3-6.2c-6.4-6.4-8.7-15.7-6.2-24.4L49.5,76.8c17-56.8,77-89.3,133.8-72.3l21.9,6.5c56.8,17,89.3,77,72.3,133.8
		l-48.4,162.4c-2.6,8.7-9.7,15.2-18.6,17c-8.9,1.8-18-1.4-23.8-8.4l0,0l-17.2-20.7l-1,0.5l-45.2,10.9c-0.9,0.2-2,0.6-3.2,1l-0.5,0.2
		C114.7,309.4,109.6,309.4,104.8,308z M79.2,248l29.2,31.4c1.4,1.5,2.5,2.9,3.5,4.2l0.2,0.3l0.1,0c1.6-0.5,3.4-1.1,5.4-1.6L160,272
		c9.9-4.2,21.6-1.5,28.5,6.9l16.9,20.3l48.2-161.5c13-43.6-11.9-89.7-55.5-102.7l-21.9-6.5C132.6,15.4,86.5,40.3,73.5,84L25.2,245.8
		l26.4-7.8C62,234.8,73.3,239.1,79.2,248z"/>
</g>
<ellipse transform="matrix(0.2859 -0.9583 0.9583 0.2859 -66.2484 196.4457)" class="st40" cx="98.7" cy="142.7" rx="33.6" ry="33.6"/>
<path class="st41" d="M205.3,11l-21.9-6.5C134-10.2,82.2,12.3,58.4,55.7l-31.2-9.3c-6.3-1.9-13,1.7-14.9,8.1l-0.9,2.9
	c-1.9,6.3,1.7,13,8.1,14.9l28.9,8.6L1,239.4c-2.6,8.6-0.2,18,6.2,24.4c6.4,6.4,15.7,8.7,24.3,6.2l26.9-8l0.6,1L90,296.5
	c0.6,0.7,1.3,1.6,2.1,2.5l0.5,0.6c3.2,4.1,7.5,7,12.3,8.4c4.7,1.4,9.9,1.4,14.8-0.2l0.5-0.2c1.2-0.4,2.3-0.8,3.2-1l45.2-10.9l1-0.5
	l17.2,20.7c5.8,7,14.9,10.2,23.8,8.4c8.9-1.8,16-8.3,18.6-17l48.4-162.4C294.6,88,262.1,28,205.3,11z M205.5,299.3l-16.9-20.3
	c-6.9-8.4-18.7-11.1-28.5-6.9l-42.5,10.2c-2,0.5-3.8,1.1-5.4,1.6l-0.1,0l-0.2-0.3c-1-1.3-2.1-2.7-3.5-4.2L79.2,248
	c-5.9-9-17.2-13.2-27.5-10.1l-26.4,7.8L71.5,90.7c22.1,11.5,79.3,36.8,180.4,52.8L205.5,299.3z"/>
<path class="st42" d="M237.7,261.1l-8.6,28.8c0.3-1.5,0.6-3.2,1.2-4.9l7.2-24.1C237.6,261,237.7,261.1,237.7,261.1z"/>
<path class="st43" d="M354.9,226.2c1.5-2.1,2.9-4.4,4.1-6.7C356.8,223.2,355.3,225.5,354.9,226.2z M320.5,70.4c2-0.1,4.2,0,6.7,0.3
	C325,70.3,322.8,70.2,320.5,70.4z"/>
<path class="st42" d="M237.7,261.1l-8.6,28.8c0.3-1.5,0.6-3.2,1.2-4.9l7.2-24.1C237.6,261,237.7,261.1,237.7,261.1z"/>
<path class="st44" d="M350.5,112.7c-2.3-1-4.4-1.7-6.4-2.2c-0.2,0-0.3-0.1-0.5-0.1c-0.3-0.1-0.6-0.1-0.9-0.2c0,0-0.1,0-0.1,0
	c-24.7-4.7-61.2,12.1-61.2,12.1c-2.9,1.3-3.8,4.1-3.8,4.1s-2.7,9-6.9,23c0,0-69.8,11.8-79.3,56c-9.5,43.9,37,83.9,37.7,84.5
	c0,0,0,0,0,0c-0.1,0.5-0.2,1-0.2,1.4c-0.1,1-0.2,1.9-0.2,2.8c0,0.3,0,0.5,0,0.8c0,0.5,0,1,0.1,1.5c0.2,1.9,0.7,3.6,1.5,5
	c0.2,0.3,0.3,0.6,0.5,0.9c0.1,0.1,0.2,0.3,0.3,0.4c0.1,0.1,0.2,0.3,0.4,0.5c11.7,14.2,58.4-3.1,98.2-31.3c0.9-0.6,1.8-1.3,2.7-2
	c0,0,0.1,0,0.2-0.1c0.6-0.5,2.7-2.4,5.9-5.2c3.3-3,7.7-7,12.7-11.7c18.2-17.2,44.6-44,55.3-63.4
	C421.1,162.7,375.9,123.4,350.5,112.7z M229.1,289.9c0.3-1.5,0.6-3.2,1.2-4.9l7.2-24.1c-4.5-4.5-68.7-70.5,25.1-84.3l-25.1,84.3
	c0.1,0.1,0.1,0.1,0.2,0.2c0,0,0.1,0.1,0.1,0.1L229.1,289.9z"/>
<path class="st45" d="M351.1,252.7c-5,4.8-9.4,8.8-12.7,11.7c-3.2,2.9-5.3,4.7-5.9,5.2c-0.1,0.1-0.2,0.1-0.2,0.1
	c-0.9,0.7-1.8,1.4-2.7,2c-40.6,26.8-86.5,44.9-98.2,31.3c-0.1-0.2-0.2-0.3-0.4-0.5c-0.1-0.1-0.2-0.2-0.3-0.4
	c-0.2-0.3-0.4-0.6-0.5-0.9c-0.8-1.4-1.3-3.1-1.5-5c-0.1-0.5-0.1-1-0.1-1.5c0-0.3,0-0.5,0-0.8c0-0.9,0.1-1.8,0.2-2.8
	c0-0.5,0.1-0.9,0.2-1.4c0,0,0,0,0,0l0,0l8.5-28.9l25-84.5c0,0,14.4,69.4,85.8,75.7l0,0C349.3,252.4,350.2,252.5,351.1,252.7z"/>
<path class="st41" d="M447.6,76h-62.7c-3.9,0-7-3.2-7-7v0c0-3.8,3.1-7,7-7h62.7c3.9,0,7,3.1,7,7v0C454.6,72.9,451.4,76,447.6,76z"/>
<path class="st41" d="M341.6,28.7h-62.7c-3.9,0-7-3.1-7-7v0c0-3.8,3.1-7,7-7h62.7c3.9,0,7,3.1,7,7v0
	C348.6,25.6,345.4,28.7,341.6,28.7z"/>
<path class="st41" d="M560.1,28.7H404.9c-3.9,0-7-3.1-7-7v0c0-3.8,3.1-7,7-7h155.2c3.9,0,7,3.1,7,7v0
	C567.1,25.6,564,28.7,560.1,28.7z"/>
<path class="st44" d="M456.3,129.2h-27.8c-3.9,0-7-3.1-7-7v0c0-3.8,3.1-7,7-7h27.8c3.9,0,7,3.1,7,7v0
	C463.3,126.1,460.1,129.2,456.3,129.2z"/>
<path class="st44" d="M610.3,235.6h-27.8c-3.8,0-7-3.2-7-7v0c0-3.8,3.2-7,7-7h27.8c3.8,0,7,3.1,7,7v0
	C617.3,232.5,614.1,235.6,610.3,235.6z"/>
<path class="st44" d="M710.4,182.4h-27.8c-3.9,0-7-3.1-7-7v0c0-3.8,3.1-7,7-7h27.8c3.8,0,7,3.1,7,7v0
	C717.4,179.3,714.2,182.4,710.4,182.4z"/>
<path class="st41" d="M700.3,76H520.5c-3.8,0-7-3.2-7-7v0c0-3.8,3.2-7,7-7h179.9c3.8,0,7,3.1,7,7v0C707.3,72.9,704.2,76,700.3,76z"
	/>
<path class="st44" d="M632.3,182.4H452.5c-3.9,0-7-3.1-7-7v0c0-3.8,3.1-7,7-7h179.9c3.8,0,7,3.1,7,7v0
	C639.3,179.3,636.2,182.4,632.3,182.4z"/>
<path class="st45" d="M535.4,288.8H355.5c-3.9,0-7-3.1-7-7v0c0-3.8,3.1-7,7-7h179.9c3.8,0,7,3.1,7,7v0
	C542.4,285.7,539.3,288.8,535.4,288.8z"/>
<path class="st44" d="M611.2,129.2H507.6c-3.8,0-7-3.1-7-7v0c0-3.8,3.1-7,7-7h103.7c3.9,0,7,3.1,7,7v0
	C618.2,126.1,615.1,129.2,611.2,129.2z"/>
<path class="st44" d="M515.1,235.6H411.4c-3.9,0-7-3.2-7-7v0c0-3.8,3.1-7,7-7h103.7c3.8,0,7,3.1,7,7v0
	C522.1,232.5,519,235.6,515.1,235.6z"/>
<path class="st45" d="M696.4,288.8H592.8c-3.8,0-7-3.1-7-7v0c0-3.8,3.1-7,7-7h103.7c3.9,0,7,3.1,7,7v0
	C703.4,285.7,700.3,288.8,696.4,288.8z"/>
</svg>
