<?xml version="1.0" encoding="utf-8"?>
<!-- Generator: Adobe Illustrator 21.0.2, SVG Export Plug-In . SVG Version: 6.00 Build 0)  -->
<svg version="1.1" id="Layer_1" xmlns="http://www.w3.org/2000/svg" xmlns:xlink="http://www.w3.org/1999/xlink" x="0px" y="0px"
	 viewBox="0 0 307 143" style="enable-background:new 0 0 307 143;" xml:space="preserve">
<style type="text/css">
	.st0{fill:#1683C6;}
</style>
<g>
	<path class="st0" d="M114,120c-1.6,0-3.1-0.6-4.2-1.8l-108-108C0,8.5-0.5,5.9,0.5,3.7C1.4,1.5,3.6,0,6,0h144c1.9,0,3.7,0.9,4.9,2.5
		s1.4,3.6,0.8,5.4l-36,108c-0.7,2-2.3,3.5-4.3,3.9C114.9,119.9,114.5,120,114,120z M20.5,12l90.9,90.9L141.7,12H20.5z"/>
</g>
<g>
	<path class="st0" d="M138.1,120c-1.4,0-2.7-0.5-3.8-1.4l-18.9-15.5l7.6-9.3l9.1,7.5V46.4L4.4,11.8L7.6,0.2L139.6,36
		c2.6,0.7,4.4,3.1,4.4,5.8V114c0,2.3-1.3,4.4-3.4,5.4C139.8,119.8,138.9,120,138.1,120z"/>
</g>
<g>
	<path class="st0" d="M213.5,25.5c-0.4,0-0.9,0-1.3-0.1l-27-6c-3.2-0.7-5.3-3.9-4.6-7.2c0.7-3.2,3.9-5.3,7.2-4.6l27,6
		c3.2,0.7,5.3,3.9,4.6,7.2C218.7,23.6,216.3,25.5,213.5,25.5z"/>
</g>
<g>
	<path class="st0" d="M213.5,142.5c-0.5,0-0.9-0.1-1.4-0.2l-43-10c-3.2-0.8-5.2-4-4.5-7.2c0.8-3.2,4-5.2,7.2-4.5l43,10
		c3.2,0.8,5.2,4,4.5,7.2C218.7,140.6,216.2,142.5,213.5,142.5z"/>
</g>
<g>
	<path class="st0" d="M273.5,78.5c-0.5,0-1-0.1-1.5-0.2l-96-25c-3.2-0.8-5.1-4.1-4.3-7.3s4.1-5.1,7.3-4.3l96,25
		c3.2,0.8,5.1,4.1,4.3,7.3C278.6,76.7,276.2,78.5,273.5,78.5z"/>
</g>
<g>
	<path class="st0" d="M212.5,102.5c-0.5,0-1-0.1-1.5-0.2l-35-9c-3.2-0.8-5.1-4.1-4.3-7.3s4.1-5.1,7.3-4.3l35,9
		c3.2,0.8,5.1,4.1,4.3,7.3C217.6,100.7,215.2,102.5,212.5,102.5z"/>
</g>
<g>
	<path class="st0" d="M300.5,125.5c-0.5,0-1-0.1-1.5-0.2l-51-13c-3.2-0.8-5.2-4.1-4.3-7.3c0.8-3.2,4.1-5.1,7.3-4.3l51,13
		c3.2,0.8,5.2,4.1,4.3,7.3C305.6,123.7,303.2,125.5,300.5,125.5z"/>
</g>
</svg>
