<?xml version="1.0" encoding="utf-8"?>
<!-- Generator: Adobe Illustrator 21.0.2, SVG Export Plug-In . SVG Version: 6.00 Build 0)  -->
<svg version="1.1" id="Layer_1" xmlns="http://www.w3.org/2000/svg" xmlns:xlink="http://www.w3.org/1999/xlink" x="0px" y="0px"
	 viewBox="0 0 362 243" style="enable-background:new 0 0 362 243;" xml:space="preserve">
<style type="text/css">
	.st0{fill:none;stroke:#525D67;stroke-width:18;stroke-miterlimit:0;}
	.st1{fill:#525D67;}
</style>
<g>
	<path class="st0" d="M301,53.6C279.9,37.2,236.7,9.7,183.6,9c-0.7,0-1.4,0-2.1,0c-0.7,0-1.4,0-2.1,0C125.6,9.7,82.9,35.9,62.1,51.6
		C36.4,71,10.5,100.1,10.5,121.5c0,20.9,25.9,50,51.6,69.5c20.9,15.8,63.6,42.3,117.3,43c0.7,0,1.4,0,2.1,0s1.4,0,2.1,0
		c53-0.7,96.2-28.4,117.4-45c24.8-19.4,51.5-48.8,51.5-67.5C352.5,102.3,325.8,72.9,301,53.6z"/>
</g>
<path class="st1" d="M250,121c0,38.1-30.9,69-69,69c-38.1,0-69-30.9-69-69c0-38.1,30.9-69,69-69c6.2,0,12.3,0.8,18,2.4
	c-5.9,6.2-9.6,14.5-9.6,23.8c0,19,15.4,34.4,34.4,34.4c9.2,0,17.6-3.6,23.8-9.6C249.2,108.7,250,114.8,250,121z"/>
</svg>
