<?xml version="1.0" encoding="utf-8"?>
<!-- Generator: Adobe Illustrator 21.0.2, SVG Export Plug-In . SVG Version: 6.00 Build 0)  -->
<svg version="1.1" id="Layer_1" xmlns="http://www.w3.org/2000/svg" xmlns:xlink="http://www.w3.org/1999/xlink" x="0px" y="0px"
	 viewBox="0 0 548.2 286.8" style="enable-background:new 0 0 548.2 286.8;" xml:space="preserve">
<style type="text/css">
	.st0{display:none;}
	.st1{display:inline;fill:#EFEFEF;}
	.st2{display:inline;fill:#EF2648;}
	.st3{display:inline;fill:#154D84;}
	.st4{display:inline;fill:#555654;}
	.st5{display:inline;fill:#EF2648;stroke:#EF2648;stroke-width:3.7889;stroke-miterlimit:10;}
	.st6{display:inline;fill:none;stroke:#525D67;stroke-width:18;stroke-miterlimit:10;}
	.st7{display:inline;fill:#525D67;}
	.st8{display:inline;fill:none;stroke:#525D67;stroke-width:11.2615;stroke-miterlimit:10;}
	.st9{display:inline;fill:#EC2C55;}
	.st10{display:inline;fill:none;stroke:#EC2C55;stroke-width:18;stroke-miterlimit:10;}
	.st11{display:inline;fill:none;stroke:#525D67;stroke-width:12.0531;stroke-miterlimit:10;}
	.st12{display:inline;fill:#525D67;stroke:#525D67;stroke-width:3.3481;stroke-miterlimit:10;}
	.st13{display:inline;fill:#F81626;stroke:#F81626;stroke-width:8.1641;stroke-miterlimit:10;}
	.st14{display:inline;fill:none;stroke:#525D67;stroke-width:16.9612;stroke-miterlimit:10;}
	.st15{display:inline;}
	.st16{fill:#525D67;}
	.st17{fill:#545554;}
	.st18{display:inline;fill:none;stroke:#525D67;stroke-width:10.2123;stroke-miterlimit:10;}
	.st19{display:inline;fill:#CE3C51;stroke:#9B1B37;stroke-width:9.1207;stroke-miterlimit:10;}
	.st20{display:inline;fill:#F9D43A;}
	.st21{display:inline;opacity:0.3;fill:#514042;enable-background:new    ;}
	.st22{display:inline;fill:#69A86D;}
	.st23{display:inline;opacity:0.6;fill:#576B67;enable-background:new    ;}
	.st24{display:inline;fill:#618C67;}
	.st25{display:inline;opacity:0.4;fill:#576B67;enable-background:new    ;}
	.st26{display:inline;opacity:0.3;fill:#F7C6CB;enable-background:new    ;}
	.st27{display:inline;fill:#F9EDBB;}
	.st28{display:inline;fill:#E04457;stroke:#C12B44;stroke-width:9.1442;stroke-miterlimit:10;}
	.st29{display:inline;fill:#797C79;}
	.st30{display:inline;fill:#8A8E8A;}
	.st31{fill:#4F5151;}
	.st32{display:inline;fill:#E5E5E5;}
	.st33{display:inline;fill:#ED3AE8;}
	.st34{display:inline;fill:#F25CCF;}
	.st35{fill:#D305C4;}
	.st36{display:inline;fill:#FFDEFE;}
	.st37{fill:#F9D43A;}
	.st38{fill:#F7DD6D;}
	.st39{fill:#FCBE24;}
	.st40{fill:#F9F9F9;}
	.st41{fill:none;stroke:#FCBE24;stroke-width:10;stroke-linecap:round;stroke-linejoin:round;stroke-miterlimit:10;}
	.st42{fill:none;stroke:#FCBE24;stroke-width:12;stroke-linecap:round;stroke-linejoin:round;stroke-miterlimit:10;}
	.st43{fill:none;stroke:#FCBE24;stroke-width:17;stroke-linecap:round;stroke-linejoin:round;stroke-miterlimit:10;}
</style>
<g id="Layer_1_1_" class="st0">
	<path class="st1" d="M251.5,251.9v145.4c0,3.9-3.2,7-7,7H3.1c-3.9,0-7-3.2-7-7V251.9c0-3.9,3.2-7,7-7h241.4
		C248.3,244.9,251.5,248.1,251.5,251.9z"/>
	<path class="st2" d="M251.7,316.3c0-2.3-1.9-4.2-4.2-4.2H136.6v-63.2c0-2.1-1.7-3.8-3.8-3.8h-5.1c-0.2,0-0.4,0-0.6,0.1
		c-0.2,0-0.4-0.1-0.6-0.1h-5.1c-0.2,0-0.4,0-0.6,0.1c-0.2,0-0.4-0.1-0.6-0.1h-5.1c-2.1,0-3.8,1.7-3.8,3.8v63.3H0.5
		c-2.3,0-4.2,1.9-4.2,4.2v4.2c0,0.4,0.1,0.7,0.2,1.1c-0.1,0.3-0.2,0.7-0.2,1.1v4.2c0,0.4,0.1,0.7,0.2,1.1c-0.1,0.3-0.2,0.7-0.2,1.1
		v4.2c0,2.3,1.9,4.2,4.2,4.2h110.9v63.3c0,2.1,1.7,3.8,3.8,3.8h5.1c0.2,0,0.4,0,0.6-0.1c0.2,0,0.4,0.1,0.6,0.1h5.1
		c0.2,0,0.4,0,0.6-0.1c0.2,0,0.4,0.1,0.6,0.1h5.1c2.1,0,3.8-1.7,3.8-3.8v-63.3h110.9c2.3,0,4.2-1.9,4.2-4.2v-4.5
		c0-0.4-0.1-0.7-0.2-1.1c0.1-0.3,0.2-0.7,0.2-1.1v-4.2c0-0.4-0.1-0.7-0.2-1.1c0.1-0.3,0.2-0.7,0.2-1.1L251.7,316.3L251.7,316.3z"/>
	<path class="st3" d="M251.5,350v33.3l-48.3-27.5c-2.8-1.6-1.7-5.8,1.5-5.8H251.5z"/>
	<path class="st3" d="M237.7,404.3h-88.4v-46.2l0,0c0-1.8,2-2.9,3.6-2L237.7,404.3z"/>
	<path class="st3" d="M251.5,299.3V266l-48.3,27.5c-2.8,1.6-1.7,5.8,1.5,5.8H251.5z"/>
	<path class="st3" d="M237.7,244.9h-88.4v46.2l0,0c0,1.8,2,2.9,3.6,2L237.7,244.9z"/>
	<path class="st3" d="M-3.9,299.3V266l48.3,27.5c2.8,1.6,1.7,5.8-1.5,5.8H-3.9z"/>
	<path class="st3" d="M9.8,244.9h88.4v46.2l0,0c0,1.8-2,2.9-3.6,2L9.8,244.9z"/>
	<path class="st3" d="M-3.9,350v33.3l48.3-27.5c2.8-1.6,1.7-5.8-1.5-5.8H-3.9z"/>
	<path class="st3" d="M9.8,404.3h88.4v-46.2l0,0c0-1.8-2-2.9-3.6-2L9.8,404.3z"/>
</g>
<g id="Layer_2" class="st0">
	<path class="st4" d="M-9.3,226.8v-0.4v-4.3C-9,223.6-9,225.2-9.3,226.8z"/>
	<path class="st1" d="M251.5,252.8v144.5c0,3.8-3.1,7-7,7H4.7c-3.8,0-7-3.1-7-7V252.8c0-3.8,3.1-7,7-7h239.8
		C248.4,245.8,251.5,249,251.5,252.8z"/>
	<path class="st2" d="M251.7,316.8c0-2.3-1.9-4.2-4.2-4.2H137.3v-62.8c0-2.1-1.7-3.7-3.7-3.7h-5c-0.2,0-0.4,0-0.6,0.1
		c-0.2,0-0.4-0.1-0.6-0.1h-5c-0.2,0-0.4,0-0.6,0.1c-0.2,0-0.4-0.1-0.6-0.1h-5c-2.1,0-3.7,1.7-3.7,3.7v62.8H2.1
		c-2.3,0-4.2,1.9-4.2,4.2v4.1c0,0.4,0.1,0.7,0.1,1c-0.1,0.3-0.1,0.7-0.1,1.1v4.1c0,0.4,0.1,0.7,0.1,1c-0.1,0.3-0.1,0.7-0.1,1.1v4.1
		c0,2.3,1.9,4.2,4.2,4.2h110.2v62.8c0,2.1,1.7,3.7,3.7,3.7h5c0.2,0,0.4,0,0.6-0.1c0.2,0,0.4,0.1,0.6,0.1h5c0.2,0,0.4,0,0.6-0.1
		c0.2,0,0.4,0.1,0.6,0.1h5c2.1,0,3.7-1.7,3.7-3.7v-62.8h110.2c2.3,0,4.2-1.9,4.2-4.2v-4.1c0-0.4-0.1-0.7-0.1-1.1
		c0.1-0.3,0.1-0.7,0.1-1V323c0-0.4-0.1-0.7-0.1-1.1c0.1-0.3,0.1-0.7,0.1-1v-4.1H251.7z"/>
	<path class="st5" d="M216,274.2c0-0.4-0.3-0.7-0.7-0.7H197v-10.4c0-0.3-0.3-0.6-0.6-0.6h-0.8h-0.1h-0.1h-0.8h-0.1h-0.1h-0.8
		c-0.3,0-0.6,0.3-0.6,0.6v10.4h-18.4c-0.4,0-0.7,0.3-0.7,0.7v0.7c0,0.1,0,0.1,0,0.2c0,0.1,0,0.1,0,0.2v0.7c0,0.1,0,0.1,0,0.2
		c0,0.1,0,0.1,0,0.2v0.7c0,0.4,0.3,0.7,0.7,0.7h18.3v10.4c0,0.3,0.3,0.6,0.6,0.6h0.8h0.1h0.1h0.8h0.1h0.1h0.8c0.3,0,0.6-0.3,0.6-0.6
		v-10.4h18.3c0.4,0,0.7-0.3,0.7-0.7v-0.7c0-0.1,0-0.1,0-0.2c0-0.1,0-0.1,0-0.2v-0.7c0-0.1,0-0.1,0-0.2c0-0.1,0-0.1,0-0.2v-0.7H216z"
		/>
	<path class="st5" d="M216,367.7c0-0.4-0.3-0.7-0.7-0.7H197v-10.4c0-0.3-0.3-0.6-0.6-0.6h-0.8h-0.1h-0.1h-0.8h-0.1h-0.1h-0.8
		c-0.3,0-0.6,0.3-0.6,0.6V367h-18.4c-0.4,0-0.7,0.3-0.7,0.7v0.7c0,0.1,0,0.1,0,0.2c0,0.1,0,0.1,0,0.2v0.7c0,0.1,0,0.1,0,0.2
		c0,0.1,0,0.1,0,0.2v0.7c0,0.4,0.3,0.7,0.7,0.7h18.3v10.4c0,0.3,0.3,0.6,0.6,0.6h0.8h0.1h0.1h0.8h0.1h0.1h0.8c0.3,0,0.6-0.3,0.6-0.6
		v-10.4h18.3c0.4,0,0.7-0.3,0.7-0.7v-0.7c0-0.1,0-0.1,0-0.2c0-0.1,0-0.1,0-0.2v-0.7c0-0.1,0-0.1,0-0.2c0-0.1,0-0.1,0-0.2v-0.7H216z"
		/>
	<path class="st5" d="M72.9,274.2c0-0.4-0.3-0.7-0.7-0.7H53.9v-10.4c0-0.3-0.3-0.6-0.6-0.6h-0.8h-0.1h-0.1h-0.8h-0.1h-0.1h-0.8
		c-0.3,0-0.6,0.3-0.6,0.6v10.4H31.6c-0.4,0-0.7,0.3-0.7,0.7v0.7c0,0.1,0,0.1,0,0.2c0,0.1,0,0.1,0,0.2v0.7c0,0.1,0,0.1,0,0.2
		c0,0.1,0,0.1,0,0.2v0.7c0,0.4,0.3,0.7,0.7,0.7h18.3v10.4c0,0.3,0.3,0.6,0.6,0.6h0.8h0.1h0.1h0.8h0.1h0.1h0.8c0.3,0,0.6-0.3,0.6-0.6
		v-10.4h18.3c0.4,0,0.7-0.3,0.7-0.7v-0.7c0-0.1,0-0.1,0-0.2c0-0.1,0-0.1,0-0.2v-0.7c0-0.1,0-0.1,0-0.2c0-0.1,0-0.1,0-0.2V274.2z"/>
	<path class="st5" d="M72.9,367.7c0-0.4-0.3-0.7-0.7-0.7H53.9v-10.4c0-0.3-0.3-0.6-0.6-0.6h-0.8h-0.1h-0.1h-0.8h-0.1h-0.1h-0.8
		c-0.3,0-0.6,0.3-0.6,0.6V367H31.6c-0.4,0-0.7,0.3-0.7,0.7v0.7c0,0.1,0,0.1,0,0.2c0,0.1,0,0.1,0,0.2v0.7c0,0.1,0,0.1,0,0.2
		c0,0.1,0,0.1,0,0.2v0.7c0,0.4,0.3,0.7,0.7,0.7h18.3v10.4c0,0.3,0.3,0.6,0.6,0.6h0.8h0.1h0.1h0.8h0.1h0.1h0.8c0.3,0,0.6-0.3,0.6-0.6
		v-10.4h18.3c0.4,0,0.7-0.3,0.7-0.7v-0.7c0-0.1,0-0.1,0-0.2c0-0.1,0-0.1,0-0.2v-0.7c0-0.1,0-0.1,0-0.2c0-0.1,0-0.1,0-0.2V367.7z"/>
</g>
<g id="Layer_3" class="st0">
	<path class="st3" d="M16.1,192.3c-29.1,42.8-18,101.4,24.8,130.5c38.8,26.4,90.5,19.8,121.5-13.6l66.9,45.5
		c3.2,2.2,7.1,2.9,10.6,2.2c3.6-0.7,6.9-2.7,9.1-5.9c4.4-6.5,2.7-15.3-3.7-19.7l-66.8-45.4c19.8-41.2,7.1-92-31.8-118.4
		C103.8,138.3,45.3,149.5,16.1,192.3z M158.7,272.4c-1.8,4.2-4,8.4-6.7,12.3c-2.8,4.1-5.9,7.8-9.3,11.1
		c-23.5,22.7-60.4,26.6-88.4,7.5c-32.1-21.8-40.4-65.6-18.6-97.7s65.7-40.4,97.7-18.6C161.5,206.1,171.4,242.2,158.7,272.4z"/>
</g>
<g id="Layer_4" class="st0">
	<circle class="st3" cx="32.4" cy="262.6" r="32.7"/>
	<circle class="st3" cx="125.7" cy="262.6" r="32.7"/>
	<circle class="st3" cx="219" cy="262.6" r="32.7"/>
</g>
<g id="Layer_5" class="st0">
	<circle class="st6" cx="126.2" cy="259.7" r="107.5"/>
	<path class="st7" d="M97.6,231v57.4c0,6.4,6.9,10.4,12.4,7.2l49.7-28.7c5.5-3.2,5.5-11.2,0-14.4l-49.6-28.7
		C104.5,220.6,97.6,224.6,97.6,231z"/>
</g>
<g id="Layer_6" class="st0">
	<circle class="st8" cx="126.4" cy="259.6" r="109.7"/>
	<path class="st7" d="M86.2,216.4v86.3c0,9.6,10.4,15.6,18.7,10.8l74.7-43.1c8.3-4.8,8.3-16.8,0-21.6l-74.7-43.2
		C96.6,200.8,86.2,206.8,86.2,216.4z"/>
</g>
<g id="Layer_7" class="st0">
	<path class="st7" d="M74,257.7c0,14.9,12,26.9,26.9,26.9c6.5,0,12.4-2.3,17.1-6.1c4-3.3,9.8-3.3,13.8,0c4.6,3.8,10.6,6.1,17.1,6.1
		c14.9,0,26.9-12,26.9-26.9c-0.1-28.1-45.2-58.8-50.9-58.8C119.1,198.9,74,229.5,74,257.7z"/>
	<path class="st7" d="M147.3,320.2h-44.9c-3.1,0-4.6-3.7-2.5-5.9c10.8-11.1,19.4-22.5,25-22.5s14.2,11.4,24.9,22.5
		C151.9,316.5,150.3,320.2,147.3,320.2z"/>
	<circle class="st6" cx="125.8" cy="259.7" r="104.4"/>
</g>
<g id="Layer_8" class="st0">
	<path class="st9" d="M140.7,264.4h25.1v-26.2h-25.1v-35.9h33.1l-5.2-28.3h-30.8l-28.2,56.6v95.1h57.7l5.2-28.3h-31.8V264.4z
		 M109.6,174v33.8l26.3-33.8C135.9,174,109.6,174,109.6,174z"/>
	<circle class="st10" cx="136.5" cy="249.9" r="115"/>
</g>
<g id="Layer_9" class="st0">
	<circle class="st11" cx="140.2" cy="245.4" r="113.5"/>
	<path class="st12" d="M192.8,298L192.8,298c-2.2,2.2-5.8,2.2-8,0l-44.2-44.2L96.4,298c-2.2,2.2-5.8,2.2-8,0l0,0
		c-2.2-2.2-2.2-5.8,0-8l44.2-44.2l-44.3-44.3c-2.2-2.2-2.2-5.8,0-8l0,0c2.2-2.2,5.8-2.2,8,0l44.2,44.2l44.2-44.2
		c2.2-2.2,5.8-2.2,8,0l0,0c2.2,2.2,2.2,5.8,0,8l-44.2,44.2l44.2,44.2C195,292.2,195,295.8,192.8,298z"/>
</g>
<g id="Layer_10" class="st0">
	<path class="st13" d="M141.1,207l-37.6,30.2l13.1,46.5H164 M141.1,207l-37.6,30.2l13.1,46.5H164l14.7-46.5L141.1,207z M140.8,130.2
		c-63.6-0.1-115.1,51.5-115.1,115.1c0.1,63.2,51.7,114.8,114.9,114.9c63.6,0.1,115.1-51.5,115.1-115.1
		C255.6,181.9,204,130.2,140.8,130.2z M186.8,304.1l-16,42.5c-9.6,2.8-19.6,4.3-30.1,4.3s-20.5-1.5-30.1-4.3l-15.2-40.9l-41.2,0.4
		c-11.3-16-18.3-35.4-19.2-56.3l36.7-28.1L56.6,181c12.1-15.8,28.3-27.9,47.1-35l37.4,26.7l36.6-26.7c18.9,7.1,35,19.2,47.1,35
		l-16.7,42.3l38.4,26.6c-0.9,20.9-7.9,40.3-19.2,56.3L186.8,304.1z M141.1,207l-37.6,30.2l13.1,46.5H164 M103.6,237.2l13.1,46.5
		h47.4 M103.6,237.2l13.1,46.5h47.4"/>
</g>
<g id="Layer_11" class="st0">
	<circle class="st6" cx="142.2" cy="245.7" r="110.5"/>
	<circle class="st7" cx="142.9" cy="193" r="22.2"/>
	<circle class="st7" cx="142.9" cy="299.1" r="22.2"/>
	<circle class="st7" cx="196" cy="246" r="22.2"/>
	<circle class="st7" cx="143.6" cy="246.4" r="9.7"/>
	<circle class="st7" cx="89.9" cy="246" r="22.2"/>
</g>
<g id="Layer_12" class="st0">
	<circle class="st7" cx="143.9" cy="256.5" r="32"/>
	<path class="st14" d="M75.7,227.4c11.8-27.2,39.3-45.8,70.7-44.7c29.3,0.9,54,18.6,65.4,43.6"/>
	<path class="st14" d="M33.4,209.7c19.2-43.6,63.5-73.4,114.1-71.8c47,1.5,86.9,29.8,105.5,69.7"/>
	<path class="st14" d="M242.4,356.9H45.5c-6.2,0-11.3-5.1-11.3-11.3V274c0-6.2,5.1-11.3,11.3-11.3h196.9c6.2,0,11.3,5.1,11.3,11.3
		v71.6C253.7,351.8,248.6,356.9,242.4,356.9z"/>
</g>
<g id="Layer_13" class="st0">
	<g class="st15">
		<path class="st16" d="M226.1,137.5l-0.3-0.3l-0.3-0.3c-5.6-5.3-24.9-6.9-30.4-6.5c-7.9,0.6-12.6,6.6-16.1,11
			c-0.7,0.9-1.8,2.3-2.5,3h-63.2c-0.7-0.7-1.7-2-2.5-3c-3.4-4.4-8.2-10.4-16.1-11c-5.4-0.4-26.2,1.3-31.8,6.5l-0.3,0.3l-0.3,0.3
			c-58.2,61.8-38.4,132.9,1.4,144.1h0.2l20.3,6.1c1.2,0.2,2.4,0.3,3.5,0.3c7.5,0,13.8-3.8,17.9-10.9c3.4-5.8,4.8-12.8,5.8-17.8
			c0-0.2,0.1-0.5,0.1-0.7h66.6c0.1,0.3,0.1,0.5,0.1,0.7c1,5.1,2.4,12,5.8,17.8c4.1,7.1,10.4,10.9,17.9,10.9c1.1,0,2.3-0.1,3.5-0.3
			l21.8-6.1h0.2c8.8-1.7,15.1-6.8,20.4-13.1C269.5,243.3,268.1,187.2,226.1,137.5z M235.7,260.5c-8.7,9.2-32.3,12.8-32.3,12.8
			c-5.3,0.8-7.9-3.4-10.7-16.9c-0.4-2.1-0.8-4-1.3-5.5c-2-6.3-6.4-7-8.3-7h-76.4c-1.8,0-6.3,0.7-8.3,7c-0.5,1.5-0.9,3.4-1.3,5.5
			c-2.7,13.5-5.3,17.7-10.7,16.9l-20-6.1c-5-1-19.1-14.4-24.2-29.8c0,0-13.2-42.5,31-90.1c2.5-2.3,19.7-2.3,20.4-2.3
			c1.4,0.1,4.1,3.4,5.7,5.4c3,3.8,6.8,8.5,12.7,8.5h65.7c6,0,9.7-4.7,12.7-8.5c1.6-2,4.2-5.3,5.7-5.4c0.8-0.1,16.5,0,19,2.3
			c39.7,47,31.6,87.2,31.6,87.2C244.6,245.5,240.4,255.6,235.7,260.5z"/>
	</g>
	<path class="st7" d="M114,204.2c0,2.3-1,4.4-2.5,6c-1.5,1.5-3.6,2.5-6,2.5h-6.7v5.2c0,4.6-3.8,8.4-8.4,8.4s-8.4-3.8-8.4-8.4v-5.2
		h-5.8c-4.6,0-8.4-3.8-8.4-8.4c0-4.6,3.8-8.4,8.4-8.4H82v-7.3c0-4.6,3.8-8.4,8.4-8.4c2.3,0,4.4,0.9,6,2.5c1.5,1.5,2.5,3.6,2.5,6v7.3
		h6.7C110.2,195.8,114,199.6,114,204.2z"/>
	
		<ellipse transform="matrix(0.7071 -0.7071 0.7071 0.7071 -72.302 194.3298)" class="st7" cx="198.4" cy="184.4" rx="8.4" ry="8.4"/>
	
		<ellipse transform="matrix(0.7071 -0.7071 0.7071 0.7071 -80.3304 213.9358)" class="st7" cx="218.1" cy="203.9" rx="8.4" ry="8.4"/>
	
		<ellipse transform="matrix(0.7071 -0.7071 0.7071 0.7071 -92.564 185.4685)" class="st7" cx="177.6" cy="204.5" rx="8.4" ry="8.4"/>
	
		<ellipse transform="matrix(0.7071 -0.7071 0.7071 0.7071 -101.177 206.1912)" class="st7" cx="198.3" cy="225.2" rx="8.4" ry="8.4"/>
</g>
<g id="Layer_14" class="st0">
	<g class="st15">
		<path class="st16" d="M76.3,129.9v38.2H25.9v87.6c0,17.6,14.2,32,31.8,32.2c0.6,0,1.1,0,1.7-0.1l-0.1,0.1h144.4
			c17.8,0,32.2-14.4,32.2-32.2V129.9H76.3z M58.2,274.6h-0.8c0.1,0,0.2,0,0.3,0c-10.2-0.3-18.5-8.7-18.5-18.9v-74.4h37.1v74.4
			c0,10.3-8.2,18.7-18.5,18.9C58,274.6,58.1,274.6,58.2,274.6z M222.7,255.7c0,10.4-8.5,18.9-18.9,18.9H89.6V143.2h133.1V255.7z"/>
	</g>
	<g class="st15">
		<path class="st17" d="M59.9,287.9c-0.1,0-0.3,0-0.4,0h0.8C60.2,287.9,60.1,287.9,59.9,287.9z"/>
	</g>
	<path class="st18" d="M144.8,199.7h-26.7c-2.8,0-5-2.3-5-5v-26.2c0-2.8,2.3-5,5-5h26.7c2.8,0,5,2.3,5,5v26.3
		C149.8,197.5,147.6,199.7,144.8,199.7z"/>
	<path class="st7" d="M201.2,177.1h-23.9c-1.9,0-3.4-1.5-3.4-3.4v-5.3c0-1.9,1.5-3.4,3.4-3.4h23.9c1.9,0,3.4,1.5,3.4,3.4v5.3
		C204.6,175.5,203.1,177.1,201.2,177.1z"/>
	<path class="st7" d="M201.2,202h-23.9c-1.9,0-3.4-1.5-3.4-3.4v-5.3c0-1.9,1.5-3.4,3.4-3.4h23.9c1.9,0,3.4,1.5,3.4,3.4v5.3
		C204.6,200.5,203.1,202,201.2,202z"/>
	<path class="st7" d="M198.5,234.9h-84.3c-3.4,0-6.1-2.7-6.1-6.1l0,0c0-3.4,2.7-6.1,6.1-6.1h84.3c3.4,0,6.1,2.7,6.1,6.1l0,0
		C204.6,232.1,201.9,234.9,198.5,234.9z"/>
	<path class="st7" d="M198.5,260.9h-84.3c-3.4,0-6.1-2.7-6.1-6.1l0,0c0-3.4,2.7-6.1,6.1-6.1h84.3c3.4,0,6.1,2.7,6.1,6.1l0,0
		C204.6,258.1,201.9,260.9,198.5,260.9z"/>
</g>
<g id="Layer_15" class="st0">
	<path class="st19" d="M195.8,221.9c0,33.2-30,60-66.9,60S62,255,62,221.9c0-21.7,12.9-40.7,32.1-51.3c10.2-5.6,22.1-8.8,34.8-8.8
		c13.3,0,25.7,3.5,36.1,9.5C183.5,182,195.8,200.6,195.8,221.9z"/>
	<path class="st20" d="M138.4,220.7c0-7.3,5.9,0.2,13.2,0.2s13.2-7.5,13.2-0.2s-5.9,13.2-13.2,13.2
		C144.3,233.9,138.4,228,138.4,220.7z"/>
	<path class="st20" d="M92.8,220.7c0-7.3,5.7,0.2,13,0.2s13.5-7.5,13.5-0.2s-5.9,13.2-13.2,13.2C98.8,233.9,92.8,228,92.8,220.7z"/>
	<path class="st21" d="M121.5,157.1c13.3-0.4,29.1,2.2,40.4,7.4c-0.5,1-5.4,8.6-6.1,9.5c-0.6,0.7-1.3,1.6-2.1,2.5
		c0.9,1,1.6,1.9,2.2,2.7c6.4,8.3,9.9,25.1,1.6,31.6c-8.3,6.4-25.1,0-31.6-8.3c-1-1.3-2.2-2.9-3.6-4.9c0.1-0.2,0.2-0.4,0.4-0.6
		c0.8,0,1.5-0.1,2.3-0.3c-0.8,0.2-1.5,0.2-2.3,0.3c-0.2,0-0.4,0-0.6,0c-0.1,0-0.1,0-0.2,0c-0.9,0-1.7-0.1-2.6-0.3
		c0.9,0.2,1.7,0.3,2.6,0.3c0.1,0.2,0.2,0.4,0.4,0.5c-1.3,2-2.6,3.6-3.6,4.9c-6.2,8.4-28,19.7-36.3,13.3c-8.3-6.4,0.2-28.2,6.6-36.5
		c0.6-0.7,1.3-1.6,2.1-2.5c-0.9-1-1.6-1.9-2.2-2.7l-3-3.9C85.9,170.2,105.4,157.6,121.5,157.1z"/>
	<path class="st22" d="M157.1,204.1c-6.5,5.1-19.7,0-24.8-6.5c-0.8-1-1.7-2.3-2.8-3.9c0.1-0.1,0.2-0.3,0.3-0.4
		c0.6,0,1.2-0.1,1.8-0.2c-0.6,0.1-1.2,0.2-1.8,0.2c-0.1,0-0.3,0-0.4,0c-0.1,0-0.1,0-0.2,0c-0.7,0-1.4-0.1-2.1-0.2
		c0.7,0.2,1.4,0.2,2.1,0.2c0.1,0.1,0.2,0.3,0.3,0.4c-1,1.5-2,2.9-2.8,3.9c-5,6.5-22.2,15.4-28.6,10.4c-6.5-5,0.1-22.2,5.2-28.6
		c0.4-0.6,1-1.2,1.6-1.9c-0.7-0.8-1.3-1.5-1.7-2.1c-5.1-6.5-5.5-17.4,1-22.5c6.5-5,17.4-2.3,22.5,4.2c0.8,1,1.7,2.3,2.8,3.9
		c-0.1,0.1-0.2,0.3-0.3,0.4c-0.6,0-1.2,0.1-1.8,0.2c0.6-0.1,1.2-0.2,1.8-0.2c0.1,0,0.3,0,0.4,0c0.1,0,0.1,0,0.2,0
		c0.7,0,1.3,0.1,2,0.2c-0.7-0.2-1.3-0.2-2-0.2c-0.1-0.1-0.2-0.3-0.3-0.4c1-1.5,2-2.9,2.8-3.9c5.1-6.5,14.4-7.6,20.9-2.6
		c6.5,5.1,7.6,14.4,2.6,20.9c-0.4,0.6-1,1.2-1.6,1.9c0.7,0.8,1.3,1.5,1.8,2.1C160.8,185.8,163.6,199.1,157.1,204.1z"/>
	<path class="st23" d="M145.8,194.6c-3.9,3.1-12,0-15.1-3.9c-0.5-0.6-1.1-1.4-1.7-2.3c0.1-0.1,0.1-0.2,0.2-0.3
		c0.4,0,0.7-0.1,1.1-0.1c-0.4,0.1-0.7,0.1-1.1,0.1c-0.1,0-0.2,0-0.3,0h-0.1c-0.4,0-0.8-0.1-1.3-0.1c0.4,0.1,0.8,0.1,1.3,0.1
		c0.1,0.1,0.1,0.2,0.2,0.3c-0.6,0.9-1.2,1.7-1.7,2.3c-3.1,4-13.5,9.4-17.5,6.3c-3.9-3.1,0.1-13.5,3.2-17.5c0.3-0.4,0.6-0.7,1-1.2
		c-0.4-0.5-0.8-0.9-1.1-1.3c-3.1-4-3.3-10.6,0.6-13.7c4-3.1,10.6-1.4,13.7,2.6c0.5,0.6,1.1,1.4,1.7,2.3c-0.1,0.1-0.1,0.2-0.2,0.3
		c-0.4,0-0.7,0.1-1.1,0.1c0.4-0.1,0.7-0.1,1.1-0.1c0.1,0,0.2,0,0.3,0h0.1c0.4,0,0.8,0.1,1.2,0.1c-0.4-0.1-0.8-0.1-1.2-0.1
		c-0.1-0.1-0.1-0.2-0.2-0.3c0.6-0.9,1.2-1.7,1.7-2.3c3.1-3.9,8.8-4.7,12.7-1.6c4,3.1,4.7,8.8,1.6,12.7c-0.3,0.4-0.6,0.7-1,1.2
		c0.4,0.5,0.8,0.9,1.1,1.3C148.1,183.5,149.7,191.5,145.8,194.6z"/>
	<path class="st24" d="M154.6,153.4c-0.7,0.5-1.5,1-2.1,1.5c-16.6,12.5-16,27.7-26.4,23.3c-0.2-0.1-0.3-0.1-0.5-0.2
		c-12.5-5.8-3.5-29.9,0.1-37.9c3.7-8,13.1-11.4,21.1-7.7C154.8,136,161.8,148.5,154.6,153.4z"/>
	<path class="st25" d="M152.4,155c-16.5,12.4-15.9,27.6-26.3,23.2c1.4-6.3,3.8-12.3,5.3-15.5C135.1,154.8,144.5,151.3,152.4,155z"/>
	
		<ellipse transform="matrix(0.9721 -0.2345 0.2345 0.9721 -43.4937 48.7114)" class="st26" cx="183.1" cy="207.2" rx="12.3" ry="16.7"/>
	<path class="st27" d="M160.8,260.6c-11.1,1.7-21,0.3-27.6-3.6c-2.5-1.5-3.8-3.7-4.2-6c-0.4,2.3-1.7,4.6-4.2,6
		c-6.6,3.9-16.5,5.3-27.6,3.6C77.6,257.5,81,240.9,81,240.9s-1.6,18.2,18.6,6.2c8.2-4.9,15.3-6.3,20.8-6.3c4.9,0,8,3.5,8.6,7.4
		c0.6-3.9,3.8-7.4,8.6-7.4c5.5,0,12.6,1.4,20.8,6.3c20.1,12,18.6-6.2,18.6-6.2S180.5,257.5,160.8,260.6z"/>
</g>
<g id="Layer_16" class="st0">
	<path class="st28" d="M195.9,221.8c0,33.2-30,60.2-67.1,60.2s-67.1-26.9-67.1-60.2c0-21.8,12.9-40.8,32.2-51.4
		c10.2-5.6,22.1-8.8,34.9-8.8c13.3,0,25.8,3.5,36.2,9.5C183.6,181.8,195.9,200.5,195.9,221.8z"/>
	<path class="st20" d="M119.2,235.1c0,7.3-5.9-0.2-13.3-0.2c-7.4,0-13.2,7.5-13.2,0.2s5.9-13.3,13.3-13.3
		C113.4,221.8,119.2,227.8,119.2,235.1z"/>
	<path class="st20" d="M165,235.1c0,7.3-5.7-0.2-13.1-0.2c-7.4,0-13.5,7.6-13.5,0.2c0-7.3,5.9-13.3,13.3-13.3
		C159.1,221.8,165,227.8,165,235.1z"/>
	<path class="st21" d="M121.4,156.9c13.3-0.4,29.2,2.2,40.5,7.4c-0.5,1-5.4,8.7-6.1,9.5c-0.6,0.7-1.3,1.6-2.1,2.5
		c0.9,1,1.6,1.9,2.2,2.7c6.4,8.3,9.9,25.2,1.6,31.6c-8.3,6.5-25.2,0-31.6-8.3c-1-1.3-2.2-3-3.6-4.9c0.1-0.2,0.2-0.4,0.4-0.6
		c0.8,0,1.6-0.1,2.3-0.3c-0.8,0.2-1.5,0.2-2.3,0.3c-0.2,0-0.4,0-0.6,0c-0.1,0-0.1,0-0.2,0c-0.9,0-1.7-0.1-2.6-0.3
		c0.9,0.2,1.7,0.3,2.6,0.3c0.1,0.2,0.2,0.4,0.4,0.5c-1.3,2-2.6,3.6-3.6,4.9c-6.4,8.3-28.3,19.7-36.6,13.2
		c-8.3-6.4,0.2-28.3,6.6-36.6c0.6-0.7,1.3-1.6,2.1-2.5c-0.9-1-1.6-1.9-2.2-2.7l-3-3.9C85.7,170,105.3,157.4,121.4,156.9z"/>
	<path class="st22" d="M157.1,204c-6.5,5.1-19.8,0-24.8-6.5c-0.8-1-1.8-2.3-2.8-3.9c0.1-0.1,0.2-0.3,0.3-0.4c0.6,0,1.2-0.1,1.8-0.2
		c-0.6,0.1-1.2,0.2-1.8,0.2c-0.1,0-0.3,0-0.4,0c-0.1,0-0.1,0-0.2,0c-0.7,0-1.4-0.1-2.1-0.2c0.7,0.2,1.4,0.2,2.1,0.2
		c0.1,0.1,0.2,0.3,0.3,0.4c-1.1,1.5-2,2.9-2.8,3.9c-5.1,6.5-22.3,15.5-28.8,10.4s0.1-22.2,5.2-28.7c0.4-0.6,1-1.2,1.6-1.9
		c-0.7-0.8-1.3-1.5-1.8-2.1c-5.1-6.5-5.5-17.5,1-22.6c6.5-5.1,17.4-2.3,22.5,4.2c0.8,1,1.7,2.3,2.8,3.9c-0.1,0.1-0.2,0.3-0.3,0.4
		c-0.6,0-1.2,0.1-1.8,0.2c0.6-0.1,1.2-0.2,1.8-0.2c0.1,0,0.3,0,0.4,0c0.1,0,0.1,0,0.2,0c0.7,0,1.4,0.1,2.1,0.2
		c-0.7-0.2-1.4-0.2-2.1-0.2c-0.1-0.1-0.2-0.3-0.3-0.4c1.1-1.5,2-2.9,2.8-3.9c5.1-6.5,14.4-7.7,20.9-2.6c6.5,5.1,7.7,14.4,2.6,20.9
		c-0.4,0.6-1,1.2-1.6,1.9c0.7,0.8,1.3,1.5,1.8,2.1C160.8,185.7,163.6,199,157.1,204z"/>
	<path class="st23" d="M145.7,194.5c-4,3.1-12.1,0-15.1-4c-0.5-0.6-1.1-1.4-1.7-2.4c0.1-0.1,0.1-0.2,0.2-0.3c0.4,0,0.7-0.1,1.1-0.1
		c-0.4,0.2-0.8,0.2-1.1,0.2c-0.1,0-0.2,0-0.3,0h-0.1c-0.4,0-0.8-0.1-1.3-0.1c0.4,0.1,0.8,0.1,1.3,0.1c0.1,0.1,0.1,0.2,0.2,0.3
		c-0.6,0.9-1.2,1.7-1.7,2.4c-3.1,4-13.5,9.4-17.5,6.3s0.1-13.5,3.2-17.5c0.3-0.4,0.6-0.7,1-1.2c-0.4-0.5-0.8-0.9-1.1-1.3
		c-3.1-4-3.3-10.7,0.6-13.7c4-3.1,10.6-1.4,13.7,2.6c0.5,0.6,1.1,1.4,1.7,2.4c-0.1,0.1-0.1,0.2-0.2,0.3c-0.4,0-0.7,0.1-1.1,0.1
		c0.4-0.1,0.7-0.1,1.1-0.1c0.1,0,0.2,0,0.3,0h0.1c0.4,0,0.8,0.1,1.3,0.1c-0.4-0.1-0.8-0.1-1.3-0.1c-0.1-0.1-0.1-0.2-0.2-0.3
		c0.6-0.9,1.2-1.7,1.7-2.4c3.1-4,8.8-4.7,12.8-1.6c4,3.1,4.7,8.8,1.6,12.8c-0.3,0.4-0.6,0.7-1,1.2c0.4,0.5,0.8,0.9,1.1,1.3
		C148,183.3,149.7,191.4,145.7,194.5z"/>
	<path class="st24" d="M154.4,153.4c-0.7,0.5-1.5,1-2.1,1.5c-16.5,12.4-15.9,27.6-26.3,23.2c-0.2-0.1-0.3-0.2-0.5-0.2
		c-12.4-5.7-3.5-29.9,0.1-37.8c3.7-7.9,13.1-11.4,21-7.7C154.6,136,161.6,148.5,154.4,153.4z"/>
	<path class="st25" d="M152.2,154.9c-16.4,12.4-15.8,27.6-26.2,23.2c1.4-6.3,3.8-12.2,5.3-15.5C134.9,154.7,144.3,151.2,152.2,154.9
		z"/>
	
		<ellipse transform="matrix(0.9721 -0.2345 0.2345 0.9721 -43.4882 48.7378)" class="st26" cx="183.2" cy="207.2" rx="12.3" ry="16.8"/>
</g>
<g id="Layer_17" class="st0">
	<path class="st29" d="M184.7,273.8l-11.3-7.5c-2.3-1.6-5.5-1.3-7.5,0.7l-19.4,11.2c-0.7,0.4-1.4,0.9-2.1,1.4
		c-2.1,1.5-4.8,1.4-6.9,0c-0.7-0.5-1.4-1-2.1-1.4L116.5,267c-2-2-5.1-2.3-7.5-0.7L97.2,274c-4,2.6-9.3-0.3-9.3-5v-84.5
		c0-26,21.3-47.3,47.3-47.3h11.5c26,0,47.3,21.3,47.3,47.3v84.4C194,273.6,188.7,276.5,184.7,273.8z"/>
	<path class="st30" d="M184.9,274.1l-11.3-7.5c-2.3-1.6-5.5-1.3-7.5,0.7l-19.4,11.2c-0.7,0.4-1.4,0.9-2.1,1.4
		c-2.1,1.5-4.8,1.4-6.9,0c-0.7-0.5-1.4-1-2.1-1.4l-18.9-11.2c-2-2-5.1-2.3-7.5-0.7l-11.8,7.7c-4,2.6-9.3-0.3-9.3-5v-8.8
		c0-26,52.2-47.3,78.2-47.3h11.4c26,0,16.5,21.3,16.5,47.3v8.7C194.3,273.9,188.9,276.8,184.9,274.1z"/>
	<g class="st15">
		<path class="st31" d="M141,286.9c-2.5,0-5-0.8-7.1-2.3l-0.3-0.2c-0.5-0.4-1-0.7-1.3-0.9L112.7,272l-0.4-0.4l-11.7,7.6
			c-3.8,2.5-8.5,2.7-12.5,0.5c-3.9-2.1-6.4-6.3-6.4-10.7v-84.5c0-29.6,24-53.6,53.6-53.6h11.4c29.5,0,53.6,24,53.6,53.6v84.4
			c0,4.5-2.5,8.6-6.5,10.8c-4,2.1-8.8,1.9-12.5-0.6l0,0l-11.2-7.4l-0.4,0.4l-20,11.6c-0.4,0.2-0.9,0.6-1.4,0.9l-0.2,0.1
			C145.9,286.2,143.5,286.9,141,286.9z M120.2,262l18.4,10.8c0.9,0.5,1.6,1,2.3,1.5l0.1,0.1h0.1c0.7-0.5,1.4-1,2.3-1.5l18.8-11
			c4.1-3.4,10.1-3.8,14.6-0.8l11,7.3v-84c0-22.7-18.4-41.1-41.1-41.1h-11.4c-22.7,0-41.1,18.4-41.1,41.1v84.1l11.5-7.5
			C110.1,258.1,116.1,258.5,120.2,262z"/>
	</g>
	<circle class="st32" cx="110.4" cy="196.4" r="12.7"/>
	<circle class="st32" cx="150.6" cy="196.4" r="12.7"/>
</g>
<g id="Layer_18" class="st0">
	<path class="st33" d="M184.9,273.8l-11.3-7.5c-2.3-1.6-5.5-1.3-7.5,0.7l-19.4,11.2c-0.7,0.4-1.4,0.9-2.1,1.4
		c-2.1,1.5-4.8,1.4-6.9,0c-0.7-0.5-1.4-1-2.1-1.4L116.7,267c-2-2-5.1-2.3-7.5-0.7L97.4,274c-4,2.6-9.3-0.3-9.3-5v-84.5
		c0-26,21.3-47.3,47.3-47.3h11.4c26,0,47.3,21.3,47.3,47.3v84.4C194.2,273.6,188.9,276.5,184.9,273.8z"/>
	<path class="st34" d="M185.2,274.1l-11.3-7.5c-2.3-1.6-5.5-1.3-7.5,0.7L147,278.5c-0.7,0.4-1.4,0.9-2.1,1.4c-2.1,1.5-4.8,1.4-6.9,0
		c-0.7-0.5-1.4-1-2.1-1.4L117,267.3c-2-2-5.1-2.3-7.5-0.7l-11.8,7.6c-4,2.6-9.3-0.3-9.3-5v-8.8c0-26,52.2-47.3,78.2-47.3H178
		c26,0,16.5,21.3,16.5,47.3v8.7C194.5,273.9,189.2,276.8,185.2,274.1z"/>
	<g class="st15">
		<path class="st35" d="M141.2,286.9c-2.5,0-5-0.8-7.1-2.3l-0.3-0.2c-0.5-0.4-1-0.7-1.3-0.9L112.9,272l-0.4-0.4l-11.7,7.6
			c-3.8,2.5-8.5,2.7-12.5,0.5c-3.9-2.1-6.4-6.3-6.4-10.7v-84.5c0-29.6,24.1-53.6,53.6-53.6h11.4c29.5,0,53.6,24,53.6,53.6v84.4
			c0,4.5-2.5,8.6-6.5,10.8c-4,2.1-8.8,1.9-12.5-0.6l0,0l-11.2-7.4l-0.4,0.4l-20,11.6c-0.4,0.2-0.9,0.6-1.4,0.9l-0.2,0.1
			C146.2,286.2,143.7,286.9,141.2,286.9z M120.5,262l18.4,10.8c0.9,0.5,1.6,1,2.3,1.5l0.1,0.1h0.1c0.7-0.5,1.4-1,2.3-1.5l18.8-11
			c4.1-3.4,10.1-3.8,14.6-0.8l11,7.3v-84c0-22.7-18.4-41.1-41.1-41.1h-11.5c-22.7,0-41.1,18.4-41.1,41.1v84.1l11.5-7.5
			C110.4,258.1,116.4,258.5,120.5,262z"/>
	</g>
	<circle class="st36" cx="110.7" cy="196.4" r="12.7"/>
	<circle class="st36" cx="150.8" cy="196.4" r="12.7"/>
</g>
<path class="st37" d="M26.4,255.8L41.5,233c3.1-4.7,2.6-11-1.4-15l-22.6-38.9c-0.8-1.4-1.8-2.8-2.8-4.1c-2.9-4.1-2.9-9.7,0-13.9
	c1-1.4,2-2.7,2.8-4.2l22.3-38.1c4-4,4.6-10.3,1.5-15L25.8,80.1c-5.2-8,0.5-18.6,10-18.6l169.7-0.3c52.3-0.1,95.1,42.6,95.2,94.9
	l0,22.9c0.1,52.3-42.6,95.1-94.9,95.2l-169.5,0.3C26.8,274.5,21,263.8,26.4,255.8z"/>
<path class="st38" d="M25.9,256.3L41,233.5c3.1-4.7,2.6-11-1.4-15L17,179.6c-0.8-1.4-1.8-2.8-2.8-4.1c-2.9-4.1-2.9-9.7,0-13.9
	c1-1.4,2-2.7,2.8-4.2l22.3-38.1c4-4,4.6-10.3,1.5-15L25.3,80.6c-5.2-8,0.5-18.6,10-18.6l17.7,0c52.3-0.1,95.2,104.6,95.3,156.9
	l0,22.9c0.1,52.3-42.7,33.1-95,33.2l-17.5,0C26.3,275,20.5,264.3,25.9,256.3z"/>
<path class="st39" d="M41.8,286.9l121.2-0.2h0l42.8-0.1c7.9,0,15.6-0.9,23-2.5c21.3-4.7,40.2-15.7,54.7-30.9
	c1.2-1.3,2.3-2.5,3.5-3.8c16.4-18.9,26.3-43.6,26.2-70.5l0-22.9c0-1.6,0-3.1-0.1-4.6c0-0.1,0-0.2,0-0.2c0-0.8-0.1-1.5-0.1-2.3
	c0,0,0,0,0,0c-0.1-0.8-0.1-1.6-0.2-2.4c-0.1-0.8-0.1-1.5-0.2-2.3c0-0.1,0-0.2,0-0.3c-0.1-0.6-0.2-1.3-0.2-1.9c0-0.2-0.1-0.5-0.1-0.7
	c-0.1-0.6-0.2-1.1-0.3-1.7c-0.4-2.3-0.8-4.6-1.3-6.9c-0.2-0.7-0.3-1.5-0.5-2.2c0-0.1,0-0.1,0-0.1c-0.2-0.6-0.3-1.3-0.5-1.9
	c-0.1-0.2-0.1-0.4-0.2-0.6c-0.2-0.6-0.3-1.2-0.5-1.8c-0.3-1-0.6-2-0.9-3c-0.2-0.5-0.3-1-0.5-1.4c-0.5-1.4-1-2.9-1.6-4.3
	c-0.3-0.7-0.6-1.4-0.8-2.1c0,0,0,0,0,0c-0.3-0.7-0.6-1.4-0.9-2.1c-0.3-0.6-0.6-1.3-0.9-1.9c-0.1-0.2-0.2-0.3-0.2-0.5
	c-0.2-0.5-0.5-1-0.7-1.5c-0.1-0.2-0.2-0.5-0.4-0.7c-0.3-0.5-0.5-1-0.8-1.5c-0.3-0.7-0.7-1.3-1.1-2c-0.7-1.3-1.5-2.6-2.3-3.9
	c-0.4-0.6-0.8-1.3-1.2-1.9c-0.4-0.6-0.8-1.3-1.2-1.9c-0.4-0.6-0.8-1.3-1.3-1.9c-0.6-0.8-1.1-1.6-1.7-2.4c-0.6-0.9-1.3-1.7-2-2.6
	c-0.6-0.7-1.2-1.5-1.7-2.2c-0.3-0.4-0.6-0.8-0.9-1.1c-0.7-0.9-1.4-1.7-2.2-2.5c-0.4-0.4-0.8-0.8-1.1-1.3c-0.1-0.1-0.2-0.2-0.3-0.4
	c-0.4-0.5-0.9-0.9-1.3-1.4c-2.1-2.2-4.3-4.2-6.5-6.2c-0.5-0.5-1.1-1-1.7-1.4c0,0,0,0,0,0c-0.5-0.4-1.1-0.9-1.6-1.3
	c-0.1-0.1-0.2-0.1-0.2-0.2c-0.5-0.4-1-0.8-1.4-1.1c-0.2-0.2-0.4-0.3-0.6-0.5c-0.4-0.3-0.8-0.6-1.2-0.9c-0.2-0.1-0.4-0.3-0.6-0.4
	c-0.5-0.4-0.9-0.7-1.4-1c-1.2-0.9-2.5-1.7-3.7-2.5c-0.6-0.4-1.3-0.8-1.9-1.2c-0.5-0.3-1-0.6-1.4-0.9c-0.3-0.2-0.5-0.3-0.8-0.5
	c-0.5-0.3-1-0.6-1.5-0.9c-0.1-0.1-0.1-0.1-0.2-0.1c-0.6-0.4-1.3-0.7-1.9-1c-2.7-1.4-5.4-2.7-8.2-3.9c-0.5-0.2-0.9-0.4-1.4-0.6
	c-1-0.4-2.1-0.9-3.1-1.2c-0.6-0.2-1.2-0.5-1.8-0.7c-0.7-0.3-1.4-0.5-2.2-0.7c-0.7-0.2-1.5-0.5-2.2-0.7c-2.9-0.9-5.9-1.7-8.9-2.3v0
	l-0.1-32.6c0-6.6-5.4-12-12-12l-3,0c-6.6,0-12,5.4-12,12l0.1,30.2L35.8,48.9c-1.7,0-3.4,0.2-5,0.5c-0.5,0.1-1.1,0.3-1.6,0.4
	c-0.5,0.1-1.1,0.3-1.6,0.5c-5.7,2-10.5,6-13.4,11.5c-0.6,1.1-1.1,2.3-1.6,3.5c-0.2,0.5-0.3,1-0.5,1.4c-0.1,0.5-0.3,1-0.4,1.5
	c-1.4,6.3-0.2,13.1,3.5,18.7l15.4,23.4l-0.8,0.8L6.8,150.6c-0.1,0.2-0.2,0.4-0.4,0.6c-0.3,0.4-0.6,0.9-0.9,1.4
	c-0.2,0.2-0.3,0.5-0.5,0.7l-0.4,0.6c-2.4,3.4-3.9,7.4-4.3,11.4c-0.1,1-0.2,1.9-0.2,2.8c0,0.6,0,1.2,0.1,1.9c0,0.6,0.1,1.2,0.2,1.8
	c0,0.3,0.1,0.6,0.2,0.9c0.4,1.8,0.9,3.6,1.7,5.3c0.6,1.4,1.4,2.8,2.4,4.1l0.3,0.4c0.2,0.3,0.4,0.5,0.5,0.8c0.2,0.3,0.3,0.5,0.5,0.7
	c0.3,0.5,0.6,0.9,0.8,1.3v0l23.4,40.2l0.8,0.8l-14.9,22.5c-0.2,0.3-0.3,0.5-0.5,0.8c-0.6,1-1.2,2.1-1.7,3.2
	c-0.2,0.5-0.4,1.1-0.6,1.7c-0.1,0.2-0.1,0.4-0.2,0.6c-0.1,0.2-0.1,0.3-0.1,0.5c-0.4,1.3-0.7,2.7-0.8,4c0,0.1,0,0.1,0,0.2
	c-0.4,4.3,0.2,8.7,2.1,12.8c0.2,0.5,0.4,0.9,0.7,1.4c0.9,1.7,2.1,3.3,3.3,4.8c0.4,0.4,0.8,0.8,1.1,1.2c1.2,1.1,2.5,2.2,3.8,3.1
	c0.4,0.2,0.8,0.5,1.1,0.7c0.2,0.1,0.3,0.2,0.5,0.3c0.4,0.2,0.8,0.4,1.2,0.6c0.7,0.4,1.5,0.7,2.3,0.9c2.6,0.9,5.4,1.4,8.2,1.4
	L41.8,286.9z M198.5,73.7c-4.7,24.5-12.4,86.6,1.3,188l-12.4,0l-27.4,0l-14.8,0l-48.4,0.1l-32.3,0.1l-27.3,0l14.6-22
	c5.4-8.1,5.3-18.6,0.3-26.7c-0.6-0.9-1.2-1.8-1.9-2.6l-22-37.8c-0.3-0.4-0.5-0.9-0.8-1.3c-0.2-0.3-0.4-0.6-0.6-0.9
	c-0.2-0.3-0.4-0.6-0.6-0.9c-0.3-0.4-0.5-0.7-0.8-1.1c-0.1-0.2-0.3-0.3-0.4-0.5l-0.1-0.1l0.2-0.3c0.9-1.3,2-2.8,3-4.5l21.7-37
	c1.2-1.4,2.2-2.9,3-4.5c0.5-1,0.9-2,1.3-3c0.2-0.7,0.4-1.4,0.6-2.1c1.7-6.6,0.7-13.8-3.2-19.7l-15.1-23l47.2-0.1L198.5,73.7z"/>
<path class="st40" d="M158.3,142.9L158.3,142.9c-5.5,0-10-4.5-10-10V92.9c0-5.5,4.5-10,10-10h0c5.5,0,10,4.5,10,10v40.1
	C168.3,138.4,163.8,142.9,158.3,142.9z"/>
<polyline class="st41" points="295.4,28.4 324.4,14.3 309.4,57 338.3,42.9 "/>
<polyline class="st42" points="370.9,10.1 416.6,6.5 374.4,55.2 420.2,51.6 "/>
<polyline class="st43" points="452.7,20.8 527.6,8.5 464.8,94.6 539.7,82.4 "/>
</svg>
