<?xml version="1.0" encoding="utf-8"?>
<!-- Generator: Adobe Illustrator 21.0.2, SVG Export Plug-In . SVG Version: 6.00 Build 0)  -->
<svg version="1.1" id="Layer_1" xmlns="http://www.w3.org/2000/svg" xmlns:xlink="http://www.w3.org/1999/xlink" x="0px" y="0px"
	 viewBox="0 0 277.8 238.3" style="enable-background:new 0 0 277.8 238.3;" xml:space="preserve">
<style type="text/css">
	.st0{display:none;}
	.st1{display:inline;fill:#EFEFEF;}
	.st2{display:inline;fill:#EF2648;}
	.st3{display:inline;fill:#154D84;}
	.st4{display:inline;fill:#555654;}
	.st5{display:inline;fill:#EF2648;stroke:#EF2648;stroke-width:3.7889;stroke-miterlimit:10;}
	.st6{display:inline;fill:none;stroke:#525D67;stroke-width:18;stroke-miterlimit:10;}
	.st7{display:inline;fill:#525D67;}
	.st8{display:inline;fill:none;stroke:#525D67;stroke-width:11.2615;stroke-miterlimit:10;}
	.st9{display:inline;fill:#EC2C55;}
	.st10{display:inline;fill:none;stroke:#EC2C55;stroke-width:18;stroke-miterlimit:10;}
	.st11{display:inline;fill:none;stroke:#525D67;stroke-width:12.0531;stroke-miterlimit:10;}
	.st12{display:inline;fill:#525D67;stroke:#525D67;stroke-width:3.3481;stroke-miterlimit:10;}
	.st13{display:inline;fill:#F81626;stroke:#F81626;stroke-width:8.1641;stroke-miterlimit:10;}
	.st14{display:inline;fill:none;stroke:#525D67;stroke-width:16.9612;stroke-miterlimit:10;}
	.st15{display:inline;}
	.st16{fill:#525D67;}
	.st17{fill:#545554;}
	.st18{display:inline;fill:none;stroke:#525D67;stroke-width:10.2123;stroke-miterlimit:10;}
	.st19{display:inline;fill:#CE3C51;stroke:#9B1B37;stroke-width:9.1207;stroke-miterlimit:10;}
	.st20{display:inline;fill:#F9D43A;}
	.st21{display:inline;opacity:0.3;fill:#514042;enable-background:new    ;}
	.st22{display:inline;fill:#69A86D;}
	.st23{display:inline;opacity:0.6;fill:#576B67;enable-background:new    ;}
	.st24{display:inline;fill:#618C67;}
	.st25{display:inline;opacity:0.4;fill:#576B67;enable-background:new    ;}
	.st26{display:inline;opacity:0.3;fill:#F7C6CB;enable-background:new    ;}
	.st27{display:inline;fill:#F9EDBB;}
	.st28{display:inline;fill:#E04457;stroke:#C12B44;stroke-width:9.1442;stroke-miterlimit:10;}
	.st29{display:inline;fill:#797C79;}
	.st30{display:inline;fill:#8A8E8A;}
	.st31{fill:#4F5151;}
	.st32{display:inline;fill:#E5E5E5;}
	.st33{display:inline;fill:#ED3AE8;}
	.st34{display:inline;fill:#F25CCF;}
	.st35{fill:#D305C4;}
	.st36{display:inline;fill:#FFDEFE;}
	.st37{fill:#EAEAEA;}
	.st38{fill:#F2F2F2;}
	.st39{fill:#DDDDDD;}
	.st40{fill:#FFFFFF;stroke:#DDDDDD;stroke-width:16;stroke-miterlimit:10;}
	.st41{fill:none;stroke:#DDDDDD;stroke-width:16;stroke-miterlimit:10;}
	.st42{fill:none;}
</style>
<g id="Layer_1_1_" class="st0">
	<path class="st1" d="M251.5,203.5v145.4c0,3.9-3.2,7-7,7H3.1c-3.9,0-7-3.2-7-7V203.5c0-3.9,3.2-7,7-7h241.4
		C248.3,196.5,251.5,199.7,251.5,203.5z"/>
	<path class="st2" d="M251.7,267.9c0-2.3-1.9-4.2-4.2-4.2H136.6v-63.2c0-2.1-1.7-3.8-3.8-3.8h-5.1c-0.2,0-0.4,0-0.6,0.1
		c-0.2,0-0.4-0.1-0.6-0.1h-5.1c-0.2,0-0.4,0-0.6,0.1c-0.2,0-0.4-0.1-0.6-0.1h-5.1c-2.1,0-3.8,1.7-3.8,3.8v63.3H0.5
		c-2.3,0-4.2,1.9-4.2,4.2v4.2c0,0.4,0.1,0.7,0.2,1.1c-0.1,0.3-0.2,0.7-0.2,1.1v4.2c0,0.4,0.1,0.7,0.2,1.1c-0.1,0.3-0.2,0.7-0.2,1.1
		v4.2c0,2.3,1.9,4.2,4.2,4.2h110.9v63.3c0,2.1,1.7,3.8,3.8,3.8h5.1c0.2,0,0.4,0,0.6-0.1c0.2,0,0.4,0.1,0.6,0.1h5.1
		c0.2,0,0.4,0,0.6-0.1c0.2,0,0.4,0.1,0.6,0.1h5.1c2.1,0,3.8-1.7,3.8-3.8v-63.3h110.9c2.3,0,4.2-1.9,4.2-4.2v-4.5
		c0-0.4-0.1-0.7-0.2-1.1c0.1-0.3,0.2-0.7,0.2-1.1v-4.2c0-0.4-0.1-0.7-0.2-1.1c0.1-0.3,0.2-0.7,0.2-1.1L251.7,267.9L251.7,267.9z"/>
	<path class="st3" d="M251.5,301.6v33.3l-48.3-27.5c-2.8-1.6-1.7-5.8,1.5-5.8H251.5z"/>
	<path class="st3" d="M237.7,355.9h-88.4v-46.2l0,0c0-1.8,2-2.9,3.6-2L237.7,355.9z"/>
	<path class="st3" d="M251.5,250.9v-33.3l-48.3,27.5c-2.8,1.6-1.7,5.8,1.5,5.8H251.5z"/>
	<path class="st3" d="M237.7,196.5h-88.4v46.2l0,0c0,1.8,2,2.9,3.6,2L237.7,196.5z"/>
	<path class="st3" d="M-3.9,250.9v-33.3l48.3,27.5c2.8,1.6,1.7,5.8-1.5,5.8H-3.9z"/>
	<path class="st3" d="M9.8,196.5h88.4v46.2l0,0c0,1.8-2,2.9-3.6,2L9.8,196.5z"/>
	<path class="st3" d="M-3.9,301.6v33.3l48.3-27.5c2.8-1.6,1.7-5.8-1.5-5.8H-3.9z"/>
	<path class="st3" d="M9.8,355.9h88.4v-46.2l0,0c0-1.8-2-2.9-3.6-2L9.8,355.9z"/>
</g>
<g id="Layer_2" class="st0">
	<path class="st4" d="M-9.3,178.4V178v-4.3C-9,175.2-9,176.8-9.3,178.4z"/>
	<path class="st1" d="M251.5,204.4v144.5c0,3.8-3.1,7-7,7H4.7c-3.8,0-7-3.1-7-7V204.4c0-3.8,3.1-7,7-7h239.8
		C248.4,197.4,251.5,200.6,251.5,204.4z"/>
	<path class="st2" d="M251.7,268.4c0-2.3-1.9-4.2-4.2-4.2H137.3v-62.8c0-2.1-1.7-3.7-3.7-3.7h-5c-0.2,0-0.4,0-0.6,0.1
		c-0.2,0-0.4-0.1-0.6-0.1h-5c-0.2,0-0.4,0-0.6,0.1c-0.2,0-0.4-0.1-0.6-0.1h-5c-2.1,0-3.7,1.7-3.7,3.7v62.8H2.1
		c-2.3,0-4.2,1.9-4.2,4.2v4.1c0,0.4,0.1,0.7,0.1,1c-0.1,0.3-0.1,0.7-0.1,1.1v4.1c0,0.4,0.1,0.7,0.1,1c-0.1,0.3-0.1,0.7-0.1,1.1v4.1
		c0,2.3,1.9,4.2,4.2,4.2h110.2v62.8c0,2.1,1.7,3.7,3.7,3.7h5c0.2,0,0.4,0,0.6-0.1c0.2,0,0.4,0.1,0.6,0.1h5c0.2,0,0.4,0,0.6-0.1
		c0.2,0,0.4,0.1,0.6,0.1h5c2.1,0,3.7-1.7,3.7-3.7v-62.8h110.2c2.3,0,4.2-1.9,4.2-4.2v-4.1c0-0.4-0.1-0.7-0.1-1.1
		c0.1-0.3,0.1-0.7,0.1-1v-4.1c0-0.4-0.1-0.7-0.1-1.1c0.1-0.3,0.1-0.7,0.1-1v-4.1H251.7z"/>
	<path class="st5" d="M216,225.8c0-0.4-0.3-0.7-0.7-0.7H197v-10.4c0-0.3-0.3-0.6-0.6-0.6h-0.8h-0.1h-0.1h-0.8h-0.1h-0.1h-0.8
		c-0.3,0-0.6,0.3-0.6,0.6v10.4h-18.4c-0.4,0-0.7,0.3-0.7,0.7v0.7c0,0.1,0,0.1,0,0.2c0,0.1,0,0.1,0,0.2v0.7c0,0.1,0,0.1,0,0.2
		c0,0.1,0,0.1,0,0.2v0.7c0,0.4,0.3,0.7,0.7,0.7h18.3v10.4c0,0.3,0.3,0.6,0.6,0.6h0.8h0.1h0.1h0.8h0.1h0.1h0.8c0.3,0,0.6-0.3,0.6-0.6
		v-10.4h18.3c0.4,0,0.7-0.3,0.7-0.7V228c0-0.1,0-0.1,0-0.2c0-0.1,0-0.1,0-0.2v-0.7c0-0.1,0-0.1,0-0.2c0-0.1,0-0.1,0-0.2v-0.7H216z"
		/>
	<path class="st5" d="M216,319.3c0-0.4-0.3-0.7-0.7-0.7H197v-10.4c0-0.3-0.3-0.6-0.6-0.6h-0.8h-0.1h-0.1h-0.8h-0.1h-0.1h-0.8
		c-0.3,0-0.6,0.3-0.6,0.6v10.4h-18.4c-0.4,0-0.7,0.3-0.7,0.7v0.7c0,0.1,0,0.1,0,0.2c0,0.1,0,0.1,0,0.2v0.7c0,0.1,0,0.1,0,0.2
		s0,0.1,0,0.2v0.7c0,0.4,0.3,0.7,0.7,0.7h18.3v10.4c0,0.3,0.3,0.6,0.6,0.6h0.8h0.1h0.1h0.8h0.1h0.1h0.8c0.3,0,0.6-0.3,0.6-0.6v-10.4
		h18.3c0.4,0,0.7-0.3,0.7-0.7v-0.7c0-0.1,0-0.1,0-0.2c0-0.1,0-0.1,0-0.2v-0.7c0-0.1,0-0.1,0-0.2s0-0.1,0-0.2v-0.7H216z"/>
	<path class="st5" d="M72.9,225.8c0-0.4-0.3-0.7-0.7-0.7H53.9v-10.4c0-0.3-0.3-0.6-0.6-0.6h-0.8h-0.1h-0.1h-0.8h-0.1h-0.1h-0.8
		c-0.3,0-0.6,0.3-0.6,0.6v10.4H31.6c-0.4,0-0.7,0.3-0.7,0.7v0.7c0,0.1,0,0.1,0,0.2c0,0.1,0,0.1,0,0.2v0.7c0,0.1,0,0.1,0,0.2
		c0,0.1,0,0.1,0,0.2v0.7c0,0.4,0.3,0.7,0.7,0.7h18.3v10.4c0,0.3,0.3,0.6,0.6,0.6h0.8h0.1h0.1h0.8h0.1h0.1h0.8c0.3,0,0.6-0.3,0.6-0.6
		v-10.4h18.3c0.4,0,0.7-0.3,0.7-0.7V228c0-0.1,0-0.1,0-0.2c0-0.1,0-0.1,0-0.2v-0.7c0-0.1,0-0.1,0-0.2c0-0.1,0-0.1,0-0.2V225.8z"/>
	<path class="st5" d="M72.9,319.3c0-0.4-0.3-0.7-0.7-0.7H53.9v-10.4c0-0.3-0.3-0.6-0.6-0.6h-0.8h-0.1h-0.1h-0.8h-0.1h-0.1h-0.8
		c-0.3,0-0.6,0.3-0.6,0.6v10.4H31.6c-0.4,0-0.7,0.3-0.7,0.7v0.7c0,0.1,0,0.1,0,0.2c0,0.1,0,0.1,0,0.2v0.7c0,0.1,0,0.1,0,0.2
		s0,0.1,0,0.2v0.7c0,0.4,0.3,0.7,0.7,0.7h18.3v10.4c0,0.3,0.3,0.6,0.6,0.6h0.8h0.1h0.1h0.8h0.1h0.1h0.8c0.3,0,0.6-0.3,0.6-0.6v-10.4
		h18.3c0.4,0,0.7-0.3,0.7-0.7v-0.7c0-0.1,0-0.1,0-0.2c0-0.1,0-0.1,0-0.2v-0.7c0-0.1,0-0.1,0-0.2s0-0.1,0-0.2V319.3z"/>
</g>
<g id="Layer_3" class="st0">
	<path class="st3" d="M16.1,143.9c-29.1,42.8-18,101.4,24.8,130.5c38.8,26.4,90.5,19.8,121.5-13.6l66.9,45.5
		c3.2,2.2,7.1,2.9,10.6,2.2c3.6-0.7,6.9-2.7,9.1-5.9c4.4-6.5,2.7-15.3-3.7-19.7l-66.8-45.4c19.8-41.2,7.1-92-31.8-118.4
		C103.8,89.9,45.3,101.1,16.1,143.9z M158.7,224c-1.8,4.2-4,8.4-6.7,12.3c-2.8,4.1-5.9,7.8-9.3,11.1c-23.5,22.7-60.4,26.6-88.4,7.5
		c-32.1-21.8-40.4-65.6-18.6-97.7s65.7-40.4,97.7-18.6C161.5,157.7,171.4,193.8,158.7,224z"/>
</g>
<g id="Layer_4" class="st0">
	<circle class="st3" cx="32.4" cy="214.2" r="32.7"/>
	<circle class="st3" cx="125.7" cy="214.2" r="32.7"/>
	<circle class="st3" cx="219" cy="214.2" r="32.7"/>
</g>
<g id="Layer_5" class="st0">
	<circle class="st6" cx="126.2" cy="211.3" r="107.5"/>
	<path class="st7" d="M97.6,182.6V240c0,6.4,6.9,10.4,12.4,7.2l49.7-28.7c5.5-3.2,5.5-11.2,0-14.4l-49.6-28.7
		C104.5,172.2,97.6,176.2,97.6,182.6z"/>
</g>
<g id="Layer_6" class="st0">
	<circle class="st8" cx="126.4" cy="211.2" r="109.7"/>
	<path class="st7" d="M86.2,168v86.3c0,9.6,10.4,15.6,18.7,10.8l74.7-43.1c8.3-4.8,8.3-16.8,0-21.6l-74.7-43.2
		C96.6,152.4,86.2,158.4,86.2,168z"/>
</g>
<g id="Layer_7" class="st0">
	<path class="st7" d="M74,209.3c0,14.9,12,26.9,26.9,26.9c6.5,0,12.4-2.3,17.1-6.1c4-3.3,9.8-3.3,13.8,0c4.6,3.8,10.6,6.1,17.1,6.1
		c14.9,0,26.9-12,26.9-26.9c-0.1-28.1-45.2-58.8-50.9-58.8C119.1,150.5,74,181.1,74,209.3z"/>
	<path class="st7" d="M147.3,271.8h-44.9c-3.1,0-4.6-3.7-2.5-5.9c10.8-11.1,19.4-22.5,25-22.5s14.2,11.4,24.9,22.5
		C151.9,268.1,150.3,271.8,147.3,271.8z"/>
	<circle class="st6" cx="125.8" cy="211.3" r="104.4"/>
</g>
<g id="Layer_8" class="st0">
	<path class="st9" d="M140.7,216h25.1v-26.2h-25.1v-35.9h33.1l-5.2-28.3h-30.8l-28.2,56.6v95.1h57.7l5.2-28.3h-31.8V216z
		 M109.6,125.6v33.8l26.3-33.8C135.9,125.6,109.6,125.6,109.6,125.6z"/>
	<circle class="st10" cx="136.5" cy="201.5" r="115"/>
</g>
<g id="Layer_9" class="st0">
	<circle class="st11" cx="140.2" cy="197" r="113.5"/>
	<path class="st12" d="M192.8,249.6L192.8,249.6c-2.2,2.2-5.8,2.2-8,0l-44.2-44.2l-44.2,44.2c-2.2,2.2-5.8,2.2-8,0l0,0
		c-2.2-2.2-2.2-5.8,0-8l44.2-44.2l-44.3-44.3c-2.2-2.2-2.2-5.8,0-8l0,0c2.2-2.2,5.8-2.2,8,0l44.2,44.2l44.2-44.2
		c2.2-2.2,5.8-2.2,8,0l0,0c2.2,2.2,2.2,5.8,0,8l-44.2,44.2l44.2,44.2C195,243.8,195,247.4,192.8,249.6z"/>
</g>
<g id="Layer_10" class="st0">
	<path class="st13" d="M141.1,158.6l-37.6,30.2l13.1,46.5H164 M141.1,158.6l-37.6,30.2l13.1,46.5H164l14.7-46.5L141.1,158.6z
		 M140.8,81.8C77.2,81.7,25.7,133.3,25.7,196.9c0.1,63.2,51.7,114.8,114.9,114.9c63.6,0.1,115.1-51.5,115.1-115.1
		C255.6,133.5,204,81.8,140.8,81.8z M186.8,255.7l-16,42.5c-9.6,2.8-19.6,4.3-30.1,4.3s-20.5-1.5-30.1-4.3l-15.2-40.9l-41.2,0.4
		c-11.3-16-18.3-35.4-19.2-56.3l36.7-28.1l-15.1-40.7c12.1-15.8,28.3-27.9,47.1-35l37.4,26.7l36.6-26.7c18.9,7.1,35,19.2,47.1,35
		l-16.7,42.3l38.4,26.6c-0.9,20.9-7.9,40.3-19.2,56.3L186.8,255.7z M141.1,158.6l-37.6,30.2l13.1,46.5H164 M103.6,188.8l13.1,46.5
		h47.4 M103.6,188.8l13.1,46.5h47.4"/>
</g>
<g id="Layer_11" class="st0">
	<circle class="st6" cx="142.2" cy="197.3" r="110.5"/>
	<circle class="st7" cx="142.9" cy="144.6" r="22.2"/>
	<circle class="st7" cx="142.9" cy="250.7" r="22.2"/>
	<circle class="st7" cx="196" cy="197.6" r="22.2"/>
	<circle class="st7" cx="143.6" cy="198" r="9.7"/>
	<circle class="st7" cx="89.9" cy="197.6" r="22.2"/>
</g>
<g id="Layer_12" class="st0">
	<circle class="st7" cx="143.9" cy="208.1" r="32"/>
	<path class="st14" d="M75.7,179c11.8-27.2,39.3-45.8,70.7-44.7c29.3,0.9,54,18.6,65.4,43.6"/>
	<path class="st14" d="M33.4,161.3c19.2-43.6,63.5-73.4,114.1-71.8c47,1.5,86.9,29.8,105.5,69.7"/>
	<path class="st14" d="M242.4,308.5H45.5c-6.2,0-11.3-5.1-11.3-11.3v-71.6c0-6.2,5.1-11.3,11.3-11.3h196.9c6.2,0,11.3,5.1,11.3,11.3
		v71.6C253.7,303.4,248.6,308.5,242.4,308.5z"/>
</g>
<g id="Layer_13" class="st0">
	<g class="st15">
		<path class="st16" d="M226.1,89.1l-0.3-0.3l-0.3-0.3c-5.6-5.3-24.9-6.9-30.4-6.5c-7.9,0.6-12.6,6.6-16.1,11
			c-0.7,0.9-1.8,2.3-2.5,3h-63.2c-0.7-0.7-1.7-2-2.5-3c-3.4-4.4-8.2-10.4-16.1-11c-5.4-0.4-26.2,1.3-31.8,6.5l-0.3,0.3l-0.3,0.3
			C4.1,150.9,23.9,222,63.7,233.2h0.2l20.3,6.1c1.2,0.2,2.4,0.3,3.5,0.3c7.5,0,13.8-3.8,17.9-10.9c3.4-5.8,4.8-12.8,5.8-17.8
			c0-0.2,0.1-0.5,0.1-0.7h66.6c0.1,0.3,0.1,0.5,0.1,0.7c1,5.1,2.4,12,5.8,17.8c4.1,7.1,10.4,10.9,17.9,10.9c1.1,0,2.3-0.1,3.5-0.3
			l21.8-6.1h0.2c8.8-1.7,15.1-6.8,20.4-13.1C269.5,194.9,268.1,138.8,226.1,89.1z M235.7,212.1c-8.7,9.2-32.3,12.8-32.3,12.8
			c-5.3,0.8-7.9-3.4-10.7-16.9c-0.4-2.1-0.8-4-1.3-5.5c-2-6.3-6.4-7-8.3-7h-76.4c-1.8,0-6.3,0.7-8.3,7c-0.5,1.5-0.9,3.4-1.3,5.5
			c-2.7,13.5-5.3,17.7-10.7,16.9l-20-6.1c-5-1-19.1-14.4-24.2-29.8c0,0-13.2-42.5,31-90.1c2.5-2.3,19.7-2.3,20.4-2.3
			c1.4,0.1,4.1,3.4,5.7,5.4c3,3.8,6.8,8.5,12.7,8.5h65.7c6,0,9.7-4.7,12.7-8.5c1.6-2,4.2-5.3,5.7-5.4c0.8-0.1,16.5,0,19,2.3
			c39.7,47,31.6,87.2,31.6,87.2C244.6,197.1,240.4,207.2,235.7,212.1z"/>
	</g>
	<path class="st7" d="M114,155.8c0,2.3-1,4.4-2.5,6c-1.5,1.5-3.6,2.5-6,2.5h-6.7v5.2c0,4.6-3.8,8.4-8.4,8.4s-8.4-3.8-8.4-8.4v-5.2
		h-5.8c-4.6,0-8.4-3.8-8.4-8.4c0-4.6,3.8-8.4,8.4-8.4H82v-7.3c0-4.6,3.8-8.4,8.4-8.4c2.3,0,4.4,0.9,6,2.5c1.5,1.5,2.5,3.6,2.5,6v7.3
		h6.7C110.2,147.4,114,151.2,114,155.8z"/>
	<ellipse transform="matrix(0.7071 -0.7071 0.7071 0.7071 -38.0412 180.1385)" class="st7" cx="198.4" cy="136" rx="8.4" ry="8.4"/>
	
		<ellipse transform="matrix(0.7071 -0.7071 0.7071 0.7071 -46.0696 199.7446)" class="st7" cx="218.1" cy="155.5" rx="8.4" ry="8.4"/>
	<ellipse transform="matrix(0.7071 -0.7071 0.7071 0.7071 -58.3032 171.2773)" class="st7" cx="177.6" cy="156" rx="8.4" ry="8.4"/>
	
		<ellipse transform="matrix(0.7071 -0.7071 0.7071 0.7071 -66.9163 191.9999)" class="st7" cx="198.3" cy="176.8" rx="8.4" ry="8.4"/>
</g>
<g id="Layer_14" class="st0">
	<g class="st15">
		<path class="st16" d="M76.3,81.5v38.2H25.9v87.6c0,17.6,14.2,32,31.8,32.2c0.6,0,1.1,0,1.7-0.1l-0.1,0.1h144.4
			c17.8,0,32.2-14.4,32.2-32.2V81.5H76.3z M58.2,226.2h-0.8c0.1,0,0.2,0,0.3,0c-10.2-0.3-18.5-8.7-18.5-18.9v-74.4h37.1v74.4
			c0,10.3-8.2,18.7-18.5,18.9C58,226.2,58.1,226.2,58.2,226.2z M222.7,207.3c0,10.4-8.5,18.9-18.9,18.9H89.6V94.8h133.1V207.3z"/>
	</g>
	<g class="st15">
		<path class="st17" d="M59.9,239.5c-0.1,0-0.3,0-0.4,0h0.8C60.2,239.5,60.1,239.5,59.9,239.5z"/>
	</g>
	<path class="st18" d="M144.8,151.3h-26.7c-2.8,0-5-2.3-5-5v-26.2c0-2.8,2.3-5,5-5h26.7c2.8,0,5,2.3,5,5v26.3
		C149.8,149.1,147.6,151.3,144.8,151.3z"/>
	<path class="st7" d="M201.2,128.7h-23.9c-1.9,0-3.4-1.5-3.4-3.4V120c0-1.9,1.5-3.4,3.4-3.4h23.9c1.9,0,3.4,1.5,3.4,3.4v5.3
		C204.6,127.1,203.1,128.7,201.2,128.7z"/>
	<path class="st7" d="M201.2,153.6h-23.9c-1.9,0-3.4-1.5-3.4-3.4v-5.3c0-1.9,1.5-3.4,3.4-3.4h23.9c1.9,0,3.4,1.5,3.4,3.4v5.3
		C204.6,152.1,203.1,153.6,201.2,153.6z"/>
	<path class="st7" d="M198.5,186.5h-84.3c-3.4,0-6.1-2.7-6.1-6.1l0,0c0-3.4,2.7-6.1,6.1-6.1h84.3c3.4,0,6.1,2.7,6.1,6.1l0,0
		C204.6,183.7,201.9,186.5,198.5,186.5z"/>
	<path class="st7" d="M198.5,212.5h-84.3c-3.4,0-6.1-2.7-6.1-6.1l0,0c0-3.4,2.7-6.1,6.1-6.1h84.3c3.4,0,6.1,2.7,6.1,6.1l0,0
		C204.6,209.7,201.9,212.5,198.5,212.5z"/>
</g>
<g id="Layer_15" class="st0">
	<path class="st19" d="M195.8,173.5c0,33.2-30,60-66.9,60S62,206.6,62,173.5c0-21.7,12.9-40.7,32.1-51.3c10.2-5.6,22.1-8.8,34.8-8.8
		c13.3,0,25.7,3.5,36.1,9.5C183.5,133.6,195.8,152.2,195.8,173.5z"/>
	<path class="st20" d="M138.4,172.3c0-7.3,5.9,0.2,13.2,0.2s13.2-7.5,13.2-0.2s-5.9,13.2-13.2,13.2
		C144.3,185.5,138.4,179.6,138.4,172.3z"/>
	<path class="st20" d="M92.8,172.3c0-7.3,5.7,0.2,13,0.2s13.5-7.5,13.5-0.2s-5.9,13.2-13.2,13.2C98.8,185.5,92.8,179.6,92.8,172.3z"
		/>
	<path class="st21" d="M121.5,108.7c13.3-0.4,29.1,2.2,40.4,7.4c-0.5,1-5.4,8.6-6.1,9.5c-0.6,0.7-1.3,1.6-2.1,2.5
		c0.9,1,1.6,1.9,2.2,2.7c6.4,8.3,9.9,25.1,1.6,31.6c-8.3,6.4-25.1,0-31.6-8.3c-1-1.3-2.2-2.9-3.6-4.9c0.1-0.2,0.2-0.4,0.4-0.6
		c0.8,0,1.5-0.1,2.3-0.3c-0.8,0.2-1.5,0.2-2.3,0.3c-0.2,0-0.4,0-0.6,0c-0.1,0-0.1,0-0.2,0c-0.9,0-1.7-0.1-2.6-0.3
		c0.9,0.2,1.7,0.3,2.6,0.3c0.1,0.2,0.2,0.4,0.4,0.5c-1.3,2-2.6,3.6-3.6,4.9c-6.2,8.4-28,19.7-36.3,13.3c-8.3-6.4,0.2-28.2,6.6-36.5
		c0.6-0.7,1.3-1.6,2.1-2.5c-0.9-1-1.6-1.9-2.2-2.7l-3-3.9C85.9,121.8,105.4,109.2,121.5,108.7z"/>
	<path class="st22" d="M157.1,155.7c-6.5,5.1-19.7,0-24.8-6.5c-0.8-1-1.7-2.3-2.8-3.9c0.1-0.1,0.2-0.3,0.3-0.4
		c0.6,0,1.2-0.1,1.8-0.2c-0.6,0.1-1.2,0.2-1.8,0.2c-0.1,0-0.3,0-0.4,0c-0.1,0-0.1,0-0.2,0c-0.7,0-1.4-0.1-2.1-0.2
		c0.7,0.2,1.4,0.2,2.1,0.2c0.1,0.1,0.2,0.3,0.3,0.4c-1,1.5-2,2.9-2.8,3.9c-5,6.5-22.2,15.4-28.6,10.4c-6.5-5,0.1-22.2,5.2-28.6
		c0.4-0.6,1-1.2,1.6-1.9c-0.7-0.8-1.3-1.5-1.7-2.1c-5.1-6.5-5.5-17.4,1-22.5c6.5-5,17.4-2.3,22.5,4.2c0.8,1,1.7,2.3,2.8,3.9
		c-0.1,0.1-0.2,0.3-0.3,0.4c-0.6,0-1.2,0.1-1.8,0.2c0.6-0.1,1.2-0.2,1.8-0.2c0.1,0,0.3,0,0.4,0c0.1,0,0.1,0,0.2,0
		c0.7,0,1.3,0.1,2,0.2c-0.7-0.2-1.3-0.2-2-0.2c-0.1-0.1-0.2-0.3-0.3-0.4c1-1.5,2-2.9,2.8-3.9c5.1-6.5,14.4-7.6,20.9-2.6
		c6.5,5.1,7.6,14.4,2.6,20.9c-0.4,0.6-1,1.2-1.6,1.9c0.7,0.8,1.3,1.5,1.8,2.1C160.8,137.4,163.6,150.7,157.1,155.7z"/>
	<path class="st23" d="M145.8,146.2c-3.9,3.1-12,0-15.1-3.9c-0.5-0.6-1.1-1.4-1.7-2.3c0.1-0.1,0.1-0.2,0.2-0.3
		c0.4,0,0.7-0.1,1.1-0.1c-0.4,0.1-0.7,0.1-1.1,0.1c-0.1,0-0.2,0-0.3,0h-0.1c-0.4,0-0.8-0.1-1.3-0.1c0.4,0.1,0.8,0.1,1.3,0.1
		c0.1,0.1,0.1,0.2,0.2,0.3c-0.6,0.9-1.2,1.7-1.7,2.3c-3.1,4-13.5,9.4-17.5,6.3c-3.9-3.1,0.1-13.5,3.2-17.5c0.3-0.4,0.6-0.7,1-1.2
		c-0.4-0.5-0.8-0.9-1.1-1.3c-3.1-4-3.3-10.6,0.6-13.7c4-3.1,10.6-1.4,13.7,2.6c0.5,0.6,1.1,1.4,1.7,2.3c-0.1,0.1-0.1,0.2-0.2,0.3
		c-0.4,0-0.7,0.1-1.1,0.1c0.4-0.1,0.7-0.1,1.1-0.1c0.1,0,0.2,0,0.3,0h0.1c0.4,0,0.8,0.1,1.2,0.1c-0.4-0.1-0.8-0.1-1.2-0.1
		c-0.1-0.1-0.1-0.2-0.2-0.3c0.6-0.9,1.2-1.7,1.7-2.3c3.1-3.9,8.8-4.7,12.7-1.6c4,3.1,4.7,8.8,1.6,12.7c-0.3,0.4-0.6,0.7-1,1.2
		c0.4,0.5,0.8,0.9,1.1,1.3C148.1,135.1,149.7,143.1,145.8,146.2z"/>
	<path class="st24" d="M154.6,105c-0.7,0.5-1.5,1-2.1,1.5c-16.6,12.5-16,27.7-26.4,23.3c-0.2-0.1-0.3-0.1-0.5-0.2
		c-12.5-5.8-3.5-29.9,0.1-37.9c3.7-8,13.1-11.4,21.1-7.7C154.8,87.6,161.8,100.1,154.6,105z"/>
	<path class="st25" d="M152.4,106.6c-16.5,12.4-15.9,27.6-26.3,23.2c1.4-6.3,3.8-12.3,5.3-15.5C135.1,106.4,144.5,102.9,152.4,106.6
		z"/>
	
		<ellipse transform="matrix(0.9721 -0.2345 0.2345 0.9721 -32.1315 47.3603)" class="st26" cx="183.1" cy="158.8" rx="12.3" ry="16.7"/>
	<path class="st27" d="M160.8,212.2c-11.1,1.7-21,0.3-27.6-3.6c-2.5-1.5-3.8-3.7-4.2-6c-0.4,2.3-1.7,4.6-4.2,6
		c-6.6,3.9-16.5,5.3-27.6,3.6C77.6,209.1,81,192.5,81,192.5s-1.6,18.2,18.6,6.2c8.2-4.9,15.3-6.3,20.8-6.3c4.9,0,8,3.5,8.6,7.4
		c0.6-3.9,3.8-7.4,8.6-7.4c5.5,0,12.6,1.4,20.8,6.3c20.1,12,18.6-6.2,18.6-6.2S180.5,209.1,160.8,212.2z"/>
</g>
<g id="Layer_16" class="st0">
	<path class="st28" d="M195.9,173.4c0,33.2-30,60.2-67.1,60.2s-67.1-26.9-67.1-60.2c0-21.8,12.9-40.8,32.2-51.4
		c10.2-5.6,22.1-8.8,34.9-8.8c13.3,0,25.8,3.5,36.2,9.5C183.6,133.4,195.9,152.1,195.9,173.4z"/>
	<path class="st20" d="M119.2,186.7c0,7.3-5.9-0.2-13.3-0.2c-7.4,0-13.2,7.5-13.2,0.2s5.9-13.3,13.3-13.3
		C113.4,173.4,119.2,179.4,119.2,186.7z"/>
	<path class="st20" d="M165,186.7c0,7.3-5.7-0.2-13.1-0.2c-7.4,0-13.5,7.6-13.5,0.2c0-7.3,5.9-13.3,13.3-13.3
		C159.1,173.4,165,179.4,165,186.7z"/>
	<path class="st21" d="M121.4,108.5c13.3-0.4,29.2,2.2,40.5,7.4c-0.5,1-5.4,8.7-6.1,9.5c-0.6,0.7-1.3,1.6-2.1,2.5
		c0.9,1,1.6,1.9,2.2,2.7c6.4,8.3,9.9,25.2,1.6,31.6c-8.3,6.5-25.2,0-31.6-8.3c-1-1.3-2.2-3-3.6-4.9c0.1-0.2,0.2-0.4,0.4-0.6
		c0.8,0,1.6-0.1,2.3-0.3c-0.8,0.2-1.5,0.2-2.3,0.3c-0.2,0-0.4,0-0.6,0c-0.1,0-0.1,0-0.2,0c-0.9,0-1.7-0.1-2.6-0.3
		c0.9,0.2,1.7,0.3,2.6,0.3c0.1,0.2,0.2,0.4,0.4,0.5c-1.3,2-2.6,3.6-3.6,4.9c-6.4,8.3-28.3,19.7-36.6,13.2
		c-8.3-6.4,0.2-28.3,6.6-36.6c0.6-0.7,1.3-1.6,2.1-2.5c-0.9-1-1.6-1.9-2.2-2.7l-3-3.9C85.7,121.6,105.3,109,121.4,108.5z"/>
	<path class="st22" d="M157.1,155.6c-6.5,5.1-19.8,0-24.8-6.5c-0.8-1-1.8-2.3-2.8-3.9c0.1-0.1,0.2-0.3,0.3-0.4
		c0.6,0,1.2-0.1,1.8-0.2c-0.6,0.1-1.2,0.2-1.8,0.2c-0.1,0-0.3,0-0.4,0c-0.1,0-0.1,0-0.2,0c-0.7,0-1.4-0.1-2.1-0.2
		c0.7,0.2,1.4,0.2,2.1,0.2c0.1,0.1,0.2,0.3,0.3,0.4c-1.1,1.5-2,2.9-2.8,3.9c-5.1,6.5-22.3,15.5-28.8,10.4
		c-6.5-5.1,0.1-22.2,5.2-28.7c0.4-0.6,1-1.2,1.6-1.9c-0.7-0.8-1.3-1.5-1.8-2.1c-5.1-6.5-5.5-17.5,1-22.6c6.5-5.1,17.4-2.3,22.5,4.2
		c0.8,1,1.7,2.3,2.8,3.9c-0.1,0.1-0.2,0.3-0.3,0.4c-0.6,0-1.2,0.1-1.8,0.2c0.6-0.1,1.2-0.2,1.8-0.2c0.1,0,0.3,0,0.4,0
		c0.1,0,0.1,0,0.2,0c0.7,0,1.4,0.1,2.1,0.2c-0.7-0.2-1.4-0.2-2.1-0.2c-0.1-0.1-0.2-0.3-0.3-0.4c1.1-1.5,2-2.9,2.8-3.9
		c5.1-6.5,14.4-7.7,20.9-2.6c6.5,5.1,7.7,14.4,2.6,20.9c-0.4,0.6-1,1.2-1.6,1.9c0.7,0.8,1.3,1.5,1.8,2.1
		C160.8,137.3,163.6,150.6,157.1,155.6z"/>
	<path class="st23" d="M145.7,146.1c-4,3.1-12.1,0-15.1-4c-0.5-0.6-1.1-1.4-1.7-2.4c0.1-0.1,0.1-0.2,0.2-0.3c0.4,0,0.7-0.1,1.1-0.1
		c-0.4,0.2-0.8,0.2-1.1,0.2c-0.1,0-0.2,0-0.3,0h-0.1c-0.4,0-0.8-0.1-1.3-0.1c0.4,0.1,0.8,0.1,1.3,0.1c0.1,0.1,0.1,0.2,0.2,0.3
		c-0.6,0.9-1.2,1.7-1.7,2.4c-3.1,4-13.5,9.4-17.5,6.3c-4-3.1,0.1-13.5,3.2-17.5c0.3-0.4,0.6-0.7,1-1.2c-0.4-0.5-0.8-0.9-1.1-1.3
		c-3.1-4-3.3-10.7,0.6-13.7c4-3.1,10.6-1.4,13.7,2.6c0.5,0.6,1.1,1.4,1.7,2.4c-0.1,0.1-0.1,0.2-0.2,0.3c-0.4,0-0.7,0.1-1.1,0.1
		c0.4-0.1,0.7-0.1,1.1-0.1c0.1,0,0.2,0,0.3,0h0.1c0.4,0,0.8,0.1,1.3,0.1c-0.4-0.1-0.8-0.1-1.3-0.1c-0.1-0.1-0.1-0.2-0.2-0.3
		c0.6-0.9,1.2-1.7,1.7-2.4c3.1-4,8.8-4.7,12.8-1.6c4,3.1,4.7,8.8,1.6,12.8c-0.3,0.4-0.6,0.7-1,1.2c0.4,0.5,0.8,0.9,1.1,1.3
		C148,134.9,149.7,143,145.7,146.1z"/>
	<path class="st24" d="M154.4,105c-0.7,0.5-1.5,1-2.1,1.5c-16.5,12.4-15.9,27.6-26.3,23.2c-0.2-0.1-0.3-0.2-0.5-0.2
		c-12.4-5.7-3.5-29.9,0.1-37.8c3.7-7.9,13.1-11.4,21-7.7C154.6,87.6,161.6,100.1,154.4,105z"/>
	<path class="st25" d="M152.2,106.5c-16.4,12.4-15.8,27.6-26.2,23.2c1.4-6.3,3.8-12.2,5.3-15.5C134.9,106.3,144.3,102.8,152.2,106.5
		z"/>
	
		<ellipse transform="matrix(0.9721 -0.2345 0.2345 0.9721 -32.126 47.3868)" class="st26" cx="183.2" cy="158.8" rx="12.3" ry="16.8"/>
</g>
<g id="Layer_17" class="st0">
	<path class="st29" d="M184.7,225.4l-11.3-7.5c-2.3-1.6-5.5-1.3-7.5,0.7l-19.4,11.2c-0.7,0.4-1.4,0.9-2.1,1.4
		c-2.1,1.5-4.8,1.4-6.9,0c-0.7-0.5-1.4-1-2.1-1.4l-18.9-11.2c-2-2-5.1-2.3-7.5-0.7l-11.8,7.7c-4,2.6-9.3-0.3-9.3-5v-84.5
		c0-26,21.3-47.3,47.3-47.3h11.5c26,0,47.3,21.3,47.3,47.3v84.4C194,225.2,188.7,228.1,184.7,225.4z"/>
	<path class="st30" d="M184.9,225.7l-11.3-7.5c-2.3-1.6-5.5-1.3-7.5,0.7l-19.4,11.2c-0.7,0.4-1.4,0.9-2.1,1.4
		c-2.1,1.5-4.8,1.4-6.9,0c-0.7-0.5-1.4-1-2.1-1.4l-18.9-11.2c-2-2-5.1-2.3-7.5-0.7l-11.8,7.7c-4,2.6-9.3-0.3-9.3-5v-8.8
		c0-26,52.2-47.3,78.2-47.3h11.4c26,0,16.5,21.3,16.5,47.3v8.7C194.3,225.5,188.9,228.4,184.9,225.7z"/>
	<g class="st15">
		<path class="st31" d="M141,238.5c-2.5,0-5-0.8-7.1-2.3l-0.3-0.2c-0.5-0.4-1-0.7-1.3-0.9l-19.6-11.5l-0.4-0.4l-11.7,7.6
			c-3.8,2.5-8.5,2.7-12.5,0.5c-3.9-2.1-6.4-6.3-6.4-10.7v-84.5c0-29.6,24-53.6,53.6-53.6h11.4c29.5,0,53.6,24,53.6,53.6v84.4
			c0,4.5-2.5,8.6-6.5,10.8c-4,2.1-8.8,1.9-12.5-0.6l0,0l-11.2-7.4l-0.4,0.4l-20,11.6c-0.4,0.2-0.9,0.6-1.4,0.9l-0.2,0.1
			C145.9,237.8,143.5,238.5,141,238.5z M120.2,213.6l18.4,10.8c0.9,0.5,1.6,1,2.3,1.5l0.1,0.1h0.1c0.7-0.5,1.4-1,2.3-1.5l18.8-11
			c4.1-3.4,10.1-3.8,14.6-0.8l11,7.3v-84c0-22.7-18.4-41.1-41.1-41.1h-11.4c-22.7,0-41.1,18.4-41.1,41.1v84.1l11.5-7.5
			C110.1,209.7,116.1,210.1,120.2,213.6z"/>
	</g>
	<circle class="st32" cx="110.4" cy="148" r="12.7"/>
	<circle class="st32" cx="150.6" cy="148" r="12.7"/>
</g>
<g id="Layer_18" class="st0">
	<path class="st33" d="M184.9,225.4l-11.3-7.5c-2.3-1.6-5.5-1.3-7.5,0.7l-19.4,11.2c-0.7,0.4-1.4,0.9-2.1,1.4
		c-2.1,1.5-4.8,1.4-6.9,0c-0.7-0.5-1.4-1-2.1-1.4l-18.9-11.2c-2-2-5.1-2.3-7.5-0.7l-11.8,7.7c-4,2.6-9.3-0.3-9.3-5v-84.5
		c0-26,21.3-47.3,47.3-47.3h11.4c26,0,47.3,21.3,47.3,47.3v84.4C194.2,225.2,188.9,228.1,184.9,225.4z"/>
	<path class="st34" d="M185.2,225.7l-11.3-7.5c-2.3-1.6-5.5-1.3-7.5,0.7L147,230.1c-0.7,0.4-1.4,0.9-2.1,1.4c-2.1,1.5-4.8,1.4-6.9,0
		c-0.7-0.5-1.4-1-2.1-1.4L117,218.9c-2-2-5.1-2.3-7.5-0.7l-11.8,7.6c-4,2.6-9.3-0.3-9.3-5V212c0-26,52.2-47.3,78.2-47.3H178
		c26,0,16.5,21.3,16.5,47.3v8.7C194.5,225.5,189.2,228.4,185.2,225.7z"/>
	<g class="st15">
		<path class="st35" d="M141.2,238.5c-2.5,0-5-0.8-7.1-2.3l-0.3-0.2c-0.5-0.4-1-0.7-1.3-0.9l-19.6-11.5l-0.4-0.4l-11.7,7.6
			c-3.8,2.5-8.5,2.7-12.5,0.5c-3.9-2.1-6.4-6.3-6.4-10.7v-84.5c0-29.6,24.1-53.6,53.6-53.6h11.4c29.5,0,53.6,24,53.6,53.6v84.4
			c0,4.5-2.5,8.6-6.5,10.8c-4,2.1-8.8,1.9-12.5-0.6l0,0l-11.2-7.4l-0.4,0.4l-20,11.6c-0.4,0.2-0.9,0.6-1.4,0.9l-0.2,0.1
			C146.2,237.8,143.7,238.5,141.2,238.5z M120.5,213.6l18.4,10.8c0.9,0.5,1.6,1,2.3,1.5l0.1,0.1h0.1c0.7-0.5,1.4-1,2.3-1.5l18.8-11
			c4.1-3.4,10.1-3.8,14.6-0.8l11,7.3v-84c0-22.7-18.4-41.1-41.1-41.1h-11.5c-22.7,0-41.1,18.4-41.1,41.1v84.1l11.5-7.5
			C110.4,209.7,116.4,210.1,120.5,213.6z"/>
	</g>
	<circle class="st36" cx="110.7" cy="148" r="12.7"/>
	<circle class="st36" cx="150.8" cy="148" r="12.7"/>
</g>
<path class="st37" d="M241.8,118.3c-2.7-9.7-6.9-18.8-12.3-27.1c-2.5-3.8-5.3-7.4-8.3-10.8c-17.4-19.7-42.9-32.2-71.1-32.2h-22.9
	c-28.2,0-53.7,12.5-71.1,32.2c-0.9,1.1-1.9,2.1-2.8,3.3c-8.2,10-14.3,21.8-17.8,34.6c-2.2,8-3.4,16.4-3.4,25.1v94.9h213v-94.9
	C245.2,134.7,244,126.3,241.8,118.3z"/>
<path class="st38" d="M249.2,238.3H75.2c35.1-22.8,83.8-37.5,114.5-37.5h22.9c8.4,0,15,1.1,20.1,3.2c6,2.5,10,6.3,12.5,11.2
	C248.3,221.3,249.3,229.1,249.2,238.3z"/>
<g>
	<path class="st39" d="M254.8,118.3c-2.9-12.2-7.9-23.6-14.6-33.8c-0.9-1.4-1.8-2.7-2.8-4.1c-19.5-27-51.4-44.7-87.2-44.7h-22.9
		c-35.9,0-67.6,17.6-87.2,44.7c-0.3,0.4-0.6,0.8-0.9,1.2c-7.7,10.9-13.4,23.3-16.5,36.6c-1.9,8-3,16.4-3,25.1v94.9h25v-94.9
		c0-8.7,1.4-17.2,3.9-25.1c3.9-12.3,10.7-23.4,19.5-32.5c1.8-1.9,3.7-3.7,5.7-5.4c14.4-12.3,33.1-19.7,53.4-19.7h22.9
		c20.4,0,39,7.4,53.4,19.7c5.9,5,11.1,10.9,15.4,17.3c4.2,6.3,7.5,13.2,9.9,20.5c2.5,7.9,3.9,16.3,3.9,25.1v94.9h25v-94.9
		C257.7,134.7,256.7,126.3,254.8,118.3z"/>
</g>
<circle class="st40" cx="91.4" cy="167.3" r="30.2"/>
<circle class="st40" cx="183.4" cy="167.3" r="30.2"/>
<path class="st41" d="M121.6,167.3c0.2-8.6,7.2-15.5,15.8-15.5s15.6,6.9,15.8,15.5"/>
<line class="st41" x1="61.3" y1="167.3" x2="32.2" y2="159.5"/>
<line class="st41" x1="213.6" y1="167.3" x2="245.2" y2="159.5"/>
<polygon class="st39" points="5.2,118.3 272.8,118.3 277.8,80.4 0,80.4 "/>
<path class="st39" d="M30.8,80.4l23.6-67.8c1.5-4.2,6.4-6,10.2-3.7c9.6,5.8,26.8,15.2,39.2,16.4c14.3,1.4,76.1-18.6,95.3-24.9
	c3.3-1.1,6.9,0.4,8.4,3.5l39.1,76.6c0,0-39.3,25-40.8,25S30.8,80.4,30.8,80.4z"/>
<line class="st42" x1="247.3" y1="238.3" x2="245.2" y2="238.3"/>
</svg>
