<?xml version="1.0" encoding="utf-8"?>
<!-- Generator: Adobe Illustrator 21.0.2, SVG Export Plug-In . SVG Version: 6.00 Build 0)  -->
<svg version="1.1" id="Layer_1" xmlns="http://www.w3.org/2000/svg" xmlns:xlink="http://www.w3.org/1999/xlink" x="0px" y="0px"
	 viewBox="0 0 238 184.7" style="enable-background:new 0 0 238 184.7;" xml:space="preserve">
<style type="text/css">
	.st0{display:none;}
	.st1{display:inline;fill:#EFEFEF;}
	.st2{display:inline;fill:#EF2648;}
	.st3{display:inline;fill:#154D84;}
	.st4{display:inline;fill:#555654;}
	.st5{display:inline;fill:#EF2648;stroke:#EF2648;stroke-width:3.7889;stroke-miterlimit:10;}
	.st6{display:inline;fill:none;stroke:#525D67;stroke-width:18;stroke-miterlimit:10;}
	.st7{display:inline;fill:#525D67;}
	.st8{display:inline;fill:none;stroke:#525D67;stroke-width:11.2615;stroke-miterlimit:10;}
	.st9{display:inline;fill:#EC2C55;}
	.st10{display:inline;fill:none;stroke:#EC2C55;stroke-width:18;stroke-miterlimit:10;}
	.st11{display:inline;fill:none;stroke:#525D67;stroke-width:12.0531;stroke-miterlimit:10;}
	.st12{display:inline;fill:#525D67;stroke:#525D67;stroke-width:3.3481;stroke-miterlimit:10;}
	.st13{display:inline;fill:#F81626;stroke:#F81626;stroke-width:8.1641;stroke-miterlimit:10;}
	.st14{display:inline;fill:none;stroke:#525D67;stroke-width:16.9612;stroke-miterlimit:10;}
	.st15{display:inline;}
	.st16{fill:#525D67;}
	.st17{fill:#545554;}
	.st18{display:inline;fill:none;stroke:#525D67;stroke-width:10.2123;stroke-miterlimit:10;}
	.st19{display:inline;fill:#CE3C51;stroke:#9B1B37;stroke-width:9.1207;stroke-miterlimit:10;}
	.st20{display:inline;fill:#F9D43A;}
	.st21{display:inline;opacity:0.3;fill:#514042;enable-background:new    ;}
	.st22{display:inline;fill:#69A86D;}
	.st23{display:inline;opacity:0.6;fill:#576B67;enable-background:new    ;}
	.st24{display:inline;fill:#618C67;}
	.st25{display:inline;opacity:0.4;fill:#576B67;enable-background:new    ;}
	.st26{display:inline;opacity:0.3;fill:#F7C6CB;enable-background:new    ;}
	.st27{display:inline;fill:#F9EDBB;}
	.st28{display:inline;fill:#E04457;stroke:#C12B44;stroke-width:9.1442;stroke-miterlimit:10;}
	.st29{display:inline;fill:#797C79;}
	.st30{display:inline;fill:#8A8E8A;}
	.st31{fill:#4F5151;}
	.st32{display:inline;fill:#E5E5E5;}
	.st33{display:inline;fill:#ED3AE8;}
	.st34{display:inline;fill:#F25CCF;}
	.st35{fill:#D305C4;}
	.st36{display:inline;fill:#FFDEFE;}
	.st37{fill:#08BFFF;}
	.st38{fill:#3CCFF7;}
	.st39{fill:#0083CA;}
	.st40{fill:#FFFFFF;}
</style>
<g id="Layer_1_1_" class="st0">
	<path class="st1" d="M251.5,149.8v145.4c0,3.9-3.2,7-7,7H3.1c-3.9,0-7-3.2-7-7V149.8c0-3.9,3.2-7,7-7h241.4
		C248.3,142.8,251.5,146,251.5,149.8z"/>
	<path class="st2" d="M251.7,214.2c0-2.3-1.9-4.2-4.2-4.2H136.6v-63.2c0-2.1-1.7-3.8-3.8-3.8h-5.1c-0.2,0-0.4,0-0.6,0.1
		c-0.2,0-0.4-0.1-0.6-0.1h-5.1c-0.2,0-0.4,0-0.6,0.1c-0.2,0-0.4-0.1-0.6-0.1h-5.1c-2.1,0-3.8,1.7-3.8,3.8v63.3H0.5
		c-2.3,0-4.2,1.9-4.2,4.2v4.2c0,0.4,0.1,0.7,0.2,1.1c-0.1,0.3-0.2,0.7-0.2,1.1v4.2c0,0.4,0.1,0.7,0.2,1.1c-0.1,0.3-0.2,0.7-0.2,1.1
		v4.2c0,2.3,1.9,4.2,4.2,4.2h110.9v63.3c0,2.1,1.7,3.8,3.8,3.8h5.1c0.2,0,0.4,0,0.6-0.1c0.2,0,0.4,0.1,0.6,0.1h5.1
		c0.2,0,0.4,0,0.6-0.1c0.2,0,0.4,0.1,0.6,0.1h5.1c2.1,0,3.8-1.7,3.8-3.8v-63.3h110.9c2.3,0,4.2-1.9,4.2-4.2v-4.5
		c0-0.4-0.1-0.7-0.2-1.1c0.1-0.3,0.2-0.7,0.2-1.1v-4.2c0-0.4-0.1-0.7-0.2-1.1c0.1-0.3,0.2-0.7,0.2-1.1L251.7,214.2L251.7,214.2z"/>
	<path class="st3" d="M251.5,247.9v33.3l-48.3-27.5c-2.8-1.6-1.7-5.8,1.5-5.8H251.5z"/>
	<path class="st3" d="M237.7,302.2h-88.4V256l0,0c0-1.8,2-2.9,3.6-2L237.7,302.2z"/>
	<path class="st3" d="M251.5,197.2v-33.3l-48.3,27.5c-2.8,1.6-1.7,5.8,1.5,5.8H251.5z"/>
	<path class="st3" d="M237.7,142.8h-88.4V189l0,0c0,1.8,2,2.9,3.6,2L237.7,142.8z"/>
	<path class="st3" d="M-3.9,197.2v-33.3l48.3,27.5c2.8,1.6,1.7,5.8-1.5,5.8H-3.9z"/>
	<path class="st3" d="M9.8,142.8h88.4V189l0,0c0,1.8-2,2.9-3.6,2L9.8,142.8z"/>
	<path class="st3" d="M-3.9,247.9v33.3l48.3-27.5c2.8-1.6,1.7-5.8-1.5-5.8H-3.9z"/>
	<path class="st3" d="M9.8,302.2h88.4V256l0,0c0-1.8-2-2.9-3.6-2L9.8,302.2z"/>
</g>
<g id="Layer_2" class="st0">
	<path class="st4" d="M-9.3,124.7v-0.4V120C-9,121.5-9,123.1-9.3,124.7z"/>
	<path class="st1" d="M251.5,150.7v144.5c0,3.8-3.1,7-7,7H4.7c-3.8,0-7-3.1-7-7V150.7c0-3.8,3.1-7,7-7h239.8
		C248.4,143.7,251.5,146.9,251.5,150.7z"/>
	<path class="st2" d="M251.7,214.7c0-2.3-1.9-4.2-4.2-4.2H137.3v-62.8c0-2.1-1.7-3.7-3.7-3.7h-5c-0.2,0-0.4,0-0.6,0.1
		c-0.2,0-0.4-0.1-0.6-0.1h-5c-0.2,0-0.4,0-0.6,0.1c-0.2,0-0.4-0.1-0.6-0.1h-5c-2.1,0-3.7,1.7-3.7,3.7v62.8H2.1
		c-2.3,0-4.2,1.9-4.2,4.2v4.1c0,0.4,0.1,0.7,0.1,1c-0.1,0.3-0.1,0.7-0.1,1.1v4.1c0,0.4,0.1,0.7,0.1,1c-0.1,0.3-0.1,0.7-0.1,1.1v4.1
		c0,2.3,1.9,4.2,4.2,4.2h110.2v62.8c0,2.1,1.7,3.7,3.7,3.7h5c0.2,0,0.4,0,0.6-0.1c0.2,0,0.4,0.1,0.6,0.1h5c0.2,0,0.4,0,0.6-0.1
		c0.2,0,0.4,0.1,0.6,0.1h5c2.1,0,3.7-1.7,3.7-3.7v-62.8h110.2c2.3,0,4.2-1.9,4.2-4.2v-4.1c0-0.4-0.1-0.7-0.1-1.1
		c0.1-0.3,0.1-0.7,0.1-1v-4.1c0-0.4-0.1-0.7-0.1-1.1c0.1-0.3,0.1-0.7,0.1-1v-4.1H251.7z"/>
	<path class="st5" d="M216,172.1c0-0.4-0.3-0.7-0.7-0.7H197V161c0-0.3-0.3-0.6-0.6-0.6h-0.8h-0.1h-0.1h-0.8h-0.1h-0.1h-0.8
		c-0.3,0-0.6,0.3-0.6,0.6v10.4h-18.4c-0.4,0-0.7,0.3-0.7,0.7v0.7c0,0.1,0,0.1,0,0.2c0,0.1,0,0.1,0,0.2v0.7c0,0.1,0,0.1,0,0.2
		c0,0.1,0,0.1,0,0.2v0.7c0,0.4,0.3,0.7,0.7,0.7h18.3v10.4c0,0.3,0.3,0.6,0.6,0.6h0.8h0.1h0.1h0.8h0.1h0.1h0.8c0.3,0,0.6-0.3,0.6-0.6
		v-10.4h18.3c0.4,0,0.7-0.3,0.7-0.7v-0.7c0-0.1,0-0.1,0-0.2c0-0.1,0-0.1,0-0.2v-0.7c0-0.1,0-0.1,0-0.2c0-0.1,0-0.1,0-0.2v-0.7H216z"
		/>
	<path class="st5" d="M216,265.6c0-0.4-0.3-0.7-0.7-0.7H197v-10.4c0-0.3-0.3-0.6-0.6-0.6h-0.8h-0.1h-0.1h-0.8h-0.1h-0.1h-0.8
		c-0.3,0-0.6,0.3-0.6,0.6v10.4h-18.4c-0.4,0-0.7,0.3-0.7,0.7v0.7c0,0.1,0,0.1,0,0.2c0,0.1,0,0.1,0,0.2v0.7c0,0.1,0,0.1,0,0.2
		s0,0.1,0,0.2v0.7c0,0.4,0.3,0.7,0.7,0.7h18.3v10.4c0,0.3,0.3,0.6,0.6,0.6h0.8h0.1h0.1h0.8h0.1h0.1h0.8c0.3,0,0.6-0.3,0.6-0.6v-10.4
		h18.3c0.4,0,0.7-0.3,0.7-0.7v-0.7c0-0.1,0-0.1,0-0.2c0-0.1,0-0.1,0-0.2v-0.7c0-0.1,0-0.1,0-0.2s0-0.1,0-0.2v-0.7H216z"/>
	<path class="st5" d="M72.9,172.1c0-0.4-0.3-0.7-0.7-0.7H53.9V161c0-0.3-0.3-0.6-0.6-0.6h-0.8h-0.1h-0.1h-0.8h-0.1h-0.1h-0.8
		c-0.3,0-0.6,0.3-0.6,0.6v10.4H31.6c-0.4,0-0.7,0.3-0.7,0.7v0.7c0,0.1,0,0.1,0,0.2c0,0.1,0,0.1,0,0.2v0.7c0,0.1,0,0.1,0,0.2
		c0,0.1,0,0.1,0,0.2v0.7c0,0.4,0.3,0.7,0.7,0.7h18.3v10.4c0,0.3,0.3,0.6,0.6,0.6h0.8h0.1h0.1h0.8h0.1h0.1h0.8c0.3,0,0.6-0.3,0.6-0.6
		v-10.4h18.3c0.4,0,0.7-0.3,0.7-0.7v-0.7c0-0.1,0-0.1,0-0.2c0-0.1,0-0.1,0-0.2v-0.7c0-0.1,0-0.1,0-0.2c0-0.1,0-0.1,0-0.2V172.1z"/>
	<path class="st5" d="M72.9,265.6c0-0.4-0.3-0.7-0.7-0.7H53.9v-10.4c0-0.3-0.3-0.6-0.6-0.6h-0.8h-0.1h-0.1h-0.8h-0.1h-0.1h-0.8
		c-0.3,0-0.6,0.3-0.6,0.6v10.4H31.6c-0.4,0-0.7,0.3-0.7,0.7v0.7c0,0.1,0,0.1,0,0.2c0,0.1,0,0.1,0,0.2v0.7c0,0.1,0,0.1,0,0.2
		s0,0.1,0,0.2v0.7c0,0.4,0.3,0.7,0.7,0.7h18.3v10.4c0,0.3,0.3,0.6,0.6,0.6h0.8h0.1h0.1h0.8h0.1h0.1h0.8c0.3,0,0.6-0.3,0.6-0.6v-10.4
		h18.3c0.4,0,0.7-0.3,0.7-0.7v-0.7c0-0.1,0-0.1,0-0.2c0-0.1,0-0.1,0-0.2v-0.7c0-0.1,0-0.1,0-0.2s0-0.1,0-0.2V265.6z"/>
</g>
<g id="Layer_3" class="st0">
	<path class="st3" d="M16.1,90.2C-13,133-1.9,191.6,40.9,220.7c38.8,26.4,90.5,19.8,121.5-13.6l66.9,45.5c3.2,2.2,7.1,2.9,10.6,2.2
		c3.6-0.7,6.9-2.7,9.1-5.9c4.4-6.5,2.7-15.3-3.7-19.7l-66.8-45.4c19.8-41.2,7.1-92-31.8-118.4C103.8,36.2,45.3,47.4,16.1,90.2z
		 M158.7,170.3c-1.8,4.2-4,8.4-6.7,12.3c-2.8,4.1-5.9,7.8-9.3,11.1c-23.5,22.7-60.4,26.6-88.4,7.5c-32.1-21.8-40.4-65.6-18.6-97.7
		s65.7-40.4,97.7-18.6C161.5,104,171.4,140.1,158.7,170.3z"/>
</g>
<g id="Layer_4" class="st0">
	<circle class="st3" cx="32.4" cy="160.5" r="32.7"/>
	<circle class="st3" cx="125.7" cy="160.5" r="32.7"/>
	<circle class="st3" cx="219" cy="160.5" r="32.7"/>
</g>
<g id="Layer_5" class="st0">
	<circle class="st6" cx="126.2" cy="157.6" r="107.5"/>
	<path class="st7" d="M97.6,128.9v57.4c0,6.4,6.9,10.4,12.4,7.2l49.7-28.7c5.5-3.2,5.5-11.2,0-14.4l-49.6-28.7
		C104.5,118.5,97.6,122.5,97.6,128.9z"/>
</g>
<g id="Layer_6" class="st0">
	<circle class="st8" cx="126.4" cy="157.5" r="109.7"/>
	<path class="st7" d="M86.2,114.3v86.3c0,9.6,10.4,15.6,18.7,10.8l74.7-43.1c8.3-4.8,8.3-16.8,0-21.6l-74.7-43.2
		C96.6,98.7,86.2,104.7,86.2,114.3z"/>
</g>
<g id="Layer_7" class="st0">
	<path class="st7" d="M74,155.6c0,14.9,12,26.9,26.9,26.9c6.5,0,12.4-2.3,17.1-6.1c4-3.3,9.8-3.3,13.8,0c4.6,3.8,10.6,6.1,17.1,6.1
		c14.9,0,26.9-12,26.9-26.9c-0.1-28.1-45.2-58.8-50.9-58.8C119.1,96.8,74,127.4,74,155.6z"/>
	<path class="st7" d="M147.3,218.1h-44.9c-3.1,0-4.6-3.7-2.5-5.9c10.8-11.1,19.4-22.5,25-22.5s14.2,11.4,24.9,22.5
		C151.9,214.4,150.3,218.1,147.3,218.1z"/>
	<circle class="st6" cx="125.8" cy="157.6" r="104.4"/>
</g>
<g id="Layer_8" class="st0">
	<path class="st9" d="M140.7,162.3h25.1v-26.2h-25.1v-35.9h33.1l-5.2-28.3h-30.8l-28.2,56.6v95.1h57.7l5.2-28.3h-31.8V162.3z
		 M109.6,71.9v33.8l26.3-33.8C135.9,71.9,109.6,71.9,109.6,71.9z"/>
	<circle class="st10" cx="136.5" cy="147.8" r="115"/>
</g>
<g id="Layer_9" class="st0">
	<circle class="st11" cx="140.2" cy="143.3" r="113.5"/>
	<path class="st12" d="M192.8,195.9L192.8,195.9c-2.2,2.2-5.8,2.2-8,0l-44.2-44.2l-44.2,44.2c-2.2,2.2-5.8,2.2-8,0l0,0
		c-2.2-2.2-2.2-5.8,0-8l44.2-44.2L88.3,99.4c-2.2-2.2-2.2-5.8,0-8l0,0c2.2-2.2,5.8-2.2,8,0l44.2,44.2l44.2-44.2c2.2-2.2,5.8-2.2,8,0
		l0,0c2.2,2.2,2.2,5.8,0,8l-44.2,44.2l44.2,44.2C195,190.1,195,193.7,192.8,195.9z"/>
</g>
<g id="Layer_10" class="st0">
	<path class="st13" d="M141.1,104.9l-37.6,30.2l13.1,46.5H164 M141.1,104.9l-37.6,30.2l13.1,46.5H164l14.7-46.5L141.1,104.9z
		 M140.8,28.1C77.2,28,25.7,79.6,25.7,143.2c0.1,63.2,51.7,114.8,114.9,114.9c63.6,0.1,115.1-51.5,115.1-115.1
		C255.6,79.8,204,28.1,140.8,28.1z M186.8,202l-16,42.5c-9.6,2.8-19.6,4.3-30.1,4.3s-20.5-1.5-30.1-4.3l-15.2-40.9L54.2,204
		c-11.3-16-18.3-35.4-19.2-56.3l36.7-28.1L56.6,78.9c12.1-15.8,28.3-27.9,47.1-35l37.4,26.7l36.6-26.7c18.9,7.1,35,19.2,47.1,35
		l-16.7,42.3l38.4,26.6c-0.9,20.9-7.9,40.3-19.2,56.3L186.8,202z M141.1,104.9l-37.6,30.2l13.1,46.5H164 M103.6,135.1l13.1,46.5
		h47.4 M103.6,135.1l13.1,46.5h47.4"/>
</g>
<g id="Layer_11" class="st0">
	<circle class="st6" cx="142.2" cy="143.6" r="110.5"/>
	<circle class="st7" cx="142.9" cy="90.9" r="22.2"/>
	<circle class="st7" cx="142.9" cy="197" r="22.2"/>
	<circle class="st7" cx="196" cy="143.9" r="22.2"/>
	<circle class="st7" cx="143.6" cy="144.3" r="9.7"/>
	<circle class="st7" cx="89.9" cy="143.9" r="22.2"/>
</g>
<g id="Layer_12" class="st0">
	<circle class="st7" cx="143.9" cy="154.4" r="32"/>
	<path class="st14" d="M75.7,125.3c11.8-27.2,39.3-45.8,70.7-44.7c29.3,0.9,54,18.6,65.4,43.6"/>
	<path class="st14" d="M33.4,107.6C52.6,64,96.9,34.2,147.5,35.8c47,1.5,86.9,29.8,105.5,69.7"/>
	<path class="st14" d="M242.4,254.8H45.5c-6.2,0-11.3-5.1-11.3-11.3v-71.6c0-6.2,5.1-11.3,11.3-11.3h196.9c6.2,0,11.3,5.1,11.3,11.3
		v71.6C253.7,249.7,248.6,254.8,242.4,254.8z"/>
</g>
<g id="Layer_13" class="st0">
	<g class="st15">
		<path class="st16" d="M226.1,35.4l-0.3-0.3l-0.3-0.3c-5.6-5.3-24.9-6.9-30.4-6.5c-7.9,0.6-12.6,6.6-16.1,11
			c-0.7,0.9-1.8,2.3-2.5,3h-63.2c-0.7-0.7-1.7-2-2.5-3c-3.4-4.4-8.2-10.4-16.1-11c-5.4-0.4-26.2,1.3-31.8,6.5l-0.3,0.3l-0.3,0.3
			C4.1,97.2,23.9,168.3,63.7,179.5h0.2l20.3,6.1c1.2,0.2,2.4,0.3,3.5,0.3c7.5,0,13.8-3.8,17.9-10.9c3.4-5.8,4.8-12.8,5.8-17.8
			c0-0.2,0.1-0.5,0.1-0.7h66.6c0.1,0.3,0.1,0.5,0.1,0.7c1,5.1,2.4,12,5.8,17.8c4.1,7.1,10.4,10.9,17.9,10.9c1.1,0,2.3-0.1,3.5-0.3
			l21.8-6.1h0.2c8.8-1.7,15.1-6.8,20.4-13.1C269.5,141.2,268.1,85.1,226.1,35.4z M235.7,158.4c-8.7,9.2-32.3,12.8-32.3,12.8
			c-5.3,0.8-7.9-3.4-10.7-16.9c-0.4-2.1-0.8-4-1.3-5.5c-2-6.3-6.4-7-8.3-7h-76.4c-1.8,0-6.3,0.7-8.3,7c-0.5,1.5-0.9,3.4-1.3,5.5
			c-2.7,13.5-5.3,17.7-10.7,16.9l-20-6.1c-5-1-19.1-14.4-24.2-29.8c0,0-13.2-42.5,31-90.1c2.5-2.3,19.7-2.3,20.4-2.3
			c1.4,0.1,4.1,3.4,5.7,5.4c3,3.8,6.8,8.5,12.7,8.5h65.7c6,0,9.7-4.7,12.7-8.5c1.6-2,4.2-5.3,5.7-5.4c0.8-0.1,16.5,0,19,2.3
			c39.7,47,31.6,87.2,31.6,87.2C244.6,143.4,240.4,153.5,235.7,158.4z"/>
	</g>
	<path class="st7" d="M114,102.1c0,2.3-1,4.4-2.5,6c-1.5,1.5-3.6,2.5-6,2.5h-6.7v5.2c0,4.6-3.8,8.4-8.4,8.4s-8.4-3.8-8.4-8.4v-5.2
		h-5.8c-4.6,0-8.4-3.8-8.4-8.4s3.8-8.4,8.4-8.4H82v-7.3c0-4.6,3.8-8.4,8.4-8.4c2.3,0,4.4,0.9,6,2.5c1.5,1.5,2.5,3.6,2.5,6v7.3h6.7
		C110.2,93.7,114,97.5,114,102.1z"/>
	
		<ellipse transform="matrix(0.7071 -0.7071 0.7071 0.7071 -9.554536e-02 164.4209)" class="st7" cx="198.4" cy="82.3" rx="8.4" ry="8.4"/>
	<ellipse transform="matrix(0.7071 -0.7071 0.7071 0.7071 -8.124 184.0269)" class="st7" cx="218.1" cy="101.8" rx="8.4" ry="8.4"/>
	
		<ellipse transform="matrix(0.7071 -0.7071 0.7071 0.7071 -20.3575 155.5596)" class="st7" cx="177.6" cy="102.4" rx="8.4" ry="8.4"/>
	
		<ellipse transform="matrix(0.7071 -0.7071 0.7071 0.7071 -28.9706 176.2823)" class="st7" cx="198.3" cy="123.1" rx="8.4" ry="8.4"/>
</g>
<g id="Layer_14" class="st0">
	<g class="st15">
		<path class="st16" d="M76.3,27.8V66H25.9v87.6c0,17.6,14.2,32,31.8,32.2c0.6,0,1.1,0,1.7-0.1l-0.1,0.1h144.4
			c17.8,0,32.2-14.4,32.2-32.2V27.8H76.3z M58.2,172.5h-0.8c0.1,0,0.2,0,0.3,0c-10.2-0.3-18.5-8.7-18.5-18.9V79.2h37.1v74.4
			c0,10.3-8.2,18.7-18.5,18.9C58,172.5,58.1,172.5,58.2,172.5z M222.7,153.6c0,10.4-8.5,18.9-18.9,18.9H89.6V41.1h133.1V153.6z"/>
	</g>
	<g class="st15">
		<path class="st17" d="M59.9,185.8c-0.1,0-0.3,0-0.4,0h0.8C60.2,185.8,60.1,185.8,59.9,185.8z"/>
	</g>
	<path class="st18" d="M144.8,97.6h-26.7c-2.8,0-5-2.3-5-5V66.4c0-2.8,2.3-5,5-5h26.7c2.8,0,5,2.3,5,5v26.3
		C149.8,95.4,147.6,97.6,144.8,97.6z"/>
	<path class="st7" d="M201.2,75h-23.9c-1.9,0-3.4-1.5-3.4-3.4v-5.3c0-1.9,1.5-3.4,3.4-3.4h23.9c1.9,0,3.4,1.5,3.4,3.4v5.3
		C204.6,73.4,203.1,75,201.2,75z"/>
	<path class="st7" d="M201.2,99.9h-23.9c-1.9,0-3.4-1.5-3.4-3.4v-5.3c0-1.9,1.5-3.4,3.4-3.4h23.9c1.9,0,3.4,1.5,3.4,3.4v5.3
		C204.6,98.4,203.1,99.9,201.2,99.9z"/>
	<path class="st7" d="M198.5,132.8h-84.3c-3.4,0-6.1-2.7-6.1-6.1l0,0c0-3.4,2.7-6.1,6.1-6.1h84.3c3.4,0,6.1,2.7,6.1,6.1l0,0
		C204.6,130,201.9,132.8,198.5,132.8z"/>
	<path class="st7" d="M198.5,158.8h-84.3c-3.4,0-6.1-2.7-6.1-6.1l0,0c0-3.4,2.7-6.1,6.1-6.1h84.3c3.4,0,6.1,2.7,6.1,6.1l0,0
		C204.6,156,201.9,158.8,198.5,158.8z"/>
</g>
<g id="Layer_15" class="st0">
	<path class="st19" d="M195.8,119.8c0,33.2-30,60-66.9,60S62,152.9,62,119.8c0-21.7,12.9-40.7,32.1-51.3c10.2-5.6,22.1-8.8,34.8-8.8
		c13.3,0,25.7,3.5,36.1,9.5C183.5,79.9,195.8,98.5,195.8,119.8z"/>
	<path class="st20" d="M138.4,118.6c0-7.3,5.9,0.2,13.2,0.2s13.2-7.5,13.2-0.2s-5.9,13.2-13.2,13.2
		C144.3,131.8,138.4,125.9,138.4,118.6z"/>
	<path class="st20" d="M92.8,118.6c0-7.3,5.7,0.2,13,0.2s13.5-7.5,13.5-0.2s-5.9,13.2-13.2,13.2C98.8,131.8,92.8,125.9,92.8,118.6z"
		/>
	<path class="st21" d="M121.5,55c13.3-0.4,29.1,2.2,40.4,7.4c-0.5,1-5.4,8.6-6.1,9.5c-0.6,0.7-1.3,1.6-2.1,2.5
		c0.9,1,1.6,1.9,2.2,2.7c6.4,8.3,9.9,25.1,1.6,31.6c-8.3,6.4-25.1,0-31.6-8.3c-1-1.3-2.2-2.9-3.6-4.9c0.1-0.2,0.2-0.4,0.4-0.6
		c0.8,0,1.5-0.1,2.3-0.3c-0.8,0.2-1.5,0.2-2.3,0.3c-0.2,0-0.4,0-0.6,0c-0.1,0-0.1,0-0.2,0c-0.9,0-1.7-0.1-2.6-0.3
		c0.9,0.2,1.7,0.3,2.6,0.3c0.1,0.2,0.2,0.4,0.4,0.5c-1.3,2-2.6,3.6-3.6,4.9c-6.2,8.4-28,19.7-36.3,13.3c-8.3-6.4,0.2-28.2,6.6-36.5
		c0.6-0.7,1.3-1.6,2.1-2.5c-0.9-1-1.6-1.9-2.2-2.7l-3-3.9C85.9,68.1,105.4,55.5,121.5,55z"/>
	<path class="st22" d="M157.1,102c-6.5,5.1-19.7,0-24.8-6.5c-0.8-1-1.7-2.3-2.8-3.9c0.1-0.1,0.2-0.3,0.3-0.4c0.6,0,1.2-0.1,1.8-0.2
		c-0.6,0.1-1.2,0.2-1.8,0.2c-0.1,0-0.3,0-0.4,0c-0.1,0-0.1,0-0.2,0c-0.7,0-1.4-0.1-2.1-0.2c0.7,0.2,1.4,0.2,2.1,0.2
		c0.1,0.1,0.2,0.3,0.3,0.4c-1,1.5-2,2.9-2.8,3.9c-5,6.5-22.2,15.4-28.6,10.4c-6.5-5,0.1-22.2,5.2-28.6c0.4-0.6,1-1.2,1.6-1.9
		c-0.7-0.8-1.3-1.5-1.7-2.1c-5.1-6.5-5.5-17.4,1-22.5c6.5-5,17.4-2.3,22.5,4.2c0.8,1,1.7,2.3,2.8,3.9c-0.1,0.1-0.2,0.3-0.3,0.4
		c-0.6,0-1.2,0.1-1.8,0.2c0.6-0.1,1.2-0.2,1.8-0.2c0.1,0,0.3,0,0.4,0c0.1,0,0.1,0,0.2,0c0.7,0,1.3,0.1,2,0.2c-0.7-0.2-1.3-0.2-2-0.2
		c-0.1-0.1-0.2-0.3-0.3-0.4c1-1.5,2-2.9,2.8-3.9c5.1-6.5,14.4-7.6,20.9-2.6c6.5,5.1,7.6,14.4,2.6,20.9c-0.4,0.6-1,1.2-1.6,1.9
		c0.7,0.8,1.3,1.5,1.8,2.1C160.8,83.7,163.6,97,157.1,102z"/>
	<path class="st23" d="M145.8,92.5c-3.9,3.1-12,0-15.1-3.9c-0.5-0.6-1.1-1.4-1.7-2.3c0.1-0.1,0.1-0.2,0.2-0.3c0.4,0,0.7-0.1,1.1-0.1
		c-0.4,0.1-0.7,0.1-1.1,0.1c-0.1,0-0.2,0-0.3,0h-0.1c-0.4,0-0.8-0.1-1.3-0.1c0.4,0.1,0.8,0.1,1.3,0.1c0.1,0.1,0.1,0.2,0.2,0.3
		c-0.6,0.9-1.2,1.7-1.7,2.3c-3.1,4-13.5,9.4-17.5,6.3c-3.9-3.1,0.1-13.5,3.2-17.5c0.3-0.4,0.6-0.7,1-1.2c-0.4-0.5-0.8-0.9-1.1-1.3
		c-3.1-4-3.3-10.6,0.6-13.7c4-3.1,10.6-1.4,13.7,2.6c0.5,0.6,1.1,1.4,1.7,2.3c-0.1,0.1-0.1,0.2-0.2,0.3c-0.4,0-0.7,0.1-1.1,0.1
		c0.4-0.1,0.7-0.1,1.1-0.1c0.1,0,0.2,0,0.3,0h0.1c0.4,0,0.8,0.1,1.2,0.1c-0.4-0.1-0.8-0.1-1.2-0.1c-0.1-0.1-0.1-0.2-0.2-0.3
		c0.6-0.9,1.2-1.7,1.7-2.3c3.1-3.9,8.8-4.7,12.7-1.6c4,3.1,4.7,8.8,1.6,12.7c-0.3,0.4-0.6,0.7-1,1.2c0.4,0.5,0.8,0.9,1.1,1.3
		C148.1,81.4,149.7,89.4,145.8,92.5z"/>
	<path class="st24" d="M154.6,51.3c-0.7,0.5-1.5,1-2.1,1.5c-16.6,12.5-16,27.7-26.4,23.3c-0.2-0.1-0.3-0.1-0.5-0.2
		c-12.5-5.8-3.5-29.9,0.1-37.9c3.7-8,13.1-11.4,21.1-7.7C154.8,33.9,161.8,46.4,154.6,51.3z"/>
	<path class="st25" d="M152.4,52.9c-16.5,12.4-15.9,27.6-26.3,23.2c1.4-6.3,3.8-12.3,5.3-15.5C135.1,52.7,144.5,49.2,152.4,52.9z"/>
	
		<ellipse transform="matrix(0.9721 -0.2345 0.2345 0.9721 -19.5473 45.8639)" class="st26" cx="183.1" cy="105.1" rx="12.3" ry="16.7"/>
	<path class="st27" d="M160.8,158.5c-11.1,1.7-21,0.3-27.6-3.6c-2.5-1.5-3.8-3.7-4.2-6c-0.4,2.3-1.7,4.6-4.2,6
		c-6.6,3.9-16.5,5.3-27.6,3.6C77.6,155.4,81,138.8,81,138.8S79.4,157,99.6,145c8.2-4.9,15.3-6.3,20.8-6.3c4.9,0,8,3.5,8.6,7.4
		c0.6-3.9,3.8-7.4,8.6-7.4c5.5,0,12.6,1.4,20.8,6.3c20.1,12,18.6-6.2,18.6-6.2S180.5,155.4,160.8,158.5z"/>
</g>
<g id="Layer_16" class="st0">
	<path class="st28" d="M195.9,119.7c0,33.2-30,60.2-67.1,60.2S61.7,153,61.7,119.7c0-21.8,12.9-40.8,32.2-51.4
		c10.2-5.6,22.1-8.8,34.9-8.8c13.3,0,25.8,3.5,36.2,9.5C183.6,79.7,195.9,98.4,195.9,119.7z"/>
	<path class="st20" d="M119.2,133c0,7.3-5.9-0.2-13.3-0.2c-7.4,0-13.2,7.5-13.2,0.2s5.9-13.3,13.3-13.3
		C113.4,119.7,119.2,125.7,119.2,133z"/>
	<path class="st20" d="M165,133c0,7.3-5.7-0.2-13.1-0.2c-7.4,0-13.5,7.6-13.5,0.2c0-7.3,5.9-13.3,13.3-13.3
		C159.1,119.7,165,125.7,165,133z"/>
	<path class="st21" d="M121.4,54.8c13.3-0.4,29.2,2.2,40.5,7.4c-0.5,1-5.4,8.7-6.1,9.5c-0.6,0.7-1.3,1.6-2.1,2.5
		c0.9,1,1.6,1.9,2.2,2.7c6.4,8.3,9.9,25.2,1.6,31.6c-8.3,6.5-25.2,0-31.6-8.3c-1-1.3-2.2-3-3.6-4.9c0.1-0.2,0.2-0.4,0.4-0.6
		c0.8,0,1.6-0.1,2.3-0.3c-0.8,0.2-1.5,0.2-2.3,0.3c-0.2,0-0.4,0-0.6,0c-0.1,0-0.1,0-0.2,0c-0.9,0-1.7-0.1-2.6-0.3
		c0.9,0.2,1.7,0.3,2.6,0.3c0.1,0.2,0.2,0.4,0.4,0.5c-1.3,2-2.6,3.6-3.6,4.9c-6.4,8.3-28.3,19.7-36.6,13.2
		c-8.3-6.4,0.2-28.3,6.6-36.6c0.6-0.7,1.3-1.6,2.1-2.5c-0.9-1-1.6-1.9-2.2-2.7l-3-3.9C85.7,67.9,105.3,55.3,121.4,54.8z"/>
	<path class="st22" d="M157.1,101.9c-6.5,5.1-19.8,0-24.8-6.5c-0.8-1-1.8-2.3-2.8-3.9c0.1-0.1,0.2-0.3,0.3-0.4
		c0.6,0,1.2-0.1,1.8-0.2c-0.6,0.1-1.2,0.2-1.8,0.2c-0.1,0-0.3,0-0.4,0c-0.1,0-0.1,0-0.2,0c-0.7,0-1.4-0.1-2.1-0.2
		c0.7,0.2,1.4,0.2,2.1,0.2c0.1,0.1,0.2,0.3,0.3,0.4c-1.1,1.5-2,2.9-2.8,3.9c-5.1,6.5-22.3,15.5-28.8,10.4s0.1-22.2,5.2-28.7
		c0.4-0.6,1-1.2,1.6-1.9c-0.7-0.8-1.3-1.5-1.8-2.1c-5.1-6.5-5.5-17.5,1-22.6s17.4-2.3,22.5,4.2c0.8,1,1.7,2.3,2.8,3.9
		c-0.1,0.1-0.2,0.3-0.3,0.4c-0.6,0-1.2,0.1-1.8,0.2c0.6-0.1,1.2-0.2,1.8-0.2c0.1,0,0.3,0,0.4,0c0.1,0,0.1,0,0.2,0
		c0.7,0,1.4,0.1,2.1,0.2c-0.7-0.2-1.4-0.2-2.1-0.2c-0.1-0.1-0.2-0.3-0.3-0.4c1.1-1.5,2-2.9,2.8-3.9c5.1-6.5,14.4-7.7,20.9-2.6
		s7.7,14.4,2.6,20.9c-0.4,0.6-1,1.2-1.6,1.9c0.7,0.8,1.3,1.5,1.8,2.1C160.8,83.6,163.6,96.9,157.1,101.9z"/>
	<path class="st23" d="M145.7,92.4c-4,3.1-12.1,0-15.1-4c-0.5-0.6-1.1-1.4-1.7-2.4c0.1-0.1,0.1-0.2,0.2-0.3c0.4,0,0.7-0.1,1.1-0.1
		c-0.4,0.2-0.8,0.2-1.1,0.2c-0.1,0-0.2,0-0.3,0h-0.1c-0.4,0-0.8-0.1-1.3-0.1c0.4,0.1,0.8,0.1,1.3,0.1c0.1,0.1,0.1,0.2,0.2,0.3
		c-0.6,0.9-1.2,1.7-1.7,2.4c-3.1,4-13.5,9.4-17.5,6.3s0.1-13.5,3.2-17.5c0.3-0.4,0.6-0.7,1-1.2c-0.4-0.5-0.8-0.9-1.1-1.3
		c-3.1-4-3.3-10.7,0.6-13.7c4-3.1,10.6-1.4,13.7,2.6c0.5,0.6,1.1,1.4,1.7,2.4c-0.1,0.1-0.1,0.2-0.2,0.3c-0.4,0-0.7,0.1-1.1,0.1
		c0.4-0.1,0.7-0.1,1.1-0.1c0.1,0,0.2,0,0.3,0h0.1c0.4,0,0.8,0.1,1.3,0.1c-0.4-0.1-0.8-0.1-1.3-0.1c-0.1-0.1-0.1-0.2-0.2-0.3
		c0.6-0.9,1.2-1.7,1.7-2.4c3.1-4,8.8-4.7,12.8-1.6s4.7,8.8,1.6,12.8c-0.3,0.4-0.6,0.7-1,1.2c0.4,0.5,0.8,0.9,1.1,1.3
		C148,81.2,149.7,89.3,145.7,92.4z"/>
	<path class="st24" d="M154.4,51.3c-0.7,0.5-1.5,1-2.1,1.5C135.8,65.2,136.4,80.4,126,76c-0.2-0.1-0.3-0.2-0.5-0.2
		c-12.4-5.7-3.5-29.9,0.1-37.8c3.7-7.9,13.1-11.4,21-7.7C154.6,33.9,161.6,46.4,154.4,51.3z"/>
	<path class="st25" d="M152.2,52.8C135.8,65.2,136.4,80.4,126,76c1.4-6.3,3.8-12.2,5.3-15.5C134.9,52.6,144.3,49.1,152.2,52.8z"/>
	
		<ellipse transform="matrix(0.9721 -0.2345 0.2345 0.9721 -19.5418 45.8904)" class="st26" cx="183.2" cy="105.1" rx="12.3" ry="16.8"/>
</g>
<g id="Layer_17" class="st0">
	<path class="st29" d="M184.7,171.7l-11.3-7.5c-2.3-1.6-5.5-1.3-7.5,0.7l-19.4,11.2c-0.7,0.4-1.4,0.9-2.1,1.4
		c-2.1,1.5-4.8,1.4-6.9,0c-0.7-0.5-1.4-1-2.1-1.4l-18.9-11.2c-2-2-5.1-2.3-7.5-0.7l-11.8,7.7c-4,2.6-9.3-0.3-9.3-5V82.4
		c0-26,21.3-47.3,47.3-47.3h11.5c26,0,47.3,21.3,47.3,47.3v84.4C194,171.5,188.7,174.4,184.7,171.7z"/>
	<path class="st30" d="M184.9,172l-11.3-7.5c-2.3-1.6-5.5-1.3-7.5,0.7l-19.4,11.2c-0.7,0.4-1.4,0.9-2.1,1.4c-2.1,1.5-4.8,1.4-6.9,0
		c-0.7-0.5-1.4-1-2.1-1.4l-18.9-11.2c-2-2-5.1-2.3-7.5-0.7l-11.8,7.7c-4,2.6-9.3-0.3-9.3-5v-8.8c0-26,52.2-47.3,78.2-47.3h11.4
		c26,0,16.5,21.3,16.5,47.3v8.7C194.3,171.8,188.9,174.7,184.9,172z"/>
	<g class="st15">
		<path class="st31" d="M141,184.8c-2.5,0-5-0.8-7.1-2.3l-0.3-0.2c-0.5-0.4-1-0.7-1.3-0.9l-19.6-11.5l-0.4-0.4l-11.7,7.6
			c-3.8,2.5-8.5,2.7-12.5,0.5c-3.9-2.1-6.4-6.3-6.4-10.7V82.4c0-29.6,24-53.6,53.6-53.6h11.4c29.5,0,53.6,24,53.6,53.6v84.4
			c0,4.5-2.5,8.6-6.5,10.8c-4,2.1-8.8,1.9-12.5-0.6l0,0l-11.2-7.4l-0.4,0.4l-20,11.6c-0.4,0.2-0.9,0.6-1.4,0.9l-0.2,0.1
			C145.9,184.1,143.5,184.8,141,184.8z M120.2,159.9l18.4,10.8c0.9,0.5,1.6,1,2.3,1.5l0.1,0.1h0.1c0.7-0.5,1.4-1,2.3-1.5l18.8-11
			c4.1-3.4,10.1-3.8,14.6-0.8l11,7.3v-84c0-22.7-18.4-41.1-41.1-41.1h-11.4c-22.7,0-41.1,18.4-41.1,41.1v84.1l11.5-7.5
			C110.1,156,116.1,156.4,120.2,159.9z"/>
	</g>
	<circle class="st32" cx="110.4" cy="94.3" r="12.7"/>
	<circle class="st32" cx="150.6" cy="94.3" r="12.7"/>
</g>
<g id="Layer_18" class="st0">
	<path class="st33" d="M184.9,171.7l-11.3-7.5c-2.3-1.6-5.5-1.3-7.5,0.7l-19.4,11.2c-0.7,0.4-1.4,0.9-2.1,1.4
		c-2.1,1.5-4.8,1.4-6.9,0c-0.7-0.5-1.4-1-2.1-1.4l-18.9-11.2c-2-2-5.1-2.3-7.5-0.7l-11.8,7.7c-4,2.6-9.3-0.3-9.3-5V82.4
		c0-26,21.3-47.3,47.3-47.3h11.4c26,0,47.3,21.3,47.3,47.3v84.4C194.2,171.5,188.9,174.4,184.9,171.7z"/>
	<path class="st34" d="M185.2,172l-11.3-7.5c-2.3-1.6-5.5-1.3-7.5,0.7L147,176.4c-0.7,0.4-1.4,0.9-2.1,1.4c-2.1,1.5-4.8,1.4-6.9,0
		c-0.7-0.5-1.4-1-2.1-1.4L117,165.2c-2-2-5.1-2.3-7.5-0.7l-11.8,7.6c-4,2.6-9.3-0.3-9.3-5v-8.8c0-26,52.2-47.3,78.2-47.3H178
		c26,0,16.5,21.3,16.5,47.3v8.7C194.5,171.8,189.2,174.7,185.2,172z"/>
	<g class="st15">
		<path class="st35" d="M141.2,184.8c-2.5,0-5-0.8-7.1-2.3l-0.3-0.2c-0.5-0.4-1-0.7-1.3-0.9l-19.6-11.5l-0.4-0.4l-11.7,7.6
			c-3.8,2.5-8.5,2.7-12.5,0.5c-3.9-2.1-6.4-6.3-6.4-10.7V82.4c0-29.6,24.1-53.6,53.6-53.6h11.4c29.5,0,53.6,24,53.6,53.6v84.4
			c0,4.5-2.5,8.6-6.5,10.8c-4,2.1-8.8,1.9-12.5-0.6l0,0l-11.2-7.4l-0.4,0.4l-20,11.6c-0.4,0.2-0.9,0.6-1.4,0.9l-0.2,0.1
			C146.2,184.1,143.7,184.8,141.2,184.8z M120.5,159.9l18.4,10.8c0.9,0.5,1.6,1,2.3,1.5l0.1,0.1h0.1c0.7-0.5,1.4-1,2.3-1.5l18.8-11
			c4.1-3.4,10.1-3.8,14.6-0.8l11,7.3v-84c0-22.7-18.4-41.1-41.1-41.1h-11.5c-22.7,0-41.1,18.4-41.1,41.1v84.1l11.5-7.5
			C110.4,156,116.4,156.4,120.5,159.9z"/>
	</g>
	<circle class="st36" cx="110.7" cy="94.3" r="12.7"/>
	<circle class="st36" cx="150.8" cy="94.3" r="12.7"/>
</g>
<path class="st37" d="M225.5,107.6v77.1h-213v-77.1c0-52.3,42.8-95.1,95.1-95.1h22.9C182.7,12.5,225.5,55.3,225.5,107.6z"/>
<path class="st38" d="M227.6,184.7c-0.5-1.9-1.2-3.6-2.1-5.3c-2.5-4.9-6.5-8.8-12.5-11.2c-5.1-2.1-11.7-3.2-20.1-3.2h-22.9
	c-21.6,0-52.3,7.3-80.8,19.7H213h12.5H227.6z"/>
<g>
	<path class="st39" d="M130.4,0h-22.9C48.3,0,0,48.3,0,107.6v77.1h25v-77.1C25,62,62,25,107.6,25h22.9C176,25,213,62,213,107.6v77.1
		h25v-77.1C238,48.3,189.7,0,130.4,0z"/>
</g>
<circle class="st40" cx="71.7" cy="131.5" r="30.2"/>
<circle class="st40" cx="163.7" cy="131.5" r="30.2"/>
</svg>
