<?xml version="1.0" encoding="utf-8"?>
<!-- Generator: Adobe Illustrator 21.0.2, SVG Export Plug-In . SVG Version: 6.00 Build 0)  -->
<svg version="1.1" id="Layer_1" xmlns="http://www.w3.org/2000/svg" xmlns:xlink="http://www.w3.org/1999/xlink" x="0px" y="0px"
	 viewBox="0 0 243 344" style="enable-background:new 0 0 243 344;" xml:space="preserve">
<style type="text/css">
	.st0{fill:#2DA6E2;}
	.st1{fill:#EACA71;}
	.st2{fill:#F490A8;}
	.st3{fill:#D5EDF7;}
	.st4{fill:#3088C4;}
	.st5{fill:#EFA55B;}
	.st6{fill:none;stroke:#F8FEFF;stroke-width:10;stroke-linecap:round;stroke-linejoin:round;stroke-miterlimit:10;}
	.st7{fill:#F8FEFF;}
</style>
<path class="st0" d="M177.1,128.5v129.6c-5.9,2.9-12,5.4-18.2,7.4H84c-6.8-2.2-13.5-4.9-20-8.2V128.5h35.4v36.6c0,12.1,9.9,22,22,22
	s22-9.9,22-22v-36.6H177.1z"/>
<path class="st1" d="M152.4,286.5c0,0.4,0,0.8-0.1,1.1v0.3l-0.3,0.8c-4.4,17.1-11.7,33-21.7,47.5h-17.7
	c-10-14.5-17.3-30.5-21.7-47.6l0-0.1l-0.1-0.2c0-0.1-0.1-0.2-0.1-0.3c-0.1-0.4-0.2-0.7-0.2-1.1c-0.2-1.7-0.1-3.5,0.5-5.2
	c2-6.1,8.5-9.6,14.7-7.8c0.1,0,0.1,0,0.2,0.1c0,0,0.1,0,0.1,0l0,0v0c0,0,0,0,0,0c4.9,1.6,9.9,2.4,15.1,2.4c5.2,0,10.4-0.7,15.3-2.3
	l0.9-0.5h0.7c1.8-0.4,3.6-0.3,5.4,0.1C149.2,275.4,152.9,280.8,152.4,286.5z"/>
<path class="st2" d="M62.7,102.3v154.4c-9,1.8-18.1,2.7-27.3,2.7h-0.6c-8.3,0-16.7-0.8-24.8-2.3l0,0h0c-0.1,0-0.2,0-0.3-0.1
	c-5.6-1.2-9.6-6.1-9.5-11.8v0l0-0.1v-0.1c1.5-44.1,19.3-85.9,49.9-117.7l0,0c0,0,0,0,0,0l0.1-0.1c0,0,0,0,0,0c2-2,4.7-3.2,7.5-3.4
	c0-0.5,0.1-1.1,0.1-1.6c0.1-0.8,0.1-1.6,0.2-2.4c0.1-1.6,0.3-3.2,0.5-4.8v0c0-0.1,0-0.2,0-0.3l0-0.2c0,0,0,0,0,0c0.5-4,1.1-8,1.9-12
	H62.7z"/>
<path class="st2" d="M180.2,102.3v154.4c9,1.8,18.1,2.7,27.3,2.7h0.6c8.3,0,16.7-0.8,24.8-2.3l0,0h0c0.1,0,0.2,0,0.3-0.1
	c5.6-1.2,9.6-6.1,9.5-11.8v0l0-0.1v-0.1c-1.5-44.1-19.3-85.9-49.9-117.7l0,0c0,0,0,0,0,0l-0.1-0.1c0,0,0,0,0,0c-2-2-4.7-3.2-7.5-3.4
	c0-0.5-0.1-1.1-0.1-1.6c-0.1-0.8-0.1-1.6-0.2-2.4c-0.1-1.6-0.3-3.2-0.5-4.8v0c0-0.1,0-0.2,0-0.3l0-0.2c0,0,0,0,0,0
	c-0.5-4-1.1-8-1.9-12H180.2z"/>
<path class="st3" d="M181,96.9V201h-8.9v-64.5c0-0.4,0-0.9,0-1.3c-2.4,1-5,1.6-7.8,1.6h-7.6v28.5c0,19.4-15.8,35.3-35.3,35.3
	c-19.4,0-35.2-15.8-35.3-35.2v-28.5h-7.6c-0.8,0-1.6,0-2.4-0.1c-1.9-0.2-3.7-0.7-5.4-1.5c0,0.5,0,0.9,0,1.4V201H57.5v-62.2
	c-8.5,9.1-15.8,19.1-22,29.8v-24.1c4.5-6,9.4-11.8,14.7-17.3l0,0c0,0,0,0,0,0l0.1-0.1c0,0,0,0,0,0c2-2,4.7-3.2,7.5-3.4
	c0-0.5,0.1-1.1,0.1-1.6c0.1-0.8,0.1-1.6,0.2-2.4c0.1-1.6,0.3-3.2,0.5-4.8v0c0-0.1,0-0.2,0-0.3l0-0.2c0,0,0,0,0,0c0.5-4,1.1-8,1.9-12
	c1.7-8.5,3.9-16.8,6.8-25c0,0,0-0.1,0.1-0.2l1.5-4.3h0.1c9.4-24.5,24.2-46.9,43.2-65.2l0.3-0.5l1.1-0.8c4.5-3.8,11.3-3.7,15.7,0.3
	l0.1,0.1l0.2,0.2c19.3,18.4,34.5,41,43.9,65.8h0.1l1.6,4.4C177.6,83.7,179.5,90.2,181,96.9z"/>
<g>
	<path class="st4" d="M192.7,127.2L192.7,127.2l-0.1-0.1c0,0,0,0-0.1,0c0,0,0,0,0,0c-1-1-2.3-1.8-3.5-2.4c-1.3-0.6-2.6-0.9-4-1
		c0-0.5-0.1-1.1-0.1-1.6c-0.1-0.8-0.1-1.6-0.2-2.4c-0.1-1.6-0.3-3.2-0.5-4.8c0,0,0,0,0,0c0-0.1,0-0.2,0-0.3c0,0,0-0.1,0-0.1
		c-0.7-5.9-1.8-11.7-3-17.4c-1.5-6.7-3.4-13.2-5.7-19.7l-1.6-4.4h-0.1C164.2,48,149.1,25.3,129.8,7l-0.2-0.2l-0.1-0.1
		c-4.4-4-11.2-4.1-15.7-0.3l-1.1,0.8l-0.3,0.5c-19,18.3-33.9,40.7-43.2,65.2h-0.1l-1.5,4.3c0,0,0,0.1-0.1,0.2
		c-2.9,8.1-5.1,16.5-6.8,25c-0.8,4-1.4,8-1.9,12c0,0,0,0,0,0l0,0.2c0,0.1,0,0.2,0,0.3v0c-0.2,1.6-0.4,3.2-0.5,4.8
		c-0.1,0.8-0.2,1.6-0.2,2.4c0,0.5-0.1,1.1-0.1,1.6c-2.8,0.2-5.5,1.4-7.5,3.4c0,0,0,0,0,0l-0.1,0.1c0,0,0,0,0,0l0,0
		c-5.3,5.5-10.2,11.3-14.7,17.3c-21.6,29-34,63.9-35.3,100.4v0.1l0,0.1v0c-0.1,5.7,3.9,10.6,9.5,11.8c0.1,0,0.2,0,0.3,0.1h0l0,0
		c8.2,1.5,16.5,2.3,24.8,2.3h0.6c9.2,0,18.3-0.9,27.3-2.7c0.1,0,0.1,0,0.2,0c0.4,0.2,0.8,0.4,1.2,0.6c6.5,3.3,13.1,6.1,20,8.3
		c12.2,3.8,24.8,5.8,37.4,5.8c12.6,0,25.3-2,37.4-5.8c6.2-2,12.3-4.4,18.2-7.4c1-0.5,2-1,2.9-1.5c8.8,1.8,17.8,2.7,26.8,2.7h0.6
		c8.5,0,17-0.8,25.3-2.3c0.1,0,0.1,0,0.2,0c0,0,0,0,0,0l0.1,0c0.1,0,0.2,0,0.2-0.1h0c4.7-1,8.3-4.7,9.2-9.5c0.1-0.8,0.2-1.6,0.2-2.4
		c0-0.1,0-0.2,0-0.2C241.1,200.7,223.4,159,192.7,127.2z M72,116.1c1.4-11.5,4-22.8,7.8-33.6l0.3-0.8c0,0,0,0,0,0l0-0.1
		c8.5-24.2,22.8-46.4,41.4-64.3c18.6,17.9,32.9,40.1,41.4,64.3c0,0,0,0.1,0,0.1l0.2,0.7c3.7,10.8,6.3,22,7.8,33.4c0,0.1,0,0.1,0,0.2
		l0,0.2c0,0.2,0,0.5,0,0.7c0,3.7-3,6.6-6.6,6.6l-20.9,0v41.7c0,12.2-9.9,22-22,22s-22-9.9-22-22v-41.7H78.6c-0.3,0-0.5,0-0.8,0
		C74.2,123,71.6,119.7,72,116.1z M57.5,244.2c-7.4,1.3-15,2-22.6,1.9c-7.1,0-14.3-0.7-21.4-1.9c1.1-26.8,8.7-52.8,22-75.7
		c6.1-10.6,13.5-20.6,22-29.8V244.2z M172.1,245.8c-11.8,6-29.3,12.3-50.7,12.3s-38.9-6.3-50.7-12.3V136.5c0-0.5,0-0.9,0-1.4
		c1.7,0.7,3.5,1.2,5.4,1.5c0.8,0.1,1.6,0.1,2.4,0.1h7.6v28.5c0.1,19.4,15.9,35.2,35.3,35.2c19.5,0,35.3-15.8,35.3-35.3v-28.5h7.6
		c2.8,0,5.4-0.6,7.8-1.6c0,0.4,0,0.9,0,1.3V245.8z M206.9,246.1c-7.2,0-14.4-0.7-21.5-1.9V138.8c26.7,28.8,42.3,66.1,43.9,105.4
		C222,245.5,214.4,246.1,206.9,246.1z"/>
	<path class="st5" d="M143.5,273.9c-1.8-0.5-3.6-0.5-5.4-0.1h-0.7l-0.9,0.5c-5,1.5-10.1,2.3-15.3,2.3c-5.1,0-10.2-0.8-15.1-2.4
		c0,0,0,0,0,0v0l0,0c0,0-0.1,0-0.1,0c-0.1,0-0.1,0-0.2-0.1c-6.2-1.8-12.7,1.7-14.7,7.8c-0.5,1.7-0.7,3.4-0.5,5.2
		c0,0.4,0.1,0.7,0.2,1.1c0,0.1,0,0.2,0.1,0.3l0.1,0.2l0,0.1c4.4,17.1,11.7,33.1,21.7,47.6c1.1,1.6,2.3,3.2,3.5,4.8
		c0,0,0.1,0.1,0.1,0.1c0,0,0,0,0,0v0c0.1,0.1,0.2,0.2,0.2,0.3c0,0,0,0,0,0c0.1,0.1,0.1,0.2,0.2,0.3c0,0,0,0,0,0
		c0.1,0.1,0.2,0.2,0.2,0.2c0.1,0.1,0.1,0.1,0.2,0.2c0,0,0,0,0.1,0.1l0.2,0.2c0,0,0,0,0,0c0,0,0,0,0,0c0.1,0.1,0.3,0.2,0.4,0.3
		c0,0,0,0,0,0c0.1,0.1,0.3,0.2,0.4,0.2c0,0,0.1,0,0.1,0c0.1,0.1,0.3,0.1,0.4,0.2c0,0,0.1,0,0.1,0c0.1,0,0.2,0.1,0.4,0.1
		c0.1,0,0.1,0.1,0.2,0.1c0.1,0,0.2,0,0.3,0.1c0.1,0,0.1,0,0.2,0c0.1,0,0.3,0.1,0.4,0.1c0.1,0,0.1,0,0.2,0c0.1,0,0.2,0,0.3,0
		c0.1,0,0.1,0,0.2,0c0.1,0,0.3,0,0.4,0h0.1c0.2,0,0.3,0,0.5,0c0,0,0.1,0,0.1,0c0.1,0,0.2,0,0.3,0c0.1,0,0.1,0,0.2,0
		c0.1,0,0.3-0.1,0.4-0.1c0,0,0.1,0,0.2,0c0.1,0,0.2,0,0.3-0.1c0.1,0,0.1,0,0.2-0.1c0.1-0.1,0.3-0.1,0.4-0.2c0,0,0,0,0.1,0
		c0.1-0.1,0.3-0.1,0.4-0.2l0.1,0c0.1-0.1,0.3-0.2,0.4-0.2c0,0,0,0,0,0c0.2-0.1,0.3-0.2,0.4-0.3c0,0,0,0,0,0c0,0,0,0,0,0
		c0.1-0.1,0.1-0.1,0.2-0.2c0,0,0,0,0.1-0.1c0.1-0.1,0.2-0.1,0.2-0.2c0.1-0.1,0.2-0.1,0.2-0.2c0,0,0,0,0-0.1c0.1-0.1,0.2-0.2,0.2-0.3
		c0,0,0,0,0,0c0.1-0.1,0.2-0.2,0.2-0.3c0,0,0,0,0,0c0,0,0,0,0,0c0,0,0.1-0.1,0.1-0.1c1.2-1.6,2.3-3.2,3.4-4.8
		c10-14.5,17.3-30.4,21.7-47.5l0.3-0.8v-0.3c0.1-0.4,0.1-0.8,0.1-1.1C152.9,280.8,149.2,275.4,143.5,273.9z M121.4,325.6
		c-7.7-11.8-13.5-24.6-17.2-38.2c5.5,1.5,11.1,2.3,16.8,2.4h0.4c5.8,0,11.6-0.8,17.2-2.4C134.9,301,129.1,313.8,121.4,325.6z"/>
</g>
<path class="st6" d="M80.8,215.9v19.6c0,3.6,2.8,6.6,6.4,6.7c0,0,0.1,0,0.1,0"/>
<path class="st6" d="M121.4,35c0,0-8.8,6.3-21.5,29.5"/>
<circle class="st7" cx="91.3" cy="82" r="5.7"/>
<circle class="st7" cx="80.8" cy="198.8" r="4.9"/>
</svg>
