<?xml version="1.0" encoding="utf-8"?>
<!-- Generator: Adobe Illustrator 21.0.2, SVG Export Plug-In . SVG Version: 6.00 Build 0)  -->
<svg version="1.1" id="Layer_1" xmlns="http://www.w3.org/2000/svg" xmlns:xlink="http://www.w3.org/1999/xlink" x="0px" y="0px"
	 viewBox="0 0 202 172" style="enable-background:new 0 0 202 172;" xml:space="preserve">
<style type="text/css">
	.st0{fill:#FFFFFF;}
	.st1{fill:none;stroke:#3088C4;stroke-width:15;stroke-linecap:round;stroke-linejoin:round;stroke-miterlimit:10;}
	.st2{fill:#3088C4;}
</style>
<path class="st0" d="M192.3,155.3l-67.7-1.3c-11.2,6.3-24.1,9.9-37.9,9.9C44,164,9.4,129.4,9.4,86.6C9.4,43.9,44,9.3,86.7,9.3
	c42.7,0,77.3,34.6,77.3,77.3c0,2.8-0.1,5.5-0.4,8.2L192.3,155.3z"/>
<path class="st1" d="M164,85.4c-0.4-25-12.9-49.3-35.6-63.9C92.5-1.5,44.7,8.9,21.6,44.9S9,128.7,45,151.7
	c23.3,14.9,51.5,15.8,74.8,4.8"/>
<polyline class="st1" points="164,85.4 193.7,155.3 119.7,156.6 "/>
<path class="st1" d="M89.7,112.2l-2.2-11.7L83.1,77c0,0,25.6-4.8,27.8,6.9c2.2,11.7-23.4,16.6-23.4,16.6"/>
<path class="st1" d="M43.1,83.8c0,0,4.4,23.6,17.2,21.1C73,102.3,68.6,79,68.6,79"/>
<ellipse transform="matrix(0.9828 -0.1845 0.1845 0.9828 -15.0671 25.0254)" class="st2" cx="126.9" cy="93.5" rx="4.1" ry="4.1"/>
<line class="st1" x1="120.3" y1="58.3" x2="124.7" y2="81.8"/>
</svg>
