<?xml version="1.0" encoding="utf-8"?>
<!-- Generator: Adobe Illustrator 21.0.2, SVG Export Plug-In . SVG Version: 6.00 Build 0)  -->
<svg version="1.1" xmlns="http://www.w3.org/2000/svg" xmlns:xlink="http://www.w3.org/1999/xlink" x="0px" y="0px"
	 viewBox="0 0 119 156" style="enable-background:new 0 0 119 156;" xml:space="preserve">
<style type="text/css">
	.st0{display:none;}
	.st1{display:inline;fill:#EFEFEF;}
	.st2{display:inline;fill:#EF2648;}
	.st3{display:inline;fill:#154D84;}
	.st4{display:inline;fill:#555654;}
	.st5{display:inline;fill:#EF2648;stroke:#EF2648;stroke-width:3.7889;stroke-miterlimit:10;}
	.st6{display:inline;fill:none;stroke:#525D67;stroke-width:18;stroke-miterlimit:10;}
	.st7{display:inline;fill:#525D67;}
	.st8{display:inline;fill:none;stroke:#525D67;stroke-width:11.2615;stroke-miterlimit:10;}
	.st9{display:inline;fill:#EC2C55;}
	.st10{display:inline;fill:none;stroke:#EC2C55;stroke-width:18;stroke-miterlimit:10;}
	.st11{display:inline;fill:none;stroke:#525D67;stroke-width:12.0531;stroke-miterlimit:10;}
	.st12{display:inline;fill:#525D67;stroke:#525D67;stroke-width:3.3481;stroke-miterlimit:10;}
	.st13{display:inline;fill:#F81626;stroke:#F81626;stroke-width:8.1641;stroke-miterlimit:10;}
	.st14{display:inline;fill:none;stroke:#525D67;stroke-width:16.9612;stroke-miterlimit:10;}
	.st15{display:inline;}
	.st16{fill:#525D67;}
	.st17{fill:#545554;}
	.st18{display:inline;fill:none;stroke:#525D67;stroke-width:10.2123;stroke-miterlimit:10;}
	.st19{display:inline;fill:#CE3C51;stroke:#9B1B37;stroke-width:9.1207;stroke-miterlimit:10;}
	.st20{display:inline;fill:#F9D43A;}
	.st21{display:inline;opacity:0.3;fill:#514042;}
	.st22{display:inline;fill:#69A86D;}
	.st23{display:inline;opacity:0.6;fill:#576B67;}
	.st24{display:inline;fill:#618C67;}
	.st25{display:inline;opacity:0.4;fill:#576B67;}
	.st26{display:inline;opacity:0.3;fill:#F7C6CB;}
	.st27{display:inline;fill:#F9EDBB;}
	.st28{display:inline;fill:#E04457;stroke:#C12B44;stroke-width:9.1442;stroke-miterlimit:10;}
	.st29{fill:#797C79;}
	.st30{fill:#8A8E8A;}
	.st31{fill:#4F5151;}
	.st32{fill:#E5E5E5;}
</style>
<g id="Layer_1" class="st0">
	<path class="st1" d="M169.8,121v145.4c0,3.9-3.2,7-7,7H-78.6c-3.9,0-7-3.2-7-7V121c0-3.9,3.2-7,7-7h241.4
		C166.6,114,169.8,117.2,169.8,121z"/>
	<path class="st2" d="M170,185.4c0-2.3-1.9-4.2-4.2-4.2H54.9V118c0-2.1-1.7-3.8-3.8-3.8H46c-0.2,0-0.4,0-0.6,0.1
		c-0.2,0-0.4-0.1-0.6-0.1h-5.1c-0.2,0-0.4,0-0.6,0.1c-0.2,0-0.4-0.1-0.6-0.1h-5.1c-2.1,0-3.8,1.7-3.8,3.8v63.3H-81.2
		c-2.3,0-4.2,1.9-4.2,4.2v4.2c0,0.4,0.1,0.7,0.2,1.1c-0.1,0.3-0.2,0.7-0.2,1.1v4.2c0,0.4,0.1,0.7,0.2,1.1c-0.1,0.3-0.2,0.7-0.2,1.1
		v4.2c0,2.3,1.9,4.2,4.2,4.2H29.7v63.3c0,2.1,1.7,3.8,3.8,3.8h5.1c0.2,0,0.4,0,0.6-0.1c0.2,0,0.4,0.1,0.6,0.1h5.1
		c0.2,0,0.4,0,0.6-0.1c0.2,0,0.4,0.1,0.6,0.1h5.1c2.1,0,3.8-1.7,3.8-3.8v-63.3h110.9c2.3,0,4.2-1.9,4.2-4.2V198
		c0-0.4-0.1-0.7-0.2-1.1c0.1-0.3,0.2-0.7,0.2-1.1v-4.2c0-0.4-0.1-0.7-0.2-1.1c0.1-0.3,0.2-0.7,0.2-1.1V185.4z"/>
	<path class="st3" d="M169.8,219.1v33.3l-48.3-27.5c-2.8-1.6-1.7-5.8,1.5-5.8H169.8z"/>
	<path class="st3" d="M156,273.4H67.6v-46.2c0,0,0,0,0,0c0-1.8,2-2.9,3.6-2L156,273.4z"/>
	<path class="st3" d="M169.8,168.4v-33.3l-48.3,27.5c-2.8,1.6-1.7,5.8,1.5,5.8H169.8z"/>
	<path class="st3" d="M156,114H67.6v46.2c0,0,0,0,0,0c0,1.8,2,2.9,3.6,2L156,114z"/>
	<path class="st3" d="M-85.6,168.4v-33.3l48.3,27.5c2.8,1.6,1.7,5.8-1.5,5.8H-85.6z"/>
	<path class="st3" d="M-71.9,114h88.4v46.2c0,0,0,0,0,0c0,1.8-2,2.9-3.6,2L-71.9,114z"/>
	<path class="st3" d="M-85.6,219.1v33.3l48.3-27.5c2.8-1.6,1.7-5.8-1.5-5.8H-85.6z"/>
	<path class="st3" d="M-71.9,273.4h88.4v-46.2c0,0,0,0,0,0c0-1.8-2-2.9-3.6-2L-71.9,273.4z"/>
</g>
<g id="Layer_2" class="st0">
	<path class="st4" d="M-91,95.9v-0.4l0-4.3C-90.7,92.7-90.7,94.3-91,95.9z"/>
	<path class="st1" d="M169.8,121.9v144.5c0,3.8-3.1,7-7,7H-77c-3.8,0-7-3.1-7-7V121.9c0-3.8,3.1-7,7-7h239.8
		C166.7,114.9,169.8,118.1,169.8,121.9z"/>
	<path class="st2" d="M170,185.9c0-2.3-1.9-4.2-4.2-4.2H55.6v-62.8c0-2.1-1.7-3.7-3.7-3.7h-5c-0.2,0-0.4,0-0.6,0.1
		c-0.2,0-0.4-0.1-0.6-0.1h-5c-0.2,0-0.4,0-0.6,0.1c-0.2,0-0.4-0.1-0.6-0.1h-5c-2.1,0-3.7,1.7-3.7,3.7v62.8H-79.6
		c-2.3,0-4.2,1.9-4.2,4.2v4.1c0,0.4,0.1,0.7,0.1,1c-0.1,0.3-0.1,0.7-0.1,1.1v4.1c0,0.4,0.1,0.7,0.1,1c-0.1,0.3-0.1,0.7-0.1,1.1v4.1
		c0,2.3,1.9,4.2,4.2,4.2H30.6v62.8c0,2.1,1.7,3.7,3.7,3.7h5c0.2,0,0.4,0,0.6-0.1c0.2,0,0.4,0.1,0.6,0.1h5c0.2,0,0.4,0,0.6-0.1
		c0.2,0,0.4,0.1,0.6,0.1h5c2.1,0,3.7-1.7,3.7-3.7v-62.8h110.2c2.3,0,4.2-1.9,4.2-4.2v-4.1c0-0.4-0.1-0.7-0.1-1.1
		c0.1-0.3,0.1-0.7,0.1-1v-4.1c0-0.4-0.1-0.7-0.1-1.1c0.1-0.3,0.1-0.7,0.1-1V185.9z"/>
	<path class="st5" d="M134.3,143.3c0-0.4-0.3-0.7-0.7-0.7h-18.3v-10.4c0-0.3-0.3-0.6-0.6-0.6h-0.8c0,0-0.1,0-0.1,0c0,0-0.1,0-0.1,0
		h-0.8c0,0-0.1,0-0.1,0c0,0-0.1,0-0.1,0h-0.8c-0.3,0-0.6,0.3-0.6,0.6v10.4H92.9c-0.4,0-0.7,0.3-0.7,0.7v0.7c0,0.1,0,0.1,0,0.2
		c0,0.1,0,0.1,0,0.2v0.7c0,0.1,0,0.1,0,0.2c0,0.1,0,0.1,0,0.2v0.7c0,0.4,0.3,0.7,0.7,0.7h18.3v10.4c0,0.3,0.3,0.6,0.6,0.6h0.8
		c0,0,0.1,0,0.1,0c0,0,0.1,0,0.1,0h0.8c0,0,0.1,0,0.1,0c0,0,0.1,0,0.1,0h0.8c0.3,0,0.6-0.3,0.6-0.6v-10.4h18.3
		c0.4,0,0.7-0.3,0.7-0.7v-0.7c0-0.1,0-0.1,0-0.2c0-0.1,0-0.1,0-0.2v-0.7c0-0.1,0-0.1,0-0.2c0-0.1,0-0.1,0-0.2V143.3z"/>
	<path class="st5" d="M134.3,236.8c0-0.4-0.3-0.7-0.7-0.7h-18.3v-10.4c0-0.3-0.3-0.6-0.6-0.6h-0.8c0,0-0.1,0-0.1,0c0,0-0.1,0-0.1,0
		h-0.8c0,0-0.1,0-0.1,0c0,0-0.1,0-0.1,0h-0.8c-0.3,0-0.6,0.3-0.6,0.6v10.4H92.9c-0.4,0-0.7,0.3-0.7,0.7v0.7c0,0.1,0,0.1,0,0.2
		c0,0.1,0,0.1,0,0.2v0.7c0,0.1,0,0.1,0,0.2c0,0.1,0,0.1,0,0.2v0.7c0,0.4,0.3,0.7,0.7,0.7h18.3v10.4c0,0.3,0.3,0.6,0.6,0.6h0.8
		c0,0,0.1,0,0.1,0c0,0,0.1,0,0.1,0h0.8c0,0,0.1,0,0.1,0c0,0,0.1,0,0.1,0h0.8c0.3,0,0.6-0.3,0.6-0.6v-10.4h18.3
		c0.4,0,0.7-0.3,0.7-0.7v-0.7c0-0.1,0-0.1,0-0.2c0-0.1,0-0.1,0-0.2v-0.7c0-0.1,0-0.1,0-0.2c0-0.1,0-0.1,0-0.2V236.8z"/>
	<path class="st5" d="M-8.8,143.3c0-0.4-0.3-0.7-0.7-0.7h-18.3v-10.4c0-0.3-0.3-0.6-0.6-0.6h-0.8c0,0-0.1,0-0.1,0c0,0-0.1,0-0.1,0
		h-0.8c0,0-0.1,0-0.1,0c0,0-0.1,0-0.1,0h-0.8c-0.3,0-0.6,0.3-0.6,0.6v10.4h-18.3c-0.4,0-0.7,0.3-0.7,0.7v0.7c0,0.1,0,0.1,0,0.2
		c0,0.1,0,0.1,0,0.2v0.7c0,0.1,0,0.1,0,0.2c0,0.1,0,0.1,0,0.2v0.7c0,0.4,0.3,0.7,0.7,0.7h18.3v10.4c0,0.3,0.3,0.6,0.6,0.6h0.8
		c0,0,0.1,0,0.1,0c0,0,0.1,0,0.1,0h0.8c0,0,0.1,0,0.1,0c0,0,0.1,0,0.1,0h0.8c0.3,0,0.6-0.3,0.6-0.6v-10.4h18.3
		c0.4,0,0.7-0.3,0.7-0.7v-0.7c0-0.1,0-0.1,0-0.2c0-0.1,0-0.1,0-0.2v-0.7c0-0.1,0-0.1,0-0.2c0-0.1,0-0.1,0-0.2V143.3z"/>
	<path class="st5" d="M-8.8,236.8c0-0.4-0.3-0.7-0.7-0.7h-18.3v-10.4c0-0.3-0.3-0.6-0.6-0.6h-0.8c0,0-0.1,0-0.1,0c0,0-0.1,0-0.1,0
		h-0.8c0,0-0.1,0-0.1,0c0,0-0.1,0-0.1,0h-0.8c-0.3,0-0.6,0.3-0.6,0.6v10.4h-18.3c-0.4,0-0.7,0.3-0.7,0.7v0.7c0,0.1,0,0.1,0,0.2
		c0,0.1,0,0.1,0,0.2v0.7c0,0.1,0,0.1,0,0.2c0,0.1,0,0.1,0,0.2v0.7c0,0.4,0.3,0.7,0.7,0.7h18.3v10.4c0,0.3,0.3,0.6,0.6,0.6h0.8
		c0,0,0.1,0,0.1,0c0,0,0.1,0,0.1,0h0.8c0,0,0.1,0,0.1,0c0,0,0.1,0,0.1,0h0.8c0.3,0,0.6-0.3,0.6-0.6v-10.4h18.3
		c0.4,0,0.7-0.3,0.7-0.7v-0.7c0-0.1,0-0.1,0-0.2c0-0.1,0-0.1,0-0.2v-0.7c0-0.1,0-0.1,0-0.2c0-0.1,0-0.1,0-0.2V236.8z"/>
</g>
<g id="Layer_3" class="st0">
	<path class="st3" d="M-65.6,61.4c-29.1,42.8-18,101.4,24.8,130.5c38.8,26.4,90.5,19.8,121.5-13.6l66.9,45.5
		c3.2,2.2,7.1,2.9,10.6,2.2c3.6-0.7,6.9-2.7,9.1-5.9c4.4-6.5,2.7-15.3-3.7-19.7L96.8,155C116.6,113.8,103.9,63,65,36.6
		C22.1,7.4-36.4,18.6-65.6,61.4z M77,141.5c-1.8,4.2-4,8.4-6.7,12.3c-2.8,4.1-5.9,7.8-9.3,11.1c-23.5,22.7-60.4,26.6-88.4,7.5
		c-32.1-21.8-40.4-65.6-18.6-97.7c21.8-32.1,65.7-40.4,97.7-18.6C79.8,75.2,89.7,111.3,77,141.5z"/>
</g>
<g id="Layer_4" class="st0">
	<circle class="st3" cx="-49.3" cy="131.7" r="32.7"/>
	<circle class="st3" cx="44" cy="131.7" r="32.7"/>
	<circle class="st3" cx="137.3" cy="131.7" r="32.7"/>
</g>
<g id="Layer_5" class="st0">
	<circle class="st6" cx="44.5" cy="128.8" r="107.5"/>
	<path class="st7" d="M15.9,100.1v57.4c0,6.4,6.9,10.4,12.4,7.2l49.7-28.7c5.5-3.2,5.5-11.2,0-14.4L28.4,92.9
		C22.8,89.7,15.9,93.7,15.9,100.1z"/>
</g>
<g id="Layer_6" class="st0">
	<circle class="st8" cx="44.7" cy="128.7" r="109.7"/>
	<path class="st7" d="M4.5,85.5v86.3c0,9.6,10.4,15.6,18.7,10.8l74.7-43.1c8.3-4.8,8.3-16.8,0-21.6L23.2,74.7
		C14.9,69.9,4.5,75.9,4.5,85.5z"/>
</g>
<g id="Layer_7" class="st0">
	<path class="st7" d="M-7.7,126.8c0,14.9,12,26.9,26.9,26.9c6.5,0,12.4-2.3,17.1-6.1c4-3.3,9.8-3.3,13.8,0
		c4.6,3.8,10.6,6.1,17.1,6.1c14.9,0,26.9-12,26.9-26.9C94,98.7,48.9,68,43.2,68C37.4,68-7.7,98.6-7.7,126.8z"/>
	<path class="st7" d="M65.6,189.3H20.7c-3.1,0-4.6-3.7-2.5-5.9c10.8-11.1,19.4-22.5,25-22.5c5.6,0,14.2,11.4,24.9,22.5
		C70.2,185.6,68.6,189.3,65.6,189.3z"/>
	<circle class="st6" cx="44.1" cy="128.8" r="104.4"/>
</g>
<g id="Layer_8" class="st0">
	<path class="st9" d="M59,133.5h25.1v-26.2H59V71.4h33.1l-5.2-28.3H56.1L27.9,99.7v95.1h57.7l5.2-28.3H59V133.5z M27.9,43.1v33.8
		l26.3-33.8H27.9z"/>
	<circle class="st10" cx="54.8" cy="119" r="115"/>
</g>
<g id="Layer_9" class="st0">
	<circle class="st11" cx="58.5" cy="114.5" r="113.5"/>
	<path class="st12" d="M111.1,167.1L111.1,167.1c-2.2,2.2-5.8,2.2-8,0l-44.2-44.2l-44.2,44.2c-2.2,2.2-5.8,2.2-8,0l0,0
		c-2.2-2.2-2.2-5.8,0-8l44.2-44.2L6.6,70.6c-2.2-2.2-2.2-5.8,0-8l0,0c2.2-2.2,5.8-2.2,8,0l44.2,44.2L103,62.6c2.2-2.2,5.8-2.2,8,0
		l0,0c2.2,2.2,2.2,5.8,0,8l-44.2,44.2l44.2,44.2C113.3,161.3,113.3,164.9,111.1,167.1z"/>
</g>
<g id="Layer_10" class="st0">
	<path class="st13" d="M59.4,76.1l-37.6,30.2l13.1,46.5h47.4 M59.4,76.1l-37.6,30.2l13.1,46.5h47.4L97,106.3L59.4,76.1z M59.1-0.7
		C-4.5-0.8-56,50.8-56,114.4c0.1,63.2,51.7,114.8,114.9,114.9c63.6,0.1,115.1-51.5,115.1-115.1C173.9,51,122.3-0.7,59.1-0.7z
		 M105.1,173.2l-16,42.5c-9.6,2.8-19.6,4.3-30.1,4.3s-20.5-1.5-30.1-4.3l-15.2-40.9l-41.2,0.4c-11.3-16-18.3-35.4-19.2-56.3
		L-10,90.8l-15.1-40.7C-13,34.3,3.2,22.2,22,15.1l37.4,26.7L96,15.1c18.9,7.1,35,19.2,47.1,35l-16.7,42.3l38.4,26.6
		c-0.9,20.9-7.9,40.3-19.2,56.3L105.1,173.2z M59.4,76.1l-37.6,30.2l13.1,46.5h47.4 M21.9,106.3l13.1,46.5h47.4 M21.9,106.3
		l13.1,46.5h47.4"/>
</g>
<g id="Layer_11" class="st0">
	<circle class="st6" cx="60.5" cy="114.8" r="110.5"/>
	<circle class="st7" cx="61.2" cy="62.1" r="22.2"/>
	<circle class="st7" cx="61.2" cy="168.2" r="22.2"/>
	<circle class="st7" cx="114.3" cy="115.1" r="22.2"/>
	<circle class="st7" cx="61.9" cy="115.5" r="9.7"/>
	<circle class="st7" cx="8.2" cy="115.1" r="22.2"/>
</g>
<g id="Layer_12" class="st0">
	<circle class="st7" cx="62.2" cy="125.6" r="32"/>
	<path class="st14" d="M-6,96.5C5.8,69.4,33.3,50.8,64.7,51.8c29.3,0.9,54,18.6,65.4,43.6"/>
	<path class="st14" d="M-48.3,78.8C-29.1,35.2,15.2,5.4,65.8,7c47,1.5,86.9,29.8,105.5,69.7"/>
	<path class="st14" d="M160.7,226H-36.2c-6.2,0-11.3-5.1-11.3-11.3v-71.6c0-6.2,5.1-11.3,11.3-11.3h196.9c6.2,0,11.3,5.1,11.3,11.3
		v71.6C172,220.9,166.9,226,160.7,226z"/>
</g>
<g id="Layer_13" class="st0">
	<g class="st15">
		<path class="st16" d="M144.4,6.6l-0.3-0.3L143.8,6c-5.6-5.3-24.9-6.9-30.4-6.5c-7.9,0.6-12.6,6.6-16.1,11c-0.7,0.9-1.8,2.3-2.5,3
			H31.6c-0.7-0.7-1.7-2-2.5-3C25.7,6.1,20.9,0.1,13-0.5C7.6-0.9-13.2,0.8-18.8,6l-0.3,0.3l-0.3,0.3c-58.2,61.8-38.4,132.9,1.4,144.1
			l0.2,0l20.3,6.1c1.2,0.2,2.4,0.3,3.5,0.3c7.5,0,13.8-3.8,17.9-10.9c3.4-5.8,4.8-12.8,5.8-17.8c0-0.2,0.1-0.5,0.1-0.7h66.6
			c0.1,0.3,0.1,0.5,0.1,0.7c1,5.1,2.4,12,5.8,17.8c4.1,7.1,10.4,10.9,17.9,10.9c1.1,0,2.3-0.1,3.5-0.3l21.8-6.1l0.2,0
			c8.8-1.7,15.1-6.8,20.4-13.1C187.8,112.4,186.4,56.3,144.4,6.6z M154,129.6c-8.7,9.2-32.3,12.8-32.3,12.8
			c-5.3,0.8-7.9-3.4-10.7-16.9c-0.4-2.1-0.8-4-1.3-5.5c-2-6.3-6.4-7-8.3-7H25c-1.8,0-6.3,0.7-8.3,7c-0.5,1.5-0.9,3.4-1.3,5.5
			c-2.7,13.5-5.3,17.7-10.7,16.9l-20-6.1c-5-1-19.1-14.4-24.2-29.8c0,0-13.2-42.5,31-90.1c2.5-2.3,19.7-2.3,20.4-2.3
			c1.4,0.1,4.1,3.4,5.7,5.4c3,3.8,6.8,8.5,12.7,8.5h65.7c6,0,9.7-4.7,12.7-8.5c1.6-2,4.2-5.3,5.7-5.4c0.8-0.1,16.5,0,19,2.3
			c39.7,47,31.6,87.2,31.6,87.2C162.9,114.6,158.7,124.7,154,129.6z"/>
	</g>
	<path class="st7" d="M32.3,73.3c0,2.3-1,4.4-2.5,6c-1.5,1.5-3.6,2.5-6,2.5h-6.7v5.2c0,4.6-3.8,8.4-8.4,8.4c-4.6,0-8.4-3.8-8.4-8.4
		v-5.2h-5.8c-4.6,0-8.4-3.8-8.4-8.4c0-4.6,3.8-8.4,8.4-8.4h5.8v-7.3c0-4.6,3.8-8.4,8.4-8.4c2.3,0,4.4,0.9,6,2.5
		c1.5,1.5,2.5,3.6,2.5,6v7.3h6.7C28.5,64.9,32.3,68.7,32.3,73.3z"/>
	<ellipse transform="matrix(0.7071 -0.7071 0.7071 0.7071 -3.6094 98.1923)" class="st7" cx="116.7" cy="53.5" rx="8.4" ry="8.4"/>
	<ellipse transform="matrix(0.7071 -0.7071 0.7071 0.7071 -11.6752 117.8279)" class="st7" cx="136.4" cy="73" rx="8.4" ry="8.4"/>
	<ellipse transform="matrix(0.7071 -0.7071 0.7071 0.7071 -23.8712 89.3704)" class="st7" cx="95.9" cy="73.5" rx="8.4" ry="8.4"/>
	
		<ellipse transform="matrix(0.7071 -0.7071 0.7071 0.7071 -32.5078 110.0578)" class="st7" cx="116.6" cy="94.3" rx="8.4" ry="8.4"/>
</g>
<g id="Layer_14" class="st0">
	<g class="st15">
		<path class="st16" d="M-5.4-1v38.2h-50.4v87.6c0,17.6,14.2,32,31.8,32.2c0.6,0,1.1,0,1.7-0.1l-0.1,0.1H122
			c17.8,0,32.2-14.4,32.2-32.2V-1H-5.4z M-23.5,143.7h-0.8c0.1,0,0.2,0,0.3,0c-10.2-0.3-18.5-8.7-18.5-18.9V50.4h37.1v74.4
			c0,10.3-8.2,18.7-18.5,18.9C-23.7,143.7-23.6,143.7-23.5,143.7z M141,124.8c0,10.4-8.5,18.9-18.9,18.9H7.9V12.3H141V124.8z"/>
	</g>
	<g class="st15">
		<path class="st17" d="M-21.8,157c-0.1,0-0.3,0-0.4,0h0.8C-21.5,157-21.6,157-21.8,157z"/>
	</g>
	<path class="st18" d="M63.1,68.8H36.4c-2.8,0-5-2.3-5-5V37.6c0-2.8,2.3-5,5-5h26.7c2.8,0,5,2.3,5,5v26.3
		C68.1,66.6,65.9,68.8,63.1,68.8z"/>
	<path class="st7" d="M119.5,46.2H95.6c-1.9,0-3.4-1.5-3.4-3.4v-5.3c0-1.9,1.5-3.4,3.4-3.4h23.9c1.9,0,3.4,1.5,3.4,3.4v5.3
		C122.9,44.6,121.4,46.2,119.5,46.2z"/>
	<path class="st7" d="M119.5,71.1H95.6c-1.9,0-3.4-1.5-3.4-3.4v-5.3c0-1.9,1.5-3.4,3.4-3.4h23.9c1.9,0,3.4,1.5,3.4,3.4v5.3
		C122.9,69.6,121.4,71.1,119.5,71.1z"/>
	<path class="st7" d="M116.8,104H32.5c-3.4,0-6.1-2.7-6.1-6.1l0,0c0-3.4,2.7-6.1,6.1-6.1h84.3c3.4,0,6.1,2.7,6.1,6.1l0,0
		C122.9,101.2,120.2,104,116.8,104z"/>
	<path class="st7" d="M116.8,130H32.5c-3.4,0-6.1-2.7-6.1-6.1l0,0c0-3.4,2.7-6.1,6.1-6.1h84.3c3.4,0,6.1,2.7,6.1,6.1l0,0
		C122.9,127.2,120.2,130,116.8,130z"/>
</g>
<g id="Layer_15" class="st0">
	<path class="st19" d="M114.1,91c0,33.2-30,60-66.9,60s-66.9-26.9-66.9-60c0-21.7,12.9-40.7,32.1-51.3c10.2-5.6,22.1-8.8,34.8-8.8
		c13.3,0,25.7,3.5,36.1,9.5C101.8,51.1,114.1,69.7,114.1,91z"/>
	<path class="st20" d="M56.7,89.8c0-7.3,5.9,0.2,13.2,0.2s13.2-7.5,13.2-0.2c0,7.3-5.9,13.2-13.2,13.2S56.7,97.1,56.7,89.8z"/>
	<path class="st20" d="M11.1,89.8c0-7.3,5.7,0.2,13,0.2s13.5-7.5,13.5-0.2c0,7.3-5.9,13.2-13.2,13.2S11.1,97.1,11.1,89.8z"/>
	<path class="st21" d="M39.8,26.2c13.3-0.4,29.1,2.2,40.4,7.4c-0.5,1-5.4,8.6-6.1,9.5c-0.6,0.7-1.3,1.6-2.1,2.5
		c0.9,1,1.6,1.9,2.2,2.7c6.4,8.3,9.9,25.1,1.6,31.6c-8.3,6.4-25.1,0-31.6-8.3c-1-1.3-2.2-2.9-3.6-4.9c0.1-0.2,0.2-0.4,0.4-0.6
		c0.8,0,1.5-0.1,2.3-0.3c-0.8,0.2-1.5,0.2-2.3,0.3c-0.2,0-0.4,0-0.6,0c-0.1,0-0.1,0-0.2,0c-0.9,0-1.7-0.1-2.6-0.3
		c0.9,0.2,1.7,0.3,2.6,0.3c0.1,0.2,0.2,0.4,0.4,0.5c-1.3,2-2.6,3.6-3.6,4.9C30.8,79.9,9,91.2,0.7,84.8c-8.3-6.4,0.2-28.2,6.6-36.5
		c0.6-0.7,1.3-1.6,2.1-2.5c-0.9-1-1.6-1.9-2.2-2.7l-3-3.9C4.2,39.3,23.7,26.7,39.8,26.2z"/>
	<path class="st22" d="M75.4,73.2c-6.5,5.1-19.7,0-24.8-6.5c-0.8-1-1.7-2.3-2.8-3.9c0.1-0.1,0.2-0.3,0.3-0.4c0.6,0,1.2-0.1,1.8-0.2
		c-0.6,0.1-1.2,0.2-1.8,0.2c-0.1,0-0.3,0-0.4,0c-0.1,0-0.1,0-0.2,0c-0.7,0-1.4-0.1-2.1-0.2c0.7,0.2,1.4,0.2,2.1,0.2
		c0.1,0.1,0.2,0.3,0.3,0.4c-1,1.5-2,2.9-2.8,3.9c-5,6.5-22.2,15.4-28.6,10.4c-6.5-5,0.1-22.2,5.2-28.6c0.4-0.6,1-1.2,1.6-1.9
		c-0.7-0.8-1.3-1.5-1.7-2.1c-5.1-6.5-5.5-17.4,1-22.5c6.5-5,17.4-2.3,22.5,4.2c0.8,1,1.7,2.3,2.8,3.9c-0.1,0.1-0.2,0.3-0.3,0.4
		c-0.6,0-1.2,0.1-1.8,0.2c0.6-0.1,1.2-0.2,1.8-0.2c0.1,0,0.3,0,0.4,0c0.1,0,0.1,0,0.2,0c0.7,0,1.3,0.1,2,0.2c-0.7-0.2-1.3-0.2-2-0.2
		c-0.1-0.1-0.2-0.3-0.3-0.4c1-1.5,2-2.9,2.8-3.9c5.1-6.5,14.4-7.6,20.9-2.6c6.5,5.1,7.6,14.4,2.6,20.9c-0.4,0.6-1,1.2-1.6,1.9
		c0.7,0.8,1.3,1.5,1.8,2.1C79.1,54.9,81.9,68.2,75.4,73.2z"/>
	<path class="st23" d="M64.1,63.7c-3.9,3.1-12,0-15.1-3.9c-0.5-0.6-1.1-1.4-1.7-2.3c0.1-0.1,0.1-0.2,0.2-0.3c0.4,0,0.7-0.1,1.1-0.1
		c-0.4,0.1-0.7,0.1-1.1,0.1c-0.1,0-0.2,0-0.3,0c0,0-0.1,0-0.1,0c-0.4,0-0.8-0.1-1.3-0.1c0.4,0.1,0.8,0.1,1.3,0.1
		c0.1,0.1,0.1,0.2,0.2,0.3c-0.6,0.9-1.2,1.7-1.7,2.3c-3.1,4-13.5,9.4-17.5,6.3c-3.9-3.1,0.1-13.5,3.2-17.5c0.3-0.4,0.6-0.7,1-1.2
		c-0.4-0.5-0.8-0.9-1.1-1.3c-3.1-4-3.3-10.6,0.6-13.7c4-3.1,10.6-1.4,13.7,2.6c0.5,0.6,1.1,1.4,1.7,2.3c-0.1,0.1-0.1,0.2-0.2,0.3
		c-0.4,0-0.7,0.1-1.1,0.1c0.4-0.1,0.7-0.1,1.1-0.1c0.1,0,0.2,0,0.3,0c0,0,0.1,0,0.1,0c0.4,0,0.8,0.1,1.2,0.1
		c-0.4-0.1-0.8-0.1-1.2-0.1c-0.1-0.1-0.1-0.2-0.2-0.3c0.6-0.9,1.2-1.7,1.7-2.3c3.1-3.9,8.8-4.7,12.7-1.6c4,3.1,4.7,8.8,1.6,12.7
		c-0.3,0.4-0.6,0.7-1,1.2c0.4,0.5,0.8,0.9,1.1,1.3C66.4,52.6,68,60.6,64.1,63.7z"/>
	<path class="st24" d="M72.9,22.5c-0.7,0.5-1.5,1-2.1,1.5C54.2,36.5,54.8,51.7,44.4,47.3c-0.2-0.1-0.3-0.1-0.5-0.2
		c-12.5-5.8-3.5-29.9,0.1-37.9c3.7-8,13.1-11.4,21.1-7.7C73.1,5.1,80.1,17.6,72.9,22.5z"/>
	<path class="st25" d="M70.7,24.1C54.2,36.5,54.8,51.7,44.4,47.3c1.4-6.3,3.8-12.3,5.3-15.5C53.4,23.9,62.8,20.4,70.7,24.1z"/>
	
		<ellipse transform="matrix(0.9721 -0.2345 0.2345 0.9721 -15.0718 25.9106)" class="st26" cx="101.4" cy="76.3" rx="12.3" ry="16.7"/>
	<path class="st27" d="M79.1,129.7c-11.1,1.7-21,0.3-27.6-3.6c-2.5-1.5-3.8-3.7-4.2-6c-0.4,2.3-1.7,4.6-4.2,6
		c-6.6,3.9-16.5,5.3-27.6,3.6C-4.1,126.6-0.7,110-0.7,110s-1.6,18.2,18.6,6.2c8.2-4.9,15.3-6.3,20.8-6.3c4.9,0,8,3.5,8.6,7.4
		c0.6-3.9,3.8-7.4,8.6-7.4c5.5,0,12.6,1.4,20.8,6.3c20.1,12,18.6-6.2,18.6-6.2S98.8,126.6,79.1,129.7z"/>
</g>
<g id="Layer_16" class="st0">
	<path class="st28" d="M114.2,90.9c0,33.2-30,60.2-67.1,60.2S-20,124.2-20,90.9c0-21.8,12.9-40.8,32.2-51.4
		c10.2-5.6,22.1-8.8,34.9-8.8c13.3,0,25.8,3.5,36.2,9.5C101.9,50.9,114.2,69.6,114.2,90.9z"/>
	<path class="st20" d="M37.5,104.2c0,7.3-5.9-0.2-13.3-0.2S11,111.5,11,104.2c0-7.3,5.9-13.3,13.3-13.3S37.5,96.9,37.5,104.2z"/>
	<path class="st20" d="M83.3,104.2c0,7.3-5.7-0.2-13.1-0.2s-13.5,7.6-13.5,0.2c0-7.3,5.9-13.3,13.3-13.3S83.3,96.9,83.3,104.2z"/>
	<path class="st21" d="M39.7,26c13.3-0.4,29.2,2.2,40.5,7.4c-0.5,1-5.4,8.7-6.1,9.5c-0.6,0.7-1.3,1.6-2.1,2.5c0.9,1,1.6,1.9,2.2,2.7
		c6.4,8.3,9.9,25.2,1.6,31.6c-8.3,6.5-25.2,0-31.6-8.3c-1-1.3-2.2-3-3.6-4.9c0.1-0.2,0.2-0.4,0.4-0.6c0.8,0,1.6-0.1,2.3-0.3
		c-0.8,0.2-1.5,0.2-2.3,0.3c-0.2,0-0.4,0-0.6,0c-0.1,0-0.1,0-0.2,0c-0.9,0-1.7-0.1-2.6-0.3c0.9,0.2,1.7,0.3,2.6,0.3
		c0.1,0.2,0.2,0.4,0.4,0.5c-1.3,2-2.6,3.6-3.6,4.9C30.7,79.8,8.8,91.2,0.5,84.8c-8.3-6.4,0.2-28.3,6.6-36.6c0.6-0.7,1.3-1.6,2.1-2.5
		c-0.9-1-1.6-1.9-2.2-2.7l-3-3.9C4,39.1,23.6,26.5,39.7,26z"/>
	<path class="st22" d="M75.4,73.1c-6.5,5.1-19.8,0-24.8-6.5c-0.8-1-1.8-2.3-2.8-3.9c0.1-0.1,0.2-0.3,0.3-0.4c0.6,0,1.2-0.1,1.8-0.2
		c-0.6,0.1-1.2,0.2-1.8,0.2c-0.1,0-0.3,0-0.4,0c-0.1,0-0.1,0-0.2,0c-0.7,0-1.4-0.1-2.1-0.2c0.7,0.2,1.4,0.2,2.1,0.2
		c0.1,0.1,0.2,0.3,0.3,0.4c-1.1,1.5-2,2.9-2.8,3.9C39.9,73.1,22.7,82.1,16.2,77c-6.5-5.1,0.1-22.2,5.2-28.7c0.4-0.6,1-1.2,1.6-1.9
		c-0.7-0.8-1.3-1.5-1.8-2.1c-5.1-6.5-5.5-17.5,1-22.6c6.5-5.1,17.4-2.3,22.5,4.2c0.8,1,1.7,2.3,2.8,3.9c-0.1,0.1-0.2,0.3-0.3,0.4
		c-0.6,0-1.2,0.1-1.8,0.2c0.6-0.1,1.2-0.2,1.8-0.2c0.1,0,0.3,0,0.4,0c0.1,0,0.1,0,0.2,0c0.7,0,1.4,0.1,2.1,0.2
		c-0.7-0.2-1.4-0.2-2.1-0.2c-0.1-0.1-0.2-0.3-0.3-0.4c1.1-1.5,2-2.9,2.8-3.9c5.1-6.5,14.4-7.7,20.9-2.6c6.5,5.1,7.7,14.4,2.6,20.9
		c-0.4,0.6-1,1.2-1.6,1.9c0.7,0.8,1.3,1.5,1.8,2.1C79.1,54.8,81.9,68.1,75.4,73.1z"/>
	<path class="st23" d="M64,63.6c-4,3.1-12.1,0-15.1-4c-0.5-0.6-1.1-1.4-1.7-2.4c0.1-0.1,0.1-0.2,0.2-0.3c0.4,0,0.7-0.1,1.1-0.1
		C48.1,57,47.7,57,47.4,57c-0.1,0-0.2,0-0.3,0c0,0-0.1,0-0.1,0c-0.4,0-0.8-0.1-1.3-0.1c0.4,0.1,0.8,0.1,1.3,0.1
		c0.1,0.1,0.1,0.2,0.2,0.3c-0.6,0.9-1.2,1.7-1.7,2.4c-3.1,4-13.5,9.4-17.5,6.3c-4-3.1,0.1-13.5,3.2-17.5c0.3-0.4,0.6-0.7,1-1.2
		c-0.4-0.5-0.8-0.9-1.1-1.3c-3.1-4-3.3-10.7,0.6-13.7c4-3.1,10.6-1.4,13.7,2.6c0.5,0.6,1.1,1.4,1.7,2.4c-0.1,0.1-0.1,0.2-0.2,0.3
		c-0.4,0-0.7,0.1-1.1,0.1c0.4-0.1,0.7-0.1,1.1-0.1c0.1,0,0.2,0,0.3,0c0,0,0.1,0,0.1,0c0.4,0,0.8,0.1,1.3,0.1
		c-0.4-0.1-0.8-0.1-1.3-0.1c-0.1-0.1-0.1-0.2-0.2-0.3c0.6-0.9,1.2-1.7,1.7-2.4c3.1-4,8.8-4.7,12.8-1.6c4,3.1,4.7,8.8,1.6,12.8
		c-0.3,0.4-0.6,0.7-1,1.2c0.4,0.5,0.8,0.9,1.1,1.3C66.3,52.4,68,60.5,64,63.6z"/>
	<path class="st24" d="M72.7,22.5c-0.7,0.5-1.5,1-2.1,1.5C54.1,36.4,54.7,51.6,44.3,47.2C44.1,47.1,44,47,43.8,47
		c-12.4-5.7-3.5-29.9,0.1-37.8c3.7-7.9,13.1-11.4,21-7.7C72.9,5.1,79.9,17.6,72.7,22.5z"/>
	<path class="st25" d="M70.5,24C54.1,36.4,54.7,51.6,44.3,47.2c1.4-6.3,3.8-12.2,5.3-15.5C53.2,23.8,62.6,20.3,70.5,24z"/>
	
		<ellipse transform="matrix(0.9721 -0.2345 0.2345 0.9721 -15.055 25.9242)" class="st26" cx="101.5" cy="76.3" rx="12.3" ry="16.8"/>
</g>
<g id="Layer_17">
	<path class="st29" d="M103,142.9l-11.3-7.5c-2.3-1.6-5.5-1.3-7.5,0.7l-19.4,11.2c-0.7,0.4-1.4,0.9-2.1,1.4c-2.1,1.5-4.8,1.4-6.9,0
		c-0.7-0.5-1.4-1-2.1-1.4l-18.9-11.2c-2-2-5.1-2.3-7.5-0.7l-11.8,7.7c-4,2.6-9.3-0.3-9.3-5V53.6c0-26,21.3-47.3,47.3-47.3H65
		c26,0,47.3,21.3,47.3,47.3V138C112.3,142.7,107,145.6,103,142.9z"/>
	<path class="st30" d="M103.2,143.2l-11.3-7.5c-2.3-1.6-5.5-1.3-7.5,0.7l-19.4,11.2c-0.7,0.4-1.4,0.9-2.1,1.4
		c-2.1,1.5-4.8,1.4-6.9,0c-0.7-0.5-1.4-1-2.1-1.4l-18.9-11.2c-2-2-5.1-2.3-7.5-0.7l-11.8,7.7c-4,2.6-9.3-0.3-9.3-5v-8.8
		c0-26,52.2-47.3,78.2-47.3h11.4c26,0,16.5,21.3,16.5,47.3v8.7C112.6,143,107.2,145.9,103.2,143.2z"/>
	<g>
		<path class="st31" d="M59.3,156c-2.5,0-5-0.8-7.1-2.3l-0.3-0.2c-0.5-0.4-1-0.7-1.3-0.9L31,141.1l-0.4-0.4l-11.7,7.6
			c-3.8,2.5-8.5,2.7-12.5,0.5c-3.9-2.1-6.4-6.3-6.4-10.7V53.6C0,24,24,0,53.6,0H65c29.5,0,53.6,24,53.6,53.6V138
			c0,4.5-2.5,8.6-6.5,10.8c-4,2.1-8.8,1.9-12.5-0.6v0l-11.2-7.4l-0.4,0.4l-20,11.6c-0.4,0.2-0.9,0.6-1.4,0.9l-0.2,0.1
			C64.2,155.3,61.8,156,59.3,156z M38.5,131.1l18.4,10.8c0.9,0.5,1.6,1,2.3,1.5l0.1,0.1l0.1,0c0.7-0.5,1.4-1,2.3-1.5L80.5,131
			c4.1-3.4,10.1-3.8,14.6-0.8l11,7.3v-84c0-22.7-18.4-41.1-41.1-41.1H53.6c-22.7,0-41.1,18.4-41.1,41.1v84.1l11.5-7.5
			C28.4,127.2,34.4,127.6,38.5,131.1z"/>
	</g>
	<circle class="st32" cx="28.7" cy="65.5" r="12.7"/>
	<circle class="st32" cx="68.9" cy="65.5" r="12.7"/>
</g>
</svg>
